<?xml version="1.0" encoding="utf-8"?>
<!-- Generator: Adobe Illustrator 16.0.0, SVG Export Plug-In . SVG Version: 6.00 Build 0)  -->
<!DOCTYPE svg PUBLIC "-//W3C//DTD SVG 1.1//EN" "http://www.w3.org/Graphics/SVG/1.1/DTD/svg11.dtd">
<svg version="1.1" id="advertising" xmlns="http://www.w3.org/2000/svg" xmlns:xlink="http://www.w3.org/1999/xlink" x="0px"
	 y="0px" width="65px" height="65px" viewBox="0 0 65 65" enable-background="new 0 0 65 65" xml:space="preserve">
<g>
	<path fill="#FFFFFF" d="M34.206,3.691V1.695c0-0.867-0.694-1.559-1.546-1.559c-0.857,0-1.553,0.692-1.553,1.559v1.997H3.985v8.01
		h57.348v-8.01H34.206z"/>
	<g>
		<path fill="#FFFFFF" d="M56.683,46.065V14.029H8.628v32.036h21.104v9.946h-5.584v-1.428h-2.837l-4.087,10.597h2.837l2.044-5.295
			h21.391l2.046,5.295h2.842l-4.087-10.597h-2.843v1.428h-5.866v-9.946H56.683z M10.271,44.41l0-28.826L55,15.547v28.828
			L10.271,44.41z"/>
		<polygon fill="#FFFFFF" points="44.853,26.775 42.346,31.169 38.797,29.139 38.802,29.134 31.128,24.745 29.709,27.233 
			27.275,31.336 20.308,27.103 18.502,30.073 18.486,30.068 11.275,41.37 14.41,43.55 21.354,32.212 25.329,34.629 25.329,34.641 
			28.616,36.588 32.535,29.955 36.048,31.968 36.042,31.974 43.712,36.368 43.741,36.32 43.788,36.344 47.535,29.794 47.535,29.794 
			51.919,22.119 48.598,20.219 		"/>
	</g>
	<polygon fill="#FFFFFF" points="51.967,18.254 46.328,20.369 52.672,24.042 	"/>
	<path fill="#FFFFFF" d="M67.643,18.033"/>
</g>
</svg>
