<?xml version="1.0" encoding="utf-8"?>
<!-- Generator: Adobe Illustrator 16.0.0, SVG Export Plug-In . SVG Version: 6.00 Build 0)  -->
<!DOCTYPE svg PUBLIC "-//W3C//DTD SVG 1.1//EN" "http://www.w3.org/Graphics/SVG/1.1/DTD/svg11.dtd">
<svg version="1.1" id="designIcon" xmlns="http://www.w3.org/2000/svg" xmlns:xlink="http://www.w3.org/1999/xlink" x="0px" y="0px"
	 width="65px" height="65px" viewBox="0 0 65 65" enable-background="new 0 0 65 65" xml:space="preserve">
<g>
	<path fill="#FFFFFF" d="M59.796,0.634H5.453c-2.311,0-4.187,1.885-4.187,4.21v38.605c0,2.327,1.875,4.212,4.187,4.212h20.845
		c0,0,0.909,8.427-6.318,8.427v4.216h6.318H38.94h6.322v-4.216c-7.506,0-6.322-8.427-6.322-8.427h20.855
		c2.308,0,4.182-1.885,4.182-4.212V4.844C63.978,2.519,62.104,0.634,59.796,0.634z M29.286,42.508c0-1.997,1.619-3.615,3.617-3.615
		c1.997,0,3.613,1.618,3.613,3.615c0,1.996-1.616,3.616-3.613,3.616C30.905,46.124,29.286,44.504,29.286,42.508z M59.499,37.667
		H5.75V5.11h53.75V37.667z"/>
	<path fill="#FFFFFF" d="M35.188,42.492c0-1.241-1.008-2.247-2.246-2.247c-1.245,0-2.245,1.006-2.245,2.247
		c0,1.242,1,2.247,2.245,2.247C34.18,44.739,35.188,43.734,35.188,42.492z"/>
</g>
<g>
	<path fill="#FFFFFF" d="M26.627,9.483c-0.143-0.068-0.306-0.047-0.429,0.048L9.115,21.498c-0.194,0.152-0.194,0.479,0,0.635
		l17.083,11.966c0.123,0.093,0.286,0.115,0.429,0.048c0.135-0.068,0.222-0.21,0.222-0.367v-3.195l-11.816-8.451
		c-0.194-0.156-0.194-0.482,0-0.635l11.816-8.454V9.846C26.849,9.695,26.762,9.553,26.627,9.483z"/>
	<path fill="#FFFFFF" d="M56.641,21.709L39.558,9.744c-0.12-0.096-0.287-0.116-0.433-0.049c-0.136,0.068-0.218,0.21-0.218,0.364v3.2
		l11.814,8.45c0.195,0.155,0.195,0.478,0,0.636l-11.814,8.451v3.196c0,0.157,0.082,0.297,0.218,0.363
		c0.146,0.072,0.313,0.049,0.433-0.043l17.083-11.967C56.837,22.187,56.837,21.865,56.641,21.709z"/>
</g>
<polygon fill="#FFFFFF" points="38.358,7 30.232,36 27.587,36 35.807,7 "/>
</svg>
