<?xml version="1.0" encoding="utf-8"?>
<!-- Generator: Adobe Illustrator 16.0.0, SVG Export Plug-In . SVG Version: 6.00 Build 0)  -->
<!DOCTYPE svg PUBLIC "-//W3C//DTD SVG 1.1//EN" "http://www.w3.org/Graphics/SVG/1.1/DTD/svg11.dtd">
<svg version="1.1" id="Layer_1" xmlns="http://www.w3.org/2000/svg" xmlns:xlink="http://www.w3.org/1999/xlink" x="0px" y="0px"
	 width="65px" height="65px" viewBox="0 0 65 65" enable-background="new 0 0 65 65" xml:space="preserve">
<g>
	<path fill-rule="evenodd" clip-rule="evenodd" fill="#FFFFFF" d="M0.769,0.416c3.497,0,6.793-0.023,10.088,0.038
		c0.327,0.006,0.822,0.47,0.936,0.82c0.648,1.995,1.274,4.004,1.768,6.042c0.268,1.11,0.712,1.481,1.909,1.477
		C30.934,8.743,46.398,8.76,61.864,8.76c0.527,0,1.056,0,1.761,0c-0.101,1.294-0.187,2.466-0.284,3.637
		c-0.461,5.503-0.938,11.006-1.374,16.511c-0.062,0.773-0.291,1.104-1.123,1.247c-13.605,2.337-27.202,4.718-40.801,7.087
		c-1.854,0.324-2.831,1.465-2.719,3.197c0.128,1.988,1.275,3.096,3.249,3.1c7.422,0.018,14.845,0.023,22.267,0.039
		c5.896,0.014,11.793,0.033,17.689,0.053c0.401,0.002,0.802,0.039,1.267,0.063c0,2,0,3.918,0,5.936
		c-0.426,0.025-0.822,0.068-1.22,0.068c-13.897-0.002-27.795-0.006-41.693-0.016c-3.789-0.004-6.562-1.842-7.915-5.219
		c-1.427-3.557-0.685-7.848,1.871-10.211c0.645-0.596,0.782-1.068,0.552-1.901c-2.356-8.539-4.68-17.085-6.968-25.643
		C6.175,5.781,5.776,5.486,4.821,5.509c-2.472,0.06-2.475,0.012-3.207-2.331C1.347,2.319,1.087,1.457,0.769,0.416z"/>
	<path fill-rule="evenodd" clip-rule="evenodd" fill="#FFFFFF" d="M23.343,65.008c-3.767,0.021-6.936-3.094-6.977-6.859
		c-0.046-4.117,3.026-7.191,7.243-7.246c3.484-0.047,6.703,3.283,6.774,7.01C30.458,61.713,27.212,64.984,23.343,65.008z"/>
	<path fill-rule="evenodd" clip-rule="evenodd" fill="#FFFFFF" d="M61.137,57.943c0.015,3.916-3.101,7.049-7.025,7.064
		c-3.873,0.016-7.028-3.262-6.991-7.262c0.036-3.777,3.327-6.861,7.313-6.852C57.981,50.904,61.124,54.207,61.137,57.943z"/>
</g>
</svg>
