<?xml version="1.0" encoding="utf-8"?>
<!-- Generator: Adobe Illustrator 16.0.0, SVG Export Plug-In . SVG Version: 6.00 Build 0)  -->
<!DOCTYPE svg PUBLIC "-//W3C//DTD SVG 1.1//EN" "http://www.w3.org/Graphics/SVG/1.1/DTD/svg11.dtd">
<svg version="1.1" id="maintenanceIcon" xmlns="http://www.w3.org/2000/svg" xmlns:xlink="http://www.w3.org/1999/xlink" x="0px"
	 y="0px" width="65px" height="65px" viewBox="0 0 65 65" enable-background="new 0 0 65 65" xml:space="preserve">
<g>
	<path fill="#FFFFFF" d="M39.977,37.947c0,0,6.322-2.439,6.322-2.774v-4.949c0-0.342-6.337-2.593-6.337-2.593l-1.165-2.764
		c0,0,2.707-6.106,2.47-6.34l-3.583-3.498c-0.246-0.24-6.354,2.547-6.354,2.547l-2.819-1.138c0,0-2.488-6.19-2.829-6.19h-5.057
		c-0.351,0-2.655,6.203-2.655,6.203l-2.812,1.142c0,0-6.238-2.65-6.476-2.412l-3.577,3.5c-0.248,0.242,2.602,6.223,2.602,6.223
		l-1.165,2.757c0,0-6.32,2.437-6.32,2.764v4.956c0,0.348,6.336,2.603,6.336,2.603l1.161,2.754c0,0-2.704,6.103-2.466,6.335
		l3.58,3.507c0.242,0.237,6.352-2.551,6.352-2.551l2.821,1.14c0,0,2.488,6.187,2.831,6.187h5.058c0.348,0,2.655-6.201,2.655-6.201
		l2.822-1.14c0,0,6.222,2.646,6.464,2.414l3.581-3.501c0.25-0.245-2.603-6.224-2.603-6.224L39.977,37.947z M23.26,40.03
		c-4.067,0-7.386-3.241-7.386-7.228c0-3.984,3.318-7.223,7.386-7.223c4.07,0,7.384,3.238,7.384,7.223
		C30.645,36.789,27.331,40.03,23.26,40.03z"/>
	<path fill="#FFFFFF" d="M62.433,43.188l-0.206-1.434c0,0,1.938-2.586,1.854-2.721l-1.213-2.061
		c-0.081-0.144-3.174,0.497-3.174,0.497l-1.146-0.856c0,0-0.405-3.204-0.561-3.244l-2.291-0.566
		c-0.161-0.04-1.932,2.639-1.932,2.639l-1.409,0.222c0,0-2.519-1.947-2.652-1.866l-2.034,1.259
		c-0.137,0.087,0.458,3.231,0.458,3.231l-0.853,1.176c0,0-3.153,0.442-3.193,0.604l-0.574,2.345
		c-0.041,0.161,2.573,1.938,2.573,1.938l0.205,1.438c0,0-1.938,2.573-1.862,2.712l1.214,2.06c0.085,0.146,3.179-0.497,3.179-0.497
		l1.145,0.854c0,0,0.407,3.213,0.561,3.25l2.294,0.568c0.158,0.036,1.925-2.642,1.925-2.642l1.413-0.22c0,0,2.517,1.949,2.654,1.864
		l2.03-1.261c0.141-0.084-0.456-3.228-0.456-3.228l0.849-1.181c0,0,3.157-0.438,3.192-0.599l0.577-2.343
		C65.042,44.967,62.433,43.188,62.433,43.188z M57.6,44.596c-0.465,1.882-2.347,3.049-4.188,2.597
		c-1.847-0.458-2.968-2.365-2.503-4.251c0.465-1.885,2.342-3.049,4.19-2.593C56.948,40.805,58.065,42.708,57.6,44.596z"/>
	<circle fill="#FFFFFF" cx="23.26" cy="32.803" r="3.88"/>
</g>
</svg>
