<?xml version="1.0" encoding="utf-8"?>
<!-- Generator: Adobe Illustrator 16.0.0, SVG Export Plug-In . SVG Version: 6.00 Build 0)  -->
<!DOCTYPE svg PUBLIC "-//W3C//DTD SVG 1.1//EN" "http://www.w3.org/Graphics/SVG/1.1/DTD/svg11.dtd">
<svg version="1.1" id="magnifying_glass" xmlns="http://www.w3.org/2000/svg" xmlns:xlink="http://www.w3.org/1999/xlink" x="0px"
	 y="0px" width="65px" height="65px" viewBox="0 0 65 65" enable-background="new 0 0 65 65" xml:space="preserve">
<g>
	<path fill="#FFFFFF" d="M7.788,35.915c7.484,7.438,19.246,7.937,27.313,1.537c1.152-0.844,1.682-1.416,3.039-2.971l0.072-0.077
		c6.717-8.12,6.246-20.168-1.377-27.738C28.763-1.354,15.707-1.307,7.694,6.773C-0.333,14.845-0.286,27.895,7.788,35.915z
		 M11.349,10.404c6.012-6.051,15.804-6.099,21.856-0.081c6.059,6.019,6.09,15.803,0.072,21.862
		c-6.012,6.055-15.802,6.096-21.857,0.073C5.364,26.248,5.329,16.455,11.349,10.404z"/>
	<polygon fill="#FFFFFF" points="65,59.233 59.807,64.859 37.357,40.515 41.098,36.763 	"/>
</g>
</svg>
