<?xml version="1.0" encoding="utf-8"?>
<!-- Generator: Adobe Illustrator 16.0.0, SVG Export Plug-In . SVG Version: 6.00 Build 0)  -->
<!DOCTYPE svg PUBLIC "-//W3C//DTD SVG 1.1//EN" "http://www.w3.org/Graphics/SVG/1.1/DTD/svg11.dtd">
<svg version="1.1" id="socialMediaIcon" xmlns="http://www.w3.org/2000/svg" xmlns:xlink="http://www.w3.org/1999/xlink" x="0px"
	 y="0px" width="65px" height="65px" viewBox="0 0 65 65" enable-background="new 0 0 65 65" xml:space="preserve">
<g>
	<circle fill="#FFFFFF" cx="12.018" cy="30.313" r="1.164"/>
	<path fill="#FFFFFF" d="M40.469,18.189c-2.847-5.659-10.5-9.72-19.518-9.72c-11.448,0-20.727,6.53-20.727,14.584
		c0,5.687,4.633,10.601,11.377,13.006c0.313,1.646-0.165,4.598-4.806,8.815c0,0,9.7-2.643,15.417-7.168
		c0.05-0.04,0.104-0.075,0.154-0.118c10.782-0.514,19.309-6.816,19.309-14.535C41.676,21.346,41.238,19.711,40.469,18.189z
		 M15,29.894v0.293V32.5l-6-0.022v-2.396v-0.25V19.569l6,0.028V29.894z M31,30H20v-1h-2v-8.375c7,0,6.565-8.625,6.565-8.625H27v7h4
		V30z"/>
</g>
<path fill="#FFFFFF" d="M64.777,34.708c0-8.055-9.279-14.583-20.728-14.583c-0.406,0-0.804,0.027-1.206,0.043
	c0.769,1.521,1.206,3.157,1.206,4.864c0,0.902-0.127,1.782-0.35,2.638c3.958,0.001,7.915,0.007,11.873-0.008
	c0.648-0.002,1.315,0.37,1.306,1.197C56.85,31.372,57,33.885,57,36.396C57,36.492,57,37,57,37c1,0,2.604,0,4.074,0
	c-0.081,0-0.118,0.033-0.167,0.084c-1.827,2.008-3.656,3.942-5.482,5.952c-0.13,0.141-0.222,0.214-0.407,0.007
	c-1.854-2.047-3.719-3.97-5.578-6.013c-0.025-0.027-0.043-0.03-0.1-0.03c0.887,0,1.719,0,2.551,0c0.505,0,1.009-0.138,1.513-0.13
	c0.166,0.002,0.247-0.106,0.246-0.292c-0.006-1.863-0.005-3.656-0.006-5.519c0-0.028-0.012-0.06-0.029-0.06
	c-0.104,0-0.215,0-0.328,0c-2.677,0-5.354-0.106-8.031-0.096c-0.282,0.001-0.483-0.12-0.683-0.328
	c-0.447-0.47-0.903-0.958-1.357-1.421c-0.39,0.938-0.912,1.823-1.549,2.672c0.646,0.707,1.289,1.363,1.934,2.071
	C43.63,33.932,43.651,34,43.707,34c-1.409,0-2.776,0-4.159,0C39.508,34,39,34.16,39,34.196c0,1.942,0,3.854,0,5.804
	c1,0.01,0.488,0.031,0.629,0.031c2.707,0.002,5.518,0.006,8.224-0.006c0.292,0,0.552,0.07,0.758,0.287
	c0.889,0.934,1.821,1.771,2.722,2.693C51.323,43.029,51.342,43,51.334,43c-0.104,0-0.208,0-0.312,0c-4.5,0-9.001,0-13.501,0
	C36.633,43,36,42.799,36,41.898c0-1.837,0-3.675,0-5.513c-3,1.811-7.042,2.975-11.399,3.183c-0.049,0.042-0.032,0.076-0.084,0.116
	c2.742,5.298,9.747,9.163,18.082,9.561c5.693,4.601,15.588,7.285,15.588,7.285c-4.641-4.218-5.108-7.17-4.797-8.814
	C60.135,45.308,64.777,40.396,64.777,34.708z"/>
</svg>
