<?xml version="1.0" encoding="utf-8"?>
<!-- Generator: Adobe Illustrator 16.0.0, SVG Export Plug-In . SVG Version: 6.00 Build 0)  -->
<!DOCTYPE svg PUBLIC "-//W3C//DTD SVG 1.1//EN" "http://www.w3.org/Graphics/SVG/1.1/DTD/svg11.dtd">
<svg version="1.1" id="Layer_1" xmlns="http://www.w3.org/2000/svg" xmlns:xlink="http://www.w3.org/1999/xlink" x="0px" y="0px"
	 width="65px" height="65px" viewBox="0 0 65 65" enable-background="new 0 0 65 65" xml:space="preserve">
<g>
	<path fill-rule="evenodd" clip-rule="evenodd" fill="#FFFFFF" d="M65,30.811c0,1.125,0,2.254,0,3.379
		c-0.044,0.209-0.11,0.418-0.124,0.628c-0.286,4.304-1.358,8.409-3.366,12.222c-5.192,9.858-13.287,15.755-24.307,17.573
		c-1,0.165-2.009,0.261-3.014,0.388c-1.125,0-2.254,0-3.379,0c-0.211-0.044-0.418-0.11-0.629-0.124
		c-4.261-0.279-8.328-1.332-12.106-3.307C8.155,56.387,2.216,48.273,0.387,37.201C0.223,36.203,0.127,35.194,0,34.189
		c0-1.125,0-2.254,0-3.379c0.042-0.21,0.111-0.416,0.124-0.628c0.287-4.35,1.38-8.493,3.422-12.337
		C8.737,8.076,16.793,2.22,27.733,0.396c1.02-0.17,2.052-0.267,3.077-0.396c1.125,0,2.254,0,3.379,0
		c0.209,0.042,0.418,0.111,0.63,0.124c4.237,0.282,8.282,1.324,12.046,3.28C56.824,8.578,62.777,16.703,64.613,27.8
		C64.777,28.796,64.873,29.806,65,30.811z M14.563,18.789c3.557,10.58,7.076,21.045,10.595,31.51
		c0.179-0.118,0.216-0.196,0.242-0.276c2.047-6.129,4.098-12.258,6.123-18.393c0.091-0.274,0.027-0.644-0.076-0.928
		c-1.365-3.782-2.759-7.554-4.117-11.339c-0.178-0.5-0.45-0.644-0.943-0.666c-0.82-0.037-1.641-0.126-2.454-0.238
		c-0.682-0.093-1.023-0.563-0.964-1.223c0.06-0.657,0.485-1.073,1.146-1.089c0.301-0.007,0.604,0.046,0.907,0.054
		c3.18,0.081,6.36,0.204,9.54,0.218c1.687,0.007,3.372-0.188,5.059-0.271c0.759-0.037,1.244,0.38,1.305,1.055
		c0.058,0.655-0.323,1.134-1.027,1.265c-0.296,0.054-0.6,0.079-0.901,0.106c-0.809,0.074-1.616,0.142-2.502,0.219
		c3.526,10.486,7.019,20.878,10.569,31.433c0.102-0.255,0.136-0.327,0.158-0.4c1.461-4.865,2.934-9.726,4.378-14.596
		c1.145-3.854,0.796-7.577-1.138-11.118c-0.673-1.234-1.417-2.429-2.116-3.649c-0.662-1.152-1.157-2.359-1.337-3.696
		c-0.37-2.747,1.492-5.313,4.228-5.768c0.28-0.047,0.563-0.072,1.035-0.13c-8.096-6.809-17.097-9.191-27.213-6.633
		c-7.181,1.815-12.762,5.996-17.02,12.223c1.573,0,2.953,0.04,4.331-0.01c1.731-0.063,3.458-0.203,5.188-0.299
		c0.854-0.047,1.34,0.306,1.413,0.991c0.083,0.774-0.275,1.207-1.135,1.352c-0.255,0.043-0.516,0.059-0.773,0.083
		C16.269,18.645,15.476,18.711,14.563,18.789z M42.186,60.099c-3.056-8.369-6.07-16.621-9.082-24.873
		c-0.061,0.001-0.12,0.003-0.179,0.004c-2.898,8.42-5.796,16.84-8.715,25.318C30.307,62.289,36.241,62.14,42.186,60.099z
		 M5.888,20.737c-0.062-0.001-0.124-0.002-0.185-0.003c-3.228,7.722-3.372,15.495-0.094,23.236
		c2.813,6.645,7.562,11.521,13.964,14.776c0.05-0.034,0.1-0.066,0.15-0.101C15.111,46.011,10.5,33.373,5.888,20.737z M47.226,57.603
		c0.062,0.031,0.122,0.063,0.185,0.094c7.818-4.919,12.654-11.873,14.036-21.077c0.944-6.295-0.183-12.27-3.217-17.871
		c0.156,2.151,0.115,4.283-0.213,6.411c-0.376,2.431-1.192,4.726-2.001,7.033c-2.804,8.018-5.563,16.053-8.338,24.079
		C47.524,56.714,47.376,57.158,47.226,57.603z"/>
</g>
</svg>
