<?xml version="1.0" encoding="utf-8"?>
<?xml-stylesheet type="text/css" href="../../css/svg.css"?>
<!-- Generator: Adobe Illustrator 16.0.0, SVG Export Plug-In . SVG Version: 6.00 Build 0)  -->
<!DOCTYPE svg PUBLIC "-//W3C//DTD SVG 1.1//EN" "http://www.w3.org/Graphics/SVG/1.1/DTD/svg11.dtd">
<svg version="1.1" xmlns="http://www.w3.org/2000/svg" xmlns:xlink="http://www.w3.org/1999/xlink" x="0px" y="0px" width="75px"
	 height="75px" viewBox="0 0 75 75" enable-background="new 0 0 75 75" xml:space="preserve">

<a xlink:href="https://www.facebook.com/jjsuperman0224" xlink:show="new">
<g id="Facebook" class="social_hover">
	<circle fill="#3B5998" cx="37.887" cy="37.996" r="36.5"/>
	<g id="facebook-F">
		<path id="F" fill-rule="evenodd" clip-rule="evenodd" fill="#222222" d="M47.708,75H34.583c0.003-0.67,0.037-20.935,0.106-30.243
			c0.011-1.524-0.338-2.022-1.941-1.991c-4.726,0.088-4.728,0.012-4.728-4.645c0-1.584,0.079-3.174-0.025-4.752
			c-0.081-1.271,0.438-1.616,1.603-1.544c1.185,0.071,2.383-0.062,3.563,0.035c1.268,0.104,1.555-0.436,1.517-1.601
			c-0.072-2.242-0.063-4.491,0.016-6.733c0.266-7.546,4.378-11.864,11.921-12.346c3.223-0.206,6.468-0.051,9.702-0.116
			c0.952-0.019,1.267,0.32,1.252,1.258c-0.043,2.838-0.057,5.679,0.005,8.517c0.025,1.135-0.521,1.296-1.454,1.273
			c-1.716-0.04-3.436-0.056-5.148,0.019c-2.097,0.091-3.068,0.982-3.194,3.012c-0.113,1.844-0.013,3.698-0.085,5.544
			c-0.041,1.046,0.506,1.172,1.345,1.162c2.442-0.026,4.887,0.018,7.329-0.021c0.937-0.014,1.298,0.263,1.167,1.262
			c-0.371,2.812-0.724,5.625-0.952,8.452c-0.086,1.063-0.481,1.318-1.454,1.283c-1.714-0.063-3.442,0.09-5.148-0.047
			c-1.729-0.141-2.389,0.299-2.322,2.21C47.813,49.538,47.708,75,47.708,75z"/>
	</g>
</g>
</a>
</svg>
