<?xml version="1.0" encoding="utf-8"?>
<?xml-stylesheet type="text/css" href="../../css/svg.css"?>
<!-- Generator: Adobe Illustrator 16.0.0, SVG Export Plug-In . SVG Version: 6.00 Build 0)  -->
<!DOCTYPE svg PUBLIC "-//W3C//DTD SVG 1.1//EN" "http://www.w3.org/Graphics/SVG/1.1/DTD/svg11.dtd">
<svg version="1.1" xmlns="http://www.w3.org/2000/svg" xmlns:xlink="http://www.w3.org/1999/xlink" x="0px" y="0px" width="75px"
	 height="75px" viewBox="0 0 75 75" enable-background="new 0 0 75 75" xml:space="preserve">

<a xlink:href="https://www.linkedin.com/in/jonathonjacobs/" xlink:show="new">
<g id="LinkedIn"  class="social_hover">
	<circle fill="#007BB6" cx="37.887" cy="37.996" r="36.5"/>
	<g id="linkedin-logo">
		<path fill-rule="evenodd" clip-rule="evenodd" fill="#222222" d="M41.393,39.227c0.135-0.193,0.271-0.388,0.406-0.583
			c0.889-1.277,1.912-2.427,3.154-3.375c1.701-1.299,3.621-2.097,5.721-2.438c2.645-0.43,5.273-0.319,7.852,0.439
			c4.01,1.178,6.871,3.711,8.684,7.456c0.852,1.761,1.367,3.623,1.68,5.548c0.264,1.628,0.354,3.269,0.354,4.916
			c-0.002,2.076-0.004,4.151-0.005,6.227c-0.001,5.52-13.593,14.203-13.593,13.033c0-5.975,0-11.948,0-17.923
			c0-1.526-0.146-3.031-0.598-4.497c-0.258-0.839-0.617-1.628-1.145-2.337c-0.732-0.991-1.686-1.688-2.873-2.037
			c-1.594-0.469-3.189-0.461-4.766,0.091c-1.709,0.599-2.936,1.771-3.881,3.284c-0.828,1.328-1.076,2.789-1.076,4.316
			c0,6.626,0,13.249,0,19.874c0,0.956,0,2.764,0,3.72C39.5,75,30.813,75,27.708,74.496c0.068-8.607,0.073-26.125,0.073-34.733
			c-0.001-1.897-0.041-3.797-0.063-5.694c-0.001-0.084,0.005-0.17-0.005-0.253c-0.027-0.214,0.082-0.273,0.272-0.257
			c0.083,0.006,0.168,0,0.253,0c4.177,0,8.355,0,12.53,0c0.057,0,0.113,0,0.168,0c0.365,0.005,0.369,0.005,0.371,0.371
			c0.002,1.618,0,3.235,0,4.852c0,0.139,0,0.276,0,0.414C41.336,39.205,41.363,39.216,41.393,39.227z"/>
		<path fill-rule="evenodd" clip-rule="evenodd" fill="#222222" d="M20.171,54.068c0,5.422,0.001,10.844,0,16.265
			c0,1.201-13.62-7.188-13.62-12.584c0-7.877,0-15.753,0-23.631c0-0.642-0.061-0.558,0.567-0.558
			c4.161-0.002,8.323-0.001,12.485-0.001c0.112,0,0.226,0.005,0.338,0c0.157-0.008,0.236,0.058,0.23,0.221
			c-0.006,0.126,0,0.253,0,0.38C20.171,40.797,20.171,47.431,20.171,54.068z"/>
		<path fill-rule="evenodd" clip-rule="evenodd" fill="#222222" d="M13.432,27.961c-1.771-0.017-3.331-0.369-4.706-1.322
			c-1.856-1.288-2.823-3.093-2.954-5.331c-0.115-1.984,0.458-3.752,1.838-5.213c1.024-1.086,2.299-1.742,3.75-2.053
			c1.962-0.421,3.893-0.327,5.729,0.531c2.221,1.038,3.475,2.825,3.867,5.225c0.274,1.667-0.002,3.252-0.873,4.706
			c-1.057,1.767-2.661,2.772-4.638,3.23C14.743,27.897,14.028,27.939,13.432,27.961z"/>
	</g>
</g>
</a>
</svg>
