<?xml version="1.0" encoding="utf-8"?>
<?xml-stylesheet type="text/css" href="../../css/svg.css"?>
<!-- Generator: Adobe Illustrator 16.0.0, SVG Export Plug-In . SVG Version: 6.00 Build 0)  -->
<!DOCTYPE svg PUBLIC "-//W3C//DTD SVG 1.1//EN" "http://www.w3.org/Graphics/SVG/1.1/DTD/svg11.dtd">
<svg version="1.1" xmlns="http://www.w3.org/2000/svg" xmlns:xlink="http://www.w3.org/1999/xlink" x="0px" y="0px" width="75px"
	 height="75px" viewBox="0 0 75 75" enable-background="new 0 0 75 75" xml:space="preserve">

<a xlink:href="http://pinterest.com/jrjacobs24/boards/" xlink:show="new">
<g id="Pinterest" class="social_hover">
	<circle fill="#CB2027" cx="37.887" cy="37.996" r="36.5"/>
	<g id="pinterest-p">
		<path fill-rule="evenodd" clip-rule="evenodd" fill="#222222" d="M33.221,52.155c-0.615,2.406-1.304,4.714-1.786,7.065
			c-1.053,5.134-3.696,10.305-6.676,14.493c-0.435,0.611-2.416,0.518-2.508-0.421c-0.278-2.813-0.377-7.128,0.021-9.937
			c0.383-2.697,1.049-5.358,1.66-8.02c1.18-5.13,2.417-10.245,3.604-15.373c0.088-0.383,0.046-0.845-0.081-1.221
			c-1.347-3.991-1.503-7.93,0.583-11.727c1.055-1.921,2.604-3.318,4.85-3.715c3.403-0.603,5.996,1.479,6.228,4.938
			c0.13,1.965-0.308,3.841-0.836,5.701c-0.771,2.727-1.577,5.44-2.369,8.159c-0.69,2.372-0.415,4.559,1.43,6.319
			c1.901,1.813,4.214,2.097,6.667,1.459c2.393-0.623,4.166-2.155,5.597-4.1c2.363-3.21,3.516-6.901,4.101-10.789
			c0.432-2.888,0.688-5.799,0.088-8.69c-1.211-5.812-4.78-9.499-10.5-10.847c-7.077-1.667-13.659-0.535-18.963,4.747
			c-4.555,4.535-6.167,10.154-4.95,16.506c0.303,1.581,1.095,2.965,2.146,4.172c0.645,0.743,0.796,1.502,0.501,2.432
			c-0.28,0.883-0.459,1.797-0.701,2.69c-0.322,1.192-1.021,1.538-2.155,1.047c-3.186-1.382-5.251-3.844-6.396-7.034
			c-2.428-6.763-1.624-13.256,2.082-19.346c3.956-6.502,9.884-10.265,17.255-11.78c5.787-1.189,11.558-1.1,17.092,1.188
			c7.624,3.152,12.526,8.697,14.068,16.918c0.653,3.49,0.289,7.007-0.373,10.476c-0.865,4.526-2.539,8.709-5.496,12.299
			c-3.757,4.562-8.589,7.026-14.515,7.074C39,56.872,35.689,55.47,33.221,52.155z"/>
	</g>
</g>
</a>
</svg>
