<?xml version="1.0" encoding="utf-8"?>
<?xml-stylesheet type="text/css" href="../../css/svg.css"?>
<!-- Generator: Adobe Illustrator 16.0.0, SVG Export Plug-In . SVG Version: 6.00 Build 0)  -->
<!DOCTYPE svg PUBLIC "-//W3C//DTD SVG 1.1//EN" "http://www.w3.org/Graphics/SVG/1.1/DTD/svg11.dtd">
<svg version="1.1" xmlns="http://www.w3.org/2000/svg" xmlns:xlink="http://www.w3.org/1999/xlink" x="0px" y="0px" width="75px"
	 height="75px" viewBox="0 0 75 75" enable-background="new 0 0 75 75" xml:space="preserve">
<a xlink:href="https://twitter.com/jrjacobs24" xlink:show="new">
<g id="Twitter" class="social_hover">
	<circle fill="#00ACED" cx="37.887" cy="37.996" r="36.5"/>
	<g id="twitter-Bird">
		<path fill="#222222" d="M61.7,37.931c0,0,6.385-0.185,7.793-3.958c-3.773,1.633-8.445,0.245-8.445,0.245
			s-2.203-13.504-15.625-13.994c0,0,7.174-1.462,6.051-3.114c-0.897-1.204-5.889,1.034-5.889,1.034s2.781-1.224,2.721-2.529
			c-2.816,0.326-5.398,2.407-5.398,2.407s0.788-1.265,0.801-1.795C37.005,19.952,32.449,33.83,32.449,33.83s-1.7-1.883-4.529-3.924
			C21.093,25.881,8.5,21.121,8.5,21.121s-0.843,5.195,5.875,9.003c-2.747,0.217-4.134,0.571-4.134,0.571s0,5.521,8.01,7.316
			c-3.712,0.136-4.937,1.986-4.937,1.986s2.094,4.922,8.676,4.514c-5.358,2.774-1.877,6.556,2.502,6.147
			c-6.975,6.247-13.938,6.473-18.783,5.214c-0.408-0.105,2.841,5.254,3.707,5.721c4.428,2.39,10.155,4.24,17.198,4.12
			c12.362-0.367,29.904-5.834,34.598-23.867c0,0,5.039,0.857,8.607-3.06C64.944,39.461,61.7,37.931,61.7,37.931z"/>
	</g>
</g>
</a>
</svg>
