<?xml version="1.0" standalone="no"?>
<!DOCTYPE svg PUBLIC "-//W3C//DTD SVG 1.1//EN" "http://www.w3.org/Graphics/SVG/1.1/DTD/svg11.dtd" >
<svg xmlns="http://www.w3.org/2000/svg">
<metadata></metadata>
<defs>
<font id="helvetica_worldbold_italic" horiz-adv-x="1180" >
<font-face units-per-em="2048" ascent="1638" descent="-410" />
<missing-glyph horiz-adv-x="550" />
<glyph horiz-adv-x="0" />
<glyph horiz-adv-x="0" />
<glyph unicode="&#xd;" horiz-adv-x="1024" />
<glyph unicode=" "  horiz-adv-x="550" />
<glyph unicode="&#x09;" horiz-adv-x="550" />
<glyph unicode="&#xa0;" horiz-adv-x="550" />
<glyph unicode="!" horiz-adv-x="681" d="M94 0l61 289h299l-61 -289h-299zM254 408l64 688l79 374h316l-79 -374l-228 -688h-152z" />
<glyph unicode="&#x22;" horiz-adv-x="971" d="M279 915l118 555h201l-118 -555h-201zM659 915l118 555h201l-118 -555h-201z" />
<glyph unicode="#" horiz-adv-x="1139" d="M30 408l36 184h199l49 246h-199l37 184h198l83 408h193l-83 -408h199l82 408h193l-83 -408h199l-37 -184h-198l-49 -246h198l-36 -184h-199l-82 -408h-193l83 408h-199l-82 -408h-193l83 408h-199zM458 592h198l49 246h-199z" />
<glyph unicode="$" d="M49 332q0 52 12 108h257q-5 -26 -5 -54q0 -175 161 -206l89 418l-137 51q-213 80 -213 299t151 359.5t381 146.5l28 133h94l-29 -136q348 -53 348 -320q0 -58 -18 -105h-251q6 22 6 47q0 124 -132 159l-82 -386l129 -46q248 -93 248 -327t-159.5 -369t-404.5 -141 l-42 -199h-94l42 201q-379 58 -379 367zM474 1024q0 -91 83 -120l65 -25l77 359q-94 -9 -159.5 -68.5t-65.5 -145.5zM567 177q108 7 178.5 61t70.5 160t-106 145l-60 22z" />
<glyph unicode="%" horiz-adv-x="1876" d="M198 935q-15 68 2 146q16 78 60 146t105.5 118.5t135.5 79.5t151 29q76 0 138 -29.5t102 -80t55 -118.5t-1 -145q-17 -78 -61 -145.5t-105.5 -118t-135.5 -79.5t-150 -29q-77 0 -139 28.5t-102 79t-55 118.5zM337 -39l1132 1493h152l-1133 -1493h-151zM410.5 1017.5 q6.5 -29.5 24 -51t44.5 -34t60 -12.5t65 12.5t58.5 34t46 51t26.5 63.5t0.5 63.5t-24 51.5t-44.5 34.5t-60 12.5t-65 -12.5t-58.5 -34.5t-46 -51.5t-26.5 -63.5t-0.5 -63.5zM1012 196.5q-15 68.5 2 146.5q16 78 60 146t105.5 118.5t135.5 79.5t151 29q76 0 137.5 -29.5 t101.5 -80t55 -118.5t-1 -145q-17 -78 -61 -146t-105.5 -118.5t-135 -79.5t-149.5 -29q-77 0 -139 29t-102 79t-55 118.5zM1224.5 279.5q6.5 -29.5 24 -51.5t44 -34.5t59.5 -12.5t65.5 12.5t58.5 34.5t45.5 51.5t26.5 63.5t0.5 63.5t-23.5 51.5t-44 34.5t-60 12.5t-65 -12.5 t-58.5 -34.5t-46 -51.5t-26.5 -63.5t-0.5 -63.5z" />
<glyph unicode="&#x26;" horiz-adv-x="1458" d="M51 333q0 311 417 505q-78 135 -78 238q0 162 129 278t316 116q141 0 235 -73t94 -197q0 -238 -339 -431l149 -251q79 109 136 246h254q-96 -240 -267 -452l186 -312h-317l-69 116q-210 -157 -410 -157q-199 0 -317.5 104.5t-118.5 269.5zM342 373q0 -71 52.5 -120 t139.5 -49q120 0 249 102l-198 334q-243 -110 -243 -267zM658 1103q0 -75 57 -149q192 94 192 208q0 42 -27.5 66.5t-71.5 24.5q-62 0 -106 -42.5t-44 -107.5z" />
<glyph unicode="'" horiz-adv-x="487" d="M227 915l118 555h201l-118 -555h-201z" />
<glyph unicode="(" horiz-adv-x="781" d="M91 235q0 642 598 1268h211q-524 -642 -524 -1326q0 -245 114 -603h-211q-188 379 -188 661z" />
<glyph unicode=")" horiz-adv-x="761" d="M-132 -427q524 642 524 1326q0 245 -114 603h211q188 -379 188 -661q0 -642 -598 -1268h-211z" />
<glyph unicode="*" horiz-adv-x="786" d="M184 1147l78 149l195 -69l51 243h174l-51 -243l221 69l18 -149l-229 -66l100 -198l-148 -90l-101 186l-180 -186l-110 90l181 198z" />
<glyph unicode="+" horiz-adv-x="1200" d="M84 403v230h401v403h230v-403h401v-230h-401v-403h-230v403h-401z" />
<glyph unicode="," horiz-adv-x="569" d="M-52 -344l23 108q173 45 222 236h-172l64 299h307l-55 -258q-69 -325 -387 -385h-2z" />
<glyph unicode="-" horiz-adv-x="682" d="M39 440l56 267h572l-56 -267h-572z" />
<glyph unicode="." horiz-adv-x="569" d="M21 0l64 299h307l-64 -299h-307z" />
<glyph unicode="/" horiz-adv-x="625" d="M-160 -49l796 1558h240l-796 -1558h-240z" />
<glyph unicode="0" d="M86 416q0 403 171.5 720.5t482.5 317.5q213 0 323 -123.5t110 -331.5q0 -403 -171.5 -720.5t-482.5 -317.5q-213 0 -323 123.5t-110 331.5zM374 457q0 -124 39.5 -195.5t130.5 -71.5q158 0 249.5 263t91.5 515q0 124 -39.5 190.5t-130.5 66.5q-158 0 -249.5 -258 t-91.5 -510z" />
<glyph unicode="1" d="M264 1001l42 201h41q169 0 273 69t138 183h235l-309 -1454h-287l213 1001h-346z" />
<glyph unicode="2" d="M-34 0q73 392 412 587l309 177q103 59 151.5 120t48.5 145q0 85 -44.5 134t-125.5 49q-205 0 -261 -272h-276q39 241 188 377.5t376 136.5q191 0 312 -102t121 -271q0 -162 -71.5 -278t-248.5 -219l-234 -136q-194 -113 -241 -194h629l-54 -254h-991z" />
<glyph unicode="3" d="M43 318q0 60 17 128h279q-11 -41 -11 -75q0 -85 47 -133t137 -48q116 0 187 75t71 202q0 87 -51.5 128.5t-172.5 41.5h-65l44 205h74q114 0 188 63t74 163q0 72 -39 114.5t-116 42.5q-200 0 -240 -238h-266q88 467 550 467q185 0 295.5 -87t110.5 -236q0 -250 -267 -366 v-5q180 -64 180 -273q0 -232 -168 -379t-425 -147q-201 0 -317 99t-116 258z" />
<glyph unicode="4" d="M31 322l53 247l723 885h327l-193 -909h162l-48 -223h-162l-68 -322h-286l68 322h-576zM296 545h359l118 537l21 80l-8 2l-48 -64z" />
<glyph unicode="5" d="M40 303q0 44 8 86h287q-2 -15 -2 -26q0 -84 44.5 -128.5t125.5 -44.5q129 0 202.5 99t73.5 217q0 97 -48.5 157t-132.5 60q-116 0 -201 -105l-253 13l271 799h248h550l-51 -242h-591l-120 -316q124 80 252 80q172 0 276.5 -108t104.5 -282q0 -238 -162.5 -419.5 t-454.5 -181.5q-190 0 -308.5 93t-118.5 249z" />
<glyph unicode="6" d="M83 417q0 393 202.5 715t526.5 322q167 0 267 -85.5t100 -220.5q0 -27 -8 -63h-278q2 73 -33 106.5t-108 33.5q-116 0 -204.5 -125t-119.5 -277l4 -3q132 120 300 120t264 -103t96 -263q0 -253 -171.5 -433t-419.5 -180q-199 0 -308.5 122.5t-109.5 333.5zM348 385 q0 -87 47 -141t131 -54q112 0 190.5 101t78.5 235q0 86 -46 135.5t-128 49.5q-118 0 -195.5 -97.5t-77.5 -228.5z" />
<glyph unicode="7" d="M166 0q200 669 766 1176h-717l54 254h1028l-47 -222q-590 -524 -782 -1208h-302z" />
<glyph unicode="8" d="M51 327q0 152 86.5 268.5t247.5 174.5q-148 82 -148 247q0 183 153.5 310t375.5 127q181 0 293.5 -87.5t112.5 -235.5q0 -233 -259 -363q174 -82 174 -291q0 -215 -166 -365.5t-425 -150.5q-185 0 -315 97.5t-130 268.5zM352 386q0 -91 47 -143.5t132 -52.5 q112 0 182.5 80t70.5 193q0 87 -47 135.5t-124 48.5q-104 0 -182.5 -74.5t-78.5 -186.5zM513 1020q0 -71 45 -113.5t109 -42.5q83 0 151.5 59.5t68.5 150.5q0 73 -43.5 112t-116.5 39q-93 0 -153.5 -59t-60.5 -146z" />
<glyph unicode="9" d="M71 269q0 33 8 67h277q-2 -14 -2 -21q0 -65 37.5 -95t104.5 -30q105 0 186.5 97.5t136.5 307.5l-4 3q-133 -121 -302 -121q-168 0 -261.5 104t-93.5 263q0 247 169.5 428.5t429.5 181.5q200 0 306 -115.5t106 -319.5q0 -357 -187.5 -707.5t-519.5 -350.5 q-175 0 -283 83.5t-108 224.5zM453 894q0 -85 48 -136t130 -51q111 0 188.5 95t77.5 227q0 84 -46 137t-126 53q-116 0 -194 -99t-78 -226z" />
<glyph unicode=":" horiz-adv-x="569" d="M71 0l64 299h307l-64 -299h-307zM230 750l64 299h307l-64 -299h-307z" />
<glyph unicode=";" horiz-adv-x="569" d="M-2 -344l23 108q173 45 222 236h-172l64 299h307l-55 -258q-69 -325 -387 -385h-2zM230 750l64 299h307l-64 -299h-307z" />
<glyph unicode="&#x3c;" horiz-adv-x="1200" d="M84 426v184l1032 443v-222l-735 -313l735 -313v-221z" />
<glyph unicode="=" horiz-adv-x="1200" d="M84 179v230h1032v-230h-1032zM84 628v230h1032v-230h-1032z" />
<glyph unicode="&#x3e;" horiz-adv-x="1200" d="M84 -16v221l735 313l-735 313v222l1032 -443v-184z" />
<glyph unicode="?" horiz-adv-x="1236" d="M232 1010q33 227 192.5 353t403.5 126q199 0 316.5 -102t117.5 -242q0 -131 -53.5 -229.5t-205.5 -192.5q-153 -95 -195.5 -142t-63.5 -155h-268q23 252 247 390q135 83 179.5 143t44.5 129q0 73 -43 116t-135 43q-91 0 -159 -60t-86 -177h-292zM376 0l61 289h299 l-61 -289h-299z" />
<glyph unicode="@" horiz-adv-x="1911" d="M200 548q0 323 223 548.5t567 225.5q296 0 508.5 -179t212.5 -453q0 -271 -158 -432t-342 -161q-117 0 -136 121l-4 2q-109 -122 -227 -122q-121 0 -216.5 96t-95.5 283q0 183 110.5 331t305.5 148q183 0 261 -133l26 102h180l-119 -522q-13 -60 -13 -88q0 -41 35 -41 q82 0 154.5 103t72.5 263q0 238 -154.5 378.5t-404.5 140.5q-269 0 -426.5 -172.5t-157.5 -442.5q0 -307 179 -465t434 -158q241 0 430 163h182q-241 -327 -625 -327q-336 0 -569 217.5t-233 573.5zM753 489q0 -108 42 -150.5t112 -42.5q98 0 168 88.5t70 199.5 q0 76 -45 127.5t-133 51.5q-99 0 -156.5 -81.5t-57.5 -192.5z" />
<glyph unicode="A" horiz-adv-x="1447" d="M-85 0l836 1470h355l206 -1470h-334l-30 303h-543l-166 -303h-324zM541 557h375l-59 582h-4z" />
<glyph unicode="B" horiz-adv-x="1444" d="M40 0l312 1470h296h387q209 0 311.5 -84t102.5 -210q0 -259 -286 -387q196 -66 196 -267q0 -189 -158.5 -355.5t-477.5 -166.5h-388h-295zM389 254h392q142 0 206 73.5t64 168.5q0 80 -50.5 115.5t-166.5 35.5h-361zM525 895h370q134 0 190.5 62t56.5 139q0 56 -41 88.5 t-173 32.5h-334z" />
<glyph unicode="C" horiz-adv-x="1481" d="M108 484q0 425 243 725t624 300q248 0 389 -122.5t141 -302.5q0 -55 -4 -95h-307q-3 254 -272 254q-222 0 -358 -223.5t-136 -476.5q0 -160 73 -238t205 -78q289 0 383 277h307q-182 -543 -727 -543q-264 0 -412.5 139t-148.5 384z" />
<glyph unicode="D" horiz-adv-x="1487" d="M40 0l312 1470h301h311q250 0 380.5 -117.5t131.5 -376.5q0 -360 -209.5 -668t-589.5 -308h-335h-302zM395 254h299q240 0 351 225t112 468q-1 145 -74 207.5t-188 62.5h-295z" />
<glyph unicode="E" horiz-adv-x="1356" d="M40 0l312 1470h302h779l-55 -260h-780l-65 -309h717l-56 -260h-717l-81 -381h815l-55 -260h-815h-301z" />
<glyph unicode="F" horiz-adv-x="1241" d="M40 0l312 1470h308h738l-55 -260h-739l-70 -331h647l-56 -261h-647l-131 -618h-307z" />
<glyph unicode="G" horiz-adv-x="1600" d="M110 520q0 377 241.5 683t651.5 306q251 0 405.5 -122t154.5 -330q0 -19 -3 -43h-306q-4 120 -87.5 180.5t-210.5 60.5q-234 0 -381 -211t-147 -485q0 -153 80 -245.5t249 -92.5q306 0 437 324h-342l53 248h614l-169 -793h-205l9 184q-213 -223 -513 -223 q-249 0 -390 150t-141 409z" />
<glyph unicode="H" horiz-adv-x="1488" d="M40 0l312 1470h307l-118 -557h574l118 557h307l-312 -1470h-307l140 659h-574l-140 -659h-307z" />
<glyph unicode="I" horiz-adv-x="607" d="M40 0l312 1470h307l-312 -1470h-307z" />
<glyph unicode="J" horiz-adv-x="1126" d="M7 281q0 78 20 173l21 101h287l-6 -30q-25 -117 -25 -183q0 -131 141 -131q91 0 139 43t73 162l224 1054h307l-221 -1044q-50 -238 -184.5 -350.5t-357.5 -112.5q-208 0 -313 79.5t-105 238.5z" />
<glyph unicode="K" horiz-adv-x="1461" d="M40 0l312 1470h307l-127 -598l689 598h397l-728 -602l451 -868h-396l-317 645l-175 -147l-106 -498h-307z" />
<glyph unicode="L" horiz-adv-x="1223" d="M40 0l312 1470h307l-255 -1204h731l-57 -266h-731h-307z" />
<glyph unicode="M" horiz-adv-x="1726" d="M40 0l312 1470h288h161l19 -1159h6l507 1159h159h286l-312 -1470h-287l211 993l54 236h-8l-536 -1229h-301l-7 1229h-7l-47 -236l-211 -993h-287z" />
<glyph unicode="N" horiz-adv-x="1498" d="M40 0l312 1470h324l367 -1024h4l217 1024h286l-312 -1470h-307l-377 1049h-4l-223 -1049h-287z" />
<glyph unicode="O" horiz-adv-x="1583" d="M102 548q0 377 249 669t626 292q268 0 431.5 -158.5t163.5 -427.5q0 -377 -249 -669t-626 -292q-268 0 -431.5 158.5t-163.5 427.5zM417 595q0 -168 88 -271t240 -103q217 0 364.5 201.5t147.5 449.5q0 168 -88 271t-240 103q-217 0 -364.5 -201.5t-147.5 -449.5z" />
<glyph unicode="P" horiz-adv-x="1353" d="M40 0l312 1470h307h348q182 0 285 -93t103 -262q0 -243 -147.5 -414t-387.5 -171h-398l-114 -530h-308zM514 784h280q136 0 212 69.5t76 207.5q0 80 -47.5 118t-144.5 38h-284z" />
<glyph unicode="Q" horiz-adv-x="1583" d="M102 548q0 377 249 669t626 292q268 0 431.5 -158.5t163.5 -427.5q0 -405 -292 -716l127 -150l-197 -163l-133 158q-170 -90 -380 -90q-268 0 -431.5 158.5t-163.5 427.5zM417 595q0 -168 88 -271t240 -103q87 0 163 32l-123 146l193 164l125 -148q3 3 6 7 q148 202 148 450q0 168 -88 271t-240 103q-217 0 -364.5 -201.5t-147.5 -449.5z" />
<glyph unicode="R" horiz-adv-x="1455" d="M40 0l312 1470h302h343q257 0 370.5 -81.5t113.5 -227.5q0 -308 -291 -452q111 -54 111 -172q0 -55 -8 -100l-47 -264q-6 -33 -6 -59q0 -62 42 -75l-8 -39h-342q-4 28 -4 57q0 73 33 245q23 121 23 148q0 55 -40 90t-132 35h-349l-121 -575h-302zM516 823h330 q172 0 244.5 70t72.5 184q0 68 -46.5 104t-145.5 36h-371z" />
<glyph unicode="S" horiz-adv-x="1373" d="M57 343q0 52 14 110h295q-6 -24 -6 -49q0 -93 70.5 -141t197.5 -48q165 0 258.5 55.5t93.5 156.5q0 57 -34.5 90.5t-95.5 49.5l-326 81q-179 45 -249 119.5t-70 198.5q0 244 193.5 393.5t466.5 149.5q204 0 352 -95.5t148 -259.5q0 -62 -20 -114h-289q7 22 7 48 q0 75 -69 120.5t-174 45.5q-132 0 -223 -59t-91 -149q0 -36 22 -70t78 -48l335 -86q177 -45 263.5 -129t86.5 -214q0 -250 -200.5 -393.5t-500.5 -143.5q-236 0 -384.5 103t-148.5 278z" />
<glyph unicode="T" horiz-adv-x="1256" d="M177 1210l55 260h444h308h444l-55 -260h-445l-257 -1210h-307l257 1210h-444z" />
<glyph unicode="U" horiz-adv-x="1476" d="M124 347q0 71 17 151l206 972h314l-202 -954q-11 -53 -11 -94q0 -100 56.5 -150.5t166.5 -50.5q135 0 224.5 69.5t119.5 211.5l205 968h313l-203 -956q-60 -278 -237 -415.5t-449 -137.5q-251 0 -385.5 99t-134.5 287z" />
<glyph unicode="V" horiz-adv-x="1340" d="M229 1470h330l79 -1114h4l556 1114h319l-812 -1470h-292z" />
<glyph unicode="W" horiz-adv-x="1935" d="M234 1470h327l10 -938l-6 -147h4l55 147l380 938h325l-4 -933l-6 -152h4l58 152l411 933h312l-726 -1470h-295l11 1032l8 125h-4l-46 -125l-428 -1032h-286z" />
<glyph unicode="X" horiz-adv-x="1343" d="M-94 0l635 752l-297 718h367l161 -475l369 475h355l-599 -706l317 -764h-374l-172 502l-404 -502h-358z" />
<glyph unicode="Y" horiz-adv-x="1307" d="M194 1470h362l170 -639l426 639h348l-686 -919l-117 -551h-307l118 555z" />
<glyph unicode="Z" horiz-adv-x="1250" d="M-60 0l55 260l952 950h-729l55 260h1124l-51 -241l-966 -969h764l-55 -260h-1149z" />
<glyph unicode="[" horiz-adv-x="679" d="M-75 -401l399 1880h250h254l-42 -197h-254l-316 -1487h254l-41 -196h-256h-248z" />
<glyph unicode="\" horiz-adv-x="625" d="M-40 1509h240l465 -1548h-240z" />
<glyph unicode="]" horiz-adv-x="679" d="M-140 -401l41 196h254l316 1487h-254l42 197h253h251l-399 -1880h-251h-253z" />
<glyph unicode="^" horiz-adv-x="1196" d="M127 662l369 768h204l369 -768h-225l-246 538l-248 -538h-223z" />
<glyph unicode="_" horiz-adv-x="1139" d="M0 -141h1139v-130h-1139v130z" />
<glyph unicode="`" horiz-adv-x="700" d="M189 1536h300l130 -299h-197z" />
<glyph unicode="a" horiz-adv-x="1170" d="M7 238q0 157 107.5 262.5t276.5 128.5l306 41q123 16 123 118q0 53 -43 78.5t-113 25.5q-195 0 -240 -155h-278q102 381 560 381q179 0 293 -64t114 -178q0 -27 -7 -61l-131 -626q-7 -32 -7 -76q0 -60 39 -70l-9 -43h-305q-5 31 -5 71q0 27 2 58q-158 -158 -391 -158 q-138 0 -215 69t-77 198zM303 282q0 -51 33 -78.5t93 -27.5q101 0 195 61t111 140l32 151q-63 -40 -269 -67q-195 -26 -195 -179z" />
<glyph unicode="b" horiz-adv-x="1274" d="M30 0l312 1470h287l-110 -522h4q153 170 345 170q162 0 260.5 -112.5t98.5 -288.5q0 -274 -171 -510t-432 -236q-204 0 -280 166h-4l-29 -137h-281zM402 422q0 -96 51.5 -155.5t138.5 -59.5q147 0 238.5 148.5t91.5 315.5q0 90 -46.5 144.5t-139.5 54.5 q-142 0 -238 -143.5t-96 -304.5z" />
<glyph unicode="c" horiz-adv-x="1143" d="M55 376q0 290 188 516t473 226q172 0 289 -92.5t117 -245.5q0 -37 -8 -80h-289v16q0 161 -157 161q-139 0 -225 -144t-86 -316q0 -99 43 -154.5t120 -55.5q158 0 238 190h291q-158 -428 -564 -428q-191 0 -310.5 113t-119.5 294z" />
<glyph unicode="d" horiz-adv-x="1273" d="M61 401q0 282 167 499.5t412 217.5q210 0 294 -175h4l111 527h286l-312 -1470h-280l29 137h-4q-136 -166 -344 -166q-165 0 -264 116.5t-99 313.5zM362 426q0 -99 51 -158.5t138 -59.5q141 0 230.5 131.5t89.5 291.5q0 119 -45 179t-137 60q-144 0 -235.5 -136 t-91.5 -308z" />
<glyph unicode="e" horiz-adv-x="1174" d="M54 385q0 293 188 513t475 220q196 0 308.5 -115.5t112.5 -301.5q0 -108 -35 -234h-758q-3 -35 -3 -55q0 -211 192 -211q162 0 231 118h295q-161 -348 -572 -348q-193 0 -313.5 109.5t-120.5 304.5zM389 653h457q5 37 5 60q0 84 -45 126.5t-129 42.5q-194 0 -288 -229z " />
<glyph unicode="f" horiz-adv-x="676" d="M58 0l188 885h-153l44 205h153l18 88q34 160 128.5 236t277.5 76q70 0 127 -6l-50 -233q-34 3 -72 3q-61 0 -88 -18t-38 -71l-16 -75h184l-44 -205h-184l-188 -885h-287z" />
<glyph unicode="g" horiz-adv-x="1261" d="M-31 -156q0 17 3 38h289q0 -53 43.5 -81t124.5 -28q128 0 203.5 61t108.5 220l21 100l-5 1q-131 -161 -327 -161q-168 0 -268 115.5t-100 296.5q0 281 161 496.5t411 215.5q100 0 179.5 -46.5t120.5 -143.5h4l35 162h275l-215 -1016q-108 -518 -637 -518 q-198 0 -312.5 72.5t-114.5 215.5zM361 442q0 -90 50 -148t134 -58q144 0 232.5 127t88.5 299q0 99 -46.5 153.5t-129.5 54.5q-151 0 -240 -128.5t-89 -299.5z" />
<glyph unicode="h" horiz-adv-x="1250" d="M30 0l312 1470h287l-110 -519h4q161 167 356 167q143 0 224.5 -73.5t81.5 -201.5q0 -40 -15 -114l-155 -729h-287l144 677q8 39 8 71q0 65 -34 97t-103 32q-107 0 -190 -76t-112 -217l-124 -584h-287z" />
<glyph unicode="i" horiz-adv-x="567" d="M30 0l232 1090h287l-232 -1090h-287zM289 1219l57 266h287l-57 -266h-287z" />
<glyph unicode="j" horiz-adv-x="567" d="M-198 -438l49 229h52q82 0 102 91l257 1208h287l-261 -1226q-64 -302 -357 -302h-129zM289 1219l57 266h287l-57 -266h-287z" />
<glyph unicode="k" horiz-adv-x="1145" d="M30 0l312 1470h287l-167 -789l441 409h359l-483 -426l261 -664h-326l-170 457l-160 -141l-67 -316h-287z" />
<glyph unicode="l" horiz-adv-x="567" d="M30 0l312 1470h287l-312 -1470h-287z" />
<glyph unicode="m" horiz-adv-x="1826" d="M30 0l232 1090h275l-34 -160h4q145 188 341 188q207 0 266 -170q154 170 349 170q135 0 216.5 -73.5t81.5 -201.5q0 -40 -15 -114l-155 -729h-287l144 677q8 39 8 71q0 65 -34 97t-103 32q-87 0 -148.5 -74t-89.5 -204l-127 -599h-287l144 677q8 39 8 71q0 65 -34 97 t-103 32q-87 0 -152.5 -76t-88.5 -217l-124 -584h-287z" />
<glyph unicode="n" horiz-adv-x="1250" d="M30 0l232 1090h275l-34 -160h4q165 188 372 188q143 0 224.5 -73.5t81.5 -201.5q0 -40 -15 -114l-155 -729h-287l144 677q8 39 8 71q0 65 -34 97t-103 32q-107 0 -190 -76t-112 -217l-124 -584h-287z" />
<glyph unicode="o" horiz-adv-x="1258" d="M65 419q0 289 191.5 494t482.5 205q210 0 338 -128t128 -322q0 -293 -195 -495t-484 -202q-209 0 -335 128.5t-126 319.5zM362 449q0 -103 54 -169.5t151 -66.5q146 0 243.5 127.5t97.5 294.5q0 107 -55.5 174.5t-148.5 67.5q-152 0 -247 -133.5t-95 -294.5z" />
<glyph unicode="p" horiz-adv-x="1272" d="M-60 -424l322 1514h274l-34 -158h5q155 186 356 186q168 0 265 -116.5t97 -289.5q0 -274 -176 -507.5t-424 -233.5q-189 0 -274 168h-4l-120 -563h-287zM400 418q0 -95 54.5 -153t139.5 -58q144 0 236 144.5t92 317.5q0 94 -48.5 147.5t-135.5 53.5q-147 0 -242.5 -145.5 t-95.5 -306.5z" />
<glyph unicode="q" horiz-adv-x="1275" d="M59 404q0 275 168.5 494.5t411.5 219.5q223 0 305 -190h4l35 162h274l-322 -1514h-286l119 559h-4q-144 -164 -326 -164t-280.5 121t-98.5 312zM357 438q0 -102 50.5 -163.5t143.5 -61.5q149 0 237 131.5t88 307.5q0 104 -48 161t-141 57q-144 0 -237 -133t-93 -299z" />
<glyph unicode="r" horiz-adv-x="808" d="M30 0l232 1090h275l-40 -189h4q144 217 333 217q36 0 66 -4l-62 -291q-29 4 -79 4q-266 0 -321 -260l-121 -567h-287z" />
<glyph unicode="s" horiz-adv-x="1138" d="M23 249q0 47 11 94h289q-5 -25 -5 -39q0 -64 49.5 -96.5t135.5 -32.5q105 0 161 34t56 95q0 35 -22 57.5t-90 40.5l-261 69q-92 24 -146 87.5t-54 164.5q0 179 158.5 287t386.5 108q170 0 286 -78t116 -211q0 -38 -14 -74h-279q4 15 4 34q0 54 -41 84.5t-119 30.5 q-83 0 -140 -35t-57 -91q0 -30 18 -48t75 -33l233 -61q137 -37 194.5 -103t57.5 -168q0 -189 -165 -295.5t-393 -106.5q-191 0 -318 74t-127 212z" />
<glyph unicode="t" horiz-adv-x="688" d="M101 146q0 35 9 77l141 662h-148l44 205h148l62 294h287l-62 -294h178l-44 -205h-178l-130 -611q-3 -13 -3 -22q0 -25 18.5 -36t64.5 -11t84 4l-45 -213q-69 -10 -163 -10q-134 0 -198.5 40.5t-64.5 119.5z" />
<glyph unicode="u" horiz-adv-x="1256" d="M90 249q0 59 14 124l153 717h287l-144 -676q-9 -43 -9 -69q0 -132 150 -132q104 0 177.5 67.5t98.5 180.5l134 629h287l-232 -1090h-274l33 154h-4q-137 -183 -356 -183q-143 0 -229 74.5t-86 203.5z" />
<glyph unicode="v" horiz-adv-x="1132" d="M147 1090h312l56 -803h4l401 803h312l-625 -1090h-301z" />
<glyph unicode="w" horiz-adv-x="1609" d="M151 1090h301l8 -783h4l315 783h289l2 -783h4l332 783h300l-542 -1090h-295l-4 795h-4l-336 -795h-295z" />
<glyph unicode="x" horiz-adv-x="1135" d="M-80 0l488 555l-242 535h336l123 -318l246 318h346l-476 -539l251 -551h-344l-122 327l-255 -327h-351z" />
<glyph unicode="y" horiz-adv-x="1143" d="M-15 -430l47 225q34 -4 78 -4q62 0 107 26t95 136l-162 1137h304l70 -803h5l388 803h317l-603 -1072l-40 -70q-99 -174 -152 -245t-119.5 -106.5t-206.5 -35.5q-67 0 -128 9z" />
<glyph unicode="z" horiz-adv-x="1037" d="M-65 0l47 223l691 637h-516l49 230h883l-50 -236l-679 -618h567l-50 -236h-942z" />
<glyph unicode="{" horiz-adv-x="810" d="M64 444l41 189q74 0 142 40.5t83 114.5l88 410q28 132 118 206.5t221 74.5h177l-38 -181h-93q-57 0 -92 -30t-49 -95l-87 -411q-67 -193 -281 -221l-1 -4q187 -29 188 -195q0 -13 -1 -27l-87 -411q-6 -23 -6 -43q0 -40 22 -61t71 -21h93l-38 -180h-160q-97 0 -170.5 58.5 t-72.5 163.5q0 36 9 77l83 391q4 19 4 36q0 56 -49 87.5t-115 31.5z" />
<glyph unicode="|" horiz-adv-x="589" d="M180 -39v1548h229v-1548h-229z" />
<glyph unicode="}" horiz-adv-x="809" d="M-115 -401l38 180h93q57 0 92 30t49 95l87 411q67 193 281 221l1 4q-187 29 -188 195q0 13 1 27l87 411q6 23 6 43q0 40 -22 61t-71 21h-93l38 181h160q97 0 170.5 -59t72.5 -164q0 -36 -9 -77l-83 -391q-4 -19 -4 -36q0 -56 49 -87.5t115 -31.5l-41 -189 q-74 0 -142 -40.5t-83 -114.5l-88 -410q-28 -132 -118 -206t-221 -74h-177z" />
<glyph unicode="~" horiz-adv-x="1200" d="M56 553q97 149 287 149q99 0 258 -65q81 -35 132.5 -54.5t117.5 -19.5q124 0 194 118l101 -198q-97 -149 -287 -149q-99 0 -258 65q-81 35 -132.5 54.5t-117.5 19.5q-124 0 -194 -118z" />
<glyph unicode="&#xa1;" horiz-adv-x="681" d="M-21 -381l80 375l228 688h152l-64 -688l-80 -375h-316zM239 801l62 289h299l-62 -289h-299z" />
<glyph unicode="&#xa2;" d="M62 376q0 304 192 523t469 219q45 0 87 -7l84 175h111l-97 -201q221 -94 221 -305q0 -37 -8 -80h-289v16q0 83 -43 123l-303 -628q19 -4 41 -4q158 0 238 190h291q-158 -428 -564 -428q-62 0 -117 12l-108 -223h-111l123 255q-217 116 -217 363zM364 417q0 -94 38 -149 l294 608q-10 1 -21 1q-139 0 -225 -144t-86 -316z" />
<glyph unicode="&#xa3;" d="M3 176q298 194 298 384q0 42 -17 97h-187l26 123h119q-34 101 -34 199q0 214 161 352.5t418 138.5q182 0 298 -92.5t116 -241.5q0 -64 -29 -139h-261q12 32 12 73q0 79 -49.5 125.5t-124.5 46.5q-111 0 -180.5 -75.5t-69.5 -195.5q0 -71 42 -191h295l-26 -123h-246 q2 -18 2 -34q0 -232 -293 -414l1 -3q135 54 252 54q68 0 133 -25.5t110 -25.5q78 0 200 55l59 -219q-165 -78 -313 -78q-91 0 -205 41t-191 41q-108 0 -248 -72z" />
<glyph unicode="&#xa4;" d="M14 282l201 201q-29 48 -46.5 107.5t-17.5 131.5q0 34 5 67t14 63.5t20.5 57.5t24.5 48l-201 200l135 136l201 -201q48 29 109 48t130 19q72 0 133.5 -19t106.5 -48l201 201l135 -136l-201 -200q29 -45 48.5 -106t19.5 -130q0 -72 -19.5 -133t-48.5 -106l201 -201 l-135 -135l-201 200q-45 -29 -106.5 -48t-133.5 -19q-69 0 -130 19t-109 48l-201 -200zM380 722q0 -48 15 -90.5t42 -73.5t65.5 -49t86.5 -18t87 18t67 49t43.5 73.5t15.5 90.5t-15.5 89.5t-43.5 72t-67 48t-87 17.5t-86.5 -17.5t-65.5 -48t-42 -72t-15 -89.5z" />
<glyph unicode="&#xa5;" d="M32 430l27 123h415l-49 154h-334l26 122h268l-189 601h307l167 -603l410 603h291l-435 -601h274l-26 -122h-338l-109 -154h415l-27 -123h-417l-91 -430h-261l91 430h-415z" />
<glyph unicode="&#xa6;" horiz-adv-x="573" d="M172 -39v594h229v-594h-229zM172 915v594h229v-594h-229z" />
<glyph unicode="&#xa7;" horiz-adv-x="1169" d="M27 -93q0 60 21 99h262q-8 -26 -8 -49q0 -53 31.5 -85t108.5 -32q73 0 131 44t58 121q0 40 -24.5 77t-90.5 75l-261 148q-92 52 -127 106t-35 124q0 217 260 350q-63 78 -63 187q0 180 144.5 298.5t348.5 118.5q160 0 254.5 -75.5t94.5 -202.5q0 -59 -20 -97h-255 q8 24 8 47q0 50 -34 80.5t-90 30.5q-73 0 -126 -46.5t-53 -108.5q0 -32 23.5 -60.5t88.5 -64.5l265 -152q95 -52 128.5 -105t33.5 -120q0 -212 -264 -341q80 -83 80 -206q0 -203 -152.5 -324t-365.5 -121q-173 0 -272.5 77t-99.5 207zM354 635q0 -31 19.5 -59t57.5 -49 l279 -160q119 65 119 155q0 33 -21.5 58.5t-58.5 45.5l-278 158q-117 -62 -117 -149z" />
<glyph unicode="&#xa8;" horiz-adv-x="700" d="M166 1249l51 236h253l-51 -236h-253zM571 1249l51 236h253l-51 -236h-253z" />
<glyph unicode="&#xa9;" horiz-adv-x="1717" d="M80 737q0 338 218.5 555t562.5 217q330 0 553 -212.5t223 -559.5t-226.5 -561.5t-549.5 -214.5q-332 0 -556.5 216.5t-224.5 559.5zM294 737q0 -261 159.5 -434.5t407.5 -173.5q230 0 396.5 171.5t166.5 436.5q0 259 -163 431.5t-400 172.5q-246 0 -406.5 -171.5 t-160.5 -432.5zM448 743q0 199 113 321t309 122q156 0 251.5 -91.5t111.5 -222.5h-176q-33 136 -187 136q-97 0 -154 -71t-57 -197q0 -108 60.5 -185.5t154.5 -77.5q162 0 183 144h184q-19 -135 -117 -228.5t-250 -93.5q-189 0 -307.5 126t-118.5 318z" />
<glyph unicode="&#xaa;" horiz-adv-x="758" d="M86 583l31 148h606l-31 -148h-606zM151 992q0 92 63 154t163 75l181 25q73 9 73 59q0 26 -22.5 38t-57.5 12q-101 0 -124 -70h-194q63 225 347 225q111 0 182 -37.5t71 -105.5q0 -15 -4 -36l-77 -369q-4 -19 -4 -45q1 -30 24 -36l-7 -31h-207q-5 30 -4 76 q-93 -93 -231 -93q-78 0 -125 40.5t-47 118.5zM356 1028q0 -25 17 -38t49 -13q52 0 99.5 30t56.5 69l19 75q-32 -23 -138 -38q-103 -12 -103 -85z" />
<glyph unicode="&#xab;" horiz-adv-x="1112" d="M156 451l52 245l405 295l-52 -244l-243 -181l167 -180l-50 -230zM586 451l52 245l405 295l-52 -244l-243 -181l167 -180l-50 -230z" />
<glyph unicode="&#xac;" horiz-adv-x="1200" d="M84 403v230h1032v-633h-230v403h-802z" />
<glyph unicode="&#xad;" horiz-adv-x="682" d="M39 440l56 267h572l-56 -267h-572z" />
<glyph unicode="&#xae;" horiz-adv-x="1717" d="M80 737q0 338 218.5 555t562.5 217q330 0 553 -212.5t223 -559.5t-226.5 -561.5t-549.5 -214.5q-332 0 -556.5 216.5t-224.5 559.5zM294 737q0 -261 159.5 -434.5t407.5 -173.5q230 0 396.5 171.5t166.5 436.5q0 259 -163 431.5t-400 172.5q-246 0 -406.5 -171.5 t-160.5 -432.5zM553 326v834h339q158 0 236 -59t78 -188q0 -195 -181 -232l193 -355h-201l-170 341h-116v-341h-178zM731 801h131q88 0 120.5 26.5t32.5 84.5q0 49 -36 74.5t-110 25.5h-138v-211z" />
<glyph unicode="&#xaf;" horiz-adv-x="700" d="M151 1288l32 152h706l-32 -152h-706z" />
<glyph unicode="&#xb0;" horiz-adv-x="819" d="M117 1165q0 61 23 114t62.5 93t93 63t114.5 23q60 0 113.5 -23t93 -63t62.5 -93t23 -114q0 -60 -23 -113.5t-62.5 -93.5t-93 -63t-113.5 -23q-61 0 -114.5 23t-93 63t-62.5 93.5t-23 113.5zM231 1165q0 -37 14 -69.5t38.5 -56.5t57 -38t69.5 -14t69.5 14t56.5 38t38 56.5 t14 69.5t-14 69.5t-38 56.5t-56.5 38t-69.5 14t-69.5 -14t-57 -38t-38.5 -56.5t-14 -69.5z" />
<glyph unicode="&#xb1;" horiz-adv-x="1200" d="M84 0v229h1032v-229h-1032zM84 551v229h401v256h230v-256h401v-229h-401v-258h-230v258h-401z" />
<glyph unicode="&#xb2;" horiz-adv-x="806" d="M141 874q47 240 265 361l198 110q70 38 99 72t29 82q0 49 -28 77.5t-78 28.5q-131 0 -166 -155h-189q27 150 127 235t251 85q128 0 209 -64.5t81 -168.5q0 -100 -44 -170t-153 -134l-184 -105q-94 -54 -110 -82h388l-37 -172h-658z" />
<glyph unicode="&#xb3;" horiz-adv-x="811" d="M160 1064q0 37 13 78h197q-7 -22 -7 -40q0 -45 32 -70t93 -25q80 0 127.5 42t47.5 114q0 49 -36.5 72.5t-125.5 23.5h-46l27 130h53q78 0 129.5 38t51.5 97q0 43 -27.5 68t-79.5 25q-140 0 -167 -139h-185q61 289 384 289q128 0 205 -54t77 -146q0 -155 -160 -226v-3 q111 -40 111 -169q0 -142 -116.5 -232.5t-296.5 -90.5q-140 0 -220.5 60t-80.5 158z" />
<glyph unicode="&#xb4;" horiz-adv-x="682" d="M358 1237l251 299h330l-364 -299h-217z" />
<glyph unicode="&#xb5;" horiz-adv-x="1279" d="M-60 -424l322 1514h287l-142 -666q-4 -21 -4 -57q0 -150 158 -150q212 0 263 237l136 636h287l-168 -791q-4 -21 -4 -46q0 -54 56 -54q27 0 51 4l-44 -205q-72 -16 -142 -16q-197 0 -226 138l-4 1q-105 -151 -241 -151q-135 0 -181 136h-4l-113 -530h-287z" />
<glyph unicode="&#xb6;" horiz-adv-x="1235" d="M160 1051q0 180 147 296.5t385 122.5h231h206h229l-388 -1825h-230l351 1651h-206l-351 -1651l-230 1l234 1101h-5q-163 0 -268 77.5t-105 226.5z" />
<glyph unicode="&#xb7;" horiz-adv-x="569" d="M115 440l64 299h307l-64 -299h-307z" />
<glyph unicode="&#xb8;" horiz-adv-x="682" d="M-101 -415l59 98q79 -33 147 -33q56 0 87.5 24t31.5 60q0 30 -22.5 49.5t-58.5 19.5q-35 0 -70 -16l-36 41l150 172h121l-102 -113q31 7 57 7q67 0 110 -35.5t43 -97.5q0 -106 -88.5 -167.5t-220.5 -61.5q-117 0 -208 53z" />
<glyph unicode="&#xb9;" horiz-adv-x="672" d="M244 1466l26 125q243 0 313 153h133l-185 -870h-194l126 592h-219z" />
<glyph unicode="&#xba;" horiz-adv-x="784" d="M103 583l31 148h606l-31 -148h-606zM179 1097q0 171 118 292t298 121q130 0 209 -75.5t79 -189.5q0 -173 -121 -292.5t-298 -119.5q-129 0 -207 76t-78 188zM386 1120q0 -53 29 -88.5t80 -35.5q78 0 129.5 67t51.5 156q0 56 -29.5 92t-78.5 36q-81 0 -131.5 -70.5 t-50.5 -156.5z" />
<glyph unicode="&#xbb;" horiz-adv-x="1112" d="M93 156l52 244l243 180l-167 181l50 230l279 -295l-52 -245zM523 156l52 244l243 180l-167 181l50 230l279 -295l-52 -245z" />
<glyph unicode="&#xbc;" horiz-adv-x="1665" d="M154 -39l1193 1493h160l-1192 -1493h-161zM180 1166l26 125q243 0 313 153h133l-185 -870h-194l126 592h-219zM820 186l32 147l489 537h231l-115 -542h103l-31 -142h-103l-39 -184h-194l39 184h-412zM1007 324h255l51 243l34 132l-7 2l-84 -99z" />
<glyph unicode="&#xbd;" horiz-adv-x="1708" d="M154 -39l1193 1493h160l-1192 -1493h-161zM180 1166l26 125q243 0 313 153h133l-185 -870h-194l126 592h-219zM863 1q47 240 265 361l198 110q70 38 99 72t29 82q0 49 -28 77.5t-78 28.5q-131 0 -166 -155h-189q27 150 127 235t251 85q128 0 209 -64.5t81 -168.5 q0 -100 -44 -170t-153 -134l-184 -105q-94 -54 -110 -82h388l-37 -172h-658z" />
<glyph unicode="&#xbe;" horiz-adv-x="1804" d="M96 764q0 37 13 78h197q-7 -22 -7 -40q0 -45 32 -70t93 -25q80 0 127.5 42t47.5 114q0 49 -36.5 72.5t-125.5 23.5h-46l27 130h53q78 0 129.5 38t51.5 97q0 43 -27.5 68t-79.5 25q-140 0 -167 -139h-185q61 289 384 289q128 0 205 -54t77 -146q0 -155 -160 -226v-3 q111 -40 111 -169q0 -142 -116.5 -232.5t-296.5 -90.5q-140 0 -220.5 60t-80.5 158zM293 -39l1193 1493h160l-1192 -1493h-161zM959 186l32 147l489 537h231l-115 -542h103l-31 -142h-103l-39 -184h-194l39 184h-412zM1146 324h255l51 243l34 132l-7 2l-84 -99z" />
<glyph unicode="&#xbf;" horiz-adv-x="1235" d="M-15 -55q0 131 53.5 229.5t205.5 192.5q153 95 195.5 142t63.5 155h268q-23 -252 -247 -390q-135 -83 -179.5 -143t-44.5 -129q0 -73 43 -116t135 -43q91 0 159 60t86 177h292q-33 -227 -192.5 -353t-403.5 -126q-199 0 -316.5 102t-117.5 242zM511 801l61 289h299 l-61 -289h-299z" />
<glyph unicode="&#xc0;" horiz-adv-x="1447" d="M-85 0l836 1470h355l206 -1470h-334l-30 303h-543l-166 -303h-324zM541 557h375l-59 582h-4zM643 1896h300l130 -299h-197z" />
<glyph unicode="&#xc1;" horiz-adv-x="1447" d="M-85 0l836 1470h355l206 -1470h-334l-30 303h-543l-166 -303h-324zM541 557h375l-59 582h-4zM812 1597l251 299h330l-364 -299h-217z" />
<glyph unicode="&#xc2;" horiz-adv-x="1447" d="M-85 0l836 1470h355l206 -1470h-334l-30 303h-543l-166 -303h-324zM541 557h375l-59 582h-4zM581 1597l296 299h256l170 -299h-226l-95 168l-165 -168h-236z" />
<glyph unicode="&#xc3;" horiz-adv-x="1447" d="M-85 0l836 1470h355l206 -1470h-334l-30 303h-543l-166 -303h-324zM541 557h375l-59 582h-4zM585 1618q37 123 109.5 185.5t166.5 62.5q42 0 99 -18l122 -40q50 -16 71 -16q70 2 107 82h132q-32 -114 -104 -180.5t-164 -66.5q-44 0 -108 21l-98 32q-63 21 -95 21 q-70 0 -109 -83h-129z" />
<glyph unicode="&#xc4;" horiz-adv-x="1447" d="M-85 0l836 1470h355l206 -1470h-334l-30 303h-543l-166 -303h-324zM541 557h375l-59 582h-4zM620 1609l51 236h253l-51 -236h-253zM1025 1609l51 236h253l-51 -236h-253z" />
<glyph unicode="&#xc5;" horiz-adv-x="1447" d="M-85 0l836 1470h355l206 -1470h-334l-30 303h-543l-166 -303h-324zM541 557h375l-59 582h-4zM755 1710q0 107 79.5 182.5t186.5 75.5q79 0 132 -46t53 -121q0 -104 -78.5 -181.5t-187.5 -77.5q-85 0 -135 46.5t-50 121.5zM871 1730q0 -36 24 -58.5t61 -22.5 q53 0 93.5 40.5t40.5 91.5q0 35 -25 58t-62 23q-53 0 -92.5 -40.5t-39.5 -91.5z" />
<glyph unicode="&#xc6;" horiz-adv-x="2064" d="M-80 0l849 1470h287h46h301h758l-55 -260h-759l-65 -309h684l-56 -260h-684l-81 -381h774l-55 -260h-774h-301l67 313h-441l-173 -313h-322zM546 555h361l139 655h-134z" />
<glyph unicode="&#xc7;" horiz-adv-x="1481" d="M108 484q0 425 243 725t624 300q248 0 389 -122.5t141 -302.5q0 -55 -4 -95h-307q-3 254 -272 254q-222 0 -358 -223.5t-136 -476.5q0 -160 73 -238t205 -78q289 0 383 277h307q-182 -542 -726 -543l-67 -74q31 7 57 7q67 0 110 -35.5t43 -97.5q0 -106 -88.5 -167.5 t-220.5 -61.5q-117 0 -208 53l59 98q79 -33 147 -33q56 0 87.5 24t31.5 60q0 30 -22.5 49.5t-58.5 19.5q-35 0 -70 -16l-36 41l122 140q-202 26 -325 158t-123 358z" />
<glyph unicode="&#xc8;" horiz-adv-x="1366" d="M40 0l312 1470h302h779l-55 -260h-780l-65 -309h717l-56 -260h-717l-81 -381h815l-55 -260h-815h-301zM606 1896h300l130 -299h-197z" />
<glyph unicode="&#xc9;" horiz-adv-x="1366" d="M40 0l312 1470h302h779l-55 -260h-780l-65 -309h717l-56 -260h-717l-81 -381h815l-55 -260h-815h-301zM775 1597l251 299h330l-364 -299h-217z" />
<glyph unicode="&#xca;" horiz-adv-x="1366" d="M40 0l312 1470h302h779l-55 -260h-780l-65 -309h717l-56 -260h-717l-81 -381h815l-55 -260h-815h-301zM544 1597l296 299h256l170 -299h-226l-95 168l-165 -168h-236z" />
<glyph unicode="&#xcb;" horiz-adv-x="1366" d="M40 0l312 1470h302h779l-55 -260h-780l-65 -309h717l-56 -260h-717l-81 -381h815l-55 -260h-815h-301zM583 1609l51 236h253l-51 -236h-253zM988 1609l51 236h253l-51 -236h-253z" />
<glyph unicode="&#xcc;" horiz-adv-x="607" d="M40 0l312 1470h307l-312 -1470h-307zM220 1896h300l130 -299h-197z" />
<glyph unicode="&#xcd;" horiz-adv-x="607" d="M40 0l312 1470h307l-312 -1470h-307zM389 1597l251 299h330l-364 -299h-217z" />
<glyph unicode="&#xce;" horiz-adv-x="607" d="M40 0l312 1470h307l-312 -1470h-307zM158 1598l296 299h256l170 -299h-226l-95 168l-165 -168h-236z" />
<glyph unicode="&#xcf;" horiz-adv-x="607" d="M40 0l312 1470h307l-312 -1470h-307zM197 1609l51 236h253l-51 -236h-253zM602 1609l51 236h253l-51 -236h-253z" />
<glyph unicode="&#xd0;" horiz-adv-x="1517" d="M40 0l137 647h-135l54 254h135l121 569h303h309q250 0 380.5 -117.5t131.5 -376.5q0 -360 -209.5 -668t-589.5 -308h-336h-301zM395 254h299q240 0 351 225t112 468q-1 145 -74 207.5t-188 62.5h-295l-68 -316h371l-54 -254h-371z" />
<glyph unicode="&#xd1;" horiz-adv-x="1479" d="M40 0l312 1470h324l367 -1024h4l217 1024h286l-312 -1470h-307l-377 1049h-4l-223 -1049h-287zM607 1618q37 123 109.5 185.5t166.5 62.5q42 0 99 -18l122 -40q50 -16 71 -16q70 2 107 82h132q-32 -114 -104 -180.5t-164 -66.5q-44 0 -108 21l-98 32q-63 21 -95 21 q-70 0 -109 -83h-129z" />
<glyph unicode="&#xd2;" horiz-adv-x="1583" d="M102 548q0 377 249 669t626 292q268 0 431.5 -158.5t163.5 -427.5q0 -377 -249 -669t-626 -292q-268 0 -431.5 158.5t-163.5 427.5zM417 595q0 -168 88 -271t240 -103q217 0 364.5 201.5t147.5 449.5q0 168 -88 271t-240 103q-217 0 -364.5 -201.5t-147.5 -449.5z M707 1896h300l130 -299h-197z" />
<glyph unicode="&#xd3;" horiz-adv-x="1583" d="M102 548q0 377 249 669t626 292q268 0 431.5 -158.5t163.5 -427.5q0 -377 -249 -669t-626 -292q-268 0 -431.5 158.5t-163.5 427.5zM417 595q0 -168 88 -271t240 -103q217 0 364.5 201.5t147.5 449.5q0 168 -88 271t-240 103q-217 0 -364.5 -201.5t-147.5 -449.5z M876 1597l251 299h330l-364 -299h-217z" />
<glyph unicode="&#xd4;" horiz-adv-x="1583" d="M102 548q0 377 249 669t626 292q268 0 431.5 -158.5t163.5 -427.5q0 -377 -249 -669t-626 -292q-268 0 -431.5 158.5t-163.5 427.5zM417 595q0 -168 88 -271t240 -103q217 0 364.5 201.5t147.5 449.5q0 168 -88 271t-240 103q-217 0 -364.5 -201.5t-147.5 -449.5z M645 1597l296 299h256l170 -299h-226l-95 168l-165 -168h-236z" />
<glyph unicode="&#xd5;" horiz-adv-x="1583" d="M102 548q0 377 249 669t626 292q268 0 431.5 -158.5t163.5 -427.5q0 -377 -249 -669t-626 -292q-268 0 -431.5 158.5t-163.5 427.5zM417 595q0 -168 88 -271t240 -103q217 0 364.5 201.5t147.5 449.5q0 168 -88 271t-240 103q-217 0 -364.5 -201.5t-147.5 -449.5z M649 1618q37 123 109.5 185.5t166.5 62.5q42 0 99 -18l122 -40q50 -16 71 -16q70 2 107 82h132q-32 -114 -104 -180.5t-164 -66.5q-44 0 -108 21l-98 32q-63 21 -95 21q-70 0 -109 -83h-129z" />
<glyph unicode="&#xd6;" horiz-adv-x="1583" d="M102 548q0 377 249 669t626 292q268 0 431.5 -158.5t163.5 -427.5q0 -377 -249 -669t-626 -292q-268 0 -431.5 158.5t-163.5 427.5zM417 595q0 -168 88 -271t240 -103q217 0 364.5 201.5t147.5 449.5q0 168 -88 271t-240 103q-217 0 -364.5 -201.5t-147.5 -449.5z M684 1609l51 236h253l-51 -236h-253zM1089 1609l51 236h253l-51 -236h-253z" />
<glyph unicode="&#xd7;" horiz-adv-x="1200" d="M83 164l354 354l-354 354l162 162l354 -354l354 354l162 -162l-354 -354l356 -354l-164 -162l-354 354l-352 -354z" />
<glyph unicode="&#xd8;" horiz-adv-x="1583" d="M-42 23l225 200q-81 135 -81 325q0 377 249 669t626 292q287 0 451 -179l219 196l70 -78l-226 -201q81 -135 81 -324q0 -377 -249 -669t-626 -292q-285 0 -451 178l-219 -195zM417 595q0 -81 20 -146l751 668q-89 129 -259 129q-217 0 -364.5 -201.5t-147.5 -449.5z M484 351q91 -130 261 -130q217 0 364.5 201.5t147.5 449.5q0 82 -21 148z" />
<glyph unicode="&#xd9;" horiz-adv-x="1476" d="M124 347q0 71 17 151l206 972h314l-202 -954q-11 -53 -11 -94q0 -100 56.5 -150.5t166.5 -50.5q135 0 224.5 69.5t119.5 211.5l205 968h313l-203 -956q-60 -278 -237 -415.5t-449 -137.5q-251 0 -385.5 99t-134.5 287zM654 1896h300l130 -299h-197z" />
<glyph unicode="&#xda;" horiz-adv-x="1476" d="M124 347q0 71 17 151l206 972h314l-202 -954q-11 -53 -11 -94q0 -100 56.5 -150.5t166.5 -50.5q135 0 224.5 69.5t119.5 211.5l205 968h313l-203 -956q-60 -278 -237 -415.5t-449 -137.5q-251 0 -385.5 99t-134.5 287zM823 1597l251 299h330l-364 -299h-217z" />
<glyph unicode="&#xdb;" horiz-adv-x="1476" d="M124 347q0 71 17 151l206 972h314l-202 -954q-11 -53 -11 -94q0 -100 56.5 -150.5t166.5 -50.5q135 0 224.5 69.5t119.5 211.5l205 968h313l-203 -956q-60 -278 -237 -415.5t-449 -137.5q-251 0 -385.5 99t-134.5 287zM592 1597l296 299h256l170 -299h-226l-95 168 l-165 -168h-236z" />
<glyph unicode="&#xdc;" horiz-adv-x="1476" d="M124 347q0 71 17 151l206 972h314l-202 -954q-11 -53 -11 -94q0 -100 56.5 -150.5t166.5 -50.5q135 0 224.5 69.5t119.5 211.5l205 968h313l-203 -956q-60 -278 -237 -415.5t-449 -137.5q-251 0 -385.5 99t-134.5 287zM631 1609l51 236h253l-51 -236h-253zM1036 1609 l51 236h253l-51 -236h-253z" />
<glyph unicode="&#xdd;" horiz-adv-x="1307" d="M194 1470h362l170 -639l426 639h348l-686 -919l-117 -551h-307l118 555zM745 1597l251 299h330l-364 -299h-217z" />
<glyph unicode="&#xde;" horiz-adv-x="1348" d="M40 0l312 1470h307l-42 -200h348q182 0 285 -93t103 -262q0 -243 -147.5 -414t-387.5 -171h-398l-72 -330h-308zM472 584h280q136 0 212 69.5t76 207.5q0 80 -47.5 118t-144.5 38h-284z" />
<glyph unicode="&#xdf;" horiz-adv-x="1255" d="M25 0l225 1054q92 443 555 443q193 0 310 -88.5t117 -246.5q0 -222 -235 -339q184 -96 184 -307q0 -231 -176.5 -387.5t-419.5 -156.5q-79 0 -133 12l47 226q33 -3 73 -3q137 0 225 81.5t88 215.5q0 99 -55.5 152t-150.5 53q-27 0 -58 -5l41 201q23 -2 45 -2 q96 0 161.5 59.5t65.5 153.5q0 152 -176 152t-223 -219l-223 -1049h-287z" />
<glyph unicode="&#xe0;" horiz-adv-x="1170" d="M7 238q0 157 107.5 262.5t276.5 128.5l306 41q123 16 123 118q0 53 -43 78.5t-113 25.5q-195 0 -240 -155h-278q102 381 560 381q179 0 293 -64t114 -178q0 -27 -7 -61l-131 -626q-7 -32 -7 -76q0 -60 39 -70l-9 -43h-305q-9 52 -3 129q-158 -158 -391 -158 q-138 0 -215 69t-77 198zM303 282q0 -51 33 -78.5t93 -27.5q101 0 195 61t111 140l32 151q-63 -40 -269 -67q-195 -26 -195 -179zM434 1536h300l130 -299h-197z" />
<glyph unicode="&#xe1;" horiz-adv-x="1170" d="M7 238q0 157 107.5 262.5t276.5 128.5l306 41q123 16 123 118q0 53 -43 78.5t-113 25.5q-195 0 -240 -155h-278q102 381 560 381q179 0 293 -64t114 -178q0 -27 -7 -61l-131 -626q-7 -32 -7 -76q0 -60 39 -70l-9 -43h-305q-9 52 -3 129q-158 -158 -391 -158 q-138 0 -215 69t-77 198zM303 282q0 -51 33 -78.5t93 -27.5q101 0 195 61t111 140l32 151q-63 -40 -269 -67q-195 -26 -195 -179zM603 1237l251 299h330l-364 -299h-217z" />
<glyph unicode="&#xe2;" horiz-adv-x="1170" d="M7 238q0 157 107.5 262.5t276.5 128.5l306 41q123 16 123 118q0 53 -43 78.5t-113 25.5q-195 0 -240 -155h-278q102 381 560 381q179 0 293 -64t114 -178q0 -27 -7 -61l-131 -626q-7 -32 -7 -76q0 -60 39 -70l-9 -43h-305q-9 52 -3 129q-158 -158 -391 -158 q-138 0 -215 69t-77 198zM303 282q0 -51 33 -78.5t93 -27.5q101 0 195 61t111 140l32 151q-63 -40 -269 -67q-195 -26 -195 -179zM377 1237l296 299h256l170 -299h-226l-95 168l-165 -168h-236z" />
<glyph unicode="&#xe3;" horiz-adv-x="1170" d="M7 238q0 157 107.5 262.5t276.5 128.5l306 41q123 16 123 118q0 53 -43 78.5t-113 25.5q-195 0 -240 -155h-278q102 381 560 381q179 0 293 -64t114 -178q0 -27 -7 -61l-131 -626q-7 -32 -7 -76q0 -60 39 -70l-9 -43h-305q-9 52 -3 129q-158 -158 -391 -158 q-138 0 -215 69t-77 198zM303 282q0 -51 33 -78.5t93 -27.5q101 0 195 61t111 140l32 151q-63 -40 -269 -67q-195 -26 -195 -179zM376 1258q37 123 109.5 185.5t166.5 62.5q42 0 99 -18l122 -40q50 -16 71 -16q70 2 107 82h132q-32 -114 -104 -180.5t-164 -66.5 q-44 0 -108 21l-98 32q-63 21 -95 21q-70 0 -109 -83h-129z" />
<glyph unicode="&#xe4;" horiz-adv-x="1170" d="M7 238q0 157 107.5 262.5t276.5 128.5l306 41q123 16 123 118q0 53 -43 78.5t-113 25.5q-195 0 -240 -155h-278q102 381 560 381q179 0 293 -64t114 -178q0 -27 -7 -61l-131 -626q-7 -32 -7 -76q0 -60 39 -70l-9 -43h-305q-9 52 -3 129q-158 -158 -391 -158 q-138 0 -215 69t-77 198zM303 282q0 -51 33 -78.5t93 -27.5q101 0 195 61t111 140l32 151q-63 -40 -269 -67q-195 -26 -195 -179zM411 1249l51 236h253l-51 -236h-253zM816 1249l51 236h253l-51 -236h-253z" />
<glyph unicode="&#xe5;" horiz-adv-x="1170" d="M7 238q0 157 107.5 262.5t276.5 128.5l306 41q123 16 123 118q0 53 -43 78.5t-113 25.5q-195 0 -240 -155h-278q102 381 560 381q179 0 293 -64t114 -178q0 -27 -7 -61l-131 -626q-7 -32 -7 -76q0 -60 39 -70l-9 -43h-305q-9 52 -3 129q-158 -158 -391 -158 q-138 0 -215 69t-77 198zM303 282q0 -51 33 -78.5t93 -27.5q101 0 195 61t111 140l32 151q-63 -40 -269 -67q-195 -26 -195 -179zM546 1350q0 107 79.5 182.5t186.5 75.5q79 0 132 -46t53 -121q0 -104 -78.5 -181.5t-187.5 -77.5q-85 0 -135 46.5t-50 121.5zM662 1370 q0 -36 24 -58.5t61 -22.5q53 0 93.5 40.5t40.5 91.5q0 35 -25 58t-62 23q-53 0 -92.5 -40.5t-39.5 -91.5z" />
<glyph unicode="&#xe6;" horiz-adv-x="1834" d="M7 238q0 157 107.5 262.5t276.5 128.5l306 41q123 16 123 118q0 53 -43 78.5t-113 25.5q-195 0 -240 -155h-278q102 381 560 381q244 0 331 -121q157 121 346 121q190 0 302.5 -115.5t112.5 -301.5q0 -108 -35 -234h-758q-3 -35 -3 -55q0 -211 192 -211q162 0 231 118 h295q-161 -348 -567 -348q-255 0 -365 192q-177 -192 -470 -192q-157 0 -234 69t-77 198zM303 282q0 -51 33 -78.5t93 -27.5q101 0 195 61t111 140l32 151q-63 -40 -269 -67q-195 -26 -195 -179zM1049 653h457q5 37 5 60q0 84 -45 126.5t-129 42.5q-194 0 -288 -229z" />
<glyph unicode="&#xe7;" horiz-adv-x="1143" d="M55 377q0 289 188 515t480 226q177 0 288 -92.5t111 -245.5q0 -35 -8 -80h-289v16q1 83 -41.5 122t-117.5 39q-135 0 -222 -140.5t-87 -322.5q0 -98 42 -152.5t117 -54.5q159 0 242 190h291q-159 -427 -565 -428l-74 -82q31 7 57 7q67 0 110 -35.5t43 -97.5 q0 -106 -88.5 -167.5t-220.5 -61.5q-117 0 -208 53l59 98q79 -33 147 -33q56 0 87.5 24t31.5 60q0 30 -22.5 49.5t-58.5 19.5q-35 0 -70 -16l-36 41l132 151q-134 23 -226 127.5t-92 270.5z" />
<glyph unicode="&#xe8;" horiz-adv-x="1174" d="M54 385q0 293 188 513t475 220q196 0 308.5 -115.5t112.5 -301.5q0 -108 -35 -234h-758q-3 -35 -3 -55q0 -211 192 -211q162 0 231 118h295q-161 -348 -572 -348q-193 0 -313.5 109.5t-120.5 304.5zM389 653h457q5 37 5 60q0 84 -45 126.5t-129 42.5q-194 0 -288 -229z M439 1536h300l130 -299h-197z" />
<glyph unicode="&#xe9;" horiz-adv-x="1174" d="M54 385q0 293 188 513t475 220q196 0 308.5 -115.5t112.5 -301.5q0 -108 -35 -234h-758q-3 -35 -3 -55q0 -211 192 -211q162 0 231 118h295q-161 -348 -572 -348q-193 0 -313.5 109.5t-120.5 304.5zM389 653h457q5 37 5 60q0 84 -45 126.5t-129 42.5q-194 0 -288 -229z M608 1237l251 299h330l-364 -299h-217z" />
<glyph unicode="&#xea;" horiz-adv-x="1174" d="M54 385q0 293 188 513t475 220q196 0 308.5 -115.5t112.5 -301.5q0 -108 -35 -234h-758q-3 -35 -3 -55q0 -211 192 -211q162 0 231 118h295q-161 -348 -572 -348q-193 0 -313.5 109.5t-120.5 304.5zM377 1237l296 299h256l170 -299h-226l-95 168l-165 -168h-236zM389 653 h457q5 37 5 60q0 84 -45 126.5t-129 42.5q-194 0 -288 -229z" />
<glyph unicode="&#xeb;" horiz-adv-x="1174" d="M54 385q0 293 188 513t475 220q196 0 308.5 -115.5t112.5 -301.5q0 -108 -35 -234h-758q-3 -35 -3 -55q0 -211 192 -211q162 0 231 118h295q-161 -348 -572 -348q-193 0 -313.5 109.5t-120.5 304.5zM389 653h457q5 37 5 60q0 84 -45 126.5t-129 42.5q-194 0 -288 -229z M416 1249l51 236h253l-51 -236h-253zM821 1249l51 236h253l-51 -236h-253z" />
<glyph unicode="&#xec;" horiz-adv-x="607" d="M50 0l232 1090h287l-232 -1090h-287zM124 1536h300l130 -299h-197z" />
<glyph unicode="&#xed;" horiz-adv-x="607" d="M50 0l232 1090h287l-232 -1090h-287zM333 1237l251 299h330l-364 -299h-217z" />
<glyph unicode="&#xee;" horiz-adv-x="607" d="M50 0l232 1090h287l-232 -1090h-287zM82 1237l296 299h256l170 -299h-226l-95 168l-165 -168h-236z" />
<glyph unicode="&#xef;" horiz-adv-x="607" d="M50 0l232 1090h287l-232 -1090h-287zM121 1249l51 236h253l-51 -236h-253zM526 1249l51 236h253l-51 -236h-253z" />
<glyph unicode="&#xf0;" horiz-adv-x="1269" d="M65 416q0 263 173 451.5t415 188.5q165 0 278 -107l6 4q-42 152 -152 257l-241 -94l-106 105l241 96q-55 52 -131 92l243 100q82 -36 143 -90l228 90l104 -106l-226 -90q188 -222 188 -525q0 -351 -196.5 -585t-502.5 -234q-203 0 -333.5 125t-130.5 322zM363 452 q0 -115 55 -177t151 -62q145 0 241 121.5t96 268.5q0 96 -56 153.5t-150 57.5q-146 0 -241.5 -103t-95.5 -259z" />
<glyph unicode="&#xf1;" horiz-adv-x="1250" d="M30 0l232 1090h275l-34 -160h4q165 188 372 188q143 0 224.5 -73.5t81.5 -201.5q0 -40 -15 -114l-155 -729h-287l144 677q8 39 8 71q0 65 -34 97t-103 32q-107 0 -190 -76t-112 -217l-124 -584h-287zM416 1258q37 123 109.5 185.5t166.5 62.5q42 0 99 -18l122 -40 q50 -16 71 -16q70 2 107 82h132q-32 -114 -104 -180.5t-164 -66.5q-44 0 -108 21l-98 32q-63 21 -95 21q-70 0 -109 -83h-129z" />
<glyph unicode="&#xf2;" horiz-adv-x="1258" d="M65 419q0 289 191.5 494t482.5 205q210 0 338 -128t128 -322q0 -293 -195 -495t-484 -202q-209 0 -335 128.5t-126 319.5zM362 449q0 -103 54 -169.5t151 -66.5q146 0 243.5 127.5t97.5 294.5q0 107 -55.5 174.5t-148.5 67.5q-152 0 -247 -133.5t-95 -294.5zM468 1536 h300l130 -299h-197z" />
<glyph unicode="&#xf3;" horiz-adv-x="1258" d="M65 419q0 289 191.5 494t482.5 205q210 0 338 -128t128 -322q0 -293 -195 -495t-484 -202q-209 0 -335 128.5t-126 319.5zM362 449q0 -103 54 -169.5t151 -66.5q146 0 243.5 127.5t97.5 294.5q0 107 -55.5 174.5t-148.5 67.5q-152 0 -247 -133.5t-95 -294.5zM637 1237 l251 299h330l-364 -299h-217z" />
<glyph unicode="&#xf4;" horiz-adv-x="1258" d="M65 419q0 289 191.5 494t482.5 205q210 0 338 -128t128 -322q0 -293 -195 -495t-484 -202q-209 0 -335 128.5t-126 319.5zM362 449q0 -103 54 -169.5t151 -66.5q146 0 243.5 127.5t97.5 294.5q0 107 -55.5 174.5t-148.5 67.5q-152 0 -247 -133.5t-95 -294.5zM406 1237 l296 299h256l170 -299h-226l-95 168l-165 -168h-236z" />
<glyph unicode="&#xf5;" horiz-adv-x="1258" d="M65 419q0 289 191.5 494t482.5 205q210 0 338 -128t128 -322q0 -293 -195 -495t-484 -202q-209 0 -335 128.5t-126 319.5zM362 449q0 -103 54 -169.5t151 -66.5q146 0 243.5 127.5t97.5 294.5q0 107 -55.5 174.5t-148.5 67.5q-152 0 -247 -133.5t-95 -294.5zM410 1258 q37 123 109.5 185.5t166.5 62.5q42 0 99 -18l122 -40q50 -16 71 -16q70 2 107 82h132q-32 -114 -104 -180.5t-164 -66.5q-44 0 -108 21l-98 32q-63 21 -95 21q-70 0 -109 -83h-129z" />
<glyph unicode="&#xf6;" horiz-adv-x="1258" d="M65 419q0 289 191.5 494t482.5 205q210 0 338 -128t128 -322q0 -293 -195 -495t-484 -202q-209 0 -335 128.5t-126 319.5zM362 449q0 -103 54 -169.5t151 -66.5q146 0 243.5 127.5t97.5 294.5q0 107 -55.5 174.5t-148.5 67.5q-152 0 -247 -133.5t-95 -294.5zM445 1249 l51 236h253l-51 -236h-253zM850 1249l51 236h253l-51 -236h-253z" />
<glyph unicode="&#xf7;" horiz-adv-x="1200" d="M84 403v230h1032v-230h-1032zM428 104q0 35 13.5 65.5t36.5 53.5t53.5 36.5t65.5 13.5q33 0 63.5 -13.5t53.5 -36.5t36.5 -54t13.5 -65q0 -31 -13.5 -61t-36.5 -53.5t-52.5 -38t-62.5 -14.5q-35 0 -66 13.5t-54.5 36t-37 53t-13.5 64.5zM432 930q0 35 13.5 65.5 t36.5 53.5t53.5 36.5t65.5 13.5q33 0 63.5 -13.5t53.5 -36.5t36.5 -54t13.5 -65q0 -31 -13.5 -61t-36.5 -53.5t-52.5 -38t-62.5 -14.5q-35 0 -66 13.5t-54.5 36t-37 53t-13.5 64.5z" />
<glyph unicode="&#xf8;" horiz-adv-x="1258" d="M-61 9l191 164q-65 101 -65 246q0 289 191.5 494t482.5 205q197 0 340 -130l184 158l65 -75l-186 -160q63 -118 63 -243q0 -293 -195 -495t-484 -202q-197 0 -332 126l-182 -156zM362 449q0 -39 6 -71l494 423q-58 76 -158 76q-150 -1 -246 -134t-96 -294zM411 283 q59 -70 156 -70q146 0 243.5 127t97.5 295q0 41 -6 70z" />
<glyph unicode="&#xf9;" horiz-adv-x="1256" d="M90 249q0 59 14 124l153 717h287l-144 -676q-9 -43 -9 -69q0 -132 150 -132q104 0 177.5 67.5t98.5 180.5l134 629h287l-232 -1090h-274l33 154h-4q-137 -183 -356 -183q-143 0 -229 74.5t-86 203.5zM464 1536h300l130 -299h-197z" />
<glyph unicode="&#xfa;" horiz-adv-x="1256" d="M90 249q0 59 14 124l153 717h287l-144 -676q-9 -43 -9 -69q0 -132 150 -132q104 0 177.5 67.5t98.5 180.5l134 629h287l-232 -1090h-274l33 154h-4q-137 -183 -356 -183q-143 0 -229 74.5t-86 203.5zM633 1237l251 299h330l-364 -299h-217z" />
<glyph unicode="&#xfb;" horiz-adv-x="1256" d="M90 249q0 59 14 124l153 717h287l-144 -676q-9 -43 -9 -69q0 -132 150 -132q104 0 177.5 67.5t98.5 180.5l134 629h287l-232 -1090h-274l33 154h-4q-137 -183 -356 -183q-143 0 -229 74.5t-86 203.5zM402 1237l296 299h256l170 -299h-226l-95 168l-165 -168h-236z" />
<glyph unicode="&#xfc;" horiz-adv-x="1256" d="M90 249q0 59 14 124l153 717h287l-144 -676q-9 -43 -9 -69q0 -132 150 -132q104 0 177.5 67.5t98.5 180.5l134 629h287l-232 -1090h-274l33 154h-4q-137 -183 -356 -183q-143 0 -229 74.5t-86 203.5zM441 1249l51 236h253l-51 -236h-253zM846 1249l51 236h253l-51 -236 h-253z" />
<glyph unicode="&#xfd;" horiz-adv-x="1143" d="M-15 -430l47 225q34 -4 78 -4q62 0 107 26t95 136l-162 1137h304l70 -803h5l388 803h317l-603 -1072l-40 -70q-99 -174 -152 -245t-119.5 -106.5t-206.5 -35.5q-67 0 -128 9zM586 1237l251 299h330l-364 -299h-217z" />
<glyph unicode="&#xfe;" horiz-adv-x="1272" d="M-60 -424l402 1894h287l-110 -522h4q153 170 344 170q162 0 260 -112.5t98 -288.5q0 -274 -169 -510t-427 -236q-207 0 -278 168h-4l-120 -563h-287zM404 422q0 -96 50.5 -155.5t136.5 -59.5q147 0 238 148.5t91 315.5q0 90 -46.5 144.5t-138.5 54.5 q-142 0 -236.5 -143.5t-94.5 -304.5z" />
<glyph unicode="&#xff;" horiz-adv-x="1143" d="M-15 -430l47 225q34 -4 78 -4q62 0 107 26t95 136l-162 1137h304l70 -803h5l388 803h317l-603 -1072l-40 -70q-99 -174 -152 -245t-119.5 -106.5t-206.5 -35.5q-67 0 -128 9zM394 1249l51 236h253l-51 -236h-253zM799 1249l51 236h253l-51 -236h-253z" />
<glyph unicode="&#x152;" horiz-adv-x="2072" d="M106 494q-1 375 211.5 695t575.5 320q203 0 309 -135l20 96h281h681l-55 -260h-682l-65 -309h635l-56 -260h-635l-81 -381h682l-55 -260h-683h-279l22 102q-147 -141 -346 -141q-218 0 -349 147.5t-131 385.5zM415 548q0 -173 69.5 -253t182.5 -80q119 0 205.5 61.5 t116.5 200.5l125 582q20 93 -42.5 144.5t-169.5 51.5q-228 0 -357.5 -224t-129.5 -483z" />
<glyph unicode="&#x153;" horiz-adv-x="1938" d="M65 419q0 289 191.5 494t482.5 205q242 0 350 -164q178 164 398 164q190 0 302.5 -115.5t112.5 -301.5q0 -108 -35 -234h-758q-3 -35 -3 -55q0 -211 187 -211q167 0 236 118h295q-161 -348 -567 -348q-235 0 -348 155q-156 -155 -383 -155q-209 0 -335 128.5t-126 319.5z M362 449q0 -103 54 -169.5t151 -66.5q146 0 241 127.5t95 294.5q0 107 -53 174.5t-146 67.5q-152 0 -247 -133.5t-95 -294.5zM1153 653h457q5 37 5 60q0 84 -45 126.5t-129 42.5q-194 0 -288 -229z" />
<glyph unicode="&#x178;" horiz-adv-x="1307" d="M194 1470h362l170 -639l426 639h348l-686 -919l-117 -551h-307l118 555zM553 1609l51 236h253l-51 -236h-253zM958 1609l51 236h253l-51 -236h-253z" />
<glyph unicode="&#x2c6;" horiz-adv-x="700" d="M127 1237l296 299h256l170 -299h-226l-95 168l-165 -168h-236z" />
<glyph unicode="&#x2dc;" horiz-adv-x="700" d="M131 1258q37 123 109.5 185.5t166.5 62.5q42 0 99 -18l122 -40q50 -16 71 -16q70 2 107 82h132q-32 -114 -104 -180.5t-164 -66.5q-44 0 -108 21l-98 32q-63 21 -95 21q-70 0 -109 -83h-129z" />
<glyph unicode="&#x2000;" horiz-adv-x="984" />
<glyph unicode="&#x2001;" horiz-adv-x="1968" />
<glyph unicode="&#x2002;" horiz-adv-x="984" />
<glyph unicode="&#x2003;" horiz-adv-x="1968" />
<glyph unicode="&#x2004;" horiz-adv-x="656" />
<glyph unicode="&#x2005;" horiz-adv-x="492" />
<glyph unicode="&#x2006;" horiz-adv-x="328" />
<glyph unicode="&#x2007;" horiz-adv-x="328" />
<glyph unicode="&#x2008;" horiz-adv-x="246" />
<glyph unicode="&#x2009;" horiz-adv-x="393" />
<glyph unicode="&#x200a;" horiz-adv-x="109" />
<glyph unicode="&#x2010;" horiz-adv-x="682" d="M39 440l56 267h572l-56 -267h-572z" />
<glyph unicode="&#x2011;" horiz-adv-x="682" d="M39 440l56 267h572l-56 -267h-572z" />
<glyph unicode="&#x2012;" horiz-adv-x="682" d="M39 440l56 267h572l-56 -267h-572z" />
<glyph unicode="&#x2013;" horiz-adv-x="1024" d="M-11 465l46 217h1024l-46 -217h-1024z" />
<glyph unicode="&#x2014;" horiz-adv-x="2048" d="M-11 465l46 217h2048l-46 -217h-2048z" />
<glyph unicode="&#x2018;" horiz-adv-x="527" d="M218 930l44 211q63 298 355 348l-22 -108q-158 -38 -190 -191h155l-55 -260h-287z" />
<glyph unicode="&#x2019;" horiz-adv-x="527" d="M200 911l22 108q158 38 190 191h-155l55 260h287l-44 -211q-63 -298 -355 -348z" />
<glyph unicode="&#x201a;" horiz-adv-x="527" d="M-26 -298l22 108q158 38 190 191h-155l55 260h287l-44 -211q-63 -298 -355 -348z" />
<glyph unicode="&#x201c;" horiz-adv-x="972" d="M218 930l44 211q63 298 355 348l-22 -108q-158 -38 -190 -191h155l-55 -260h-287zM663 930l44 211q63 298 355 348l-22 -108q-158 -38 -190 -191h155l-55 -260h-287z" />
<glyph unicode="&#x201d;" horiz-adv-x="972" d="M200 911l22 108q158 38 190 191h-155l55 260h287l-44 -211q-63 -298 -355 -348zM645 911l22 108q158 38 190 191h-155l55 260h287l-44 -211q-63 -298 -355 -348z" />
<glyph unicode="&#x201e;" horiz-adv-x="972" d="M-26 -298l22 108q158 38 190 191h-155l55 260h287l-44 -211q-63 -298 -355 -348zM418 -298l22 108q158 38 190 191h-155l55 260h287l-44 -211q-63 -298 -355 -348z" />
<glyph unicode="&#x2022;" horiz-adv-x="800" d="M77 735q0 137 91.5 230.5t229.5 93.5q137 0 230.5 -93.5t93.5 -230.5t-93.5 -229t-230.5 -92t-229 91.5t-92 229.5z" />
<glyph unicode="&#x2026;" horiz-adv-x="2240" d="M155 0l64 299h307l-64 -299h-307zM857 0l64 299h307l-64 -299h-307zM1559 0l64 299h307l-64 -299h-307z" />
<glyph unicode="&#x202f;" horiz-adv-x="393" />
<glyph unicode="&#x2039;" horiz-adv-x="682" d="M156 451l52 245l405 295l-52 -244l-243 -181l167 -180l-50 -230z" />
<glyph unicode="&#x203a;" horiz-adv-x="682" d="M93 156l52 244l243 180l-167 181l50 230l279 -295l-52 -245z" />
<glyph unicode="&#x205f;" horiz-adv-x="492" />
<glyph unicode="&#x20ac;" d="M40 542l40 113h96q11 74 30 147h-111l40 113h107q202 555 625 555q172 0 276.5 -92.5t104.5 -263.5q0 -12 -3 -37h-275q-4 135 -151 135q-180 0 -279 -297h369l-43 -113h-361q-18 -73 -28 -147h335l-43 -113h-303q-1 -32 -1 -63q0 -132 40 -197t115 -65q136 0 205 167 h276q-37 -169 -178 -296t-328 -127q-219 0 -326 125t-107 371q0 43 2 85h-124z" />
<glyph unicode="&#x2122;" horiz-adv-x="2048" d="M255 1296l37 174h698l-37 -174h-235l-142 -669h-229l142 669h-234zM971 627l179 843h314l84 -512l299 512h313l-179 -843h-217l122 575h-4l-323 -575h-166l-79 575h-4l-122 -575h-217z" />
<glyph unicode="&#xe000;" horiz-adv-x="1090" d="M0 0v1090h1090v-1090h-1090z" />
<glyph unicode="&#xfb01;" horiz-adv-x="1243" d="M58 0l188 885h-153l44 205h153l18 88q34 160 128.5 236t277.5 76q70 0 127 -6l-50 -233q-34 3 -72 3q-61 0 -88 -18t-38 -71l-16 -75h184l-44 -205h-184l-188 -885h-287zM706 0l232 1090h287l-232 -1090h-287zM965 1219l57 266h287l-57 -266h-287z" />
<glyph unicode="&#xfb02;" horiz-adv-x="1243" d="M58 0l188 885h-153l44 205h153l18 88q34 160 128.5 236t277.5 76q70 0 127 -6l-50 -233q-34 3 -72 3q-61 0 -88 -18t-38 -71l-16 -75h184l-44 -205h-184l-188 -885h-287zM706 0l312 1470h287l-312 -1470h-287z" />
<glyph unicode="&#xfb03;" horiz-adv-x="1919" d="M58 0l188 885h-153l44 205h153l18 88q34 160 128.5 236t277.5 76q70 0 127 -6l-50 -233q-34 3 -72 3q-61 0 -88 -18t-38 -71l-16 -75h184l-44 -205h-184l-188 -885h-287zM734 0l188 885h-153l44 205h153l18 88q34 160 128.5 236t277.5 76q70 0 127 -6l-50 -233 q-34 3 -72 3q-61 0 -88 -18t-38 -71l-16 -75h184l-44 -205h-184l-188 -885h-287zM1382 0l232 1090h287l-232 -1090h-287zM1641 1219l57 266h287l-57 -266h-287z" />
<glyph unicode="&#xfb04;" horiz-adv-x="1919" d="M58 0l188 885h-153l44 205h153l18 88q34 160 128.5 236t277.5 76q70 0 127 -6l-50 -233q-34 3 -72 3q-61 0 -88 -18t-38 -71l-16 -75h184l-44 -205h-184l-188 -885h-287zM734 0l188 885h-153l44 205h153l18 88q34 160 128.5 236t277.5 76q70 0 127 -6l-50 -233 q-34 3 -72 3q-61 0 -88 -18t-38 -71l-16 -75h184l-44 -205h-184l-188 -885h-287zM1382 0l312 1470h287l-312 -1470h-287z" />
</font>
</defs>
</svg>
