<?xml version="1.0" standalone="no"?>
<!DOCTYPE svg PUBLIC "-//W3C//DTD SVG 1.1//EN" "http://www.w3.org/Graphics/SVG/1.1/DTD/svg11.dtd" >
<svg xmlns="http://www.w3.org/2000/svg">
<metadata></metadata>
<defs>
<font id="helvetica_worldbold" horiz-adv-x="1180" >
<font-face units-per-em="2048" ascent="1638" descent="-410" />
<missing-glyph horiz-adv-x="550" />
<glyph horiz-adv-x="0" />
<glyph horiz-adv-x="0" />
<glyph unicode="&#xd;" horiz-adv-x="1024" />
<glyph unicode=" "  horiz-adv-x="550" />
<glyph unicode="&#x09;" horiz-adv-x="550" />
<glyph unicode="&#xa0;" horiz-adv-x="550" />
<glyph unicode="!" horiz-adv-x="681" d="M195 1096v374h316v-374l-82 -688h-152zM204 0v289h299v-289h-299z" />
<glyph unicode="&#x22;" horiz-adv-x="971" d="M195 915v555h201v-555h-201zM575 915v555h201v-555h-201z" />
<glyph unicode="#" horiz-adv-x="1139" d="M37 408l24 184h199l35 246h-199l25 184h198l58 408h192l-57 -408h199l57 408h193l-58 -408h199l-25 -184h-198l-35 -246h198l-24 -184h-199l-57 -408h-193l58 408h-199l-57 -408h-193l58 408h-199zM453 592h198l35 246h-199z" />
<glyph unicode="$" d="M85 440h269q5 -113 43 -175t149 -83v427q-430 95 -430 419q0 190 116.5 304t313.5 122v133h94v-133q208 -17 312.5 -122.5t120.5 -305.5h-264q-10 109 -50 160q-37 48 -119 51v-383q237 -70 346 -167t109 -281q0 -187 -126 -310.5t-329 -130.5v-201h-94v201 q-244 17 -352.5 132t-108.5 343zM374 1077q0 -77 40.5 -125t131.5 -72v357q-77 -5 -124.5 -50.5t-47.5 -109.5zM640 182q78 4 129.5 54.5t51.5 146.5q0 143 -181 198v-399z" />
<glyph unicode="%" horiz-adv-x="1876" d="M80 1081q0 78 29.5 146t80 118.5t118.5 79.5t145 29q76 0 144 -29.5t119 -80t80.5 -118.5t29.5 -145q0 -78 -29.5 -145.5t-80.5 -118t-119 -79.5t-144 -29q-77 0 -145 28.5t-118.5 79t-80 118.5t-29.5 146zM291 1081q0 -34 13 -63.5t35 -51t51.5 -34t62.5 -12.5 t62.5 12.5t51.5 34t35 51t13 63.5t-13 63.5t-35 51.5t-51.5 34.5t-62.5 12.5t-62.5 -12.5t-51.5 -34.5t-35 -51.5t-13 -63.5zM455 -39l815 1493h152l-816 -1493h-151zM1051 343q0 78 29.5 146t80 118.5t118.5 79.5t145 29q76 0 143.5 -29.5t118.5 -80t80.5 -118.5t29.5 -145 q0 -78 -29.5 -146t-80.5 -118.5t-118.5 -79.5t-143.5 -29q-77 0 -145 29t-118.5 79t-80 118.5t-29.5 146.5zM1262 343q0 -34 13 -63.5t35 -51.5t51.5 -34.5t62.5 -12.5t62.5 12.5t51 34.5t34.5 51.5t13 63.5t-13 63.5t-34.5 51.5t-51 34.5t-62.5 12.5t-62.5 -12.5 t-51.5 -34.5t-35 -51.5t-13 -63.5z" />
<glyph unicode="&#x26;" horiz-adv-x="1460" d="M90 379q0 265 282 428l31 18q-133 151 -133 308q0 148 108 242.5t268 94.5t267.5 -91t107.5 -249q0 -205 -243 -350l209 -258q67 112 75 242h254q-21 -266 -168 -442l267 -322h-346l-101 125q-151 -164 -420 -164q-200 0 -329 123t-129 295zM376 397q0 -72 57.5 -133 t159.5 -61q114 0 228 102l-271 338q-95 -64 -134.5 -114.5t-39.5 -131.5zM532 1135q0 -75 106 -185q136 82 136 183q0 61 -35.5 90.5t-87.5 29.5q-53 0 -86 -32.5t-33 -85.5z" />
<glyph unicode="'" horiz-adv-x="487" d="M143 915v555h201v-555h-201z" />
<glyph unicode="(" horiz-adv-x="781" d="M120 535q0 508 360 968h211q-276 -436 -276 -968t276 -961h-211q-360 453 -360 961z" />
<glyph unicode=")" horiz-adv-x="761" d="M70 -426q276 429 276 961t-276 968h211q360 -460 360 -968t-360 -961h-211z" />
<glyph unicode="*" horiz-adv-x="786" d="M50 1147l47 149l209 -69v243h174v-243l207 69l49 -149l-215 -66l142 -198l-129 -90l-140 186l-141 -186l-129 90l139 198z" />
<glyph unicode="+" horiz-adv-x="1200" d="M84 403v230h401v403h230v-403h401v-230h-401v-403h-230v403h-401z" />
<glyph unicode="," horiz-adv-x="569" d="M131 0v299h307v-258q0 -325 -305 -385h-2v108q164 45 172 236h-172z" />
<glyph unicode="-" horiz-adv-x="682" d="M55 440v267h572v-267h-572z" />
<glyph unicode="." horiz-adv-x="569" d="M131 0v299h307v-299h-307z" />
<glyph unicode="/" horiz-adv-x="625" d="M-40 -49l465 1558h240l-465 -1558h-240z" />
<glyph unicode="0" d="M86 709q0 384 124.5 564.5t378.5 180.5q256 0 380 -181.5t124 -563.5q0 -388 -124 -568t-380 -180q-254 0 -378.5 180.5t-124.5 567.5zM380 709q0 -283 43 -401t166 -118q122 0 165.5 118t43.5 401q0 292 -44.5 404t-164.5 112q-122 0 -165.5 -112t-43.5 -404z" />
<glyph unicode="1" d="M161 1001v201h41q169 0 258 69t99 183h235v-1454h-287v1001h-346z" />
<glyph unicode="2" d="M73 0q3 192 84.5 322t282.5 277q235 171 286.5 243t51.5 161t-55.5 149t-150.5 60t-149.5 -59t-54.5 -213h-278q0 258 129.5 386t345.5 128q224 0 361.5 -126.5t137.5 -332.5q0 -126 -58.5 -235.5t-244.5 -237.5q-156 -110 -227.5 -165.5t-95.5 -102.5h629v-254h-994z " />
<glyph unicode="3" d="M75 446h279q0 -124 55 -190t158 -66q96 0 155.5 64.5t59.5 175.5t-73.5 159t-219.5 48h-33v205h45q135 0 189.5 46t54.5 150q0 79 -47 133t-135 54q-96 0 -146.5 -58t-50.5 -180h-266q0 217 124.5 342t356.5 125q197 0 324 -107t127 -298q0 -186 -174 -277v-4 q19 -5 55.5 -23.5t73 -57.5t63.5 -101.5t27 -155.5q0 -204 -140 -336.5t-356 -132.5q-233 0 -369.5 119t-136.5 366z" />
<glyph unicode="4" d="M75 322v247l535 885h325v-909h162v-223h-162v-322h-286v322h-574zM286 545h363q0 264 6 624h-4z" />
<glyph unicode="5" d="M75 389h287q22 -199 203 -199q99 0 158 76t59 193t-56 190.5t-157 73.5q-139 0 -193 -105l-256 13l101 799h798v-242h-591l-52 -316q104 80 260 80q179 0 310 -125t131 -344q0 -222 -133.5 -372t-395.5 -150q-204 0 -335.5 120.5t-137.5 307.5z" />
<glyph unicode="6" d="M83 692q0 395 135 578.5t406 183.5q168 0 286.5 -86t145.5 -283h-284q-21 140 -168 140q-223 0 -240 -402l4 -4q86 121 280 121t315.5 -130t121.5 -318q0 -233 -130.5 -382t-344.5 -149q-270 0 -398.5 179.5t-128.5 551.5zM370 461q0 -127 65 -199t163 -72 q91 0 145.5 73.5t54.5 203.5q0 114 -60 179t-149 65q-98 0 -158.5 -66t-60.5 -184z" />
<glyph unicode="7" d="M75 1176v254h1026v-222q-480 -524 -530 -1208h-295q60 669 518 1176h-719z" />
<glyph unicode="8" d="M86 417q0 254 221 355q-176 83 -176 285q0 173 124 285t328 112t332.5 -104.5t128.5 -274.5q0 -200 -168 -293q217 -96 217 -350q0 -197 -135.5 -334t-368.5 -137q-229 0 -366 121.5t-137 334.5zM380 420q0 -106 58 -168t155 -62t151 69.5t54 160.5q0 95 -54.5 161 t-152.5 66t-154.5 -60t-56.5 -167zM405 1048q0 -76 51 -130t135 -54q89 0 134 55t45 128t-45.5 125.5t-132.5 52.5t-137 -50t-50 -127z" />
<glyph unicode="9" d="M81 932q0 253 135 387.5t361 134.5q246 0 379 -173t133 -574q0 -374 -146 -560t-382 -186q-196 0 -316.5 107t-134.5 268h285v-2q12 -76 57 -110t111 -34q109 0 173.5 103t65.5 303l-4 4q-86 -123 -276 -123q-191 0 -316 125t-125 330zM368 973q0 -139 54.5 -202.5 t160.5 -63.5q91 0 151 66t60 177q0 128 -55.5 198.5t-163.5 70.5q-90 0 -148.5 -61t-58.5 -185z" />
<glyph unicode=":" horiz-adv-x="569" d="M181 0v299h307v-299h-307zM181 750v299h307v-299h-307z" />
<glyph unicode=";" horiz-adv-x="569" d="M181 0v299h307v-258q0 -325 -305 -385h-2v108q164 45 172 236h-172zM181 750v299h307v-299h-307z" />
<glyph unicode="&#x3c;" horiz-adv-x="1200" d="M84 426v184l1032 443v-222l-735 -313l735 -313v-221z" />
<glyph unicode="=" horiz-adv-x="1200" d="M84 179v230h1032v-230h-1032zM84 628v230h1032v-230h-1032z" />
<glyph unicode="&#x3e;" horiz-adv-x="1200" d="M84 -16v221l735 313l-735 313v222l1032 -443v-184z" />
<glyph unicode="?" horiz-adv-x="1236" d="M120 1010q0 232 150 355.5t361 123.5q225 0 365 -112t140 -324q0 -90 -42.5 -174.5t-205.5 -202.5q-81 -59 -103 -108.5t-22 -141.5h-268q-10 122 24 216.5t183 199.5q126 88 126 202q0 97 -54.5 150t-143.5 53q-104 0 -158 -59.5t-63 -175.5v-2h-289zM484 0v289h299 v-289h-299z" />
<glyph unicode="@" horiz-adv-x="1911" d="M200 548q0 323 223 548.5t567 225.5q296 0 508.5 -179t212.5 -453q0 -271 -158 -432t-342 -161q-117 0 -136 121l-4 2q-109 -122 -227 -122q-121 0 -216.5 96t-95.5 283q0 183 110.5 331t305.5 148q183 0 261 -133l26 102h180l-119 -522q-13 -60 -13 -88q0 -41 35 -41 q82 0 154.5 103t72.5 263q0 238 -154.5 378.5t-404.5 140.5q-269 0 -426.5 -172.5t-157.5 -442.5q0 -307 179 -465t434 -158q241 0 430 163h182q-241 -327 -625 -327q-336 0 -569 217.5t-233 573.5zM753 489q0 -108 42 -150.5t112 -42.5q98 0 168 88.5t70 199.5 q0 76 -45 127.5t-133 51.5q-99 0 -156.5 -81.5t-57.5 -192.5z" />
<glyph unicode="A" horiz-adv-x="1447" d="M25 0l524 1470h355l518 -1470h-334l-94 303h-543l-102 -303h-324zM533 557h375l-183 582h-4z" />
<glyph unicode="B" horiz-adv-x="1444" d="M150 0v1470h714q221 0 337 -106.5t116 -269.5q0 -225 -180 -301q227 -87 227 -357q0 -88 -33.5 -167t-104 -146.5t-168.5 -95t-286 -27.5h-622zM445 254h376q113 0 174.5 51t61.5 164q0 82 -59 130t-162 48h-391v-393zM445 895h360q105 0 161 43t56 121t-51.5 118 t-173.5 40h-352v-322z" />
<glyph unicode="C" horiz-adv-x="1481" d="M90 733q0 349 181 562.5t495 213.5q275 0 444.5 -148.5t190.5 -371.5h-307q-57 254 -326 254q-167 0 -266 -136t-99 -378q0 -227 96 -364.5t269 -137.5q264 0 326 277h307q-33 -226 -198 -384.5t-441 -158.5q-308 0 -490 203.5t-182 568.5z" />
<glyph unicode="D" horiz-adv-x="1487" d="M150 0v1470h649q298 0 448 -193.5t150 -506.5q0 -346 -159.5 -558t-450.5 -212h-637zM451 254h299q158 0 246 132t88 362q0 237 -81 353t-247 116h-305v-963z" />
<glyph unicode="E" horiz-adv-x="1356" d="M150 0v1470h1081v-260h-780v-309h717v-260h-717v-381h815v-260h-1116z" />
<glyph unicode="F" horiz-adv-x="1241" d="M150 0v1470h1046v-260h-739v-331h647v-261h-647v-618h-307z" />
<glyph unicode="G" horiz-adv-x="1600" d="M90 731q0 349 193 563.5t526 214.5q285 0 455 -143.5t190 -351.5h-306q-28 110 -116.5 175.5t-206.5 65.5q-197 0 -309.5 -141t-112.5 -386q0 -244 108.5 -375.5t319.5 -131.5q119 0 218 77t139 247h-342v248h614v-793h-205l-30 184q-170 -223 -465 -223t-482.5 210.5 t-187.5 559.5z" />
<glyph unicode="H" horiz-adv-x="1488" d="M150 0v1470h307v-557h574v557h307v-1470h-307v659h-574v-659h-307z" />
<glyph unicode="I" horiz-adv-x="607" d="M150 0v1470h307v-1470h-307z" />
<glyph unicode="J" horiz-adv-x="1126" d="M40 454v101h287v-30q0 -193 41 -253.5t139 -60.5q92 0 132 45t40 160v1054h307v-1044q0 -233 -118 -348t-338 -115q-258 0 -374.5 116t-115.5 375z" />
<glyph unicode="K" horiz-adv-x="1461" d="M150 0v1470h307v-598l562 598h397l-600 -602l635 -868h-396l-454 645l-144 -147v-498h-307z" />
<glyph unicode="L" horiz-adv-x="1223" d="M150 0v1470h307v-1204h731v-266h-1038z" />
<glyph unicode="M" horiz-adv-x="1726" d="M150 0v1470h449l265 -1159h6l261 1159h445v-1470h-287v993l4 236h-8l-275 -1229h-301l-268 1229h-7l3 -236v-993h-287z" />
<glyph unicode="N" horiz-adv-x="1498" d="M150 0v1470h324l584 -1024h4v1024h286v-1470h-307l-600 1049h-4v-1049h-287z" />
<glyph unicode="O" horiz-adv-x="1583" d="M85 735q0 378 197 576t507 198t509.5 -195.5t199.5 -578.5q0 -374 -196 -574t-510 -200q-299 0 -503 189.5t-204 584.5zM392 735q0 -256 114 -385t289 -129t285.5 133t110.5 381t-109.5 381t-290.5 133t-290 -132.5t-109 -381.5z" />
<glyph unicode="P" horiz-adv-x="1353" d="M150 0v1470h671q210 0 333.5 -126t123.5 -345q0 -189 -121 -329t-348 -140h-352v-530h-307zM457 784h285q117 0 173 54.5t56 168.5q0 115 -63.5 162.5t-188.5 47.5h-262v-433z" />
<glyph unicode="Q" horiz-adv-x="1583" d="M85 735q0 378 197 576t507 198t509.5 -195.5t199.5 -578.5q0 -331 -154 -526l160 -150l-161 -165l-173 163q-160 -96 -378 -96q-299 0 -503 189.5t-204 584.5zM392 735q0 -256 114 -385t289 -129q91 0 165 36l-150 142l158 166l155 -147q68 123 68 317q0 248 -109.5 381 t-290.5 133t-290 -132.5t-109 -381.5z" />
<glyph unicode="R" horiz-adv-x="1455" d="M150 0v1470h743q227 0 345 -121.5t118 -293.5q0 -256 -227 -350q105 -40 145.5 -115.5t40.5 -272.5q0 -196 14.5 -230.5t50.5 -47.5v-39h-339q-33 99 -33 286q0 157 -21 202.5t-69.5 66t-149.5 20.5h-317v-575h-301zM451 823h360q121 0 179.5 46t58.5 155 q0 90 -54.5 141.5t-160.5 51.5h-383v-394z" />
<glyph unicode="S" horiz-adv-x="1373" d="M85 453h295q0 -109 80.5 -173.5t230.5 -64.5t228.5 48.5t78.5 142.5q0 56 -40.5 97t-192.5 77l-250 58q-237 56 -322.5 152.5t-85.5 266.5q0 199 141.5 325.5t424.5 126.5q281 0 426.5 -142t146.5 -333h-295q-10 108 -84 164.5t-217 56.5q-115 0 -185.5 -47.5 t-70.5 -128.5q0 -56 31 -93t100 -54l393 -97q213 -52 294 -149.5t81 -243.5q0 -240 -166.5 -360.5t-412.5 -120.5q-318 0 -473.5 135.5t-155.5 356.5z" />
<glyph unicode="T" horiz-adv-x="1256" d="M30 1210v260h1196v-260h-445v-1210h-307v1210h-444z" />
<glyph unicode="U" horiz-adv-x="1476" d="M145 498v972h314v-954q0 -144 71 -219.5t204 -75.5q134 0 209 70t75 211v968h313v-956q0 -271 -150.5 -412t-453.5 -141q-266 0 -424 135.5t-158 401.5z" />
<glyph unicode="V" horiz-adv-x="1340" d="M27 1470h330l315 -1114h4l320 1114h319l-500 -1470h-292z" />
<glyph unicode="W" horiz-adv-x="1935" d="M32 1470h327l209 -938l25 -147h4l24 147l181 938h325l194 -933l26 -152h4l26 152l213 933h312l-414 -1470h-295l-208 1032l-19 125h-4l-19 -125l-209 -1032h-286z" />
<glyph unicode="X" horiz-adv-x="1343" d="M16 0l475 752l-449 718h367l262 -475l268 475h355l-449 -706l479 -764h-374l-279 502l-297 -502h-358z" />
<glyph unicode="Y" horiz-adv-x="1307" d="M-8 1470h362l305 -639l291 639h348l-491 -919v-551h-307v555z" />
<glyph unicode="Z" horiz-adv-x="1250" d="M50 0v260l760 950h-739v260h1124v-241l-770 -969h774v-260h-1149z" />
<glyph unicode="[" horiz-adv-x="679" d="M120 -401v1880h504v-197h-254v-1487h254v-196h-504z" />
<glyph unicode="\" horiz-adv-x="625" d="M-40 1509h240l465 -1548h-240z" />
<glyph unicode="]" horiz-adv-x="679" d="M55 -205h254v1487h-254v197h504v-1880h-504v196z" />
<glyph unicode="^" horiz-adv-x="1196" d="M127 662l369 768h204l369 -768h-225l-246 538l-248 -538h-223z" />
<glyph unicode="_" horiz-adv-x="1139" d="M0 -141h1139v-130h-1139v130z" />
<glyph unicode="`" horiz-adv-x="700" d="M-27 1536h315l193 -299h-207z" />
<glyph unicode="a" horiz-adv-x="1170" d="M65 289q0 140 82.5 231t246.5 115l268 39q55 8 79 30.5t24 57.5q0 63 -46 95.5t-141 32.5q-99 0 -144.5 -36t-56.5 -117h-277q21 199 135.5 290t365.5 91q202 0 323 -81t121 -234v-590q0 -75 14 -117.5t49 -52.5v-43h-307q-20 55 -28 129q-140 -158 -364 -158 q-155 0 -249.5 86t-94.5 232zM352 307q0 -65 42 -98t100 -33q110 0 190.5 61.5t80.5 153.5v137q-53 -37 -206 -59q-128 -18 -167.5 -57.5t-39.5 -104.5z" />
<glyph unicode="b" horiz-adv-x="1274" d="M140 0v1470h287v-522h4q106 170 315 170q198 0 325.5 -150.5t127.5 -410.5q0 -261 -121 -423.5t-338 -162.5q-215 0 -315 166h-4v-137h-281zM414 520q0 -149 68.5 -231t185.5 -82q104 0 170 88.5t66 241.5q0 160 -64.5 246.5t-179.5 86.5q-124 0 -185 -90t-61 -260z" />
<glyph unicode="c" horiz-adv-x="1143" d="M75 514q0 300 136.5 452t385.5 152q194 0 329 -106t152 -312h-291q-16 91 -64 134t-126 43q-110 0 -168.5 -87t-58.5 -229q0 -205 59.5 -279.5t161.5 -74.5q82 0 135 56.5t59 133.5h291q-24 -191 -153 -308.5t-345 -117.5q-244 0 -373.5 145t-129.5 398z" />
<glyph unicode="d" horiz-adv-x="1273" d="M75 557q0 259 127 410t325 151q210 0 316 -170h4v522h286v-1470h-280v137h-4q-99 -166 -316 -166q-216 0 -337 161t-121 425zM370 537q0 -144 63 -237t172 -93q121 0 187.5 85.5t66.5 227.5q0 174 -62 262t-184 88q-115 0 -179 -88t-64 -245z" />
<glyph unicode="e" horiz-adv-x="1174" d="M70 531q0 264 133.5 425.5t398.5 161.5q238 0 375 -151t137 -449v-51h-757q10 -133 78 -199.5t185 -66.5q70 0 121 32.5t66 85.5h295q-50 -169 -179 -258.5t-300 -89.5q-269 0 -411 148.5t-142 411.5zM365 653h454q-9 104 -68 167t-153 63q-204 0 -233 -230z" />
<glyph unicode="f" horiz-adv-x="676" d="M15 885v205h153v88q0 160 83 236t266 76q49 0 118 -5v-234q-31 3 -65 3q-41 0 -64 -5.5t-34 -19t-14 -37t-3 -60.5v-42h186v-205h-186v-885h-287v885h-153z" />
<glyph unicode="g" horiz-adv-x="1261" d="M75 557q0 263 127.5 412t325.5 149q226 0 319 -190h4v162h275v-1063q0 -247 -136 -359t-415 -112q-201 0 -334.5 87t-141.5 240h312q11 -110 202 -110q226 0 226 236v145l-4 4q-83 -164 -291 -164q-213 0 -341 147.5t-128 415.5zM370 539q0 -137 60 -220t167 -83 q118 0 181 80.5t63 234.5q0 143 -67.5 231t-178.5 88q-99 0 -162 -83t-63 -248z" />
<glyph unicode="h" horiz-adv-x="1250" d="M140 0v1470h287v-519h4q98 167 319 167q170 0 272.5 -99.5t102.5 -264.5v-754h-287v677q0 100 -45.5 150t-140.5 50q-107 0 -166 -71t-59 -181v-625h-287z" />
<glyph unicode="i" horiz-adv-x="567" d="M140 0v1090h287v-1090h-287zM140 1219v266h287v-266h-287z" />
<glyph unicode="j" horiz-adv-x="567" d="M5 -209h57q43 0 60.5 26t17.5 74v1199h287v-1205q0 -170 -69 -246.5t-261 -76.5h-92v229zM140 1219v266h287v-266h-287z" />
<glyph unicode="k" horiz-adv-x="1145" d="M140 0v1470h287v-794l360 414h353l-385 -422l395 -668h-344l-260 467l-119 -123v-344h-287z" />
<glyph unicode="l" horiz-adv-x="567" d="M140 0v1470h287v-1470h-287z" />
<glyph unicode="m" horiz-adv-x="1826" d="M140 0v1090h275v-160h4q96 188 316 188q200 0 296 -174q109 174 291 174q168 0 273.5 -95.5t105.5 -268.5v-754h-287v667q0 95 -38 152.5t-123 57.5t-137 -53t-52 -160v-664h-287v680q0 102 -41 149.5t-131 47.5t-134 -53.5t-44 -159.5v-664h-287z" />
<glyph unicode="n" horiz-adv-x="1250" d="M140 0v1090h275v-160h4q103 188 325 188q167 0 274 -95.5t107 -268.5v-754h-287v677q0 95 -43 147.5t-143 52.5q-103 0 -164 -67.5t-61 -184.5v-625h-287z" />
<glyph unicode="o" horiz-adv-x="1258" d="M75 545q0 271 155.5 422t398.5 151q249 0 401.5 -154.5t152.5 -418.5q0 -267 -153.5 -420.5t-400.5 -153.5q-243 0 -398.5 152.5t-155.5 421.5zM370 545q0 -164 67 -248t192 -84q129 0 194 87t65 245q0 156 -64.5 244t-194.5 88q-121 0 -190 -82.5t-69 -249.5z" />
<glyph unicode="p" horiz-adv-x="1272" d="M140 -424v1514h274v-158h5q105 186 325 186q196 0 324.5 -149.5t128.5 -411.5q0 -257 -119.5 -421.5t-339.5 -164.5q-215 0 -307 168h-4v-563h-287zM414 520q0 -144 66 -228.5t186 -84.5q110 0 173 94.5t63 235.5q0 162 -64.5 247.5t-179.5 85.5q-123 0 -183.5 -89.5 t-60.5 -260.5z" />
<glyph unicode="q" horiz-adv-x="1275" d="M75 522q0 266 126 431t352 165q203 0 304 -190h4v162h274v-1514h-286v559h-4q-88 -164 -310 -164q-218 0 -339 162.5t-121 388.5zM370 524q0 -154 62.5 -232.5t182.5 -78.5q112 0 176 87t64 239q0 160 -69.5 245.5t-176.5 85.5q-113 0 -176 -88t-63 -258z" />
<glyph unicode="r" horiz-adv-x="808" d="M140 0v1090h275v-189h4q50 107 121 162t178 55q28 0 55 -4v-291q-20 4 -82 4q-134 0 -199 -64.5t-65 -195.5v-567h-287z" />
<glyph unicode="s" horiz-adv-x="1138" d="M65 344h294q0 -85 54.5 -126.5t165.5 -41.5q94 0 144 28.5t50 75.5q0 48 -36.5 74.5t-247.5 71.5q-235 50 -311.5 130.5t-76.5 193.5q0 162 116 265t343 103q222 0 340 -92t131 -270h-282q-8 71 -52 110t-140 39q-89 0 -131 -29t-42 -73q0 -43 35.5 -66.5t273.5 -79.5 q243 -57 309 -132.5t66 -188.5q0 -181 -127.5 -277t-380.5 -96q-223 0 -349.5 92t-145.5 289z" />
<glyph unicode="t" horiz-adv-x="688" d="M25 885v205h148v294h287v-294h178v-205h-178v-611q0 -43 23.5 -56t72.5 -13t82 4v-213q-63 -10 -155 -10q-170 0 -240 51.5t-70 185.5v662h-148z" />
<glyph unicode="u" horiz-adv-x="1256" d="M135 373v717h287v-676q0 -104 48 -152.5t138 -48.5q97 0 159 64.5t62 183.5v629h287v-1090h-274v154h-4q-109 -183 -332 -183q-173 0 -272 102t-99 300z" />
<glyph unicode="v" horiz-adv-x="1132" d="M25 1090h319l225 -803h4l232 803h305l-393 -1090h-301z" />
<glyph unicode="w" horiz-adv-x="1609" d="M29 1090h306l170 -783h4l153 783h289l164 -783h4l170 783h295l-313 -1090h-295l-170 795h-4l-170 -795h-295z" />
<glyph unicode="x" horiz-adv-x="1135" d="M30 0l370 555l-356 535h348l185 -318l180 318h338l-359 -535l371 -555h-354l-189 328l-188 -328h-346z" />
<glyph unicode="y" horiz-adv-x="1143" d="M28 1090h320l233 -803h5l223 803h303l-375 -1072q-81 -232 -122 -309t-100 -112.5t-199 -35.5q-72 0 -130 7v227q31 -4 78 -4q62 0 101.5 26t66.5 136z" />
<glyph unicode="z" horiz-adv-x="1037" d="M45 0v223l559 637h-520v230h883v-236l-551 -618h571v-236h-942z" />
<glyph unicode="{" horiz-adv-x="810" d="M80 444v189q74 0 133.5 40.5t59.5 114.5v410q0 132 88 206.5t199 74.5h170v-181h-93q-57 0 -85.5 -30t-28.5 -95v-411q-26 -193 -234 -221v-4q208 -31 234 -222v-411q0 -62 28 -93.5t86 -31.5h93v-180h-170q-111 0 -199 75t-88 205v410q0 77 -59.5 116t-133.5 39z" />
<glyph unicode="|" horiz-adv-x="589" d="M180 -39v1548h229v-1548h-229z" />
<glyph unicode="}" horiz-adv-x="809" d="M80 -221h93q58 0 86 31.5t28 93.5v411q26 191 234 222v4q-208 28 -234 221v411q0 65 -28.5 95t-85.5 30h-93v181h170q111 0 199 -74.5t88 -206.5v-410q0 -74 59.5 -114.5t133.5 -40.5v-189q-74 0 -133.5 -39t-59.5 -116v-410q0 -130 -88 -205t-199 -75h-170v180z" />
<glyph unicode="~" horiz-adv-x="1200" d="M56 553q97 149 287 149q99 0 258 -65q81 -35 132.5 -54.5t117.5 -19.5q124 0 194 118l101 -198q-97 -149 -287 -149q-99 0 -258 65q-81 35 -132.5 54.5t-117.5 19.5q-124 0 -194 -118z" />
<glyph unicode="&#xa1;" horiz-adv-x="681" d="M170 -6l82 688h152l82 -688v-375h-316v375zM179 801v289h299v-289h-299z" />
<glyph unicode="&#xa2;" d="M83 514q0 302 136.5 453t385.5 151q42 0 92 -6l49 174h107l-58 -201q262 -93 291 -385h-291q-20 97 -69 140l-178 -625q21 -8 51 -8q83 0 135.5 56.5t58.5 133.5h291q-25 -192 -154 -309t-344 -117q-58 0 -104 9l-63 -222h-107l70 246q-299 126 -299 510zM378 556 q0 -223 77 -292l174 612q-12 1 -24 1q-111 0 -169 -85t-58 -236z" />
<glyph unicode="&#xa3;" d="M67 657v123h119q-40 83 -62 145.5t-22 145.5q0 156 129 277.5t361 121.5q226 0 359 -125.5t134 -347.5h-268q-12 124 -65 184.5t-158 60.5q-91 0 -148 -55t-57 -134q0 -74 98 -273h293v-123h-244q11 -52 11 -108q0 -181 -209 -338l4 -4q126 53 231 53q52 0 87 -7t61 -16 q30 -11 55 -19.5t58 -8.5q79 0 200 68l84 -218q-148 -92 -311 -92q-62 0 -110 12t-93 27q-48 16 -94.5 29.5t-100.5 13.5q-84 0 -223 -72l-110 199q227 149 227 299q0 78 -47 182h-189z" />
<glyph unicode="&#xa4;" d="M14 282l201 201q-29 48 -46.5 107.5t-17.5 131.5q0 34 5 67t14 63.5t20.5 57.5t24.5 48l-201 200l135 136l201 -201q48 29 109 48t130 19q72 0 133.5 -19t106.5 -48l201 201l135 -136l-201 -200q29 -45 48.5 -106t19.5 -130q0 -72 -19.5 -133t-48.5 -106l201 -201 l-135 -135l-201 200q-45 -29 -106.5 -48t-133.5 -19q-69 0 -130 19t-109 48l-201 -200zM380 722q0 -48 15 -90.5t42 -73.5t65.5 -49t86.5 -18t87 18t67 49t43.5 73.5t15.5 90.5t-15.5 89.5t-43.5 72t-67 48t-87 17.5t-86.5 -17.5t-65.5 -48t-42 -72t-15 -89.5z" />
<glyph unicode="&#xa5;" d="M2 1430h307l295 -603l282 603h291l-307 -601h274v-122h-338l-77 -154h415v-123h-417v-430h-261v430h-415v123h415l-81 154h-334v122h268z" />
<glyph unicode="&#xa6;" horiz-adv-x="573" d="M172 -39v594h229v-594h-229zM172 915v594h229v-594h-229z" />
<glyph unicode="&#xa7;" horiz-adv-x="1169" d="M85 593q0 97 42.5 163.5t147.5 128.5q-106 96 -106 237q0 160 117 263.5t296 103.5q193 0 301 -99t113 -276h-260q-13 158 -160 158q-63 0 -105 -34t-42 -81q0 -34 16.5 -60.5t61.5 -47.5l340 -171q134 -67 185.5 -145t51.5 -162q0 -83 -51 -166.5t-144 -130.5 q127 -104 127 -262q0 -177 -125.5 -283t-324.5 -106q-198 0 -310 116.5t-112 266.5h270q5 -78 49.5 -122t123.5 -44q80 0 117.5 43.5t37.5 95.5q0 51 -26.5 81t-94.5 65l-313 160q-131 67 -177 139.5t-46 168.5zM326 666q0 -48 26.5 -77t68.5 -50l321 -172q88 47 88 135 q0 38 -29.5 70t-77.5 56l-309 156q-88 -39 -88 -118z" />
<glyph unicode="&#xa8;" horiz-adv-x="700" d="M21 1249v236h253v-236h-253zM426 1249v236h253v-236h-253z" />
<glyph unicode="&#xa9;" horiz-adv-x="1717" d="M80 737q0 338 218.5 555t562.5 217q330 0 553 -212.5t223 -559.5t-226.5 -561.5t-549.5 -214.5q-332 0 -556.5 216.5t-224.5 559.5zM294 737q0 -261 159.5 -434.5t407.5 -173.5q230 0 396.5 171.5t166.5 436.5q0 259 -163 431.5t-400 172.5q-246 0 -406.5 -171.5 t-160.5 -432.5zM448 743q0 199 113 321t309 122q156 0 251.5 -91.5t111.5 -222.5h-176q-33 136 -187 136q-97 0 -154 -71t-57 -197q0 -108 60.5 -185.5t154.5 -77.5q162 0 183 144h184q-19 -135 -117 -228.5t-250 -93.5q-189 0 -307.5 126t-118.5 318z" />
<glyph unicode="&#xaa;" horiz-adv-x="758" d="M48 1021q0 82 49 135.5t145 68.5l159 23q32 3 46 14.5t14 29.5q0 30 -23.5 46.5t-72.5 16.5q-50 0 -73.5 -16.5t-29.5 -53.5h-193q13 117 84 171t228 54q125 0 200.5 -48t75.5 -138v-342q0 -45 8 -70t29 -31v-31h-207q-14 32 -20 76q-84 -93 -216 -93q-91 0 -147 50.5 t-56 137.5zM72 583v148h606v-148h-606zM248 1036q0 -31 21.5 -46.5t51.5 -15.5q57 0 98.5 29t41.5 72v74q-27 -22 -106 -35q-67 -9 -87 -28.5t-20 -49.5z" />
<glyph unicode="&#xab;" horiz-adv-x="1112" d="M170 451v245l342 295v-237l-205 -181l205 -180v-237zM600 451v245l342 295v-237l-205 -181l205 -180v-237z" />
<glyph unicode="&#xac;" horiz-adv-x="1200" d="M84 403v230h1032v-633h-230v403h-802z" />
<glyph unicode="&#xad;" horiz-adv-x="682" d="M55 440v267h572v-267h-572z" />
<glyph unicode="&#xae;" horiz-adv-x="1717" d="M80 737q0 338 218.5 555t562.5 217q330 0 553 -212.5t223 -559.5t-226.5 -561.5t-549.5 -214.5q-332 0 -556.5 216.5t-224.5 559.5zM294 737q0 -261 159.5 -434.5t407.5 -173.5q230 0 396.5 171.5t166.5 436.5q0 259 -163 431.5t-400 172.5q-246 0 -406.5 -171.5 t-160.5 -432.5zM553 326v834h339q158 0 236 -59t78 -188q0 -195 -181 -232l193 -355h-201l-170 341h-116v-341h-178zM731 801h131q88 0 120.5 26.5t32.5 84.5q0 49 -36 74.5t-110 25.5h-138v-211z" />
<glyph unicode="&#xaf;" horiz-adv-x="700" d="M-3 1288v152h706v-152h-706z" />
<glyph unicode="&#xb0;" horiz-adv-x="819" d="M117 1165q0 61 23 114t62.5 93t93 63t114.5 23q60 0 113.5 -23t93 -63t62.5 -93t23 -114q0 -60 -23 -113.5t-62.5 -93.5t-93 -63t-113.5 -23q-61 0 -114.5 23t-93 63t-62.5 93.5t-23 113.5zM231 1165q0 -37 14 -69.5t38.5 -56.5t57 -38t69.5 -14t69.5 14t56.5 38t38 56.5 t14 69.5t-14 69.5t-38 56.5t-56.5 38t-69.5 14t-69.5 -14t-57 -38t-38.5 -56.5t-14 -69.5z" />
<glyph unicode="&#xb1;" horiz-adv-x="1200" d="M84 0v229h1032v-229h-1032zM84 551v229h401v256h230v-256h401v-229h-401v-258h-230v258h-401z" />
<glyph unicode="&#xb2;" horiz-adv-x="806" d="M65 874q2 124 65 216t221 188q93 57 132.5 100.5t39.5 99.5q0 57 -31 92t-94 35q-65 0 -100 -40.5t-36 -114.5h-189q0 157 89.5 238.5t250.5 81.5q138 0 225.5 -78t87.5 -205q0 -94 -47 -163.5t-158 -139.5q-102 -64 -136.5 -89.5t-49.5 -48.5h388v-172h-658z" />
<glyph unicode="&#xb3;" horiz-adv-x="811" d="M35 1142h199q3 -135 145 -135q70 0 109.5 34t39.5 92q0 61 -36 93.5t-131 32.5h-64v130h59q73 0 109 30t36 93q0 52 -34 78.5t-87 26.5q-138 0 -142 -139h-186q0 135 85 213.5t245 78.5q142 0 231 -66.5t89 -170.5q0 -134 -131 -186v-4q165 -47 165 -207 q0 -127 -97 -208.5t-271 -81.5q-153 0 -242.5 78.5t-90.5 217.5z" />
<glyph unicode="&#xb4;" horiz-adv-x="682" d="M220 1237l193 299h315l-301 -299h-207z" />
<glyph unicode="&#xb5;" horiz-adv-x="1279" d="M140 -424v1514h287v-652q0 -99 56 -160t148 -61q98 0 152.5 61t54.5 173v639h287v-766q0 -74 17 -99.5t56 -25.5q26 0 51 4v-207q-47 -14 -109 -14q-244 0 -286 138l-4 1q-30 -68 -91.5 -109t-129.5 -41q-135 0 -198 127h-4v-522h-287z" />
<glyph unicode="&#xb6;" horiz-adv-x="1235" d="M35 1065q0 186 120 277.5t379 91.5h621v-1825h-230v1651h-206v-1651h-230v1102q-221 0 -337.5 96t-116.5 258z" />
<glyph unicode="&#xb7;" horiz-adv-x="569" d="M131 440v299h307v-299h-307z" />
<glyph unicode="&#xb8;" horiz-adv-x="682" d="M90 -416l45 99q104 -33 152 -33t75 23t27 58q0 34 -23.5 53t-56.5 19q-35 0 -81 -16l-44 41l113 172h121l-78 -113q31 9 55 9q78 0 131.5 -42.5t53.5 -123.5q0 -82 -70.5 -139.5t-188.5 -57.5q-108 0 -231 51z" />
<glyph unicode="&#xb9;" horiz-adv-x="672" d="M42 1466v125q243 0 280 153h133v-870h-194v592h-219z" />
<glyph unicode="&#xba;" horiz-adv-x="784" d="M50 1172q0 159 96 248.5t246 89.5q154 0 248 -91.5t94 -246.5q0 -158 -94.5 -248.5t-247.5 -90.5q-150 0 -246 90t-96 249zM89 583v148h606v-148h-606zM254 1172q0 -87 35.5 -131.5t102.5 -44.5q69 0 103.5 46t34.5 130q0 83 -34.5 129t-103.5 46q-64 0 -101 -43.5 t-37 -131.5z" />
<glyph unicode="&#xbb;" horiz-adv-x="1112" d="M170 156v237l205 180l-205 181v237l342 -295v-245zM600 156v237l205 180l-205 181v237l342 -295v-245z" />
<glyph unicode="&#xbc;" horiz-adv-x="1665" d="M42 1166v125q243 0 280 153h133v-870h-194v592h-219zM272 -39l876 1493h160l-875 -1493h-161zM893 185v147l375 537h229v-542h103v-142h-103v-184h-194v184h-410zM1045 323h258v243l5 131h-7z" />
<glyph unicode="&#xbd;" horiz-adv-x="1708" d="M42 1166v125q243 0 280 153h133v-870h-194v592h-219zM272 -39l876 1493h160l-875 -1493h-161zM973 1q2 124 65 216t221 188q93 57 132.5 100.5t39.5 99.5q0 57 -31 92t-94 35q-65 0 -100 -40.5t-36 -114.5h-189q0 157 89.5 238.5t250.5 81.5q138 0 225.5 -78t87.5 -205 q0 -94 -47 -163.5t-158 -139.5q-102 -64 -136.5 -89.5t-49.5 -48.5h388v-172h-658z" />
<glyph unicode="&#xbe;" horiz-adv-x="1804" d="M35 842h199q3 -135 145 -135q70 0 109.5 34t39.5 92q0 61 -36 93.5t-131 32.5h-64v130h59q73 0 109 30t36 93q0 52 -34 78.5t-87 26.5q-138 0 -142 -139h-186q0 135 85 213.5t245 78.5q142 0 231 -66.5t89 -170.5q0 -134 -131 -186v-4q165 -47 165 -207 q0 -127 -97 -208.5t-271 -81.5q-153 0 -242.5 78.5t-90.5 217.5zM411 -39l876 1493h160l-875 -1493h-161zM1032 185v147l375 537h229v-542h103v-142h-103v-184h-194v184h-410zM1184 323h258v243l5 131h-7z" />
<glyph unicode="&#xbf;" horiz-adv-x="1235" d="M99 37q0 90 42.5 174.5t205.5 202.5q81 59 103 108.5t22 141.5h268q10 -122 -24 -216.5t-183 -199.5q-126 -88 -126 -202q0 -97 54.5 -150t143.5 -53q104 0 158 59.5t63 175.5v2h289q0 -232 -150 -355.5t-361 -123.5q-225 0 -365 112t-140 324zM452 801v289h299v-289 h-299z" />
<glyph unicode="&#xc0;" horiz-adv-x="1447" d="M25 0l524 1470h355l518 -1470h-334l-94 303h-543l-102 -303h-324zM350 1896h315l193 -299h-207zM533 557h375l-183 582h-4z" />
<glyph unicode="&#xc1;" horiz-adv-x="1447" d="M25 0l524 1470h355l518 -1470h-334l-94 303h-543l-102 -303h-324zM533 557h375l-183 582h-4zM597 1597l193 299h315l-301 -299h-207z" />
<glyph unicode="&#xc2;" horiz-adv-x="1447" d="M25 0l524 1470h355l518 -1470h-334l-94 303h-543l-102 -303h-324zM366 1597l233 299h256l233 -299h-231l-131 168l-129 -168h-231zM533 557h375l-183 582h-4z" />
<glyph unicode="&#xc3;" horiz-adv-x="1447" d="M25 0l524 1470h355l518 -1470h-334l-94 303h-543l-102 -303h-324zM361 1618q50 248 240 248q18 0 40.5 -4.5t95.5 -27.5q54 -19 87.5 -30.5t59.5 -11.5q75 0 96 82h133q-50 -246 -227 -246q-18 0 -47 4.5t-102 27.5q-54 17 -88 29.5t-60 12.5q-76 0 -97 -84h-131z M533 557h375l-183 582h-4z" />
<glyph unicode="&#xc4;" horiz-adv-x="1447" d="M25 0l524 1470h355l518 -1470h-334l-94 303h-543l-102 -303h-324zM398 1609v236h253v-236h-253zM533 557h375l-183 582h-4zM803 1609v236h253v-236h-253z" />
<glyph unicode="&#xc5;" horiz-adv-x="1447" d="M25 0l524 1470h355l518 -1470h-334l-94 303h-543l-102 -303h-324zM506 1755q0 90 66 151.5t155 61.5q90 0 155.5 -62t65.5 -151q0 -90 -64.5 -151.5t-156.5 -61.5t-156.5 62t-64.5 151zM533 557h375l-183 582h-4zM621 1755q0 -48 29 -77t77 -29q51 0 79 32t28 74 q0 45 -28.5 76t-78.5 31q-49 0 -77.5 -30.5t-28.5 -76.5z" />
<glyph unicode="&#xc6;" horiz-adv-x="2064" d="M30 0l537 1470h1392v-260h-759v-309h684v-260h-684v-381h774v-260h-1075v313h-441l-106 -313h-322zM538 555h361v655h-134z" />
<glyph unicode="&#xc7;" horiz-adv-x="1481" d="M90 733q0 349 181 562.5t495 213.5q275 0 444.5 -148.5t190.5 -371.5h-307q-57 254 -326 254q-167 0 -266 -136t-99 -378q0 -227 96 -364.5t269 -137.5q264 0 326 277h307q-33 -226 -194 -380.5t-419 -161.5l-51 -75q31 9 55 9q78 0 131.5 -42.5t53.5 -123.5 q0 -82 -70.5 -139.5t-188.5 -57.5q-108 0 -231 51l45 99q104 -33 152 -33t75 23t27 58q0 34 -23.5 53t-56.5 19q-35 0 -81 -16l-44 41l90 138q-258 25 -419.5 221.5t-161.5 545.5z" />
<glyph unicode="&#xc8;" horiz-adv-x="1366" d="M150 0v1470h1081v-260h-780v-309h717v-260h-717v-381h815v-260h-1116zM313 1896h315l193 -299h-207z" />
<glyph unicode="&#xc9;" horiz-adv-x="1366" d="M150 0v1470h1081v-260h-780v-309h717v-260h-717v-381h815v-260h-1116zM560 1597l193 299h315l-301 -299h-207z" />
<glyph unicode="&#xca;" horiz-adv-x="1366" d="M150 0v1470h1081v-260h-780v-309h717v-260h-717v-381h815v-260h-1116zM329 1597l233 299h256l233 -299h-231l-131 168l-129 -168h-231z" />
<glyph unicode="&#xcb;" horiz-adv-x="1366" d="M150 0v1470h1081v-260h-780v-309h717v-260h-717v-381h815v-260h-1116zM361 1609v236h253v-236h-253zM766 1609v236h253v-236h-253z" />
<glyph unicode="&#xcc;" horiz-adv-x="607" d="M-72 1896h315l193 -299h-207zM150 0v1470h307v-1470h-307z" />
<glyph unicode="&#xcd;" horiz-adv-x="607" d="M150 0v1470h307v-1470h-307zM175 1597l193 299h315l-301 -299h-207z" />
<glyph unicode="&#xce;" horiz-adv-x="607" d="M-56 1597l233 299h256l233 -299h-231l-131 168l-129 -168h-231zM150 0v1470h307v-1470h-307z" />
<glyph unicode="&#xcf;" horiz-adv-x="607" d="M-24 1609v236h253v-236h-253zM150 0v1470h307v-1470h-307zM381 1609v236h253v-236h-253z" />
<glyph unicode="&#xd0;" horiz-adv-x="1517" d="M14 647v254h166v569h649q298 0 448 -193.5t150 -506.5q0 -346 -159.5 -558t-450.5 -212h-637v647h-166zM481 254h299q158 0 246 132t88 362q0 237 -81 353t-247 116h-305v-316h340v-254h-340v-393z" />
<glyph unicode="&#xd1;" horiz-adv-x="1479" d="M150 0v1470h324l584 -1024h4v1024h286v-1470h-307l-600 1049h-4v-1049h-287zM383 1618q50 248 240 248q18 0 40.5 -4.5t95.5 -27.5q54 -19 87.5 -30.5t59.5 -11.5q75 0 96 82h133q-50 -246 -227 -246q-18 0 -47 4.5t-102 27.5q-54 17 -88 29.5t-60 12.5q-76 0 -97 -84 h-131z" />
<glyph unicode="&#xd2;" horiz-adv-x="1583" d="M85 735q0 378 197 576t507 198t509.5 -195.5t199.5 -578.5q0 -374 -196 -574t-510 -200q-299 0 -503 189.5t-204 584.5zM392 735q0 -256 114 -385t289 -129t285.5 133t110.5 381t-109.5 381t-290.5 133t-290 -132.5t-109 -381.5zM414 1896h315l193 -299h-207z" />
<glyph unicode="&#xd3;" horiz-adv-x="1583" d="M85 735q0 378 197 576t507 198t509.5 -195.5t199.5 -578.5q0 -374 -196 -574t-510 -200q-299 0 -503 189.5t-204 584.5zM392 735q0 -256 114 -385t289 -129t285.5 133t110.5 381t-109.5 381t-290.5 133t-290 -132.5t-109 -381.5zM661 1597l193 299h315l-301 -299h-207z " />
<glyph unicode="&#xd4;" horiz-adv-x="1583" d="M85 735q0 378 197 576t507 198t509.5 -195.5t199.5 -578.5q0 -374 -196 -574t-510 -200q-299 0 -503 189.5t-204 584.5zM392 735q0 -256 114 -385t289 -129t285.5 133t110.5 381t-109.5 381t-290.5 133t-290 -132.5t-109 -381.5zM430 1597l233 299h256l233 -299h-231 l-131 168l-129 -168h-231z" />
<glyph unicode="&#xd5;" horiz-adv-x="1583" d="M85 735q0 378 197 576t507 198t509.5 -195.5t199.5 -578.5q0 -374 -196 -574t-510 -200q-299 0 -503 189.5t-204 584.5zM392 735q0 -256 114 -385t289 -129t285.5 133t110.5 381t-109.5 381t-290.5 133t-290 -132.5t-109 -381.5zM425 1618q50 248 240 248q18 0 40.5 -4.5 t95.5 -27.5q54 -19 87.5 -30.5t59.5 -11.5q75 0 96 82h133q-50 -246 -227 -246q-18 0 -47 4.5t-102 27.5q-54 17 -88 29.5t-60 12.5q-76 0 -97 -84h-131z" />
<glyph unicode="&#xd6;" horiz-adv-x="1583" d="M85 735q0 378 197 576t507 198t509.5 -195.5t199.5 -578.5q0 -374 -196 -574t-510 -200q-299 0 -503 189.5t-204 584.5zM392 735q0 -256 114 -385t289 -129t285.5 133t110.5 381t-109.5 381t-290.5 133t-290 -132.5t-109 -381.5zM462 1609v236h253v-236h-253zM867 1609 v236h253v-236h-253z" />
<glyph unicode="&#xd7;" horiz-adv-x="1200" d="M83 164l354 354l-354 354l162 162l354 -354l354 354l162 -162l-354 -354l356 -354l-164 -162l-354 354l-352 -354z" />
<glyph unicode="&#xd8;" horiz-adv-x="1583" d="M63 23l171 187q-149 188 -149 525q0 378 197 576t507 198q285 0 477 -166l167 183l86 -78l-172 -189q151 -191 151 -524q0 -374 -196 -574t-510 -200q-280 0 -477 166l-166 -182zM392 735q0 -176 54 -292l625 685q-108 121 -280 121q-181 0 -290 -132.5t-109 -381.5z M512 343q112 -122 283 -122q175 0 285.5 133t110.5 381q0 175 -55 293z" />
<glyph unicode="&#xd9;" horiz-adv-x="1476" d="M145 498v972h314v-954q0 -144 71 -219.5t204 -75.5q134 0 209 70t75 211v968h313v-956q0 -271 -150.5 -412t-453.5 -141q-266 0 -424 135.5t-158 401.5zM361 1896h315l193 -299h-207z" />
<glyph unicode="&#xda;" horiz-adv-x="1476" d="M145 498v972h314v-954q0 -144 71 -219.5t204 -75.5q134 0 209 70t75 211v968h313v-956q0 -271 -150.5 -412t-453.5 -141q-266 0 -424 135.5t-158 401.5zM608 1597l193 299h315l-301 -299h-207z" />
<glyph unicode="&#xdb;" horiz-adv-x="1476" d="M145 498v972h314v-954q0 -144 71 -219.5t204 -75.5q134 0 209 70t75 211v968h313v-956q0 -271 -150.5 -412t-453.5 -141q-266 0 -424 135.5t-158 401.5zM377 1597l233 299h256l233 -299h-231l-131 168l-129 -168h-231z" />
<glyph unicode="&#xdc;" horiz-adv-x="1476" d="M145 498v972h314v-954q0 -144 71 -219.5t204 -75.5q134 0 209 70t75 211v968h313v-956q0 -271 -150.5 -412t-453.5 -141q-266 0 -424 135.5t-158 401.5zM409 1609v236h253v-236h-253zM814 1609v236h253v-236h-253z" />
<glyph unicode="&#xdd;" horiz-adv-x="1307" d="M-8 1470h362l305 -639l291 639h348l-491 -919v-551h-307v555zM530 1597l193 299h315l-301 -299h-207z" />
<glyph unicode="&#xde;" horiz-adv-x="1348" d="M150 0v1470h307v-200h364q210 0 333.5 -126t123.5 -345q0 -189 -121 -329t-348 -140h-352v-330h-307zM457 584h285q117 0 173 54.5t56 168.5q0 115 -63.5 162.5t-188.5 47.5h-262v-433z" />
<glyph unicode="&#xdf;" horiz-adv-x="1255" d="M135 0v1104q0 179 136 286t353 107q215 0 343.5 -105t128.5 -282t-160 -273q244 -100 244 -367q0 -233 -133 -366t-369 -133q-48 0 -113 13v225q29 -2 60 -2q130 0 199 62t69 185q0 124 -77.5 188.5t-216.5 64.5q-8 0 -19 -1v198q10 -1 24 -1q102 0 153 48t51 134 q0 87 -53.5 135t-140.5 48q-95 0 -143.5 -48.5t-48.5 -134.5v-1085h-287z" />
<glyph unicode="&#xe0;" horiz-adv-x="1170" d="M65 289q0 140 82.5 231t246.5 115l268 39q55 8 79 30.5t24 57.5q0 63 -46 95.5t-141 32.5q-99 0 -144.5 -36t-56.5 -117h-277q21 199 135.5 290t365.5 91q202 0 323 -81t121 -234v-590q0 -75 14 -117.5t49 -52.5v-43h-307q-20 55 -28 129q-140 -158 -364 -158 q-155 0 -249.5 86t-94.5 232zM218 1536h315l193 -299h-207zM352 307q0 -65 42 -98t100 -33q110 0 190.5 61.5t80.5 153.5v137q-53 -37 -206 -59q-128 -18 -167.5 -57.5t-39.5 -104.5z" />
<glyph unicode="&#xe1;" horiz-adv-x="1170" d="M65 289q0 140 82.5 231t246.5 115l268 39q55 8 79 30.5t24 57.5q0 63 -46 95.5t-141 32.5q-99 0 -144.5 -36t-56.5 -117h-277q21 199 135.5 290t365.5 91q202 0 323 -81t121 -234v-590q0 -75 14 -117.5t49 -52.5v-43h-307q-20 55 -28 129q-140 -158 -364 -158 q-155 0 -249.5 86t-94.5 232zM352 307q0 -65 42 -98t100 -33q110 0 190.5 61.5t80.5 153.5v137q-53 -37 -206 -59q-128 -18 -167.5 -57.5t-39.5 -104.5zM465 1237l193 299h315l-301 -299h-207z" />
<glyph unicode="&#xe2;" horiz-adv-x="1170" d="M65 289q0 140 82.5 231t246.5 115l268 39q55 8 79 30.5t24 57.5q0 63 -46 95.5t-141 32.5q-99 0 -144.5 -36t-56.5 -117h-277q21 199 135.5 290t365.5 91q202 0 323 -81t121 -234v-590q0 -75 14 -117.5t49 -52.5v-43h-307q-20 55 -28 129q-140 -158 -364 -158 q-155 0 -249.5 86t-94.5 232zM239 1237l233 299h256l233 -299h-231l-131 168l-129 -168h-231zM352 307q0 -65 42 -98t100 -33q110 0 190.5 61.5t80.5 153.5v137q-53 -37 -206 -59q-128 -18 -167.5 -57.5t-39.5 -104.5z" />
<glyph unicode="&#xe3;" horiz-adv-x="1170" d="M65 289q0 140 82.5 231t246.5 115l268 39q55 8 79 30.5t24 57.5q0 63 -46 95.5t-141 32.5q-99 0 -144.5 -36t-56.5 -117h-277q21 199 135.5 290t365.5 91q202 0 323 -81t121 -234v-590q0 -75 14 -117.5t49 -52.5v-43h-307q-20 55 -28 129q-140 -158 -364 -158 q-155 0 -249.5 86t-94.5 232zM229 1258q50 248 240 248q18 0 40.5 -4.5t95.5 -27.5q54 -19 87.5 -30.5t59.5 -11.5q75 0 96 82h133q-50 -246 -227 -246q-18 0 -47 4.5t-102 27.5q-54 17 -88 29.5t-60 12.5q-76 0 -97 -84h-131zM352 307q0 -65 42 -98t100 -33 q110 0 190.5 61.5t80.5 153.5v137q-53 -37 -206 -59q-128 -18 -167.5 -57.5t-39.5 -104.5z" />
<glyph unicode="&#xe4;" horiz-adv-x="1170" d="M65 289q0 140 82.5 231t246.5 115l268 39q55 8 79 30.5t24 57.5q0 63 -46 95.5t-141 32.5q-99 0 -144.5 -36t-56.5 -117h-277q21 199 135.5 290t365.5 91q202 0 323 -81t121 -234v-590q0 -75 14 -117.5t49 -52.5v-43h-307q-20 55 -28 129q-140 -158 -364 -158 q-155 0 -249.5 86t-94.5 232zM266 1249v236h253v-236h-253zM352 307q0 -65 42 -98t100 -33q110 0 190.5 61.5t80.5 153.5v137q-53 -37 -206 -59q-128 -18 -167.5 -57.5t-39.5 -104.5zM671 1249v236h253v-236h-253z" />
<glyph unicode="&#xe5;" horiz-adv-x="1170" d="M65 289q0 140 82.5 231t246.5 115l268 39q55 8 79 30.5t24 57.5q0 63 -46 95.5t-141 32.5q-99 0 -144.5 -36t-56.5 -117h-277q21 199 135.5 290t365.5 91q202 0 323 -81t121 -234v-590q0 -75 14 -117.5t49 -52.5v-43h-307q-20 55 -28 129q-140 -158 -364 -158 q-155 0 -249.5 86t-94.5 232zM352 307q0 -65 42 -98t100 -33q110 0 190.5 61.5t80.5 153.5v137q-53 -37 -206 -59q-128 -18 -167.5 -57.5t-39.5 -104.5zM374 1395q0 90 66 151.5t155 61.5q90 0 155.5 -62t65.5 -151q0 -90 -64.5 -151.5t-156.5 -61.5t-156.5 62t-64.5 151z M489 1395q0 -48 29 -77t77 -29q51 0 79 32t28 74q0 45 -28.5 76t-78.5 31q-49 0 -77.5 -30.5t-28.5 -76.5z" />
<glyph unicode="&#xe6;" horiz-adv-x="1834" d="M65 289q0 140 82.5 231t246.5 115l268 39q55 8 79 30.5t24 57.5q0 63 -46 95.5t-141 32.5q-99 0 -144.5 -36t-56.5 -117h-277q21 199 135.5 290t365.5 91q202 0 337 -121q148 121 324 121q238 0 375 -151t137 -449v-51h-757q10 -133 78 -199.5t185 -66.5q70 0 121 32.5 t66 85.5h295q-50 -169 -179 -258.5t-300 -89.5q-285 0 -406 177q-137 -177 -409 -177q-214 0 -308.5 86t-94.5 232zM352 307q0 -65 42 -98t100 -33q110 0 190.5 61.5t80.5 153.5v137q-53 -37 -206 -59q-128 -18 -167.5 -57.5t-39.5 -104.5zM1025 653h454q-9 104 -68 167 t-153 63q-204 0 -233 -230z" />
<glyph unicode="&#xe7;" horiz-adv-x="1143" d="M75 514q0 300 136.5 452t385.5 152q194 0 329 -106t152 -312h-291q-16 91 -64 134t-126 43q-110 0 -168.5 -87t-58.5 -229q0 -205 59.5 -279.5t161.5 -74.5q82 0 135 56.5t59 133.5h291q-24 -191 -149.5 -305t-323.5 -120l-58 -85q31 9 55 9q78 0 131.5 -42.5 t53.5 -123.5q0 -82 -70.5 -139.5t-188.5 -57.5q-108 0 -231 51l45 99q104 -33 152 -33t75 23t27 58q0 34 -23.5 53t-56.5 19q-35 0 -81 -16l-44 41l97 149q-189 22 -300 161t-111 376z" />
<glyph unicode="&#xe8;" horiz-adv-x="1174" d="M70 531q0 264 133.5 425.5t398.5 161.5q238 0 375 -151t137 -449v-51h-757q10 -133 78 -199.5t185 -66.5q70 0 121 32.5t66 85.5h295q-50 -169 -179 -258.5t-300 -89.5q-269 0 -411 148.5t-142 411.5zM223 1536h315l193 -299h-207zM365 653h454q-9 104 -68 167t-153 63 q-204 0 -233 -230z" />
<glyph unicode="&#xe9;" horiz-adv-x="1174" d="M70 531q0 264 133.5 425.5t398.5 161.5q238 0 375 -151t137 -449v-51h-757q10 -133 78 -199.5t185 -66.5q70 0 121 32.5t66 85.5h295q-50 -169 -179 -258.5t-300 -89.5q-269 0 -411 148.5t-142 411.5zM365 653h454q-9 104 -68 167t-153 63q-204 0 -233 -230zM470 1237 l193 299h315l-301 -299h-207z" />
<glyph unicode="&#xea;" horiz-adv-x="1174" d="M70 531q0 264 133.5 425.5t398.5 161.5q238 0 375 -151t137 -449v-51h-757q10 -133 78 -199.5t185 -66.5q70 0 121 32.5t66 85.5h295q-50 -169 -179 -258.5t-300 -89.5q-269 0 -411 148.5t-142 411.5zM239 1237l233 299h256l233 -299h-231l-131 168l-129 -168h-231z M365 653h454q-9 104 -68 167t-153 63q-204 0 -233 -230z" />
<glyph unicode="&#xeb;" horiz-adv-x="1174" d="M70 531q0 264 133.5 425.5t398.5 161.5q238 0 375 -151t137 -449v-51h-757q10 -133 78 -199.5t185 -66.5q70 0 121 32.5t66 85.5h295q-50 -169 -179 -258.5t-300 -89.5q-269 0 -411 148.5t-142 411.5zM271 1249v236h253v-236h-253zM365 653h454q-9 104 -68 167t-153 63 q-204 0 -233 -230zM676 1249v236h253v-236h-253z" />
<glyph unicode="&#xec;" horiz-adv-x="607" d="M-92 1536h315l193 -299h-207zM160 0v1090h287v-1090h-287z" />
<glyph unicode="&#xed;" horiz-adv-x="607" d="M160 0v1090h287v-1090h-287zM195 1237l193 299h315l-301 -299h-207z" />
<glyph unicode="&#xee;" horiz-adv-x="607" d="M-56 1237l233 299h256l233 -299h-231l-131 168l-129 -168h-231zM160 0v1090h287v-1090h-287z" />
<glyph unicode="&#xef;" horiz-adv-x="607" d="M-24 1249v236h253v-236h-253zM160 0v1090h287v-1090h-287zM381 1249v236h253v-236h-253z" />
<glyph unicode="&#xf0;" horiz-adv-x="1269" d="M75 535q0 233 143.5 377t361.5 144q153 0 252 -98l4 5q-58 127 -198 247l-221 -96l-129 107l221 96q-77 56 -150 92l221 100q91 -37 162 -90l209 90l127 -106l-207 -90q136 -122 227 -309.5t91 -399.5q0 -300 -152.5 -466.5t-400.5 -166.5q-247 0 -404 146t-157 418z M370 527q0 -155 72.5 -234.5t191.5 -79.5q127 0 193.5 87.5t66.5 234.5q0 117 -67 198t-195 81q-127 0 -194.5 -83t-67.5 -204z" />
<glyph unicode="&#xf1;" horiz-adv-x="1250" d="M140 0v1090h275v-160h4q103 188 325 188q167 0 274 -95.5t107 -268.5v-754h-287v677q0 95 -43 147.5t-143 52.5q-103 0 -164 -67.5t-61 -184.5v-625h-287zM269 1258q50 248 240 248q18 0 40.5 -4.5t95.5 -27.5q54 -19 87.5 -30.5t59.5 -11.5q75 0 96 82h133 q-50 -246 -227 -246q-18 0 -47 4.5t-102 27.5q-54 17 -88 29.5t-60 12.5q-76 0 -97 -84h-131z" />
<glyph unicode="&#xf2;" horiz-adv-x="1258" d="M75 545q0 271 155.5 422t398.5 151q249 0 401.5 -154.5t152.5 -418.5q0 -267 -153.5 -420.5t-400.5 -153.5q-243 0 -398.5 152.5t-155.5 421.5zM252 1536h315l193 -299h-207zM370 545q0 -164 67 -248t192 -84q129 0 194 87t65 245q0 156 -64.5 244t-194.5 88 q-121 0 -190 -82.5t-69 -249.5z" />
<glyph unicode="&#xf3;" horiz-adv-x="1258" d="M75 545q0 271 155.5 422t398.5 151q249 0 401.5 -154.5t152.5 -418.5q0 -267 -153.5 -420.5t-400.5 -153.5q-243 0 -398.5 152.5t-155.5 421.5zM370 545q0 -164 67 -248t192 -84q129 0 194 87t65 245q0 156 -64.5 244t-194.5 88q-121 0 -190 -82.5t-69 -249.5zM499 1237 l193 299h315l-301 -299h-207z" />
<glyph unicode="&#xf4;" horiz-adv-x="1258" d="M75 545q0 271 155.5 422t398.5 151q249 0 401.5 -154.5t152.5 -418.5q0 -267 -153.5 -420.5t-400.5 -153.5q-243 0 -398.5 152.5t-155.5 421.5zM268 1237l233 299h256l233 -299h-231l-131 168l-129 -168h-231zM370 545q0 -164 67 -248t192 -84q129 0 194 87t65 245 q0 156 -64.5 244t-194.5 88q-121 0 -190 -82.5t-69 -249.5z" />
<glyph unicode="&#xf5;" horiz-adv-x="1258" d="M75 545q0 271 155.5 422t398.5 151q249 0 401.5 -154.5t152.5 -418.5q0 -267 -153.5 -420.5t-400.5 -153.5q-243 0 -398.5 152.5t-155.5 421.5zM263 1258q50 248 240 248q18 0 40.5 -4.5t95.5 -27.5q54 -19 87.5 -30.5t59.5 -11.5q75 0 96 82h133q-50 -246 -227 -246 q-18 0 -47 4.5t-102 27.5q-54 17 -88 29.5t-60 12.5q-76 0 -97 -84h-131zM370 545q0 -164 67 -248t192 -84q129 0 194 87t65 245q0 156 -64.5 244t-194.5 88q-121 0 -190 -82.5t-69 -249.5z" />
<glyph unicode="&#xf6;" horiz-adv-x="1258" d="M75 545q0 271 155.5 422t398.5 151q249 0 401.5 -154.5t152.5 -418.5q0 -267 -153.5 -420.5t-400.5 -153.5q-243 0 -398.5 152.5t-155.5 421.5zM300 1249v236h253v-236h-253zM370 545q0 -164 67 -248t192 -84q129 0 194 87t65 245q0 156 -64.5 244t-194.5 88 q-121 0 -190 -82.5t-69 -249.5zM705 1249v236h253v-236h-253z" />
<glyph unicode="&#xf7;" horiz-adv-x="1200" d="M84 403v230h1032v-230h-1032zM428 104q0 35 13.5 65.5t36.5 53.5t53.5 36.5t65.5 13.5q33 0 63.5 -13.5t53.5 -36.5t36.5 -54t13.5 -65q0 -31 -13.5 -61t-36.5 -53.5t-52.5 -38t-62.5 -14.5q-35 0 -66 13.5t-54.5 36t-37 53t-13.5 64.5zM432 930q0 35 13.5 65.5 t36.5 53.5t53.5 36.5t65.5 13.5q33 0 63.5 -13.5t53.5 -36.5t36.5 -54t13.5 -65q0 -31 -13.5 -61t-36.5 -53.5t-52.5 -38t-62.5 -14.5q-35 0 -66 13.5t-54.5 36t-37 53t-13.5 64.5z" />
<glyph unicode="&#xf8;" horiz-adv-x="1258" d="M48 0l150 158q-123 147 -123 387q0 271 155.5 422t398.5 151q221 0 366 -122l143 151l71 -66l-146 -154q120 -148 120 -382q0 -267 -153.5 -420.5t-400.5 -153.5q-215 0 -362 119l-141 -149zM370 545q0 -105 27 -178l414 436q-64 74 -182 74q-121 0 -190 -82.5 t-69 -249.5zM450 282q65 -69 179 -69q129 0 194 87t65 245q0 99 -26 171z" />
<glyph unicode="&#xf9;" horiz-adv-x="1256" d="M135 373v717h287v-676q0 -104 48 -152.5t138 -48.5q97 0 159 64.5t62 183.5v629h287v-1090h-274v154h-4q-109 -183 -332 -183q-173 0 -272 102t-99 300zM248 1536h315l193 -299h-207z" />
<glyph unicode="&#xfa;" horiz-adv-x="1256" d="M135 373v717h287v-676q0 -104 48 -152.5t138 -48.5q97 0 159 64.5t62 183.5v629h287v-1090h-274v154h-4q-109 -183 -332 -183q-173 0 -272 102t-99 300zM495 1237l193 299h315l-301 -299h-207z" />
<glyph unicode="&#xfb;" horiz-adv-x="1256" d="M135 373v717h287v-676q0 -104 48 -152.5t138 -48.5q97 0 159 64.5t62 183.5v629h287v-1090h-274v154h-4q-109 -183 -332 -183q-173 0 -272 102t-99 300zM264 1237l233 299h256l233 -299h-231l-131 168l-129 -168h-231z" />
<glyph unicode="&#xfc;" horiz-adv-x="1256" d="M135 373v717h287v-676q0 -104 48 -152.5t138 -48.5q97 0 159 64.5t62 183.5v629h287v-1090h-274v154h-4q-109 -183 -332 -183q-173 0 -272 102t-99 300zM296 1249v236h253v-236h-253zM701 1249v236h253v-236h-253z" />
<glyph unicode="&#xfd;" horiz-adv-x="1143" d="M28 1090h320l233 -803h5l223 803h303l-375 -1072q-81 -232 -122 -309t-100 -112.5t-199 -35.5q-72 0 -130 7v227q31 -4 78 -4q62 0 101.5 26t66.5 136zM448 1237l193 299h315l-301 -299h-207z" />
<glyph unicode="&#xfe;" horiz-adv-x="1272" d="M140 -424v1894h287v-522h4q106 170 313 170q198 0 325.5 -150.5t127.5 -410.5q0 -261 -121 -423.5t-338 -162.5q-214 0 -307 168h-4v-563h-287zM414 520q0 -149 68 -231t184 -82q104 0 170 88.5t66 241.5q0 160 -64.5 246.5t-179.5 86.5q-123 0 -183.5 -90t-60.5 -260z " />
<glyph unicode="&#xff;" horiz-adv-x="1143" d="M28 1090h320l233 -803h5l223 803h303l-375 -1072q-81 -232 -122 -309t-100 -112.5t-199 -35.5q-72 0 -130 7v227q31 -4 78 -4q62 0 101.5 26t66.5 136zM249 1249v236h253v-236h-253zM654 1249v236h253v-236h-253z" />
<glyph unicode="&#x152;" horiz-adv-x="2072" d="M90 735q0 344 159 559t453 215q196 0 318 -125v86h962v-260h-682v-309h635v-260h-635v-381h682v-260h-962v102q-117 -141 -326 -141q-274 0 -439 206t-165 568zM391 734q0 -232 93.5 -375.5t248.5 -143.5q117 0 191.5 56.5t74.5 129.5v666q0 88 -73.5 138t-180.5 50 q-172 0 -263 -144.5t-91 -376.5z" />
<glyph unicode="&#x153;" horiz-adv-x="1938" d="M75 545q0 271 155.5 422t398.5 151q218 0 372 -164q145 164 365 164q238 0 375 -151t137 -449v-51h-757q10 -133 78 -199.5t185 -66.5q70 0 121 32.5t66 85.5h295q-50 -169 -179 -258.5t-300 -89.5q-269 0 -404 152q-116 -152 -354 -152q-243 0 -398.5 152.5 t-155.5 421.5zM370 545q0 -164 67 -248t192 -84q129 0 194 87t65 245q0 156 -64.5 244t-194.5 88q-121 0 -190 -82.5t-69 -249.5zM1129 653h454q-9 104 -68 167t-153 63q-204 0 -233 -230z" />
<glyph unicode="&#x178;" horiz-adv-x="1307" d="M-8 1470h362l305 -639l291 639h348l-491 -919v-551h-307v555zM331 1609v236h253v-236h-253zM736 1609v236h253v-236h-253z" />
<glyph unicode="&#x2c6;" horiz-adv-x="700" d="M-11 1237l233 299h256l233 -299h-231l-131 168l-129 -168h-231z" />
<glyph unicode="&#x2dc;" horiz-adv-x="700" d="M-16 1258q50 248 240 248q18 0 40.5 -4.5t95.5 -27.5q54 -19 87.5 -30.5t59.5 -11.5q75 0 96 82h133q-50 -246 -227 -246q-18 0 -47 4.5t-102 27.5q-54 17 -88 29.5t-60 12.5q-76 0 -97 -84h-131z" />
<glyph unicode="&#x2000;" horiz-adv-x="984" />
<glyph unicode="&#x2001;" horiz-adv-x="1968" />
<glyph unicode="&#x2002;" horiz-adv-x="984" />
<glyph unicode="&#x2003;" horiz-adv-x="1968" />
<glyph unicode="&#x2004;" horiz-adv-x="656" />
<glyph unicode="&#x2005;" horiz-adv-x="492" />
<glyph unicode="&#x2006;" horiz-adv-x="328" />
<glyph unicode="&#x2007;" horiz-adv-x="328" />
<glyph unicode="&#x2008;" horiz-adv-x="246" />
<glyph unicode="&#x2009;" horiz-adv-x="393" />
<glyph unicode="&#x200a;" horiz-adv-x="109" />
<glyph unicode="&#x2010;" horiz-adv-x="682" d="M55 440v267h572v-267h-572z" />
<glyph unicode="&#x2011;" horiz-adv-x="682" d="M55 440v267h572v-267h-572z" />
<glyph unicode="&#x2012;" horiz-adv-x="682" d="M55 440v267h572v-267h-572z" />
<glyph unicode="&#x2013;" horiz-adv-x="1024" d="M0 465v217h1024v-217h-1024z" />
<glyph unicode="&#x2014;" horiz-adv-x="2048" d="M0 465v217h2048v-217h-2048z" />
<glyph unicode="&#x2018;" horiz-adv-x="527" d="M130 930v211q-1 288 281 348v-105q-151 -41 -151 -194h157v-260h-287z" />
<glyph unicode="&#x2019;" horiz-adv-x="527" d="M110 1210v260h287v-211q1 -288 -281 -348v105q151 41 151 194h-157z" />
<glyph unicode="&#x201a;" horiz-adv-x="527" d="M140 1v260h287v-211q1 -288 -281 -348v105q151 41 151 194h-157z" />
<glyph unicode="&#x201c;" horiz-adv-x="972" d="M130 930v211q-1 288 281 348v-105q-151 -41 -151 -194h157v-260h-287zM575 930v211q-1 288 281 348v-105q-151 -41 -151 -194h157v-260h-287z" />
<glyph unicode="&#x201d;" horiz-adv-x="972" d="M110 1210v260h287v-211q1 -288 -281 -348v105q151 41 151 194h-157zM555 1210v260h287v-211q1 -288 -281 -348v105q151 41 151 194h-157z" />
<glyph unicode="&#x201e;" horiz-adv-x="972" d="M140 1v260h287v-211q1 -288 -281 -348v105q151 41 151 194h-157zM585 1v260h287v-211q1 -288 -281 -348v105q151 41 151 194h-157z" />
<glyph unicode="&#x2022;" horiz-adv-x="800" d="M77 735q0 137 91.5 230.5t229.5 93.5q137 0 230.5 -93.5t93.5 -230.5t-93.5 -229t-230.5 -92t-229 91.5t-92 229.5z" />
<glyph unicode="&#x2026;" horiz-adv-x="2240" d="M265 0v299h307v-299h-307zM967 0v299h307v-299h-307zM1669 0v299h307v-299h-307z" />
<glyph unicode="&#x202f;" horiz-adv-x="393" />
<glyph unicode="&#x2039;" horiz-adv-x="682" d="M170 451v245l342 295v-237l-205 -181l205 -180v-237z" />
<glyph unicode="&#x203a;" horiz-adv-x="682" d="M170 156v237l205 180l-205 181v237l342 -295v-245z" />
<glyph unicode="&#x205f;" horiz-adv-x="492" />
<glyph unicode="&#x20ac;" d="M35 542l16 113h105q-1 88 4 147h-125l16 113h122q96 554 521 554q191 0 302.5 -105.5t128.5 -286.5h-274q-32 135 -172 135q-175 0 -211 -297h357l-19 -113h-348q-2 -57 -1 -147h326l-19 -113h-299q37 -325 213 -325q63 0 111.5 44t63.5 123h276q-22 -179 -143.5 -301 t-319.5 -122q-224 0 -350.5 164.5t-151.5 416.5h-129z" />
<glyph unicode="&#x2122;" horiz-adv-x="2048" d="M90 1296v174h698v-174h-235v-669h-229v669h-234zM948 627v843h314l192 -512l191 512h313v-843h-217v575h-4l-201 -575h-166l-201 575h-4v-575h-217z" />
<glyph unicode="&#xe000;" horiz-adv-x="1090" d="M0 0v1090h1090v-1090h-1090z" />
<glyph unicode="&#xfb01;" horiz-adv-x="1243" d="M15 885v205h153v88q0 160 83 236t266 76q49 0 118 -5v-234q-31 3 -65 3q-41 0 -64 -5.5t-34 -19t-14 -37t-3 -60.5v-42h186v-205h-186v-885h-287v885h-153zM816 0v1090h287v-1090h-287zM816 1219v266h287v-266h-287z" />
<glyph unicode="&#xfb02;" horiz-adv-x="1243" d="M15 885v205h153v88q0 160 83 236t266 76q49 0 118 -5v-234q-31 3 -65 3q-41 0 -64 -5.5t-34 -19t-14 -37t-3 -60.5v-42h186v-205h-186v-885h-287v885h-153zM816 0v1470h287v-1470h-287z" />
<glyph unicode="&#xfb03;" horiz-adv-x="1919" d="M15 885v205h153v88q0 160 83 236t266 76q49 0 118 -5v-234q-31 3 -65 3q-41 0 -64 -5.5t-34 -19t-14 -37t-3 -60.5v-42h186v-205h-186v-885h-287v885h-153zM691 885v205h153v88q0 160 83 236t266 76q49 0 118 -5v-234q-31 3 -65 3q-41 0 -64 -5.5t-34 -19t-14 -37 t-3 -60.5v-42h186v-205h-186v-885h-287v885h-153zM1492 0v1090h287v-1090h-287zM1492 1219v266h287v-266h-287z" />
<glyph unicode="&#xfb04;" horiz-adv-x="1919" d="M15 885v205h153v88q0 160 83 236t266 76q49 0 118 -5v-234q-31 3 -65 3q-41 0 -64 -5.5t-34 -19t-14 -37t-3 -60.5v-42h186v-205h-186v-885h-287v885h-153zM691 885v205h153v88q0 160 83 236t266 76q49 0 118 -5v-234q-31 3 -65 3q-41 0 -64 -5.5t-34 -19t-14 -37 t-3 -60.5v-42h186v-205h-186v-885h-287v885h-153zM1492 0v1470h287v-1470h-287z" />
</font>
</defs>
</svg>
