<?xml version="1.0" encoding="utf-8"?>
<!-- Generator: Adobe Illustrator 16.0.0, SVG Export Plug-In . SVG Version: 6.00 Build 0)  -->
<!DOCTYPE svg PUBLIC "-//W3C//DTD SVG 1.1//EN" "http://www.w3.org/Graphics/SVG/1.1/DTD/svg11.dtd">
<svg version="1.1" id="bottom" xmlns="http://www.w3.org/2000/svg" xmlns:xlink="http://www.w3.org/1999/xlink" x="0px" y="0px"
	width="100%" height="100%" viewBox="0 0 360 342" enable-background="new 0 0 360 342" xml:space="preserve">
<g id="bottomLeft" display="none">
	<g display="inline">
		<path fill="#009BD0" d="M45.552,32.001c13.167,0,19.75,10.728,19.75,32.183v7.152c0,21.455-6.584,32.183-19.75,32.183
			l-15.653,0.09v32.094H14V32.001H45.552z M45.552,57.032H29.899v21.455h15.653c2.567,0,3.852-1.788,3.852-5.364V62.396
			C49.404,58.82,48.119,57.032,45.552,57.032z"/>
		<path fill="#009BD0" d="M90.215,96.367v14.304h27.536v25.031H74.317V32.001h43.435v25.031H90.215v14.304h23.603v25.031H90.215z"/>
		<path fill="#009BD0" d="M156.351,32.001c14.478,0,21.717,13.708,21.717,41.122v21.456c0,27.416-7.24,41.123-21.717,41.123h-7.867
			c-14.479,0-21.717-13.707-21.717-41.123V73.123c0-27.414,7.239-41.122,21.717-41.122H156.351z M158.317,57.032h-11.801
			c-2.569,0-3.852,4.172-3.852,12.516v28.607c0,8.345,1.283,12.516,3.852,12.516h11.801c2.567,0,3.852-4.171,3.852-12.516V69.548
			C162.169,61.205,160.885,57.032,158.317,57.032z"/>
		<path fill="#009BD0" d="M218.634,32.001c13.167,0,19.751,10.728,19.751,32.183v7.152c0,21.455-6.584,32.183-19.751,32.183
			l-15.653,0.09v32.094h-15.898V32.001H218.634z M218.634,57.032H202.98v21.455h15.653c2.567,0,3.853-1.788,3.853-5.364V62.396
			C222.486,58.82,221.201,57.032,218.634,57.032z"/>
		<path fill="#009BD0" d="M263.297,110.671h27.537v25.031h-43.436V32.001h15.898V110.671z"/>
		<path fill="#009BD0" d="M315.746,96.367v14.304h27.537v25.031h-43.436V32.001h43.436v25.031h-27.537v14.304h23.604v25.031H315.746
			z"/>
	</g>
	<g display="inline">
		<path fill="#009BD0" d="M26.18,295.165c1.563,0,2.989,0.641,4.281,1.92c1.292,1.281,1.938,2.924,1.938,4.93
			c0,3.875-1.804,5.812-5.412,5.812c-1.562,0-2.759-0.242-3.594-0.727c-0.834-0.483-1.547-1.591-2.141-3.321
			c-1.561,1.738-2.342,4.622-2.342,8.652c0,4.311,1.213,7.716,3.638,10.218c0.647,0.695,1.471,1.286,2.467,1.772
			c0.997,0.486,2.547,0.887,4.649,1.2c2.103,0.313,4.934,0.556,8.491,0.729c3.559,0.173,8.194,0.259,13.909,0.259
			c6.578,0,11.82-0.067,15.729-0.207c3.909-0.138,6.927-0.328,9.057-0.571c2.129-0.241,3.638-0.553,4.528-0.934
			c0.889-0.38,1.603-0.813,2.143-1.297c1.563-1.453,2.682-2.992,3.356-4.618c0.674-1.625,1.011-3.788,1.011-6.486
			c0-3.321-0.565-5.983-1.696-7.991c-1.131-2.006-2.8-3.425-5.008-4.255l1.05-3.32c3.392,1.245,5.788,3.217,7.188,5.915
			c1.399,2.698,2.1,6.192,2.1,10.481c0,3.943-0.565,7.452-1.696,10.525s-2.72,5.637-4.766,7.692
			c-1.078,1.097-2.275,2.022-3.594,2.776c-1.32,0.754-3.097,1.354-5.331,1.798c-2.234,0.446-5.075,0.772-8.521,0.977
			c-3.445,0.206-7.834,0.308-13.166,0.308c-5.169,0-9.462-0.067-12.883-0.207c-3.418-0.138-6.259-0.38-8.521-0.727
			c-2.262-0.346-4.119-0.864-5.573-1.557c-1.454-0.69-2.854-1.557-4.2-2.595c-2.476-2.006-4.428-4.618-5.855-7.835
			c-1.426-3.217-2.141-7.143-2.141-11.779c0-2.698,0.283-5.119,0.848-7.264c0.565-2.144,1.347-3.978,2.342-5.501
			c0.997-1.521,2.154-2.698,3.473-3.528C23.26,295.58,24.673,295.165,26.18,295.165z"/>
		<path fill="#009BD0" d="M90.554,244.314v21.897h-3.635v-1.246c0-2.49-0.488-3.735-1.464-3.735c-0.76,0-1.994,0.121-3.703,0.363
			c-1.708,0.243-3.675,0.606-5.898,1.089v20.133l8.136,1.661c0.326,0.069,0.597,0.104,0.814,0.104c0.217,0,0.46,0,0.732,0
			c0.596,0,0.976-0.294,1.14-0.882c0.162-0.587,0.244-1.47,0.244-2.646v-1.35h3.635v14.529h-3.635v-1.245
			c0-1.729-0.783-2.836-2.345-3.321c-0.863-0.346-2.736-0.882-5.62-1.608c-2.885-0.727-6.36-1.573-10.431-2.543
			c-4.07-0.968-8.531-2.006-13.382-3.113c-4.852-1.105-9.664-2.179-14.434-3.217s-9.313-2.006-13.626-2.905
			c-4.313-0.898-7.951-1.625-10.917-2.18v-10.17c4.259-0.623,8.937-1.418,14.03-2.388c5.095-0.968,10.283-2.023,15.566-3.165
			s10.499-2.335,15.646-3.58c5.149-1.245,9.906-2.455,14.272-3.632c2.372-0.623,4.231-1.124,5.58-1.505
			c1.348-0.38,2.371-0.691,3.073-0.935c0.701-0.241,1.173-0.431,1.415-0.57c0.242-0.138,0.417-0.275,0.525-0.415
			c0.27-0.275,0.445-0.571,0.526-0.882c0.081-0.312,0.121-0.813,0.121-1.505v-1.038H90.554z M72.219,263.306l-43.374,8.406
			c0.539,0.14,1.872,0.467,3.998,0.985c2.128,0.52,4.685,1.142,7.673,1.868c2.988,0.727,6.193,1.505,9.612,2.335
			c3.42,0.83,6.651,1.608,9.692,2.335c3.042,0.727,5.694,1.35,7.956,1.868s3.743,0.848,4.442,0.986V263.306z"/>
		<path fill="#009BD0" d="M90.554,193.049v48.049h-3.715v-1.557c0-0.761-0.095-1.35-0.283-1.765
			c-0.189-0.415-0.539-0.727-1.05-0.934c-0.512-0.208-1.239-0.346-2.181-0.415c-0.943-0.068-2.141-0.172-3.594-0.312
			c-0.917-0.068-2.1-0.12-3.554-0.155c-1.454-0.034-3.433-0.068-5.937-0.104c-2.504-0.034-5.654-0.052-9.45-0.052
			c-3.796,0-8.44,0-13.933,0c-4.253,0-7.754,0.018-10.5,0.052c-2.746,0.036-4.994,0.07-6.744,0.104
			c-1.75,0.035-3.163,0.104-4.241,0.207c-1.076,0.104-2.1,0.226-3.069,0.363c-0.969,0.14-1.628,0.433-1.979,0.882
			c-0.35,0.451-0.525,1.193-0.525,2.231v1.453h-3.634v-21.482h3.634v2.803c0,1.8,0.836,2.905,2.507,3.32
			c0.432,0.07,1.079,0.156,1.942,0.26s2.238,0.191,4.125,0.26c1.887,0.069,4.461,0.139,7.722,0.207
			c3.263,0.069,7.508,0.104,12.737,0.104c5.823,0,11.282-0.034,16.376-0.104c5.095-0.068,9.96-0.172,14.597-0.312
			c2.103-0.067,3.638-0.379,4.61-0.934c0.969-0.553,1.456-1.521,1.456-2.906v-21.896c0-0.969-0.351-1.694-1.05-2.18
			c-0.7-0.483-1.831-0.727-3.392-0.727v-4.462H90.554z"/>
		<path fill="#009BD0" d="M90.554,141.784v48.049h-3.715v-1.557c0-0.761-0.095-1.35-0.283-1.765
			c-0.189-0.415-0.539-0.727-1.05-0.934c-0.512-0.208-1.239-0.346-2.181-0.415c-0.943-0.068-2.141-0.172-3.594-0.312
			c-0.917-0.068-2.1-0.12-3.554-0.155c-1.454-0.034-3.433-0.068-5.937-0.104c-2.504-0.034-5.654-0.052-9.45-0.052
			c-3.796,0-8.44,0-13.933,0c-4.253,0-7.754,0.018-10.5,0.052c-2.746,0.036-4.994,0.07-6.744,0.104
			c-1.75,0.035-3.163,0.104-4.241,0.207c-1.076,0.104-2.1,0.226-3.069,0.363c-0.969,0.14-1.628,0.433-1.979,0.882
			c-0.35,0.451-0.525,1.193-0.525,2.231v1.453h-3.634v-21.482h3.634v2.803c0,1.8,0.836,2.905,2.507,3.32
			c0.432,0.07,1.079,0.156,1.942,0.26s2.238,0.191,4.125,0.26c1.887,0.069,4.461,0.139,7.722,0.207
			c3.263,0.069,7.508,0.104,12.737,0.104c5.823,0,11.282-0.034,16.376-0.104c5.095-0.068,9.96-0.172,14.597-0.312
			c2.103-0.067,3.638-0.379,4.61-0.934c0.969-0.553,1.456-1.521,1.456-2.906v-21.896c0-0.969-0.351-1.694-1.05-2.18
			c-0.7-0.483-1.831-0.727-3.392-0.727v-4.462H90.554z"/>
	</g>
	<g display="inline">
		<path fill="#009BD0" d="M132.055,328.942c-0.175,1.261-0.588,2.29-1.242,3.088c-0.654,0.799-1.438,1.429-2.354,1.891
			c-0.915,0.463-1.896,0.788-2.941,0.977c-1.046,0.189-2.049,0.284-3.007,0.284c-1.134,0-2.233-0.115-3.301-0.347
			c-1.068-0.23-2.017-0.588-2.844-1.071c-0.828-0.482-1.482-1.071-1.961-1.765c-0.48-0.693-0.719-1.481-0.719-2.363
			c0-1.722,0.087-3.309,0.262-4.758c0.173-1.449,0.435-2.908,0.784-4.379c1.22-4.916,2.288-9.484,3.203-13.706
			c0.915-4.223,1.7-8.224,2.354-12.005c0.653-3.781,1.219-7.445,1.699-10.996c0.479-3.55,0.904-7.121,1.275-10.713
			c0.37-3.592,0.708-7.299,1.013-11.122c0.304-3.822,0.631-7.918,0.98-12.288c0-0.378,0-0.86,0-1.449
			c0-0.588-0.065-1.145-0.196-1.67c-0.13-0.524-0.359-0.977-0.686-1.354c-0.327-0.379-0.817-0.567-1.471-0.567
			c-1.046,0-2.321,0.347-3.824,1.04c-1.503,0.692-3.083,1.628-4.739,2.804c-1.657,1.177-3.313,2.552-4.968,4.128
			c-1.656,1.575-3.182,3.267-4.576,5.072c-0.261,0.63-0.676,1.082-1.242,1.355c-0.566,0.273-1.198,0.409-1.896,0.409
			c-0.217,0-0.446-0.179-0.687-0.536c-0.239-0.356-0.458-0.787-0.653-1.291c-0.196-0.505-0.36-1.04-0.49-1.607
			c-0.131-0.567-0.196-1.081-0.196-1.544c0-0.252,0.088-0.462,0.261-0.63c1.569-4.957,3.345-9.105,5.328-12.445
			c1.983-3.34,4.075-6.008,6.275-8.003c2.2-1.995,4.445-3.413,6.733-4.254c2.288-0.84,4.478-1.261,6.569-1.261
			c2.702,0,4.945,0.495,6.733,1.481c1.787,0.987,3.203,2.374,4.249,4.159c1.046,1.786,1.775,3.938,2.19,6.459
			c0.414,2.521,0.621,5.314,0.621,8.381c0,2.354-0.196,5.104-0.588,8.255c-0.392,3.151-0.883,6.459-1.471,9.925
			c-0.588,3.466-1.232,6.942-1.929,10.43c-0.697,3.487-1.373,6.742-2.026,9.768c1.394-5.587,3.04-10.954,4.936-16.101
			c1.896-5.146,3.965-9.957,6.21-14.431c2.244-4.475,4.63-8.528,7.158-12.162c2.527-3.634,5.131-6.753,7.812-9.358
			c2.68-2.604,5.393-4.62,8.139-6.049c2.746-1.428,5.468-2.143,8.171-2.143c2.004,0,3.857,0.42,5.557,1.26
			c1.699,0.841,3.159,2.143,4.379,3.907c1.221,1.765,2.168,3.992,2.844,6.68c0.676,2.689,1.014,5.882,1.014,9.578
			c0,0.337-0.033,0.862-0.098,1.576c-0.066,0.715-0.154,1.533-0.262,2.457c-0.109,0.925-0.24,1.922-0.393,2.993
			s-0.294,2.133-0.425,3.183c-0.349,2.521-0.719,5.252-1.111,8.191l1.373-0.063c1.699-6.217,3.791-11.805,6.275-16.762
			c2.483-4.957,5.272-9.169,8.367-12.635c3.094-3.466,6.427-6.123,10.001-7.972c3.573-1.849,7.277-2.772,11.113-2.772
			c2.657,0,5.021,0.756,7.092,2.269c2.07,1.512,3.803,3.56,5.197,6.144s2.461,5.608,3.203,9.074
			c0.74,3.466,1.111,7.132,1.111,10.996c0,3.614-0.252,7.321-0.752,11.122c-0.502,3.803-1.123,7.563-1.863,11.28
			c-0.741,3.718-1.535,7.363-2.386,10.934c-0.85,3.57-1.646,6.953-2.386,10.146c-0.742,3.192-1.363,6.144-1.863,8.854
			c-0.502,2.709-0.752,5.052-0.752,7.026c0,2.479,0.469,4.274,1.406,5.388c0.936,1.113,2.298,1.67,4.085,1.67
			c1.003,0,2.06-0.262,3.171-0.788c1.111-0.524,2.223-1.218,3.334-2.079c1.111-0.86,2.211-1.849,3.301-2.962
			c1.089-1.112,2.135-2.258,3.138-3.435c2.31-2.688,4.597-5.775,6.864-9.263c0,0.042,0.195,0.483,0.588,1.323
			c0.305,0.715,0.806,1.933,1.504,3.654c0.695,1.724,1.676,4.201,2.941,7.437c-2.18,3.697-4.424,6.827-6.733,9.389
			c-2.311,2.563-4.663,4.653-7.06,6.271c-2.397,1.617-4.827,2.783-7.289,3.497c-2.463,0.715-4.914,1.071-7.354,1.071
			c-2.354,0-4.652-0.398-6.896-1.197c-2.245-0.798-4.239-1.985-5.981-3.561c-1.743-1.575-3.138-3.528-4.184-5.86
			c-1.046-2.331-1.569-5.01-1.569-8.034c0-0.336,0.011-0.693,0.033-1.071c0.021-0.378,0.055-0.757,0.098-1.135
			c0.174-2.813,0.545-5.807,1.111-8.979c0.566-3.172,1.209-6.438,1.929-9.799c0.719-3.36,1.471-6.784,2.255-10.271
			c0.785-3.486,1.504-6.963,2.157-10.43c0.653-3.466,1.198-6.889,1.634-10.271c0.436-3.381,0.654-6.626,0.654-9.735
			c0-1.891-0.065-3.602-0.196-5.136c-0.13-1.533-0.392-2.836-0.784-3.907s-0.959-1.9-1.699-2.489
			c-0.742-0.588-1.723-0.882-2.941-0.882c-2.311,0-4.49,0.777-6.537,2.331c-2.049,1.555-3.988,3.697-5.818,6.428
			c-1.83,2.731-3.541,5.966-5.131,9.705c-1.592,3.739-3.096,7.782-4.511,12.13c-1.417,4.349-2.735,8.907-3.955,13.675
			c-1.22,4.769-2.353,9.568-3.399,14.398c-1.045,4.832-2.025,9.601-2.941,14.305c-0.915,4.706-1.765,9.159-2.549,13.359
			c-0.35,1.177-0.883,2.174-1.602,2.993c-0.719,0.819-1.548,1.481-2.484,1.985c-0.938,0.504-1.928,0.872-2.974,1.103
			c-1.046,0.231-2.092,0.347-3.138,0.347c-0.916,0-1.82-0.167-2.713-0.504c-0.894-0.336-1.678-0.872-2.354-1.607
			c-0.676-0.734-1.22-1.67-1.634-2.804c-0.415-1.135-0.621-2.521-0.621-4.159c0-1.092,0.261-2.972,0.784-5.64
			s1.187-5.86,1.994-9.579c0.806-3.718,1.677-7.792,2.615-12.225c0.937-4.432,1.808-8.948,2.615-13.548
			c0.806-4.601,1.471-9.147,1.994-13.644c0.523-4.494,0.784-8.633,0.784-12.414c0-2.604-0.065-4.936-0.196-6.994
			c-0.13-2.059-0.436-3.802-0.915-5.23c-0.48-1.428-1.167-2.521-2.059-3.277c-0.894-0.756-2.082-1.134-3.563-1.134
			c-1.221,0-2.615,0.799-4.184,2.395c-1.569,1.597-3.258,3.803-5.066,6.616c-1.809,2.815-3.672,6.124-5.589,9.926
			c-1.918,3.802-3.824,7.908-5.72,12.319s-3.726,9.021-5.491,13.832c-1.765,4.811-3.389,9.62-4.87,14.431
			c-1.482,4.811-2.79,9.515-3.922,14.115C133.47,320.593,132.621,324.909,132.055,328.942z"/>
		<path fill="#009BD0" d="M342.02,319.364c-3.529,3.613-7.508,6.774-11.93,9.483c-4.424,2.71-9.043,4.979-13.858,6.806
			c-4.815,1.828-9.707,3.203-14.675,4.128c-4.969,0.924-9.784,1.387-14.447,1.387c-5.143,0-9.979-0.578-14.512-1.733
			c-4.533-1.156-8.498-2.92-11.896-5.293c-3.4-2.373-6.091-5.377-8.074-9.012c-1.982-3.633-2.974-7.949-2.974-12.949
			c0-4.243,0.794-8.318,2.386-12.226c1.59-3.906,4.053-7.372,7.387-10.397c3.334-3.024,7.604-5.46,12.813-7.31
			c5.207-1.848,11.449-2.856,18.729-3.024c-4.795,0-8.979-0.662-12.551-1.985c-3.574-1.323-6.537-3.108-8.891-5.356
			c-2.354-2.247-4.118-4.873-5.295-7.877c-1.177-3.003-1.765-6.186-1.765-9.547c0-3.15,0.565-6.027,1.699-8.633
			c1.133-2.604,2.69-4.947,4.674-7.026s4.325-3.896,7.027-5.451c2.702-1.554,5.632-2.845,8.792-3.875
			c3.159-1.029,6.472-1.806,9.936-2.332c3.465-0.524,6.963-0.787,10.492-0.787c5.1,0,10.088,0.535,14.97,1.606
			c4.88,1.071,9.217,2.679,13.009,4.821c3.791,2.143,6.841,4.82,9.151,8.034c2.31,3.214,3.464,6.963,3.464,11.248
			c0,1.513-0.533,3.004-1.602,4.475s-2.343,2.783-3.824,3.938s-3.039,2.079-4.674,2.772c-1.634,0.693-2.996,1.04-4.085,1.04
			c-0.915,0-1.372-0.777-1.372-2.332c0-1.387,0.229-3.172,0.686-5.356c0.457-2.184,1.23-4.915,2.32-8.191
			c-1.176-0.924-2.898-1.849-5.164-2.773c-2.266-0.923-4.826-1.764-7.681-2.521c-2.854-0.756-5.894-1.375-9.118-1.858
			c-3.227-0.482-6.406-0.725-9.545-0.725c-2.92,0-5.709,0.252-8.367,0.756s-5,1.334-7.027,2.489
			c-2.025,1.155-3.639,2.678-4.836,4.568c-1.199,1.891-1.799,4.222-1.799,6.995c0,2.269,0.426,4.181,1.275,5.734
			c0.85,1.555,1.982,2.878,3.398,3.97c1.416,1.093,3.04,1.985,4.871,2.678c1.83,0.693,3.726,1.313,5.687,1.859
			c1.961,0.547,3.89,1.071,5.785,1.575s3.638,1.082,5.229,1.733c1.59,0.651,2.93,1.439,4.02,2.362
			c1.09,0.925,1.809,2.08,2.158,3.466c0.086,0.883,0.174,1.775,0.262,2.679c0.086,0.904,0.13,1.775,0.13,2.615
			c0,2.354-0.458,4.064-1.372,5.136c-0.916,1.071-2.703,1.606-5.361,1.606c-1.133,0-2.539-0.063-4.216-0.188
			c-1.679-0.126-3.28-0.189-4.805-0.189c-3.487,0-6.907,0.432-10.263,1.292c-3.356,0.861-6.363,2.143-9.021,3.844
			s-4.805,3.803-6.438,6.302c-1.634,2.5-2.451,5.409-2.451,8.728c0,3.15,0.468,5.776,1.405,7.877
			c0.938,2.102,2.223,3.792,3.857,5.073c1.634,1.281,3.563,2.195,5.785,2.741s4.618,0.818,7.189,0.818
			c3.094,0,6.342-0.293,9.74-0.882c3.399-0.588,6.787-1.396,10.165-2.426c3.377-1.029,6.668-2.247,9.871-3.655
			c3.202-1.407,6.177-2.919,8.923-4.537c2.745-1.616,5.164-3.318,7.256-5.104c2.092-1.785,3.703-3.581,4.837-5.388L342.02,319.364z"
			/>
	</g>
	<g id="Divider_1" display="inline">
		<line fill="none" stroke="#009BD0" stroke-width="3" stroke-miterlimit="10" x1="14.5" y1="12" x2="163" y2="12"/>
		<line fill="none" stroke="#009BD0" stroke-width="3" stroke-miterlimit="10" x1="195.5" y1="12" x2="344" y2="12"/>
		<circle fill="#009BD0" cx="179" cy="13" r="10"/>
	</g>
	<g id="Arrow" display="inline">
		<polyline fill="#0FA4FF" points="242,215.486 263.948,182.768 242,149.859 278.489,149.954 300.526,182.673 278.489,215.577 		"/>
		<polygon fill="#0FA4FF" points="285.804,149.859 307.751,182.768 285.896,215.486 293.354,215.58 315.25,182.673 293.478,149.954 
					"/>
	</g>
	<g display="inline">
		<path fill-rule="evenodd" clip-rule="evenodd" fill="#E74D25" d="M177.835,209.477c-0.001-3.404-0.03-6.808,0.02-10.209
			c0.013-0.941-0.297-1.229-1.217-1.202c-1.986,0.055-3.976-0.012-5.963,0.027c-0.888,0.02-1.11-0.25-0.864-1.126
			c2.568-9.177,5.109-18.364,7.658-27.549c0.045-0.162,0.13-0.32,0.138-0.484c0.02-0.425,0.586-1.052-0.325-1.175
			c-0.693-0.093-1.479-0.551-1.799,0.704c-1.351,5.285-2.788,10.549-4.193,15.82c-0.087,0.325-0.166,0.655-0.284,0.969
			c-0.641,1.691-1.999,2.464-3.45,1.977c-1.714-0.575-2.7-2.232-2.182-3.894c2.09-6.689,3.709-13.51,5.657-20.239
			c1.066-3.682,4.019-5.898,7.862-5.903c4.515-0.007,9.03-0.002,13.545-0.002c4.6,0,7.939,2.564,9.119,7.052
			c1.43,5.439,2.828,10.888,4.242,16.331c0.263,1.011,0.549,2.016,0.795,3.029c0.406,1.68-0.316,2.953-1.875,3.356
			c-1.709,0.44-3.371-0.39-3.79-1.956c-0.636-2.375-1.215-4.765-1.832-7.145c-0.804-3.098-1.618-6.191-2.433-9.284
			c-0.256-0.968-1.283-1.347-2.081-0.778c-0.438,0.312-0.136,0.683-0.047,1.004c1.405,5.063,2.825,10.121,4.244,15.181
			c1.192,4.247,2.392,8.494,3.581,12.742c0.301,1.069,0.234,1.162-0.881,1.167c-1.954,0.01-3.909,0.002-5.863,0.005
			c-1.315,0.002-1.316,0.004-1.32,1.363c-0.016,6.571-0.023,13.142-0.047,19.711c-0.008,2.062-0.988,3.317-2.92,3.824
			c-1.641,0.43-3.326-0.357-4.268-1.952c-0.311-0.527-0.334-1.078-0.334-1.654c0.003-6.437,0.002-12.872,0.002-19.308
			c0-0.27-0.008-0.539-0.002-0.809c0.01-0.466-0.113-0.788-0.674-0.775c-0.563,0.014-0.65,0.36-0.65,0.812
			c-0.005,1.887-0.017,3.774-0.021,5.661c-0.009,4.683-0.012,9.366-0.025,14.05c-0.012,3.329-2.781,5.021-5.786,3.553
			c-1.166-0.569-1.779-1.409-1.755-2.786C177.874,216.217,177.835,212.846,177.835,209.477z"/>
		<path fill-rule="evenodd" clip-rule="evenodd" fill="#E74D25" d="M138.243,194.2c0-8.254,0-16.509,0-24.762
			c0-0.236,0.008-0.472-0.004-0.708c-0.022-0.425,0.07-0.957-0.596-0.951c-0.674,0.006-0.571,0.554-0.571,0.968
			c0.002,5.861,0.018,11.724,0.023,17.585c0.001,1.32-0.535,2.171-1.669,2.604c-1.19,0.456-2.317,0.36-3.303-0.523
			c-0.62-0.558-0.798-1.269-0.797-2.093c0.017-6.637,0.087-13.275-0.029-19.909c-0.045-2.555,0.391-4.813,2.185-6.692
			c1.601-1.677,3.525-2.675,5.884-2.73c5.153-0.123,10.305,0.087,15.452,0.253c2.468,0.08,4.29,1.633,5.629,3.669
			c1.2,1.82,1.432,3.904,1.447,6.005c0.049,6.434,0.009,12.869,0.093,19.303c0.023,1.733-1.603,3.165-2.948,3.111
			c-1.729-0.068-3.052-1.569-3.025-3.139c0.096-5.725,0.032-11.453,0.005-17.18c-0.001-0.406,0.283-1.096-0.429-1.143
			c-0.797-0.053-0.7,0.646-0.7,1.178c-0.002,16.643-0.017,33.285,0.022,49.927c0.003,1.56-0.504,2.693-1.845,3.414
			c-1.455,0.781-2.921,0.726-4.312-0.185c-1.142-0.747-1.596-1.851-1.595-3.192c0.006-8.658,0.003-17.317,0.002-25.976
			c0-1.043,0.004-2.088-0.005-3.133c-0.004-0.445,0-0.947-0.649-0.908c-0.598,0.035-0.509,0.533-0.51,0.921
			c-0.007,3.94-0.003,7.883-0.005,11.824c-0.003,5.762-0.007,11.521-0.015,17.282c-0.002,1.957-1.235,3.589-2.962,3.938
			c-1.662,0.336-3.912-0.841-4.633-2.407c-0.208-0.45-0.171-0.92-0.171-1.39c-0.003-8.32-0.001-16.642-0.001-24.962
			C138.221,194.2,138.232,194.2,138.243,194.2z"/>
		<path fill-rule="evenodd" clip-rule="evenodd" fill="#E74D25" d="M185.916,155.644c-3.746-0.004-6.655-2.92-6.651-6.666
			c0.004-3.729,3.071-6.786,6.763-6.744c3.676,0.043,6.646,3.06,6.651,6.754C192.684,152.769,189.758,155.647,185.916,155.644z"/>
		<path fill-rule="evenodd" clip-rule="evenodd" fill="#E74D25" d="M153.271,149.014c-0.003,3.786-2.849,6.627-6.639,6.63
			c-3.747,0.002-6.812-3.031-6.766-6.695c0.045-3.649,3.078-6.678,6.725-6.713C150.258,142.2,153.274,145.261,153.271,149.014z"/>
	</g>
</g>
<g id="centerLogo">
	<circle fill="#212221" stroke="#009BD0" stroke-width="17" stroke-miterlimit="10" cx="179.254" cy="167.133" r="152.401"/>
	<g>
		<polygon fill="#009BD0" points="158.618,55.273 158.618,196.356 134.37,206.101 134.37,139.093 102.49,152.222 102.49,226.296 
			134.37,213.171 158.618,203.424 190.498,190.299 190.498,42.144 		"/>
		<polygon fill="#009BD0" points="214.624,121.094 214.624,262.179 190.377,271.924 190.377,204.915 158.496,218.044 
			158.496,292.119 190.377,278.991 214.624,269.248 246.505,256.118 246.505,107.968 		"/>
	</g>
	<circle fill="none" stroke="#E44F25" stroke-width="3" stroke-miterlimit="10" cx="179.253" cy="167.133" r="137.719"/>
</g>
<g id="bottomRight" display="none">
	<g display="inline">
		<path fill="#009BD0" d="M76.948,167.501v-1.262c0-0.736-0.084-1.235-0.252-1.499c-0.17-0.263-0.518-0.474-1.045-0.631
			c-0.193-0.052-0.89-0.104-2.092-0.158c-1.201-0.052-2.716-0.104-4.54-0.157c-1.827-0.052-3.869-0.092-6.128-0.118
			s-4.565-0.052-6.92-0.079c-2.354-0.026-4.625-0.04-6.812-0.04c-2.188,0-4.146,0-5.876,0c-2.307,0-4.83,0.014-7.569,0.04
			c-2.738,0.027-5.334,0.053-7.785,0.079c-2.45,0.026-4.565,0.078-6.344,0.157c-1.777,0.079-2.812,0.172-3.101,0.276
			c-0.527,0.157-0.888,0.368-1.08,0.631c-0.192,0.264-0.289,0.763-0.289,1.499v1.262h-3.24v-15.066h3.24v1.341
			c0,0.685,0.097,1.157,0.289,1.42c0.192,0.264,0.553,0.501,1.08,0.71c0.289,0.106,1.323,0.186,3.101,0.237
			c1.778,0.053,3.894,0.105,6.344,0.157c2.451,0.053,5.047,0.079,7.785,0.079c2.739,0,5.263,0,7.569,0c1.683,0,3.629,0,5.84,0
			c2.21,0,4.493-0.013,6.848-0.039s4.661-0.052,6.92-0.079c2.259-0.026,4.301-0.052,6.128-0.079c1.824-0.026,3.339-0.065,4.54-0.118
			c1.202-0.052,1.898-0.104,2.092-0.158c0.527-0.209,0.875-0.446,1.045-0.71c0.168-0.263,0.252-0.735,0.252-1.42v-1.341h3.24v15.066
			H76.948z"/>
		<path fill="#009BD0" d="M16.469,137.29c2.784,0,5.111,0.737,6.983,2.209c1.872,1.473,3.049,3.287,3.528,5.442l-1.512,0.552
			c-0.624-1.419-1.308-2.445-2.053-3.076c-0.743-0.631-1.499-1.051-2.268-1.262c0.241,0.421,0.36,0.946,0.36,1.577
			c0,1.474-0.479,2.656-1.44,3.55c-0.96,0.896-2.352,1.341-4.176,1.341c-1.392,0-2.592-0.473-3.601-1.42
			c-1.008-0.946-1.512-2.181-1.512-3.707c0-1.524,0.504-2.773,1.512-3.747C13.301,137.776,14.693,137.29,16.469,137.29z"/>
		<path fill="#009BD0" d="M80.188,88.856v14.988h-3.24v-0.71c0-1.052-0.133-1.775-0.396-2.17c-0.265-0.395-0.828-0.617-1.692-0.67
			c-2.064-0.105-4.08-0.197-6.048-0.276s-4.188-0.145-6.66-0.197c-2.472-0.052-5.339-0.091-8.604-0.118
			c-3.264-0.026-7.248-0.04-11.952-0.04c-1.248,0-2.508,0-3.78,0c-1.271,0-2.604,0.027-3.996,0.079
			c18.097,3.944,33.552,7.1,46.368,9.466v6.311c-1.127,0.211-2.862,0.54-5.201,0.986c-2.341,0.447-4.987,0.96-7.938,1.538
			c-2.952,0.579-6.072,1.211-9.36,1.894c-3.287,0.684-6.455,1.341-9.504,1.972c-3.048,0.631-5.832,1.223-8.353,1.775
			c-2.52,0.552-4.5,0.985-5.939,1.301c1.488,0.054,3.036,0.093,4.644,0.119c1.609,0.026,3.132,0.039,4.572,0.039
			c0.816,0,2.088-0.013,3.816-0.039c1.728-0.026,3.66-0.052,5.796-0.079c2.136-0.026,4.381-0.065,6.731-0.118
			c2.353-0.052,4.572-0.105,6.66-0.158c2.088-0.052,3.924-0.104,5.508-0.158c1.584-0.052,2.688-0.104,3.313-0.157
			c0.911-0.052,1.476-0.288,1.691-0.71c0.217-0.42,0.324-1.104,0.324-2.051v-0.947h3.24v11.675h-3.313v-0.71
			c0-1.472-0.217-2.339-0.648-2.603c-0.241-0.105-0.553-0.197-0.937-0.276c-0.386-0.079-1.178-0.17-2.379-0.276
			c-1.106-0.052-2.271-0.091-3.495-0.118c-1.227-0.025-2.931-0.065-5.118-0.118c-2.187-0.052-5.058-0.091-8.614-0.118
			c-3.556-0.026-8.241-0.04-14.057-0.04c-4.469,0-8.109,0.027-10.92,0.079c-2.811,0.053-5.045,0.118-6.703,0.197
			s-2.884,0.185-3.677,0.315c-0.793,0.132-1.381,0.276-1.766,0.434c-0.48,0.265-0.841,0.54-1.082,0.829
			c-0.24,0.289-0.36,0.881-0.36,1.774v0.631h-3.244v-12.384c1.489-0.158,3.433-0.421,5.832-0.789
			c2.401-0.367,5.102-0.789,8.101-1.263c3-0.473,6.204-0.998,9.612-1.577c3.408-0.578,6.876-1.195,10.403-1.854
			c3.528-0.657,7.045-1.314,10.548-1.973c3.505-0.656,6.816-1.302,9.937-1.933c-2.976-0.789-6.132-1.604-9.468-2.445
			c-3.336-0.841-7.128-1.708-11.376-2.603c-4.248-0.894-9.096-1.866-14.544-2.919c-5.447-1.052-11.796-2.209-19.045-3.471V88.856
			h3.244v0.71c0,0.631,0.12,1.157,0.36,1.578c0.241,0.421,0.769,0.788,1.586,1.104c0.721,0.21,1.502,0.382,2.343,0.513
			c0.842,0.132,2.091,0.236,3.749,0.315c1.658,0.078,3.893,0.132,6.703,0.157c2.812,0.027,6.524,0.04,11.137,0.04
			c3.989,0,7.474,0,10.452,0c2.979,0,5.55-0.026,7.712-0.079c2.162-0.052,3.978-0.092,5.443-0.118
			c1.465-0.026,2.714-0.065,3.748-0.119c1.032-0.052,1.896-0.104,2.595-0.157c0.696-0.052,1.333-0.131,1.91-0.236
			c1.008-0.105,1.608-0.395,1.802-0.868c0.191-0.474,0.288-1.13,0.288-1.972v-0.868H80.188z"/>
		<path fill="#009BD0" d="M80.188,28.987v16.644h-3.24v-0.947c0-1.893-0.436-2.84-1.305-2.84c-0.678,0-1.777,0.093-3.301,0.276
			c-1.523,0.185-3.276,0.461-5.259,0.828v15.303l7.253,1.262c0.291,0.053,0.532,0.079,0.726,0.079c0.194,0,0.411,0,0.653,0
			c0.53,0,0.869-0.223,1.016-0.67c0.144-0.446,0.217-1.117,0.217-2.011v-1.025h3.24v11.043h-3.24v-0.947
			c0-1.314-0.697-2.156-2.09-2.524c-0.77-0.262-2.439-0.67-5.01-1.223c-2.572-0.552-5.67-1.195-9.298-1.933
			c-3.629-0.736-7.605-1.524-11.93-2.366c-4.324-0.841-8.614-1.657-12.867-2.445c-4.252-0.789-8.301-1.525-12.146-2.209
			c-3.844-0.683-7.087-1.235-9.731-1.656v-7.73c3.797-0.473,7.967-1.077,12.507-1.814c4.542-0.736,9.167-1.538,13.876-2.406
			s9.359-1.775,13.948-2.722c4.59-0.946,8.83-1.866,12.722-2.761c2.114-0.473,3.772-0.854,4.974-1.144
			c1.202-0.289,2.114-0.525,2.74-0.71c0.624-0.184,1.045-0.328,1.261-0.434c0.216-0.104,0.371-0.209,0.468-0.315
			c0.241-0.209,0.397-0.434,0.47-0.67c0.071-0.237,0.107-0.618,0.107-1.144v-0.789H80.188z M63.845,43.422l-38.664,6.389
			c0.48,0.106,1.668,0.355,3.563,0.75c1.897,0.395,4.177,0.868,6.84,1.42c2.664,0.552,5.521,1.144,8.568,1.775
			c3.049,0.631,5.929,1.223,8.64,1.775c2.713,0.552,5.076,1.025,7.093,1.42c2.016,0.394,3.336,0.645,3.96,0.749V43.422z"/>
	</g>
	<g display="inline">
		<path fill="#009BD0" d="M176.897,62.223c0.691-4.898,1.262-8.798,1.707-11.7c0.444-2.899,0.79-5.175,1.038-6.825
			c0.246-1.65,0.395-2.874,0.445-3.675c0.049-0.799,0.074-1.549,0.074-2.25c0-1.099-0.445-1.823-1.335-2.175
			c-0.891-0.349-2.178-0.525-3.858-0.525h-1.93v-6.75h20.776v6.75h-1.781c-1.387,0-2.399,0.375-3.042,1.125
			c-0.645,0.75-1.164,1.875-1.559,3.375c-0.396,1.601-1.064,5.051-2.003,10.35c-0.941,5.302-2.004,11.7-3.19,19.2
			c-1.188,7.5-2.475,15.701-3.858,24.6c-1.387,8.902-2.746,17.775-4.081,26.625c-1.336,8.851-2.574,17.325-3.71,25.426
			c-1.139,8.1-2.104,15-2.894,20.699h-13.653c-0.793-5.301-1.684-11.125-2.671-17.475c-0.99-6.352-2.078-12.949-3.265-19.8
			c-1.188-6.849-2.4-13.749-3.636-20.7c-1.238-6.949-2.5-13.674-3.784-20.175c-1.387,6.802-2.771,13.9-4.155,21.3
			c-1.387,7.401-2.723,14.576-4.007,21.525c-1.287,6.951-2.474,13.5-3.562,19.649c-1.09,6.15-1.98,11.374-2.671,15.675h-14.543
			c-0.693-6.4-1.609-13.949-2.746-22.649c-1.139-8.7-2.399-17.749-3.784-27.15c-1.387-9.398-2.819-18.724-4.304-27.975
			c-1.483-9.249-2.894-17.625-4.229-25.125c-1.336-7.5-2.5-13.725-3.487-18.675c-0.99-4.95-1.732-7.774-2.227-8.475
			c-0.594-0.9-1.732-1.35-3.413-1.35h-1.336v-6.75h31.164v6.75h-1.929c-3.465,0-5.245,0.951-5.343,2.85c0,0.6,0.049,1.702,0.148,3.3
			c0.098,1.601,0.246,3.501,0.445,5.7c0.197,2.201,0.468,4.627,0.816,7.275c0.345,2.65,0.667,5.325,0.964,8.025
			c1.781,13.702,3.511,27.225,5.194,40.575c1.681,13.351,3.511,26.726,5.49,40.125c0.297-1.102,0.988-4.249,2.078-9.45
			c1.088-5.198,2.397-11.599,3.933-19.199c1.532-7.599,3.165-15.924,4.897-24.976c1.729-9.049,3.436-17.974,5.119-26.775h10.685
			c2.275,13.702,4.526,27.202,6.752,40.5c2.227,13.301,4.575,26.602,7.05,39.899c0.196-1.001,0.616-3.476,1.261-7.425
			c0.643-3.949,1.434-8.7,2.375-14.25c0.938-5.55,1.929-11.498,2.968-17.85c1.039-6.35,2.026-12.35,2.968-18
			c0.939-5.648,1.729-10.599,2.374-14.851C176.278,66.299,176.698,63.524,176.897,62.223z"/>
		<path fill="#009BD0" d="M267.567,166.473h-68.709v-6.899h1.93c1.681,0,2.942-0.326,3.784-0.976
			c0.839-0.651,1.358-2.175,1.558-4.574c0.197-4.602,0.32-9.926,0.371-15.976c0.049-6.049,0.074-12.825,0.074-20.325
			c0-10.099,0-18.75,0-25.949c0-7.2,0-13.351,0-18.45c0-5.1-0.025-9.3-0.074-12.6c-0.051-3.3-0.1-6.099-0.148-8.4
			c-0.051-2.299-0.125-4.324-0.223-6.075c-0.1-1.749-0.199-3.574-0.297-5.475c-0.199-1.999-0.619-3.45-1.261-4.35
			c-0.645-0.9-1.758-1.35-3.339-1.35h-2.375v-6.75h48.972v15.6h-6.232c0-5.899-1.387-8.85-4.155-8.85h-10.536
			c-2.277,0-3.784,0.227-4.526,0.677c-0.742,0.452-1.262,1.781-1.559,3.987c-0.199,2.508-0.396,7.298-0.593,14.372
			c-0.2,7.074-0.349,16.727-0.445,28.964h10.388c3.362,0,5.045-2.948,5.045-8.851h6.382v24.45h-6.382
			c0-6.099-1.683-9.149-5.045-9.149h-10.536v13.98c0,13.631,0.074,24.705,0.223,33.223c0.148,8.517,0.468,14.481,0.964,17.89
			c0.197,1.202,0.766,2.029,1.707,2.481c0.939,0.448,2.397,0.676,4.378,0.676h30.273c1.384,0,2.423-0.652,3.116-1.95
			c0.69-1.301,1.038-3.401,1.038-6.3h6.233V166.473z"/>
		<path fill="#009BD0" d="M344.141,126.029c0,6.094-0.719,11.637-2.156,16.629c-1.438,4.99-3.497,9.234-6.173,12.731
			c-2.676,3.492-5.922,6.213-9.738,8.163c-3.817,1.945-8.104,2.92-12.862,2.92h-41.786v-6.75h1.456c0.872,0,1.649-0.176,2.328-0.524
			c0.678-0.354,1.236-1.179,1.672-2.479c0.437-1.304,0.8-3.305,1.092-6.008c0.293-2.704,0.511-6.407,0.656-11.111
			c0.145-4.706,0.241-10.612,0.29-17.721c0.049-7.109,0.074-15.72,0.074-25.833c0-11.513-0.049-20.975-0.146-28.383
			c-0.098-7.409-0.244-13.292-0.438-17.646c-0.195-4.354-0.388-7.46-0.582-9.312c-0.195-1.852-0.339-3.028-0.434-3.53
			c-0.39-1.401-1.895-2.102-4.513-2.102h-1.456v-6.75h34.366c8.329,0,14.652,2.681,18.967,8.041
			c4.313,5.363,6.472,13.353,6.472,23.975c0,5.412-0.925,10.172-2.773,14.28c-1.848,4.108-4.22,7.416-7.116,9.919
			c6.358,1.2,11.474,4.146,15.351,8.838c1.389,1.697,2.555,3.445,3.499,5.243c0.943,1.798,1.713,3.896,2.312,6.291
			c0.596,2.397,1.018,5.294,1.266,8.688C344.016,116.994,344.141,121.138,344.141,126.029z M298.285,35.073
			c-0.891,0-1.658,0.227-2.3,0.677c-0.645,0.452-1.188,1.254-1.633,2.407c-0.445,1.153-0.793,2.759-1.039,4.816
			c-0.248,2.058-0.422,4.69-0.519,7.898c-0.2,3.511-0.323,6.521-0.371,9.028c-0.052,2.508-0.1,4.94-0.148,7.298
			c-0.052,2.358-0.074,4.767-0.074,7.223c0,2.457,0,5.342,0,8.651h10.239c2.077,0,3.933-0.45,5.564-1.354
			c1.633-0.902,2.991-2.156,4.081-3.762c1.285-1.604,2.227-3.711,2.82-6.319c0.593-2.606,0.89-6.218,0.89-10.835
			c0-2.909-0.074-5.417-0.223-7.523c-0.148-2.104-0.371-3.912-0.667-5.417c-0.297-1.504-0.646-2.782-1.039-3.836
			c-0.396-1.053-0.891-2.03-1.484-2.935c-1.187-1.905-2.722-3.384-4.601-4.439c-1.88-1.052-4.058-1.58-6.529-1.58H298.285z
			 M292.201,89.523c0.196,6.014,0.297,11.901,0.297,17.662c0,5.764,0,11.55,0,17.362v23.3c0,4.308,0.297,7.363,0.893,9.171
			c0.596,1.802,2.187,2.704,4.77,2.704h10.43c3.478,0,6.583-0.651,9.314-1.954c2.731-1.304,4.94-3.308,6.631-6.012
			c0.693-1.003,1.29-2.156,1.786-3.457c0.496-1.306,0.92-3.007,1.268-5.112c0.349-2.104,0.619-4.685,0.819-7.741
			c0.199-3.056,0.299-6.839,0.299-11.349c0-4.509-0.125-8.294-0.373-11.351c-0.248-3.056-0.597-5.61-1.044-7.666
			c-0.447-2.054-1.018-3.783-1.714-5.185c-0.695-1.401-1.539-2.705-2.531-3.909c-3.479-4.308-8.295-6.464-14.453-6.464H292.201z"/>
	</g>
	<g display="inline">
		<path fill="#E74D25" d="M32.42,174.37c3.136,0,5.925,0.259,8.368,0.778s4.584,1.241,6.421,2.165
			c1.837,0.923,3.391,2.024,4.66,3.304c1.271,1.279,2.299,2.675,3.088,4.185c0.789,1.511,1.361,3.112,1.717,4.805
			c0.356,1.693,0.534,3.425,0.534,5.194c0,2.424-0.27,4.882-0.808,7.373c-0.539,2.491-1.318,4.901-2.338,7.229
			c-1.02,2.328-2.275,4.512-3.766,6.551c-1.491,2.039-3.198,3.819-5.122,5.339s-4.04,2.717-6.349,3.592
			c-2.309,0.876-4.801,1.313-7.475,1.313c-0.904,0-1.827-0.067-2.77-0.202c-0.943-0.135-1.857-0.317-2.742-0.548
			c-0.885-0.231-1.722-0.491-2.51-0.779c-0.789-0.289-1.482-0.587-2.078-0.895c-0.25-0.077-0.447-0.168-0.592-0.274
			c-0.144-0.105-0.255-0.23-0.332-0.375c-0.076-0.145-0.125-0.322-0.144-0.534c-0.02-0.211-0.029-0.48-0.029-0.808
			c0-3.193,0.082-6.464,0.245-9.812s0.495-6.618,0.996-9.812c0.5-3.193,1.222-6.237,2.164-9.134
			c0.942-2.895,2.193-5.487,3.752-7.776c1.365-0.942,2.606-1.414,3.722-1.414c1.404,0,2.578,0.789,3.521,2.366
			c-0.886,1.193-1.626,2.521-2.223,3.982s-1.097,2.996-1.5,4.603c-0.404,1.606-0.741,3.246-1.011,4.92s-0.52,3.31-0.75,4.906
			c-0.27,1.77-0.495,3.285-0.678,4.545c-0.184,1.26-0.328,2.361-0.434,3.304c-0.105,0.943-0.183,1.771-0.23,2.482
			s-0.072,1.404-0.072,2.077c0,0.712,0.024,1.309,0.072,1.789c0.048,0.481,0.163,0.866,0.347,1.154
			c0.183,0.289,0.461,0.496,0.837,0.621c0.375,0.125,0.88,0.188,1.515,0.188c1.924,0,3.751-0.38,5.482-1.141
			c1.731-0.76,3.328-1.779,4.791-3.059c1.462-1.279,2.774-2.766,3.938-4.458c1.164-1.693,2.154-3.482,2.973-5.368
			c0.817-1.885,1.447-3.804,1.89-5.757c0.442-1.952,0.664-3.833,0.664-5.642c0-2.231-0.365-4.228-1.097-5.987
			c-0.731-1.761-1.756-3.251-3.073-4.474c-1.318-1.221-2.9-2.154-4.747-2.799s-3.877-0.967-6.089-0.967
			c-1.616,0-3.218,0.097-4.805,0.289s-3.059,0.49-4.415,0.895c-1.356,0.403-2.55,0.919-3.578,1.544
			c-1.029,0.625-1.804,1.37-2.323,2.236c-1.404,2.174-2.559,3.853-3.463,5.035c-0.904,1.184-1.664,1.775-2.279,1.775
			c-0.847,0-1.271-0.972-1.271-2.915c0-1.885,0.246-3.578,0.736-5.079c0.49-1.5,1.174-2.832,2.049-3.996s1.914-2.155,3.116-2.973
			s2.521-1.49,3.954-2.021c1.433-0.528,2.957-0.918,4.573-1.168S30.727,174.37,32.42,174.37z"/>
		<path fill="#E74D25" d="M95.905,217.252c-1.559,1.654-3.314,3.102-5.267,4.343c-1.952,1.24-3.992,2.279-6.117,3.116
			c-2.126,0.837-4.285,1.467-6.479,1.891c-2.193,0.423-4.319,0.635-6.378,0.635c-2.271,0-4.405-0.265-6.406-0.794
			s-3.751-1.337-5.252-2.424c-1.5-1.087-2.688-2.462-3.563-4.127c-0.876-1.663-1.313-3.641-1.313-5.93
			c0-1.943,0.351-3.81,1.054-5.599c0.702-1.789,1.789-3.376,3.261-4.762c1.472-1.385,3.356-2.5,5.656-3.347
			c2.298-0.847,5.054-1.309,8.268-1.386c-2.117,0-3.964-0.303-5.541-0.908c-1.577-0.606-2.886-1.424-3.925-2.453
			c-1.038-1.029-1.817-2.231-2.337-3.607c-0.52-1.375-0.779-2.832-0.779-4.372c0-1.442,0.25-2.76,0.75-3.953
			c0.5-1.192,1.188-2.266,2.063-3.218c0.875-0.952,1.909-1.784,3.103-2.496c1.192-0.712,2.486-1.303,3.881-1.774
			s2.857-0.827,4.387-1.068c1.529-0.24,3.073-0.36,4.631-0.36c2.251,0,4.454,0.245,6.608,0.736c2.154,0.49,4.069,1.226,5.743,2.207
			s3.02,2.208,4.04,3.68c1.02,1.472,1.529,3.188,1.529,5.15c0,0.693-0.236,1.376-0.707,2.049c-0.472,0.674-1.034,1.275-1.688,1.804
			c-0.654,0.529-1.342,0.952-2.063,1.27c-0.721,0.318-1.322,0.477-1.803,0.477c-0.404,0-0.606-0.355-0.606-1.067
			c0-0.635,0.101-1.453,0.303-2.453s0.544-2.251,1.024-3.752c-0.52-0.423-1.279-0.846-2.279-1.27
			c-1.001-0.423-2.131-0.808-3.391-1.154c-1.261-0.346-2.603-0.63-4.025-0.851c-1.425-0.222-2.828-0.332-4.214-0.332
			c-1.289,0-2.521,0.115-3.693,0.346c-1.174,0.231-2.208,0.611-3.103,1.141s-1.606,1.226-2.135,2.092
			c-0.529,0.865-0.794,1.934-0.794,3.203c0,1.039,0.188,1.914,0.563,2.626s0.875,1.318,1.501,1.818
			c0.625,0.5,1.342,0.908,2.149,1.226c0.809,0.318,1.646,0.602,2.511,0.852c0.866,0.25,1.717,0.491,2.554,0.722
			s1.606,0.495,2.309,0.794c0.702,0.298,1.294,0.659,1.775,1.082c0.48,0.423,0.798,0.952,0.952,1.587
			c0.038,0.404,0.076,0.813,0.115,1.227c0.038,0.414,0.058,0.813,0.058,1.197c0,1.078-0.202,1.861-0.606,2.352
			c-0.403,0.491-1.192,0.736-2.366,0.736c-0.5,0-1.12-0.029-1.861-0.087c-0.74-0.058-1.447-0.086-2.121-0.086
			c-1.539,0-3.049,0.197-4.53,0.591c-1.481,0.395-2.809,0.981-3.982,1.761s-2.121,1.741-2.842,2.886
			c-0.722,1.145-1.082,2.478-1.082,3.997c0,1.442,0.206,2.645,0.62,3.606c0.413,0.963,0.981,1.736,1.702,2.323
			c0.722,0.587,1.573,1.006,2.554,1.255c0.981,0.251,2.039,0.376,3.175,0.376c1.365,0,2.799-0.135,4.3-0.404
			c1.5-0.27,2.996-0.64,4.487-1.111c1.49-0.471,2.943-1.028,4.357-1.674c1.414-0.644,2.727-1.337,3.938-2.077s2.28-1.52,3.203-2.338
			c0.924-0.817,1.636-1.64,2.136-2.467L95.905,217.252z"/>
		<path fill="#E74D25" d="M110.449,186.605c0,1.27,0.37,2.404,1.111,3.405c0.74,1,1.721,1.929,2.943,2.784
			c1.222,0.856,2.606,1.669,4.155,2.438c1.548,0.77,3.136,1.563,4.762,2.381c1.625,0.817,3.212,1.693,4.761,2.626
			c1.549,0.934,2.934,1.986,4.156,3.16c1.221,1.173,2.202,2.501,2.943,3.982c0.74,1.481,1.11,3.174,1.11,5.078
			c0,1.731-0.279,3.324-0.837,4.776s-1.322,2.756-2.294,3.91s-2.121,2.174-3.448,3.059s-2.761,1.616-4.3,2.193
			s-3.155,1.015-4.848,1.313c-1.693,0.299-3.396,0.447-5.108,0.447c-2.404,0-4.742-0.293-7.012-0.88
			c-2.271-0.587-4.291-1.472-6.061-2.654c-1.77-1.184-3.188-2.665-4.256-4.444c-1.068-1.779-1.602-3.862-1.602-6.248
			c0-1.23,0.196-2.313,0.591-3.246c0.395-0.933,0.885-1.712,1.472-2.338c0.587-0.625,1.227-1.096,1.92-1.414
			c0.692-0.317,1.337-0.476,1.933-0.476c0.616,0,1.13,0.169,1.544,0.505c0.414,0.337,0.621,0.861,0.621,1.573
			c0,0.327-0.039,0.673-0.116,1.038c-0.077,0.366-0.158,0.765-0.245,1.198c-0.086,0.433-0.168,0.908-0.245,1.428
			s-0.115,1.088-0.115,1.703c0,1.347,0.308,2.511,0.923,3.491c0.616,0.981,1.434,1.789,2.453,2.424
			c1.02,0.636,2.193,1.107,3.521,1.414c1.328,0.309,2.703,0.462,4.127,0.462c1.674,0,3.348-0.202,5.021-0.605
			c1.673-0.404,3.174-1,4.501-1.789c1.328-0.789,2.405-1.756,3.232-2.9s1.241-2.458,1.241-3.939c0-1.365-0.371-2.587-1.111-3.665
			c-0.741-1.077-1.722-2.072-2.943-2.986c-1.222-0.913-2.611-1.774-4.17-2.583c-1.559-0.808-3.146-1.625-4.762-2.452
			s-3.203-1.698-4.762-2.612c-1.558-0.913-2.948-1.919-4.17-3.016c-1.222-1.096-2.202-2.322-2.943-3.679
			c-0.74-1.356-1.11-2.9-1.11-4.632c0-1.616,0.39-3.208,1.168-4.775c0.779-1.568,1.953-2.973,3.521-4.214
			c1.567-1.24,3.524-2.246,5.872-3.016c2.347-0.769,5.098-1.154,8.253-1.154c2.001,0,3.958,0.299,5.873,0.895
			c1.914,0.597,3.621,1.443,5.122,2.54c1.5,1.097,2.707,2.405,3.621,3.925s1.371,3.203,1.371,5.05c0,1.097-0.188,2.222-0.563,3.376
			c-0.376,1.154-0.978,2.356-1.804,3.607c-0.809,1.212-1.688,2.111-2.641,2.698s-1.813,0.88-2.583,0.88
			c-0.577,0-1.049-0.168-1.414-0.505s-0.548-0.842-0.548-1.515c0-0.501,0.115-1.092,0.346-1.775
			c0.231-0.683,0.625-1.467,1.184-2.352c0.52-0.847,0.904-1.64,1.154-2.381c0.25-0.74,0.375-1.429,0.375-2.063
			c0-0.98-0.265-1.842-0.794-2.582c-0.529-0.741-1.26-1.361-2.192-1.861c-0.934-0.5-2.054-0.876-3.362-1.126s-2.741-0.375-4.3-0.375
			c-1.731,0-3.236,0.197-4.516,0.592c-1.28,0.395-2.348,0.904-3.203,1.529c-0.856,0.625-1.491,1.323-1.905,2.092
			C110.655,185.095,110.449,185.854,110.449,186.605z"/>
		<path fill="#E74D25" d="M147.127,183.95l-0.115,0.058c-0.058,0-0.111-0.341-0.159-1.024c-0.048-0.683-0.072-1.602-0.072-2.756
			c0-0.23,0.105-0.534,0.317-0.909s0.567-0.773,1.068-1.197c0.5-0.423,1.158-0.847,1.977-1.27c0.817-0.423,1.847-0.809,3.088-1.154
			c1.24-0.347,2.702-0.625,4.386-0.837s3.631-0.317,5.844-0.317c1.904,0,3.391,0.092,4.459,0.274
			c1.067,0.183,1.87,0.423,2.409,0.721c0.538,0.299,0.87,0.646,0.995,1.039c0.125,0.395,0.188,0.794,0.188,1.197
			c0,0.424-0.048,0.837-0.144,1.241c-0.097,0.404-0.347,0.765-0.751,1.082c-0.403,0.317-1.01,0.573-1.817,0.765
			c-0.809,0.192-1.915,0.289-3.318,0.289c-0.636,0-1.271-0.029-1.905-0.087c-0.538,2.098-1.01,3.973-1.414,5.627
			c-0.403,1.655-0.77,3.18-1.097,4.574c-0.327,1.396-0.625,2.708-0.895,3.939c-0.27,1.23-0.543,2.472-0.822,3.722
			c-0.279,1.251-0.572,2.56-0.88,3.925c-0.308,1.366-0.659,2.876-1.054,4.531c-0.395,1.654-0.855,3.506-1.385,5.555
			s-1.14,4.382-1.832,6.998c0.115,0,0.379,0.02,0.793,0.058s0.89,0.105,1.429,0.202c0.538,0.096,1.111,0.221,1.717,0.375
			c0.606,0.154,1.159,0.346,1.659,0.577c0.5,0.23,0.914,0.5,1.241,0.808c0.327,0.309,0.49,0.664,0.49,1.068
			c0,0.808-0.692,1.596-2.077,2.366c-0.404,0-1.054,0-1.948,0s-1.948,0-3.16,0s-2.521,0-3.924,0c-1.405,0-2.81,0.004-4.214,0.014
			s-2.766,0.01-4.083,0c-1.318-0.01-2.478-0.019-3.478-0.028s-1.804-0.024-2.409-0.044c-0.606-0.019-0.909-0.048-0.909-0.086
			c0-0.058,0.092-0.149,0.274-0.274s0.39-0.299,0.62-0.52s0.452-0.495,0.664-0.822s0.346-0.73,0.403-1.212
			c0.039-0.327,0.366-0.64,0.981-0.938c0.615-0.299,1.356-0.567,2.222-0.809c0.866-0.24,1.784-0.438,2.756-0.592
			c0.972-0.153,1.833-0.26,2.583-0.317c0.597-2.52,1.197-5.04,1.804-7.561c0.606-2.52,1.202-4.987,1.789-7.401
			s1.164-4.752,1.731-7.013c0.567-2.26,1.12-4.381,1.659-6.363c0.538-1.98,1.058-3.799,1.559-5.453
			c0.5-1.654,0.971-3.098,1.414-4.329c-0.712,0.077-1.338,0.154-1.876,0.23c-0.539,0.077-1.02,0.164-1.442,0.26
			c-0.424,0.097-0.823,0.202-1.198,0.317c-0.375,0.116-0.765,0.246-1.168,0.39c-0.404,0.145-0.843,0.309-1.313,0.491
			C148.314,183.513,147.762,183.72,147.127,183.95z"/>
		<path fill="#E74D25" d="M207.438,214.626c0,2.231-0.129,4.55-0.389,6.954c-0.26,2.405-0.679,4.762-1.256,7.07
			s-1.342,4.491-2.294,6.551c-0.952,2.058-2.121,3.866-3.506,5.425c-1.386,1.559-3.007,2.794-4.863,3.708
			c-1.856,0.913-3.978,1.371-6.362,1.371c-0.443,0-0.972-0.029-1.587-0.087c-0.616-0.058-1.261-0.154-1.934-0.288
			c-0.674-0.136-1.342-0.313-2.006-0.534c-0.664-0.222-1.255-0.496-1.774-0.822c-0.52-0.328-0.943-0.707-1.271-1.141
			c-0.327-0.433-0.49-0.928-0.49-1.485c0-0.289,0.063-0.669,0.188-1.141s0.317-0.928,0.577-1.37c0.26-0.443,0.587-0.827,0.981-1.154
			c0.394-0.327,0.87-0.491,1.429-0.491c0.635,0,1.25,0.106,1.847,0.318c0.596,0.211,1.212,0.447,1.847,0.706
			c0.635,0.26,1.299,0.495,1.991,0.707s1.442,0.317,2.251,0.317c0.904,0,1.794-0.461,2.669-1.385
			c0.875-0.923,1.703-2.126,2.481-3.607c0.779-1.481,1.491-3.141,2.136-4.978s1.188-3.68,1.631-5.526
			c-0.924,0.847-1.9,1.649-2.93,2.41c-1.029,0.76-2.203,1.423-3.521,1.991c-1.317,0.566-2.823,1.02-4.516,1.355
			c-1.693,0.337-3.655,0.506-5.887,0.506c-2.598,0-4.939-0.524-7.027-1.573s-3.872-2.463-5.353-4.242
			c-1.481-1.779-2.622-3.848-3.42-6.204c-0.799-2.356-1.197-4.834-1.197-7.431c0-3.405,0.408-6.661,1.227-9.769
			c0.817-3.106,1.947-5.992,3.391-8.657c1.442-2.664,3.146-5.078,5.107-7.243c1.962-2.164,4.078-4.011,6.349-5.54
			c2.27-1.529,4.65-2.713,7.143-3.55c2.491-0.837,4.987-1.255,7.488-1.255c1.539,0,2.967,0.23,4.285,0.692
			c1.317,0.462,2.462,1.184,3.434,2.164c0.972,0.981,1.731,2.223,2.28,3.723c0.548,1.501,0.822,3.29,0.822,5.367
			c0,0.809-0.097,1.612-0.289,2.41c-0.192,0.799-0.51,1.602-0.952,2.409c-0.615,0.904-1.212,1.544-1.789,1.919
			s-1.125,0.563-1.645,0.563c-0.404,0-0.779-0.105-1.126-0.317c-0.346-0.212-0.645-0.491-0.895-0.837
			c-0.25-0.347-0.447-0.736-0.591-1.169c-0.145-0.433-0.217-0.88-0.217-1.342c0-0.365,0.058-0.722,0.173-1.068
			c0.115-0.346,0.235-0.692,0.361-1.038c0.125-0.347,0.245-0.707,0.36-1.083c0.115-0.375,0.173-0.765,0.173-1.168
			c0-1.924-0.423-3.366-1.27-4.329c-0.847-0.962-1.904-1.442-3.174-1.442c-1.559,0-3.199,0.322-4.921,0.967s-3.41,1.577-5.064,2.799
			s-3.228,2.723-4.718,4.502c-1.491,1.779-2.804,3.813-3.939,6.104c-1.135,2.289-2.034,4.814-2.697,7.574
			c-0.664,2.761-0.996,5.729-0.996,8.902c0,1.982,0.245,3.709,0.736,5.181c0.49,1.472,1.188,2.698,2.092,3.679
			c0.904,0.981,2.01,1.713,3.318,2.193c1.309,0.481,2.78,0.722,4.415,0.722c3.04,0,5.839-0.409,8.397-1.227s4.964-1.967,7.215-3.448
			c0.153-0.577,0.288-1.13,0.403-1.659c0.116-0.529,0.174-1.015,0.174-1.458c0-0.577-0.077-1.033-0.231-1.37s-0.36-0.587-0.62-0.751
			c-0.26-0.163-0.567-0.264-0.924-0.303c-0.355-0.038-0.735-0.058-1.14-0.058c-0.731,0-1.37-0.096-1.919-0.288
			c-0.548-0.192-1.015-0.442-1.399-0.751c-0.385-0.308-0.674-0.663-0.865-1.067c-0.193-0.404-0.289-0.808-0.289-1.212
			s0.091-0.794,0.274-1.169c0.183-0.375,0.466-0.707,0.851-0.995c0.385-0.289,0.871-0.524,1.458-0.707
			c0.586-0.183,1.274-0.274,2.063-0.274c1.865,0,3.399,0.192,4.603,0.577c1.202,0.385,2.145,0.952,2.828,1.702
			c0.683,0.751,1.154,1.67,1.414,2.756C207.309,212.005,207.438,213.24,207.438,214.626z"/>
		<path fill="#E74D25" d="M220.654,202.506c1.327-3.925,2.636-7.345,3.925-10.259c1.288-2.915,2.554-5.406,3.794-7.475
			c1.241-2.067,2.443-3.761,3.607-5.079c1.164-1.317,2.299-2.352,3.405-3.102s2.174-1.27,3.203-1.559
			c1.029-0.288,2.024-0.433,2.986-0.433c1.116,0,2.068,0.27,2.857,0.808c0.788,0.539,1.438,1.231,1.947,2.078
			s0.881,1.779,1.111,2.799c0.231,1.021,0.347,2.021,0.347,3.001c0,1.154-0.092,2.438-0.274,3.853s-0.409,2.91-0.678,4.487
			c-0.271,1.578-0.568,3.208-0.895,4.892c-0.328,1.684-0.626,3.357-0.896,5.021s-0.495,3.3-0.678,4.905
			c-0.183,1.606-0.274,3.122-0.274,4.545c0,0.462,0.015,0.977,0.044,1.544c0.028,0.567,0.091,1.145,0.188,1.731
			c0.096,0.587,0.235,1.159,0.418,1.717c0.183,0.559,0.433,1.059,0.751,1.501c0.317,0.442,0.711,0.799,1.183,1.067
			c0.472,0.27,1.034,0.404,1.688,0.404c0.923,0,1.899-0.23,2.929-0.692s2.039-1.044,3.03-1.746c0.99-0.702,1.934-1.462,2.828-2.279
			s1.683-1.577,2.366-2.28c0.683-0.702,1.221-1.288,1.615-1.76s0.592-0.717,0.592-0.736l1.731,6.262
			c-0.615,0.828-1.317,1.65-2.106,2.468s-1.636,1.592-2.539,2.323c-0.904,0.731-1.861,1.409-2.871,2.034
			c-1.011,0.625-2.045,1.169-3.103,1.631c-1.059,0.461-2.121,0.822-3.188,1.082c-1.068,0.26-2.121,0.39-3.16,0.39
			c-1.347,0-2.53-0.231-3.55-0.693c-1.02-0.461-1.899-1.086-2.64-1.875c-0.741-0.789-1.361-1.707-1.861-2.756
			c-0.501-1.049-0.9-2.16-1.198-3.333c-0.298-1.174-0.51-2.366-0.635-3.579c-0.125-1.212-0.188-2.385-0.188-3.521
			c0-1.5,0.12-2.972,0.36-4.415c0.241-1.442,0.534-2.861,0.881-4.256c0.346-1.395,0.73-2.756,1.154-4.084
			c0.423-1.327,0.808-2.621,1.154-3.881c0.346-1.26,0.639-2.481,0.88-3.665c0.24-1.183,0.36-2.323,0.36-3.42
			c0-0.288-0.019-0.673-0.058-1.154c-0.038-0.48-0.12-0.942-0.245-1.385s-0.322-0.827-0.592-1.154s-0.635-0.49-1.097-0.49
			c-0.77,0-1.563,0.36-2.38,1.082c-0.818,0.722-1.655,1.717-2.511,2.986c-0.856,1.27-1.717,2.775-2.583,4.517
			c-0.865,1.741-1.727,3.617-2.583,5.627c-0.855,2.011-1.702,4.127-2.539,6.349s-1.645,4.454-2.424,6.694
			c-0.779,2.242-1.534,4.449-2.266,6.623c-0.731,2.175-1.414,4.224-2.049,6.146c-0.539,1.039-1.159,1.775-1.861,2.208
			s-1.486,0.649-2.352,0.649c-0.501,0-0.986-0.106-1.457-0.317c-0.472-0.212-0.891-0.524-1.256-0.938
			c-0.365-0.413-0.654-0.923-0.865-1.529c-0.212-0.605-0.317-1.294-0.317-2.063c0-0.808,0.038-1.539,0.115-2.192
			c0.076-0.654,0.191-1.318,0.346-1.991c0.481-2.193,0.929-4.223,1.342-6.089c0.414-1.866,0.794-3.646,1.141-5.339
			c0.346-1.692,0.658-3.333,0.938-4.92c0.278-1.588,0.534-3.185,0.765-4.791c0.23-1.605,0.433-3.256,0.606-4.948
			c0.173-1.693,0.326-3.502,0.461-5.426c0-0.173,0-0.394,0-0.663s-0.028-0.524-0.086-0.765c-0.058-0.241-0.159-0.448-0.303-0.621
			c-0.145-0.173-0.361-0.26-0.649-0.26c-0.386,0-0.852,0.184-1.4,0.549c-0.548,0.365-1.115,0.87-1.702,1.515
			s-1.184,1.399-1.789,2.266c-0.606,0.865-1.159,1.799-1.659,2.799c-0.115,0.289-0.299,0.495-0.549,0.62
			c-0.25,0.126-0.529,0.188-0.837,0.188c-0.25,0-0.51-0.081-0.778-0.245c-0.271-0.163-0.52-0.36-0.751-0.592
			c-0.23-0.23-0.423-0.476-0.577-0.735c-0.153-0.26-0.23-0.495-0.23-0.707c0-0.115,0.039-0.212,0.115-0.288
			c0.635-2.174,1.361-4.017,2.179-5.526c0.817-1.511,1.684-2.731,2.598-3.665c0.913-0.933,1.842-1.611,2.784-2.034
			s1.866-0.635,2.771-0.635c1.365,0,2.515,0.206,3.448,0.62c0.933,0.414,1.688,0.991,2.266,1.731s0.99,1.63,1.24,2.669
			s0.376,2.193,0.376,3.463s-0.106,2.636-0.317,4.098c-0.212,1.463-0.501,2.978-0.866,4.545c-0.365,1.568-0.779,3.17-1.241,4.805
			c-0.461,1.636-0.933,3.262-1.414,4.877L220.654,202.506z"/>
		<path fill="#E74D25" d="M296.895,217.252c-1.559,1.654-3.314,3.102-5.267,4.343c-1.952,1.24-3.992,2.279-6.117,3.116
			c-2.126,0.837-4.285,1.467-6.479,1.891c-2.193,0.423-4.319,0.635-6.378,0.635c-2.271,0-4.405-0.265-6.406-0.794
			s-3.751-1.337-5.252-2.424c-1.5-1.087-2.688-2.462-3.563-4.127c-0.876-1.663-1.313-3.641-1.313-5.93
			c0-1.943,0.351-3.81,1.054-5.599c0.702-1.789,1.789-3.376,3.261-4.762c1.472-1.385,3.356-2.5,5.656-3.347
			c2.298-0.847,5.054-1.309,8.268-1.386c-2.117,0-3.964-0.303-5.541-0.908c-1.577-0.606-2.886-1.424-3.925-2.453
			c-1.038-1.029-1.817-2.231-2.337-3.607c-0.52-1.375-0.779-2.832-0.779-4.372c0-1.442,0.25-2.76,0.75-3.953
			c0.5-1.192,1.188-2.266,2.063-3.218c0.875-0.952,1.909-1.784,3.103-2.496c1.192-0.712,2.486-1.303,3.881-1.774
			s2.857-0.827,4.387-1.068c1.529-0.24,3.073-0.36,4.631-0.36c2.251,0,4.454,0.245,6.608,0.736c2.154,0.49,4.069,1.226,5.743,2.207
			s3.02,2.208,4.04,3.68c1.02,1.472,1.529,3.188,1.529,5.15c0,0.693-0.236,1.376-0.707,2.049c-0.472,0.674-1.034,1.275-1.688,1.804
			c-0.654,0.529-1.342,0.952-2.063,1.27c-0.721,0.318-1.322,0.477-1.803,0.477c-0.404,0-0.606-0.355-0.606-1.067
			c0-0.635,0.101-1.453,0.303-2.453s0.544-2.251,1.024-3.752c-0.52-0.423-1.279-0.846-2.279-1.27
			c-1.001-0.423-2.131-0.808-3.391-1.154c-1.261-0.346-2.603-0.63-4.025-0.851c-1.425-0.222-2.828-0.332-4.214-0.332
			c-1.289,0-2.521,0.115-3.693,0.346c-1.174,0.231-2.208,0.611-3.103,1.141s-1.606,1.226-2.135,2.092
			c-0.529,0.865-0.794,1.934-0.794,3.203c0,1.039,0.188,1.914,0.563,2.626s0.875,1.318,1.501,1.818
			c0.625,0.5,1.342,0.908,2.149,1.226c0.809,0.318,1.646,0.602,2.511,0.852c0.866,0.25,1.717,0.491,2.554,0.722
			s1.606,0.495,2.309,0.794c0.702,0.298,1.294,0.659,1.775,1.082c0.48,0.423,0.798,0.952,0.952,1.587
			c0.038,0.404,0.076,0.813,0.115,1.227c0.038,0.414,0.058,0.813,0.058,1.197c0,1.078-0.202,1.861-0.606,2.352
			c-0.403,0.491-1.192,0.736-2.366,0.736c-0.5,0-1.12-0.029-1.861-0.087c-0.74-0.058-1.447-0.086-2.121-0.086
			c-1.539,0-3.049,0.197-4.53,0.591c-1.481,0.395-2.809,0.981-3.982,1.761s-2.121,1.741-2.842,2.886
			c-0.722,1.145-1.082,2.478-1.082,3.997c0,1.442,0.206,2.645,0.62,3.606c0.413,0.963,0.981,1.736,1.702,2.323
			c0.722,0.587,1.573,1.006,2.554,1.255c0.981,0.251,2.039,0.376,3.175,0.376c1.365,0,2.799-0.135,4.3-0.404
			c1.5-0.27,2.996-0.64,4.487-1.111c1.49-0.471,2.943-1.028,4.357-1.674c1.414-0.644,2.727-1.337,3.938-2.077s2.28-1.52,3.203-2.338
			c0.924-0.817,1.636-1.64,2.136-2.467L296.895,217.252z"/>
		<path fill="#E74D25" d="M342.922,188.02c0,0.923-0.154,1.895-0.462,2.914c-0.308,1.021-0.779,2.025-1.414,3.016
			c-0.635,0.991-1.447,1.948-2.438,2.871c-0.991,0.924-2.179,1.751-3.563,2.482c-1.386,0.73-2.963,1.342-4.732,1.832
			c-1.771,0.49-3.762,0.804-5.974,0.938c1.346,0.501,2.472,1.146,3.376,1.934c0.904,0.789,1.659,1.669,2.266,2.641
			c0.605,0.972,1.086,1.996,1.442,3.073c0.356,1.078,0.659,2.136,0.909,3.175c0.25,1.038,0.477,2.034,0.678,2.986
			c0.202,0.952,0.442,1.789,0.722,2.511s0.63,1.299,1.054,1.731c0.423,0.433,0.99,0.649,1.702,0.649c0.654,0,1.371-0.11,2.15-0.332
			c0.779-0.221,1.577-0.534,2.395-0.938c0.817-0.403,1.626-0.884,2.424-1.442c0.799-0.558,1.544-1.173,2.237-1.847l3.347,5.656
			c0-0.02-0.183,0.101-0.548,0.36c-0.366,0.26-0.876,0.587-1.529,0.981c-0.654,0.395-1.429,0.827-2.323,1.298
			c-0.895,0.472-1.881,0.909-2.958,1.313s-2.218,0.74-3.419,1.01c-1.203,0.27-2.43,0.404-3.68,0.404
			c-1.404,0-2.603-0.347-3.593-1.039c-0.991-0.692-1.832-1.606-2.525-2.741c-0.692-1.135-1.27-2.429-1.731-3.882
			c-0.461-1.452-0.865-2.938-1.212-4.458c-0.346-1.52-0.668-3.006-0.967-4.459c-0.298-1.452-0.63-2.745-0.995-3.881
			c-0.366-1.135-0.799-2.049-1.299-2.741s-1.125-1.039-1.876-1.039h-1.817c-0.386,4.213-0.866,7.989-1.443,11.326
			c-0.577,3.338-1.342,6.171-2.294,8.499c-0.952,2.327-2.146,4.106-3.578,5.338c-1.434,1.231-3.188,1.848-5.267,1.848
			c-1.539,0-2.948-0.294-4.228-0.881s-2.434-1.39-3.463-2.409c-1.029-1.021-1.929-2.213-2.698-3.578
			c-0.77-1.366-1.409-2.833-1.919-4.401c-0.51-1.567-0.895-3.188-1.154-4.862s-0.39-3.337-0.39-4.992
			c0-2.981,0.37-5.901,1.111-8.758c0.74-2.857,1.808-5.556,3.203-8.095c1.395-2.539,3.083-4.872,5.064-6.998
			c1.981-2.125,4.208-3.963,6.681-5.512c2.472-1.548,5.165-2.756,8.08-3.621c2.914-0.866,5.997-1.299,9.248-1.299
			c1.443,0,2.876,0.135,4.3,0.404s2.78,0.663,4.069,1.183c1.288,0.52,2.486,1.164,3.593,1.934c1.105,0.77,2.058,1.649,2.856,2.641
			c0.798,0.991,1.429,2.092,1.891,3.304C342.69,185.277,342.922,186.596,342.922,188.02z M325.001,181.064
			c-3.174,0-6.007,0.443-8.498,1.327c-2.491,0.886-4.68,2.078-6.565,3.579c-1.885,1.5-3.491,3.241-4.818,5.223
			c-1.328,1.981-2.405,4.06-3.232,6.233s-1.429,4.377-1.804,6.608s-0.563,4.357-0.563,6.377c0,1.559,0.135,3.122,0.404,4.689
			c0.269,1.568,0.692,2.978,1.27,4.228c0.577,1.251,1.322,2.266,2.236,3.045c0.913,0.778,2.015,1.168,3.304,1.168
			c0.654,0,1.231-0.254,1.731-0.765c0.5-0.509,0.942-1.192,1.328-2.049c0.385-0.855,0.721-1.847,1.01-2.972
			c0.288-1.126,0.528-2.295,0.722-3.507c0.191-1.212,0.346-2.434,0.461-3.664c0.116-1.231,0.207-2.386,0.274-3.463
			s0.11-2.035,0.13-2.872s0.029-1.476,0.029-1.919c-1.501-0.711-2.641-1.375-3.42-1.991c-0.779-0.615-1.169-1.327-1.169-2.135
			c0-0.192,0.015-0.423,0.044-0.693c0.028-0.269,0.091-0.519,0.188-0.75c0.096-0.23,0.235-0.428,0.418-0.592
			c0.183-0.163,0.428-0.245,0.736-0.245c0.134,0,0.403,0.024,0.808,0.072c0.404,0.049,0.827,0.106,1.27,0.173
			c0.442,0.068,0.852,0.126,1.227,0.174s0.62,0.072,0.736,0.072l0.028-0.606c0.02-0.308,0.053-0.73,0.102-1.27
			c0.048-0.538,0.13-1.115,0.245-1.731c0.115-0.615,0.283-1.236,0.505-1.861c0.221-0.625,0.515-1.192,0.88-1.703
			c0.365-0.509,0.803-0.923,1.313-1.24c0.509-0.317,1.13-0.477,1.861-0.477c0.961,0,1.602,0.217,1.919,0.649
			s0.476,0.986,0.476,1.659v0.26c-0.02,0.731-0.13,1.698-0.332,2.9c-0.201,1.202-0.389,2.593-0.563,4.17
			c3.136-0.058,5.724-0.37,7.763-0.938s3.655-1.284,4.848-2.15c1.193-0.865,2.03-1.813,2.511-2.843
			c0.481-1.028,0.722-2.024,0.722-2.986c0-0.942-0.227-1.847-0.678-2.713c-0.452-0.865-1.121-1.63-2.006-2.294
			s-1.981-1.192-3.29-1.587S326.732,181.064,325.001,181.064z"/>
	</g>
	<g display="inline">
		<path fill="#E74D25" d="M37.214,279.437c1.961,0,3.796,0.363,5.506,1.088c1.709,0.725,3.168,1.792,4.375,3.202
			c0.703,0.862,1.319,1.861,1.848,2.997c0.528,1.138,0.968,2.567,1.32,4.29c0.351,1.725,0.615,3.82,0.792,6.289
			c0.176,2.468,0.264,5.427,0.264,8.874c0,3.525-0.102,6.533-0.302,9.021c-0.201,2.488-0.49,4.613-0.867,6.376
			c-0.377,1.764-0.843,3.232-1.396,4.408c-0.554,1.175-1.182,2.174-1.886,2.997c-1.357,1.606-2.979,2.771-4.865,3.497
			c-1.886,0.724-4.011,1.087-6.373,1.087H14.435v-2.645h0.754c0.452,0,0.854-0.069,1.207-0.206c0.351-0.139,0.641-0.472,0.867-1.001
			s0.415-1.343,0.565-2.441c0.151-1.099,0.265-2.599,0.34-4.5c0.075-1.903,0.125-4.286,0.15-7.149s0.038-6.354,0.038-10.474
			c0-4.079-0.026-7.453-0.075-10.12c-0.051-2.667-0.113-4.834-0.188-6.502c-0.076-1.667-0.164-2.912-0.265-3.736
			c-0.102-0.823-0.201-1.451-0.302-1.883c-0.101-0.353-0.339-0.579-0.716-0.677c-0.378-0.098-0.894-0.147-1.547-0.147h-0.829v-2.645
			H37.214z M28.162,282.081c-0.705,0-1.282,0.138-1.735,0.413c-0.452,0.274-0.729,0.744-0.829,1.411
			c-0.102,0.511-0.177,1.128-0.227,1.854c-0.051,0.726-0.113,1.785-0.188,3.178s-0.126,3.227-0.15,5.502
			c-0.026,2.275-0.038,5.197-0.038,8.767c0,4.275,0,7.767,0,10.474s0.012,4.903,0.038,6.589c0.024,1.688,0.049,3.011,0.075,3.972
			c0.024,0.961,0.087,1.854,0.188,2.678c0.15,1.53,0.427,2.578,0.83,3.147c0.401,0.568,1.231,0.854,2.488,0.854h4.677
			c1.509,0,2.892-0.236,4.148-0.706c1.257-0.472,2.339-1.275,3.244-2.412c0.452-0.511,0.841-1.168,1.169-1.971
			c0.326-0.806,0.615-1.942,0.867-3.413c0.251-1.472,0.439-3.412,0.565-5.826c0.125-2.412,0.188-5.501,0.188-9.267
			c0-3.687-0.051-6.736-0.15-9.149c-0.102-2.412-0.252-4.393-0.453-5.943c-0.201-1.549-0.452-2.765-0.754-3.646
			c-0.302-0.883-0.629-1.638-0.98-2.266c-0.855-1.49-1.924-2.569-3.206-3.236c-1.282-0.666-2.804-1.001-4.563-1.001H28.162z"/>
		<path fill="#E74D25" d="M89.485,333.563H54.563v-2.703h0.98c0.854,0,1.495-0.128,1.923-0.382c0.427-0.256,0.69-0.853,0.792-1.793
			c0.101-1.803,0.163-3.889,0.188-6.259s0.038-5.024,0.038-7.963c0-3.957,0-7.347,0-10.167c0-2.821,0-5.23,0-7.229
			s-0.013-3.644-0.038-4.937s-0.051-2.39-0.075-3.291c-0.025-0.901-0.063-1.694-0.113-2.38c-0.051-0.686-0.102-1.4-0.15-2.146
			c-0.102-0.783-0.314-1.352-0.642-1.704s-0.894-0.529-1.697-0.529h-1.206v-2.645h24.891v6.112h-3.168
			c0-2.312-0.704-3.468-2.111-3.468h-5.355c-1.158,0-1.924,0.09-2.301,0.266c-0.377,0.178-0.642,0.698-0.792,1.563
			c-0.102,0.982-0.202,2.859-0.302,5.63c-0.102,2.771-0.177,6.554-0.227,11.349h5.28c1.709,0,2.564-1.155,2.564-3.468h3.243v9.579
			h-3.243c0-2.39-0.855-3.585-2.564-3.585h-5.355v5.478c0,5.341,0.038,9.68,0.113,13.017s0.238,5.674,0.49,7.009
			c0.1,0.471,0.389,0.795,0.867,0.973c0.478,0.175,1.219,0.265,2.226,0.265h15.387c0.704,0,1.231-0.256,1.584-0.765
			c0.352-0.51,0.528-1.332,0.528-2.468h3.168V333.563z"/>
		<path fill="#E74D25" d="M110.002,292.719c0.402-1.92,0.717-3.447,0.943-4.584c0.227-1.136,0.401-2.027,0.528-2.674
			c0.124-0.646,0.2-1.126,0.226-1.44c0.025-0.313,0.038-0.606,0.038-0.881c0-0.431-0.201-0.715-0.604-0.853
			c-0.403-0.137-1.056-0.206-1.961-0.206h-0.905v-2.645h10.56v2.645h-0.905c-0.704,0-1.232,0.147-1.584,0.441
			s-0.653,0.734-0.904,1.322c-0.202,0.627-0.566,1.988-1.094,4.084c-0.528,2.097-1.145,4.623-1.849,7.581
			c-0.704,2.959-1.459,6.2-2.263,9.727c-0.805,3.525-1.584,7.022-2.338,10.49c-0.755,3.467-1.459,6.769-2.112,9.902
			c-0.654,3.134-1.182,5.778-1.584,7.934h-7.392c-0.453-3.096-1.031-6.494-1.735-10.196c-0.705-3.702-1.471-7.473-2.301-11.313
			c-0.829-3.839-1.696-7.629-2.602-11.371c-0.905-3.741-1.786-7.199-2.641-10.373c-0.452-1.724-0.829-3.085-1.131-4.084
			s-0.528-1.743-0.679-2.233c-0.151-0.489-0.277-0.822-0.378-0.999c-0.101-0.176-0.201-0.303-0.302-0.382
			c-0.302-0.353-0.88-0.529-1.734-0.529h-0.754v-2.645h15.915v2.645h-0.98c-1.761,0-2.641,0.373-2.641,1.117
			c0,0.234,0.038,0.666,0.113,1.293c0.076,0.627,0.163,1.371,0.265,2.232c0.1,0.862,0.237,1.813,0.414,2.851
			c0.176,1.039,0.39,2.086,0.642,3.145c1.005,5.368,2.011,10.666,3.018,15.896c1.005,5.23,2.061,10.471,3.168,15.721
			c0.1-0.393,0.339-1.362,0.716-2.909c0.378-1.547,0.83-3.408,1.358-5.583c0.527-2.175,1.08-4.505,1.659-6.993
			c0.577-2.488,1.131-4.839,1.659-7.053c0.528-2.213,0.992-4.152,1.396-5.817C109.65,294.315,109.901,293.229,110.002,292.719z"/>
		<path fill="#E74D25" d="M155.561,333.563h-34.923v-2.703h0.98c0.854,0,1.495-0.128,1.923-0.382
			c0.427-0.256,0.69-0.853,0.792-1.793c0.101-1.803,0.163-3.889,0.188-6.259s0.038-5.024,0.038-7.963c0-3.957,0-7.347,0-10.167
			c0-2.821,0-5.23,0-7.229s-0.013-3.644-0.038-4.937s-0.051-2.39-0.075-3.291c-0.025-0.901-0.063-1.694-0.113-2.38
			c-0.051-0.686-0.102-1.4-0.15-2.146c-0.102-0.783-0.314-1.352-0.642-1.704s-0.894-0.529-1.697-0.529h-1.206v-2.645h24.891v6.112
			h-3.168c0-2.312-0.704-3.468-2.111-3.468h-5.355c-1.158,0-1.924,0.09-2.301,0.266c-0.377,0.178-0.642,0.698-0.792,1.563
			c-0.102,0.982-0.202,2.859-0.302,5.63c-0.102,2.771-0.177,6.554-0.227,11.349h5.28c1.709,0,2.564-1.155,2.564-3.468h3.243v9.579
			h-3.243c0-2.39-0.855-3.585-2.564-3.585h-5.355v5.478c0,5.341,0.038,9.68,0.113,13.017s0.238,5.674,0.49,7.009
			c0.1,0.471,0.389,0.795,0.867,0.973c0.478,0.175,1.219,0.265,2.226,0.265h15.387c0.704,0,1.231-0.256,1.584-0.765
			c0.352-0.51,0.528-1.332,0.528-2.468h3.168V333.563z"/>
		<path fill="#E74D25" d="M192.445,333.563h-34.923v-2.703h1.131c0.553,0,0.98-0.069,1.282-0.206
			c0.302-0.138,0.528-0.392,0.679-0.764c0.151-0.373,0.251-0.902,0.302-1.587c0.05-0.687,0.125-1.558,0.227-2.615
			c0.05-0.667,0.087-1.528,0.113-2.586c0.024-1.058,0.05-2.498,0.075-4.319c0.024-1.822,0.038-4.114,0.038-6.876s0-6.142,0-10.138
			c0-3.095-0.014-5.642-0.038-7.64c-0.025-1.998-0.051-3.634-0.075-4.907c-0.026-1.272-0.075-2.301-0.151-3.085
			c-0.075-0.783-0.163-1.528-0.264-2.233c-0.102-0.705-0.314-1.185-0.641-1.44c-0.328-0.254-0.868-0.382-1.622-0.382h-1.056v-2.645
			h15.613v2.645h-2.037c-1.308,0-2.111,0.608-2.413,1.824c-0.051,0.313-0.113,0.785-0.188,1.413
			c-0.076,0.628-0.14,1.628-0.188,3.001c-0.051,1.372-0.102,3.246-0.151,5.618c-0.051,2.374-0.075,5.463-0.075,9.268
			c0,4.236,0.024,8.209,0.075,11.915c0.05,3.707,0.125,7.247,0.227,10.62c0.05,1.53,0.275,2.647,0.679,3.354
			c0.402,0.706,1.105,1.06,2.112,1.06h15.915c0.704,0,1.231-0.256,1.584-0.765c0.352-0.51,0.528-1.332,0.528-2.468h3.243V333.563z"
			/>
		<path fill="#E74D25" d="M212.395,334.268c-3.112,0-5.771-0.314-7.979-0.94c-2.208-0.627-4.04-1.509-5.494-2.645
			c-0.904-0.705-1.695-1.558-2.371-2.557c-0.678-0.999-1.229-2.351-1.656-4.055s-0.741-3.879-0.941-6.523s-0.301-5.984-0.301-10.02
			c0-4.152,0.101-7.641,0.301-10.461c0.2-2.821,0.526-5.191,0.979-7.111c0.451-1.919,1.04-3.467,1.769-4.643
			c0.728-1.175,1.618-2.174,2.672-2.997c1.354-1.136,3.023-2.007,5.006-2.615c1.981-0.606,4.327-0.911,7.037-0.911
			c2.911,0,5.42,0.334,7.527,0.999c2.107,0.667,3.888,1.587,5.345,2.763c1.003,0.822,1.843,1.813,2.521,2.968
			c0.677,1.156,1.229,2.684,1.656,4.584s0.74,4.261,0.94,7.081c0.2,2.821,0.302,6.288,0.302,10.402c0,3.996-0.102,7.316-0.302,9.961
			s-0.514,4.819-0.94,6.523s-0.953,3.046-1.58,4.025s-1.367,1.822-2.221,2.527C221.651,333.053,217.563,334.268,212.395,334.268z
			 M211.754,331.623c1.811,0,3.433-0.324,4.865-0.971c1.434-0.647,2.576-1.56,3.432-2.736c0.302-0.392,0.566-0.883,0.792-1.47
			c0.227-0.59,0.415-1.57,0.566-2.942c0.15-1.373,0.264-3.315,0.339-5.825c0.076-2.511,0.113-5.864,0.113-10.062
			c0-4.628-0.051-8.345-0.15-11.148c-0.102-2.805-0.253-5.011-0.453-6.62c-0.201-1.607-0.465-2.784-0.792-3.529
			c-0.327-0.746-0.691-1.354-1.094-1.825c-0.855-0.98-1.911-1.735-3.168-2.265s-2.741-0.795-4.45-0.795
			c-3.369,0-5.959,1.04-7.769,3.119c-0.403,0.471-0.768,1.069-1.094,1.795c-0.328,0.726-0.592,1.893-0.792,3.5
			c-0.202,1.609-0.353,3.815-0.453,6.62c-0.102,2.804-0.15,6.501-0.15,11.09c0,4.315,0.049,7.768,0.15,10.355
			c0.101,2.589,0.251,4.618,0.453,6.089c0.2,1.472,0.452,2.521,0.754,3.148c0.302,0.627,0.653,1.137,1.056,1.529
			c0.905,0.902,2.011,1.618,3.319,2.148C208.535,331.357,210.044,331.623,211.754,331.623z"/>
		<path fill="#E74D25" d="M250.524,279.437c2.111,0,3.96,0.227,5.544,0.676c1.584,0.451,2.953,1.205,4.11,2.263
			c1.156,1.058,1.986,2.303,2.489,3.732c0.502,1.431,0.754,3.379,0.754,5.847c0,1.137-0.05,2.146-0.15,3.027
			c-0.102,0.881-0.277,1.675-0.528,2.38c-0.252,0.705-0.565,1.342-0.942,1.91s-0.843,1.126-1.396,1.675
			c-1.157,1.137-2.628,1.969-4.413,2.497c-1.785,0.529-3.809,0.794-6.071,0.794h-6.261c0,3.888,0.012,7.186,0.038,9.895
			c0.024,2.709,0.063,4.978,0.112,6.803s0.113,3.269,0.188,4.329c0.076,1.06,0.163,1.894,0.265,2.504
			c0.1,0.607,0.213,1.049,0.339,1.325c0.125,0.274,0.265,0.509,0.415,0.706c0.302,0.432,0.679,0.726,1.132,0.884
			c0.452,0.156,0.954,0.235,1.509,0.235h1.584v2.645h-16.142v-2.645h0.754c0.553,0,1.005-0.059,1.357-0.177
			c0.352-0.117,0.653-0.354,0.905-0.706c0.2-0.235,0.352-0.54,0.453-0.911c0.1-0.374,0.175-1.001,0.226-1.884
			c0.05-0.884,0.088-2.109,0.113-3.678c0.024-1.568,0.038-3.706,0.038-6.413c0-4.667,0.012-8.708,0.037-12.121
			c0.025-3.412,0.038-6.354,0.038-8.825c0-3.412-0.051-6.07-0.151-7.973c-0.101-1.903-0.289-3.306-0.565-4.207
			s-0.667-1.451-1.169-1.647c-0.503-0.196-1.183-0.295-2.036-0.295v-2.645H250.524z M246.903,282.081
			c-1.006,0-1.761,0.452-2.263,1.355c-0.201,0.315-0.365,0.708-0.49,1.18c-0.126,0.473-0.227,1.326-0.302,2.564
			c-0.075,1.237-0.126,2.987-0.15,5.246c-0.026,2.26-0.038,5.314-0.038,9.166h4.601c2.766,0,4.727-0.767,5.884-2.3
			c0.502-0.628,0.867-1.414,1.094-2.357c0.227-0.942,0.34-2.338,0.34-4.185c0-1.297-0.038-2.427-0.113-3.39
			c-0.075-0.962-0.188-1.788-0.34-2.476c-0.15-0.688-0.339-1.268-0.565-1.739c-0.227-0.471-0.49-0.864-0.792-1.179
			c-0.604-0.668-1.384-1.149-2.339-1.443c-0.955-0.295-2.012-0.443-3.168-0.443H246.903z"/>
		<path fill="#E74D25" d="M300.607,333.563h-34.923v-2.703h0.98c0.854,0,1.495-0.128,1.923-0.382
			c0.427-0.256,0.69-0.853,0.792-1.793c0.101-1.803,0.163-3.889,0.188-6.259s0.038-5.024,0.038-7.963c0-3.957,0-7.347,0-10.167
			c0-2.821,0-5.23,0-7.229s-0.013-3.644-0.038-4.937s-0.051-2.39-0.075-3.291c-0.025-0.901-0.063-1.694-0.113-2.38
			c-0.051-0.686-0.102-1.4-0.15-2.146c-0.102-0.783-0.314-1.352-0.642-1.704s-0.894-0.529-1.697-0.529h-1.206v-2.645h24.891v6.112
			h-3.168c0-2.312-0.704-3.468-2.111-3.468h-5.355c-1.158,0-1.924,0.09-2.301,0.266c-0.377,0.178-0.642,0.698-0.792,1.563
			c-0.102,0.982-0.202,2.859-0.302,5.63c-0.102,2.771-0.177,6.554-0.227,11.349h5.28c1.709,0,2.564-1.155,2.564-3.468h3.243v9.579
			h-3.243c0-2.39-0.855-3.585-2.564-3.585h-5.355v5.478c0,5.341,0.038,9.68,0.113,13.017s0.238,5.674,0.49,7.009
			c0.1,0.471,0.389,0.795,0.867,0.973c0.478,0.175,1.219,0.265,2.226,0.265h15.387c0.704,0,1.231-0.256,1.584-0.765
			c0.352-0.51,0.528-1.332,0.528-2.468h3.168V333.563z"/>
		<path fill="#E74D25" d="M320.031,279.437c2.067,0,3.883,0.236,5.446,0.706c1.563,0.472,2.899,1.217,4.01,2.236
			c0.604,0.549,1.121,1.089,1.55,1.618s0.781,1.157,1.06,1.882c0.277,0.726,0.491,1.579,0.643,2.56
			c0.15,0.98,0.228,2.158,0.228,3.53c0,2.472-0.354,4.412-1.06,5.825c-0.706,1.412-1.74,2.588-3.102,3.529
			c-0.958,0.667-2.004,1.157-3.138,1.471c-1.136,0.314-2.561,0.511-4.273,0.589c0.744,0.118,1.392,0.304,1.938,0.56
			c0.547,0.255,1.168,0.598,1.864,1.029c0.854,0.511,1.798,1.354,2.829,2.529c1.029,1.178,1.973,2.569,2.828,4.178
			c0.653,1.295,1.27,2.647,1.848,4.06s1.17,2.835,1.772,4.266c0.604,1.432,1.232,2.853,1.886,4.266
			c0.653,1.411,1.407,2.745,2.264,4.001c0.703,0.98,1.407,1.667,2.111,2.06c0.704,0.392,1.634,0.588,2.791,0.588h2.716v2.645h-4.979
			c-1.459,0-2.741-0.105-3.847-0.316c-1.107-0.212-2.101-0.585-2.979-1.121c-0.881-0.537-1.686-1.274-2.414-2.211
			c-0.729-0.938-1.471-2.15-2.225-3.639c-1.207-2.313-2.276-4.682-3.206-7.111c-0.931-2.429-1.999-4.701-3.206-6.817
			c-1.157-1.919-2.213-3.486-3.168-4.701c-0.955-1.214-2.036-2.096-3.243-2.645c-1.309-0.548-2.591-0.882-3.847-0.999
			c0,4.937,0.012,8.942,0.038,12.019c0.024,3.076,0.063,5.515,0.112,7.316s0.113,3.114,0.188,3.938
			c0.076,0.822,0.163,1.469,0.265,1.939c0.2,0.783,0.478,1.264,0.829,1.439c0.352,0.177,0.931,0.265,1.735,0.265h0.754v2.645
			h-14.481v-2.645h0.679c0.954,0,1.608-0.108,1.961-0.323c0.352-0.217,0.577-0.678,0.679-1.383c0.101-0.432,0.176-0.873,0.227-1.324
			c0.049-0.452,0.087-1.04,0.113-1.765c0.024-0.727,0.049-1.659,0.075-2.796c0.024-1.137,0.05-2.637,0.075-4.501
			c0.024-1.863,0.038-4.158,0.038-6.884s0-6.03,0-9.915c0-2.862-0.014-5.284-0.038-7.266c-0.025-1.98-0.051-3.648-0.075-5.002
			c-0.026-1.354-0.063-2.441-0.113-3.266c-0.051-0.823-0.113-1.471-0.188-1.941s-0.177-0.833-0.302-1.089
			c-0.126-0.255-0.264-0.5-0.415-0.735c-0.252-0.432-0.855-0.647-1.811-0.647h-0.904v-2.645H320.031z M316.222,282.081
			c-0.905,0-1.584,0.451-2.037,1.352c-0.252,0.51-0.44,1.049-0.565,1.616c-0.126,0.568-0.227,1.45-0.302,2.645
			c-0.075,1.196-0.126,2.821-0.15,4.878c-0.026,2.057-0.038,4.81-0.038,8.257h4.601c1.308,0,2.464-0.205,3.47-0.617
			c1.006-0.411,1.811-0.969,2.414-1.675c0.553-0.626,0.943-1.419,1.169-2.38c0.227-0.959,0.34-2.419,0.34-4.378
			c0-1.214-0.026-2.224-0.075-3.026c-0.051-0.803-0.14-1.479-0.265-2.028c-0.126-0.548-0.29-1.008-0.49-1.381
			c-0.201-0.372-0.452-0.734-0.754-1.087c-0.604-0.705-1.357-1.243-2.263-1.616c-0.905-0.372-2.088-0.559-3.546-0.559H316.222z"/>
	</g>
	<rect x="168.59" y="246.064" display="inline" fill="none" width="25.396" height="31.776"/>
	
		<text transform="matrix(1 0 0 1 168.5059 273.5938)" display="inline" fill="#E74D25" font-family="'Pacifico-Regular'" font-size="29.4218">&amp;</text>
	<g id="Divider_2" display="inline">
		<line fill="none" stroke="#009BD0" stroke-width="3" stroke-miterlimit="10" x1="14.539" y1="8" x2="163.039" y2="8"/>
		<line fill="none" stroke="#009BD0" stroke-width="3" stroke-miterlimit="10" x1="195.539" y1="8" x2="344.039" y2="8"/>
		<circle fill="#009BD0" cx="179.039" cy="9" r="10"/>
	</g>
	<g id="Mini-Divider-1" display="inline">
		<line fill="none" stroke="#009BD0" stroke-width="3" stroke-miterlimit="10" x1="14" y1="258.748" x2="67.75" y2="258.748"/>
		
			<line fill="none" stroke="#009BD0" stroke-width="3" stroke-miterlimit="10" x1="98.584" y1="258.748" x2="152.334" y2="258.748"/>
		<circle fill="#009BD0" cx="83.75" cy="259.748" r="10"/>
	</g>
	<g id="Mini-Divider-2" display="inline">
		
			<line fill="none" stroke="#009BD0" stroke-width="3" stroke-miterlimit="10" x1="205.705" y1="258.748" x2="259.455" y2="258.748"/>
		
			<line fill="none" stroke="#009BD0" stroke-width="3" stroke-miterlimit="10" x1="290.289" y1="258.748" x2="344.039" y2="258.748"/>
		<circle fill="#009BD0" cx="275.455" cy="259.748" r="10"/>
	</g>
</g>
</svg>
