<?xml version="1.0" encoding="utf-8"?>
<!-- Generator: Adobe Illustrator 16.0.0, SVG Export Plug-In . SVG Version: 6.00 Build 0)  -->
<!DOCTYPE svg PUBLIC "-//W3C//DTD SVG 1.1//EN" "http://www.w3.org/Graphics/SVG/1.1/DTD/svg11.dtd">
<svg version="1.1" id="bottom" xmlns="http://www.w3.org/2000/svg" xmlns:xlink="http://www.w3.org/1999/xlink" x="0px" y="0px"
	 width="100%" height="100%" viewBox="0 0 360 342" enable-background="new 0 0 360 342" xml:space="preserve">
<g id="bottomLeft">
	<g>
		<path fill="#009BD0" d="M45.552,32.001c13.167,0,19.75,10.728,19.75,32.183v7.152c0,21.455-6.584,32.183-19.75,32.183
			l-15.653,0.09v32.094H14V32.001H45.552z M45.552,57.032H29.899v21.455h15.653c2.567,0,3.852-1.788,3.852-5.364V62.396
			C49.404,58.82,48.119,57.032,45.552,57.032z"/>
		<path fill="#009BD0" d="M90.215,96.367v14.304h27.536v25.031H74.317V32.001h43.435v25.031H90.215v14.304h23.603v25.031H90.215z"/>
		<path fill="#009BD0" d="M156.351,32.001c14.478,0,21.717,13.708,21.717,41.122v21.456c0,27.416-7.24,41.123-21.717,41.123h-7.867
			c-14.479,0-21.717-13.707-21.717-41.123V73.123c0-27.414,7.239-41.122,21.717-41.122H156.351z M158.317,57.032h-11.801
			c-2.569,0-3.852,4.172-3.852,12.516v28.607c0,8.345,1.283,12.516,3.852,12.516h11.801c2.567,0,3.852-4.171,3.852-12.516V69.548
			C162.169,61.205,160.885,57.032,158.317,57.032z"/>
		<path fill="#009BD0" d="M218.634,32.001c13.167,0,19.751,10.728,19.751,32.183v7.152c0,21.455-6.584,32.183-19.751,32.183
			l-15.653,0.09v32.094h-15.898V32.001H218.634z M218.634,57.032H202.98v21.455h15.653c2.567,0,3.853-1.788,3.853-5.364V62.396
			C222.486,58.82,221.201,57.032,218.634,57.032z"/>
		<path fill="#009BD0" d="M263.297,110.671h27.537v25.031h-43.436V32.001h15.898V110.671z"/>
		<path fill="#009BD0" d="M315.746,96.367v14.304h27.537v25.031h-43.436V32.001h43.436v25.031h-27.537v14.304h23.604v25.031H315.746
			z"/>
	</g>
	<g>
		<path fill="#009BD0" d="M26.18,295.165c1.563,0,2.989,0.641,4.281,1.92c1.292,1.281,1.938,2.924,1.938,4.93
			c0,3.875-1.804,5.812-5.412,5.812c-1.562,0-2.759-0.242-3.594-0.727c-0.834-0.483-1.547-1.591-2.141-3.321
			c-1.561,1.738-2.342,4.622-2.342,8.652c0,4.311,1.213,7.716,3.638,10.218c0.647,0.695,1.471,1.286,2.467,1.772
			c0.997,0.486,2.547,0.887,4.649,1.2c2.103,0.313,4.934,0.556,8.491,0.729c3.559,0.173,8.194,0.259,13.909,0.259
			c6.578,0,11.82-0.067,15.729-0.207c3.909-0.138,6.927-0.328,9.057-0.571c2.129-0.241,3.638-0.553,4.528-0.934
			c0.889-0.38,1.603-0.813,2.143-1.297c1.563-1.453,2.682-2.992,3.356-4.618c0.674-1.625,1.011-3.788,1.011-6.486
			c0-3.321-0.565-5.983-1.696-7.991c-1.131-2.006-2.8-3.425-5.008-4.255l1.05-3.32c3.392,1.245,5.788,3.217,7.188,5.915
			c1.399,2.698,2.1,6.192,2.1,10.481c0,3.943-0.565,7.452-1.696,10.525s-2.72,5.637-4.766,7.692
			c-1.078,1.097-2.275,2.022-3.594,2.776c-1.32,0.754-3.097,1.354-5.331,1.798c-2.234,0.446-5.075,0.772-8.521,0.977
			c-3.445,0.206-7.834,0.308-13.166,0.308c-5.169,0-9.462-0.067-12.883-0.207c-3.418-0.138-6.259-0.38-8.521-0.727
			c-2.262-0.346-4.119-0.864-5.573-1.557c-1.454-0.69-2.854-1.557-4.2-2.595c-2.476-2.006-4.428-4.618-5.855-7.835
			c-1.426-3.217-2.141-7.143-2.141-11.779c0-2.698,0.283-5.119,0.848-7.264c0.565-2.144,1.347-3.978,2.342-5.501
			c0.997-1.521,2.154-2.698,3.473-3.528C23.26,295.58,24.673,295.165,26.18,295.165z"/>
		<path fill="#009BD0" d="M90.554,244.314v21.897h-3.635v-1.246c0-2.49-0.488-3.735-1.464-3.735c-0.76,0-1.994,0.121-3.703,0.363
			c-1.708,0.243-3.675,0.606-5.898,1.089v20.133l8.136,1.661c0.326,0.069,0.597,0.104,0.814,0.104c0.217,0,0.46,0,0.732,0
			c0.596,0,0.976-0.294,1.14-0.882c0.162-0.587,0.244-1.47,0.244-2.646v-1.35h3.635v14.529h-3.635v-1.245
			c0-1.729-0.783-2.836-2.345-3.321c-0.863-0.346-2.736-0.882-5.62-1.608c-2.885-0.727-6.36-1.573-10.431-2.543
			c-4.07-0.968-8.531-2.006-13.382-3.113c-4.852-1.105-9.664-2.179-14.434-3.217s-9.313-2.006-13.626-2.905
			c-4.313-0.898-7.951-1.625-10.917-2.18v-10.17c4.259-0.623,8.937-1.418,14.03-2.388c5.095-0.968,10.283-2.023,15.566-3.165
			s10.499-2.335,15.646-3.58c5.149-1.245,9.906-2.455,14.272-3.632c2.372-0.623,4.231-1.124,5.58-1.505
			c1.348-0.38,2.371-0.691,3.073-0.935c0.701-0.241,1.173-0.431,1.415-0.57c0.242-0.138,0.417-0.275,0.525-0.415
			c0.27-0.275,0.445-0.571,0.526-0.882c0.081-0.312,0.121-0.813,0.121-1.505v-1.038H90.554z M72.219,263.306l-43.374,8.406
			c0.539,0.14,1.872,0.467,3.998,0.985c2.128,0.52,4.685,1.142,7.673,1.868c2.988,0.727,6.193,1.505,9.612,2.335
			c3.42,0.83,6.651,1.608,9.692,2.335c3.042,0.727,5.694,1.35,7.956,1.868s3.743,0.848,4.442,0.986V263.306z"/>
		<path fill="#009BD0" d="M90.554,193.049v48.049h-3.715v-1.557c0-0.761-0.095-1.35-0.283-1.765
			c-0.189-0.415-0.539-0.727-1.05-0.934c-0.512-0.208-1.239-0.346-2.181-0.415c-0.943-0.068-2.141-0.172-3.594-0.312
			c-0.917-0.068-2.1-0.12-3.554-0.155c-1.454-0.034-3.433-0.068-5.937-0.104c-2.504-0.034-5.654-0.052-9.45-0.052
			c-3.796,0-8.44,0-13.933,0c-4.253,0-7.754,0.018-10.5,0.052c-2.746,0.036-4.994,0.07-6.744,0.104
			c-1.75,0.035-3.163,0.104-4.241,0.207c-1.076,0.104-2.1,0.226-3.069,0.363c-0.969,0.14-1.628,0.433-1.979,0.882
			c-0.35,0.451-0.525,1.193-0.525,2.231v1.453h-3.634v-21.482h3.634v2.803c0,1.8,0.836,2.905,2.507,3.32
			c0.432,0.07,1.079,0.156,1.942,0.26s2.238,0.191,4.125,0.26c1.887,0.069,4.461,0.139,7.722,0.207
			c3.263,0.069,7.508,0.104,12.737,0.104c5.823,0,11.282-0.034,16.376-0.104c5.095-0.068,9.96-0.172,14.597-0.312
			c2.103-0.067,3.638-0.379,4.61-0.934c0.969-0.553,1.456-1.521,1.456-2.906v-21.896c0-0.969-0.351-1.694-1.05-2.18
			c-0.7-0.483-1.831-0.727-3.392-0.727v-4.462H90.554z"/>
		<path fill="#009BD0" d="M90.554,141.784v48.049h-3.715v-1.557c0-0.761-0.095-1.35-0.283-1.765
			c-0.189-0.415-0.539-0.727-1.05-0.934c-0.512-0.208-1.239-0.346-2.181-0.415c-0.943-0.068-2.141-0.172-3.594-0.312
			c-0.917-0.068-2.1-0.12-3.554-0.155c-1.454-0.034-3.433-0.068-5.937-0.104c-2.504-0.034-5.654-0.052-9.45-0.052
			c-3.796,0-8.44,0-13.933,0c-4.253,0-7.754,0.018-10.5,0.052c-2.746,0.036-4.994,0.07-6.744,0.104
			c-1.75,0.035-3.163,0.104-4.241,0.207c-1.076,0.104-2.1,0.226-3.069,0.363c-0.969,0.14-1.628,0.433-1.979,0.882
			c-0.35,0.451-0.525,1.193-0.525,2.231v1.453h-3.634v-21.482h3.634v2.803c0,1.8,0.836,2.905,2.507,3.32
			c0.432,0.07,1.079,0.156,1.942,0.26s2.238,0.191,4.125,0.26c1.887,0.069,4.461,0.139,7.722,0.207
			c3.263,0.069,7.508,0.104,12.737,0.104c5.823,0,11.282-0.034,16.376-0.104c5.095-0.068,9.96-0.172,14.597-0.312
			c2.103-0.067,3.638-0.379,4.61-0.934c0.969-0.553,1.456-1.521,1.456-2.906v-21.896c0-0.969-0.351-1.694-1.05-2.18
			c-0.7-0.483-1.831-0.727-3.392-0.727v-4.462H90.554z"/>
	</g>
	<g>
		<path fill="#009BD0" d="M132.055,328.942c-0.175,1.261-0.588,2.29-1.242,3.088c-0.654,0.799-1.438,1.429-2.354,1.891
			c-0.915,0.463-1.896,0.788-2.941,0.977c-1.046,0.189-2.049,0.284-3.007,0.284c-1.134,0-2.233-0.115-3.301-0.347
			c-1.068-0.23-2.017-0.588-2.844-1.071c-0.828-0.482-1.482-1.071-1.961-1.765c-0.48-0.693-0.719-1.481-0.719-2.363
			c0-1.722,0.087-3.309,0.262-4.758c0.173-1.449,0.435-2.908,0.784-4.379c1.22-4.916,2.288-9.484,3.203-13.706
			c0.915-4.223,1.7-8.224,2.354-12.005c0.653-3.781,1.219-7.445,1.699-10.996c0.479-3.55,0.904-7.121,1.275-10.713
			c0.37-3.592,0.708-7.299,1.013-11.122c0.304-3.822,0.631-7.918,0.98-12.288c0-0.378,0-0.86,0-1.449
			c0-0.588-0.065-1.145-0.196-1.67c-0.13-0.524-0.359-0.977-0.686-1.354c-0.327-0.379-0.817-0.567-1.471-0.567
			c-1.046,0-2.321,0.347-3.824,1.04c-1.503,0.692-3.083,1.628-4.739,2.804c-1.657,1.177-3.313,2.552-4.968,4.128
			c-1.656,1.575-3.182,3.267-4.576,5.072c-0.261,0.63-0.676,1.082-1.242,1.355c-0.566,0.273-1.198,0.409-1.896,0.409
			c-0.217,0-0.446-0.179-0.687-0.536c-0.239-0.356-0.458-0.787-0.653-1.291c-0.196-0.505-0.36-1.04-0.49-1.607
			c-0.131-0.567-0.196-1.081-0.196-1.544c0-0.252,0.088-0.462,0.261-0.63c1.569-4.957,3.345-9.105,5.328-12.445
			c1.983-3.34,4.075-6.008,6.275-8.003c2.2-1.995,4.445-3.413,6.733-4.254c2.288-0.84,4.478-1.261,6.569-1.261
			c2.702,0,4.945,0.495,6.733,1.481c1.787,0.987,3.203,2.374,4.249,4.159c1.046,1.786,1.775,3.938,2.19,6.459
			c0.414,2.521,0.621,5.314,0.621,8.381c0,2.354-0.196,5.104-0.588,8.255c-0.392,3.151-0.883,6.459-1.471,9.925
			c-0.588,3.466-1.232,6.942-1.929,10.43c-0.697,3.487-1.373,6.742-2.026,9.768c1.394-5.587,3.04-10.954,4.936-16.101
			c1.896-5.146,3.965-9.957,6.21-14.431c2.244-4.475,4.63-8.528,7.158-12.162c2.527-3.634,5.131-6.753,7.812-9.358
			c2.68-2.604,5.393-4.62,8.139-6.049c2.746-1.428,5.468-2.143,8.171-2.143c2.004,0,3.857,0.42,5.557,1.26
			c1.699,0.841,3.159,2.143,4.379,3.907c1.221,1.765,2.168,3.992,2.844,6.68c0.676,2.689,1.014,5.882,1.014,9.578
			c0,0.337-0.033,0.862-0.098,1.576c-0.066,0.715-0.154,1.533-0.262,2.457c-0.109,0.925-0.24,1.922-0.393,2.993
			s-0.294,2.133-0.425,3.183c-0.349,2.521-0.719,5.252-1.111,8.191l1.373-0.063c1.699-6.217,3.791-11.805,6.275-16.762
			c2.483-4.957,5.272-9.169,8.367-12.635c3.094-3.466,6.427-6.123,10.001-7.972c3.573-1.849,7.277-2.772,11.113-2.772
			c2.657,0,5.021,0.756,7.092,2.269c2.07,1.512,3.803,3.56,5.197,6.144s2.461,5.608,3.203,9.074
			c0.74,3.466,1.111,7.132,1.111,10.996c0,3.614-0.252,7.321-0.752,11.122c-0.502,3.803-1.123,7.563-1.863,11.28
			c-0.741,3.718-1.535,7.363-2.386,10.934c-0.85,3.57-1.646,6.953-2.386,10.146c-0.742,3.192-1.363,6.144-1.863,8.854
			c-0.502,2.709-0.752,5.052-0.752,7.026c0,2.479,0.469,4.274,1.406,5.388c0.936,1.113,2.298,1.67,4.085,1.67
			c1.003,0,2.06-0.262,3.171-0.788c1.111-0.524,2.223-1.218,3.334-2.079c1.111-0.86,2.211-1.849,3.301-2.962
			c1.089-1.112,2.135-2.258,3.138-3.435c2.31-2.688,4.597-5.775,6.864-9.263c0,0.042,0.195,0.483,0.588,1.323
			c0.305,0.715,0.806,1.933,1.504,3.654c0.695,1.724,1.676,4.201,2.941,7.437c-2.18,3.697-4.424,6.827-6.733,9.389
			c-2.311,2.563-4.663,4.653-7.06,6.271c-2.397,1.617-4.827,2.783-7.289,3.497c-2.463,0.715-4.914,1.071-7.354,1.071
			c-2.354,0-4.652-0.398-6.896-1.197c-2.245-0.798-4.239-1.985-5.981-3.561c-1.743-1.575-3.138-3.528-4.184-5.86
			c-1.046-2.331-1.569-5.01-1.569-8.034c0-0.336,0.011-0.693,0.033-1.071c0.021-0.378,0.055-0.757,0.098-1.135
			c0.174-2.813,0.545-5.807,1.111-8.979c0.566-3.172,1.209-6.438,1.929-9.799c0.719-3.36,1.471-6.784,2.255-10.271
			c0.785-3.486,1.504-6.963,2.157-10.43c0.653-3.466,1.198-6.889,1.634-10.271c0.436-3.381,0.654-6.626,0.654-9.735
			c0-1.891-0.065-3.602-0.196-5.136c-0.13-1.533-0.392-2.836-0.784-3.907s-0.959-1.9-1.699-2.489
			c-0.742-0.588-1.723-0.882-2.941-0.882c-2.311,0-4.49,0.777-6.537,2.331c-2.049,1.555-3.988,3.697-5.818,6.428
			c-1.83,2.731-3.541,5.966-5.131,9.705c-1.592,3.739-3.096,7.782-4.511,12.13c-1.417,4.349-2.735,8.907-3.955,13.675
			c-1.22,4.769-2.353,9.568-3.399,14.398c-1.045,4.832-2.025,9.601-2.941,14.305c-0.915,4.706-1.765,9.159-2.549,13.359
			c-0.35,1.177-0.883,2.174-1.602,2.993c-0.719,0.819-1.548,1.481-2.484,1.985c-0.938,0.504-1.928,0.872-2.974,1.103
			c-1.046,0.231-2.092,0.347-3.138,0.347c-0.916,0-1.82-0.167-2.713-0.504c-0.894-0.336-1.678-0.872-2.354-1.607
			c-0.676-0.734-1.22-1.67-1.634-2.804c-0.415-1.135-0.621-2.521-0.621-4.159c0-1.092,0.261-2.972,0.784-5.64
			s1.187-5.86,1.994-9.579c0.806-3.718,1.677-7.792,2.615-12.225c0.937-4.432,1.808-8.948,2.615-13.548
			c0.806-4.601,1.471-9.147,1.994-13.644c0.523-4.494,0.784-8.633,0.784-12.414c0-2.604-0.065-4.936-0.196-6.994
			c-0.13-2.059-0.436-3.802-0.915-5.23c-0.48-1.428-1.167-2.521-2.059-3.277c-0.894-0.756-2.082-1.134-3.563-1.134
			c-1.221,0-2.615,0.799-4.184,2.395c-1.569,1.597-3.258,3.803-5.066,6.616c-1.809,2.815-3.672,6.124-5.589,9.926
			c-1.918,3.802-3.824,7.908-5.72,12.319s-3.726,9.021-5.491,13.832c-1.765,4.811-3.389,9.62-4.87,14.431
			c-1.482,4.811-2.79,9.515-3.922,14.115C133.47,320.593,132.621,324.909,132.055,328.942z"/>
		<path fill="#009BD0" d="M342.02,319.364c-3.529,3.613-7.508,6.774-11.93,9.483c-4.424,2.71-9.043,4.979-13.858,6.806
			c-4.815,1.828-9.707,3.203-14.675,4.128c-4.969,0.924-9.784,1.387-14.447,1.387c-5.143,0-9.979-0.578-14.512-1.733
			c-4.533-1.156-8.498-2.92-11.896-5.293c-3.4-2.373-6.091-5.377-8.074-9.012c-1.982-3.633-2.974-7.949-2.974-12.949
			c0-4.243,0.794-8.318,2.386-12.226c1.59-3.906,4.053-7.372,7.387-10.397c3.334-3.024,7.604-5.46,12.813-7.31
			c5.207-1.848,11.449-2.856,18.729-3.024c-4.795,0-8.979-0.662-12.551-1.985c-3.574-1.323-6.537-3.108-8.891-5.356
			c-2.354-2.247-4.118-4.873-5.295-7.877c-1.177-3.003-1.765-6.186-1.765-9.547c0-3.15,0.565-6.027,1.699-8.633
			c1.133-2.604,2.69-4.947,4.674-7.026s4.325-3.896,7.027-5.451c2.702-1.554,5.632-2.845,8.792-3.875
			c3.159-1.029,6.472-1.806,9.936-2.332c3.465-0.524,6.963-0.787,10.492-0.787c5.1,0,10.088,0.535,14.97,1.606
			c4.88,1.071,9.217,2.679,13.009,4.821c3.791,2.143,6.841,4.82,9.151,8.034c2.31,3.214,3.464,6.963,3.464,11.248
			c0,1.513-0.533,3.004-1.602,4.475s-2.343,2.783-3.824,3.938s-3.039,2.079-4.674,2.772c-1.634,0.693-2.996,1.04-4.085,1.04
			c-0.915,0-1.372-0.777-1.372-2.332c0-1.387,0.229-3.172,0.686-5.356c0.457-2.184,1.23-4.915,2.32-8.191
			c-1.176-0.924-2.898-1.849-5.164-2.773c-2.266-0.923-4.826-1.764-7.681-2.521c-2.854-0.756-5.894-1.375-9.118-1.858
			c-3.227-0.482-6.406-0.725-9.545-0.725c-2.92,0-5.709,0.252-8.367,0.756s-5,1.334-7.027,2.489
			c-2.025,1.155-3.639,2.678-4.836,4.568c-1.199,1.891-1.799,4.222-1.799,6.995c0,2.269,0.426,4.181,1.275,5.734
			c0.85,1.555,1.982,2.878,3.398,3.97c1.416,1.093,3.04,1.985,4.871,2.678c1.83,0.693,3.726,1.313,5.687,1.859
			c1.961,0.547,3.89,1.071,5.785,1.575s3.638,1.082,5.229,1.733c1.59,0.651,2.93,1.439,4.02,2.362
			c1.09,0.925,1.809,2.08,2.158,3.466c0.086,0.883,0.174,1.775,0.262,2.679c0.086,0.904,0.13,1.775,0.13,2.615
			c0,2.354-0.458,4.064-1.372,5.136c-0.916,1.071-2.703,1.606-5.361,1.606c-1.133,0-2.539-0.063-4.216-0.188
			c-1.679-0.126-3.28-0.189-4.805-0.189c-3.487,0-6.907,0.432-10.263,1.292c-3.356,0.861-6.363,2.143-9.021,3.844
			s-4.805,3.803-6.438,6.302c-1.634,2.5-2.451,5.409-2.451,8.728c0,3.15,0.468,5.776,1.405,7.877
			c0.938,2.102,2.223,3.792,3.857,5.073c1.634,1.281,3.563,2.195,5.785,2.741s4.618,0.818,7.189,0.818
			c3.094,0,6.342-0.293,9.74-0.882c3.399-0.588,6.787-1.396,10.165-2.426c3.377-1.029,6.668-2.247,9.871-3.655
			c3.202-1.407,6.177-2.919,8.923-4.537c2.745-1.616,5.164-3.318,7.256-5.104c2.092-1.785,3.703-3.581,4.837-5.388L342.02,319.364z"
			/>
	</g>
	<g id="Divider_1">
		<line fill="none" stroke="#009BD0" stroke-width="3" stroke-miterlimit="10" x1="14.5" y1="12" x2="163" y2="12"/>
		<line fill="none" stroke="#009BD0" stroke-width="3" stroke-miterlimit="10" x1="195.5" y1="12" x2="344" y2="12"/>
		<circle fill="#009BD0" cx="179" cy="13" r="10"/>
	</g>
	<g id="Arrow">
		<polyline fill="#009BD0" points="242,215.486 263.948,182.768 242,149.859 278.489,149.954 300.526,182.673 278.489,215.577 		"/>
		<polygon fill="#009BD0" points="285.804,149.859 307.751,182.768 285.896,215.486 293.354,215.58 315.25,182.673 293.478,149.954 
					"/>
	</g>
	<g>
		<path fill-rule="evenodd" clip-rule="evenodd" fill="#E74D25" d="M177.835,209.477c-0.001-3.404-0.03-6.808,0.02-10.209
			c0.013-0.941-0.297-1.229-1.217-1.202c-1.986,0.055-3.976-0.012-5.963,0.027c-0.888,0.02-1.11-0.25-0.864-1.126
			c2.568-9.177,5.109-18.364,7.658-27.549c0.045-0.162,0.13-0.32,0.138-0.484c0.02-0.425,0.586-1.052-0.325-1.175
			c-0.693-0.093-1.479-0.551-1.799,0.704c-1.351,5.285-2.788,10.549-4.193,15.82c-0.087,0.325-0.166,0.655-0.284,0.969
			c-0.641,1.691-1.999,2.464-3.45,1.977c-1.714-0.575-2.7-2.232-2.182-3.894c2.09-6.689,3.709-13.51,5.657-20.239
			c1.066-3.682,4.019-5.898,7.862-5.903c4.515-0.007,9.03-0.002,13.545-0.002c4.6,0,7.939,2.564,9.119,7.052
			c1.43,5.439,2.828,10.888,4.242,16.331c0.263,1.011,0.549,2.016,0.795,3.029c0.406,1.68-0.316,2.953-1.875,3.356
			c-1.709,0.44-3.371-0.39-3.79-1.956c-0.636-2.375-1.215-4.765-1.832-7.145c-0.804-3.098-1.618-6.191-2.433-9.284
			c-0.256-0.968-1.283-1.347-2.081-0.778c-0.438,0.312-0.136,0.683-0.047,1.004c1.405,5.063,2.825,10.121,4.244,15.181
			c1.192,4.247,2.392,8.494,3.581,12.742c0.301,1.069,0.234,1.162-0.881,1.167c-1.954,0.01-3.909,0.002-5.863,0.005
			c-1.315,0.002-1.316,0.004-1.32,1.363c-0.016,6.571-0.023,13.142-0.047,19.711c-0.008,2.062-0.988,3.317-2.92,3.824
			c-1.641,0.43-3.326-0.357-4.268-1.952c-0.311-0.527-0.334-1.078-0.334-1.654c0.003-6.437,0.002-12.872,0.002-19.308
			c0-0.27-0.008-0.539-0.002-0.809c0.01-0.466-0.113-0.788-0.674-0.775c-0.563,0.014-0.65,0.36-0.65,0.812
			c-0.005,1.887-0.017,3.774-0.021,5.661c-0.009,4.683-0.012,9.366-0.025,14.05c-0.012,3.329-2.781,5.021-5.786,3.553
			c-1.166-0.569-1.779-1.409-1.755-2.786C177.874,216.217,177.835,212.846,177.835,209.477z"/>
		<path fill-rule="evenodd" clip-rule="evenodd" fill="#E74D25" d="M138.243,194.2c0-8.254,0-16.509,0-24.762
			c0-0.236,0.008-0.472-0.004-0.708c-0.022-0.425,0.07-0.957-0.596-0.951c-0.674,0.006-0.571,0.554-0.571,0.968
			c0.002,5.861,0.018,11.724,0.023,17.585c0.001,1.32-0.535,2.171-1.669,2.604c-1.19,0.456-2.317,0.36-3.303-0.523
			c-0.62-0.558-0.798-1.269-0.797-2.093c0.017-6.637,0.087-13.275-0.029-19.909c-0.045-2.555,0.391-4.813,2.185-6.692
			c1.601-1.677,3.525-2.675,5.884-2.73c5.153-0.123,10.305,0.087,15.452,0.253c2.468,0.08,4.29,1.633,5.629,3.669
			c1.2,1.82,1.432,3.904,1.447,6.005c0.049,6.434,0.009,12.869,0.093,19.303c0.023,1.733-1.603,3.165-2.948,3.111
			c-1.729-0.068-3.052-1.569-3.025-3.139c0.096-5.725,0.032-11.453,0.005-17.18c-0.001-0.406,0.283-1.096-0.429-1.143
			c-0.797-0.053-0.7,0.646-0.7,1.178c-0.002,16.643-0.017,33.285,0.022,49.927c0.003,1.56-0.504,2.693-1.845,3.414
			c-1.455,0.781-2.921,0.726-4.312-0.185c-1.142-0.747-1.596-1.851-1.595-3.192c0.006-8.658,0.003-17.317,0.002-25.976
			c0-1.043,0.004-2.088-0.005-3.133c-0.004-0.445,0-0.947-0.649-0.908c-0.598,0.035-0.509,0.533-0.51,0.921
			c-0.007,3.94-0.003,7.883-0.005,11.824c-0.003,5.762-0.007,11.521-0.015,17.282c-0.002,1.957-1.235,3.589-2.962,3.938
			c-1.662,0.336-3.912-0.841-4.633-2.407c-0.208-0.45-0.171-0.92-0.171-1.39c-0.003-8.32-0.001-16.642-0.001-24.962
			C138.221,194.2,138.232,194.2,138.243,194.2z"/>
		<path fill-rule="evenodd" clip-rule="evenodd" fill="#E74D25" d="M185.916,155.644c-3.746-0.004-6.655-2.92-6.651-6.666
			c0.004-3.729,3.071-6.786,6.763-6.744c3.676,0.043,6.646,3.06,6.651,6.754C192.684,152.769,189.758,155.647,185.916,155.644z"/>
		<path fill-rule="evenodd" clip-rule="evenodd" fill="#E74D25" d="M153.271,149.014c-0.003,3.786-2.849,6.627-6.639,6.63
			c-3.747,0.002-6.812-3.031-6.766-6.695c0.045-3.649,3.078-6.678,6.725-6.713C150.258,142.2,153.274,145.261,153.271,149.014z"/>
	</g>
</g>
</svg>
