<?xml version="1.0" encoding="utf-8"?>
<!-- Generator: Adobe Illustrator 16.0.0, SVG Export Plug-In . SVG Version: 6.00 Build 0)  -->
<!DOCTYPE svg PUBLIC "-//W3C//DTD SVG 1.1//EN" "http://www.w3.org/Graphics/SVG/1.1/DTD/svg11.dtd">
<svg version="1.1" id="pie_x5F_chart" xmlns="http://www.w3.org/2000/svg" xmlns:xlink="http://www.w3.org/1999/xlink" x="0px"
	 y="0px" width="357.974px" height="386.548px" viewBox="0 0 357.974 386.548" enable-background="new 0 0 357.974 386.548"
	 xml:space="preserve">
<g>
	<circle fill="#FF9700" cx="157.358" cy="184.716" r="134.903"/>
	<path fill="#E24E26" d="M246.365,0l-89.006,184.716l199.975-45.33C342.967,76.01,300.672,26.211,246.365,0z"/>
	<path fill="#9CB832" d="M157.359,184.716L88.981,43.099C45.966,61.604,8.302,104.601,1.579,149.523L157.359,184.716z"/>
	<g>
		<path fill="#FFFFFF" d="M36.193,125.068c1.116-2.238,2.856-4.944,4.851-7.625c3.385-4.549,6.331-6.96,9.738-7.932
			c3.671-1.104,7.789-0.451,12.02,2.697c4.551,3.387,6.455,7.38,6.717,11.08c0.217,4.053-1.656,8.631-5.121,13.286
			c-2.073,2.786-3.744,4.666-4.893,5.839L36.193,125.068z M59.544,134.114c0.447-0.38,1.025-1.155,1.497-1.79
			c3.683-4.876,3.391-10.08-2.287-14.305c-5.114-3.806-9.7-2.725-13.164,1.931c-0.866,1.164-1.363,2.054-1.599,2.591L59.544,134.114
			z"/>
		<path fill="#FFFFFF" d="M63.257,101.583l8.139,3.864c2,0.994,4.168,2.06,6.352,3.247l0.079-0.106
			c-1.703-1.761-3.285-3.759-4.688-5.406l-5.761-7.136l3.149-4.232l8.164,3.39c2.342,0.976,4.588,1.935,6.799,3.087l0.053-0.07
			c-1.756-1.691-3.469-3.513-5.129-5.405l-5.767-6.538l3.91-5.255l13.311,18.123l-3.727,5.009l-7.238-2.866
			c-2.034-0.801-3.821-1.638-6.235-2.886l-0.053,0.07c1.916,1.918,3.275,3.479,4.547,5.082l4.781,6.242l-3.754,5.043l-20.999-7.79
			L63.257,101.583z"/>
	</g>
	<path fill="#EED039" d="M157.359,184.718l0.764,150.079c46.176-0.193,89.256-21.785,117.195-57.225L157.359,184.718z"/>
	<path fill="#2277FF" d="M157.359,184.716L0,311.111c38.002,47.242,96.176,75.787,158.322,75.434L157.359,184.716z"/>
	<path fill="#504D4D" d="M314.916,308.824c36.102-45.893,51.967-107.07,38.053-168.449l-195.609,44.341L314.916,308.824z"/>
	<g>
		<path fill="#FFFFFF" d="M247.512,196.295c6.01-12.799,17.109-19.775,26.432-22.715c9.158-2.882,21.621-3.171,33.9,3.551
			c17.428,9.545,23.756,27.107,22.645,41.482c-1.529,19.855-16.092,34.074-30.713,38.781c-13.582,4.379-34.557,1.5-47.34-14.42
			c-5.1-6.35-8.084-13.523-9.215-21.252C242.152,214.43,243.262,205.34,247.512,196.295z M247.359,229.227
			c2.779,8.707,9.535,18.541,21.895,24.16c11.402,5.188,21.322,4.824,31.031,1.691c9.279-2.988,18.934-10.502,24.168-21.893
			c5.213-11.357,4.773-21.178,1.689-31.039c-2.84-9.076-9.367-18.84-21.674-24.557c-11.006-5.108-22.145-4.492-31.037-1.693
			c-8.795,2.771-19.059,10.202-24.469,21.986C243.484,209.811,244.43,220.059,247.359,229.227z"/>
		<path fill="#FFFFFF" d="M274.664,180.221c-1.979,3.888-0.314,8.166,4.754,9.672c5.678,1.687,11.352-1.149,17.885,2.425
			c8.746,4.79,10.861,12.247,18.42,17.802c-13.936-2.43-27.93-5.055-41.949-7.775c1.326-2.566,2.85-4.674,1.377-5.729
			c-2.133-1.535-3.078,2.441-4.396,5.09c-2.758,5.527-8.99,13.396-7.477,14.813c1.99,1.855,3.264-1.404,4.525-3.459
			c4.248,0.777,8.363,1.211,12.727,1.895c1.369,0.215,3.334,0.313,4.236,0.797c1.443,0.773,2.943,3.217,4.361,4.771
			c4.314,4.738,9.158,9.498,12.775,14.4c-14.008-2.879-27.836-5.127-41.836-7.975c1.111-2.25,3.049-4.799,1.174-5.844
			c-2.828-1.578-4.975,8.566-7.623,11.35c-1.195-0.449-1.289-1.996-1.691-3.021c-3.221-8.117-4.381-18.834,0.277-28.967
			C257.535,188.858,266.422,182.597,274.664,180.221z"/>
		<path fill="#FFFFFF" d="M290.102,216.904c10.949,0.922,22.432,3.732,33.436,4.854c-0.201,6.234-5.422,15.711-10.369,20.479
			C305.098,233.9,298.049,225.275,290.102,216.904z"/>
		<path fill="#FFFFFF" d="M287.061,178.031c4.859,0.179,9.77,0.717,14.912,3.109c15.934,7.414,21.551,21.098,22.303,33.227
			c-0.129,0.146-0.023,0.232,0.09,0.311c-0.252,0.238-0.164-0.121-0.4-0.223c-7.607-8.463-14.891-16.521-22.559-25.308
			C297.613,184.792,293.904,180.794,287.061,178.031z"/>
		<path fill="#FFFFFF" d="M257.031,237.994c17.094,2.971,34.105,5.65,51.08,8.184c0.238,0.246-0.117,0.164-0.225,0.4
			c-11.172,7.012-26.559,10.387-42.197,0.143C261.982,244.291,258.93,241.295,257.031,237.994z"/>
	</g>
	<g>
		<path fill="#FFFFFF" d="M255.551,45.583l-4.574-20.795l1.203-0.831l17.898,11.597l-2.051,1.415l-13.91-8.933l3.514,16.111
			L255.551,45.583z"/>
		<path fill="#FFFFFF" d="M268.543,47.595l-5.199,3.59c-0.857,0.593-1.361,1.011-1.51,1.254c-0.15,0.242-0.209,0.558-0.18,0.945
			c0.029,0.387,0.207,0.816,0.531,1.286l0.385,0.558l-0.457,0.316l-6.061-8.777l0.459-0.316l0.385,0.559
			c0.336,0.485,0.693,0.818,1.072,0.996c0.264,0.135,0.574,0.163,0.936,0.084c0.262-0.046,0.811-0.359,1.652-0.94l11.043-7.624
			c0.857-0.592,1.363-1.008,1.516-1.246c0.152-0.239,0.213-0.553,0.184-0.939c-0.031-0.388-0.209-0.816-0.533-1.286l-0.385-0.559
			l0.459-0.316l6.059,8.777l-0.457,0.316l-0.385-0.558c-0.336-0.486-0.693-0.818-1.072-0.996c-0.264-0.135-0.578-0.168-0.945-0.098
			c-0.26,0.046-0.811,0.359-1.652,0.94l-4.754,3.282l4.094,5.93l4.754-3.282c0.857-0.593,1.363-1.008,1.516-1.247
			c0.15-0.238,0.211-0.554,0.178-0.946c-0.033-0.392-0.211-0.822-0.537-1.292l-0.375-0.545l0.457-0.316l6.051,8.764l-0.457,0.316
			l-0.377-0.545c-0.342-0.494-0.699-0.827-1.072-0.996c-0.264-0.135-0.578-0.168-0.943-0.098c-0.262,0.046-0.813,0.359-1.654,0.94
			l-11.041,7.624c-0.859,0.593-1.363,1.008-1.516,1.246c-0.152,0.239-0.211,0.556-0.18,0.947c0.033,0.391,0.213,0.822,0.537,1.292
			l0.377,0.545l-0.459,0.316l-6.051-8.764l0.457-0.316l0.377,0.545c0.342,0.494,0.699,0.827,1.072,0.997
			c0.264,0.134,0.578,0.167,0.945,0.097c0.26-0.046,0.811-0.359,1.652-0.94l5.199-3.59L268.543,47.595z"/>
		<path fill="#FFFFFF" d="M297.129,70.358l-4.543,3.137l-0.309-0.445c0.865-0.987,1.418-1.801,1.652-2.438
			c0.236-0.638,0.297-1.332,0.182-2.081c-0.068-0.416-0.373-1.016-0.914-1.801l-0.863-1.25l-12.947,8.94
			c-0.859,0.593-1.363,1.01-1.512,1.253s-0.209,0.559-0.178,0.946c0.029,0.387,0.209,0.82,0.539,1.299l0.385,0.557l-0.457,0.316
			l-6.068-8.788l0.459-0.316l0.383,0.557c0.338,0.486,0.693,0.819,1.072,0.996c0.264,0.135,0.578,0.168,0.945,0.098
			c0.26-0.046,0.811-0.359,1.652-0.94l12.949-8.94l-0.838-1.213c-0.781-1.131-1.586-1.786-2.418-1.967
			c-1.164-0.257-2.432-0.053-3.801,0.612l-0.324-0.47l4.543-3.137L297.129,70.358z"/>
		<path fill="#FFFFFF" d="M295.035,90.997l14.213-3.085l4.717,6.833l-0.457,0.316l-0.377-0.545c-0.342-0.495-0.701-0.832-1.08-1.01
			c-0.258-0.126-0.566-0.157-0.924-0.093c-0.262,0.046-0.809,0.356-1.641,0.933l-11.068,7.641c-0.857,0.593-1.363,1.008-1.514,1.246
			c-0.152,0.239-0.213,0.555-0.18,0.946c0.033,0.391,0.213,0.823,0.537,1.293l0.375,0.545l-0.457,0.316l-6.051-8.765l0.457-0.316
			l0.377,0.545c0.342,0.495,0.701,0.832,1.08,1.01c0.258,0.126,0.57,0.154,0.936,0.084c0.262-0.046,0.813-0.359,1.654-0.94
			l12.441-8.59l-19.758,4.136l-0.205-0.297l10.689-17.031l-11.822,8.162c-0.824,0.569-1.318,0.94-1.48,1.112
			c-0.338,0.393-0.514,0.858-0.525,1.396s0.246,1.191,0.777,1.959l-0.459,0.316l-3.965-5.743l0.457-0.316l0.121,0.173
			c0.248,0.377,0.547,0.683,0.896,0.915c0.35,0.234,0.689,0.359,1.018,0.376c0.328,0.018,0.719-0.063,1.168-0.24
			c0.104-0.046,0.529-0.328,1.281-0.847l10.621-7.333c0.85-0.587,1.348-0.998,1.496-1.234s0.205-0.55,0.172-0.941
			s-0.211-0.822-0.535-1.293l-0.367-0.531l0.457-0.316l4.734,6.857L295.035,90.997z"/>
		<path fill="#FFFFFF" d="M314.439,118.729l-6.328,3.437l-10.291-14.904l0.459-0.316l0.383,0.558
			c0.338,0.486,0.695,0.819,1.072,0.996c0.264,0.136,0.576,0.164,0.938,0.085c0.26-0.046,0.811-0.359,1.652-0.94l11.043-7.624
			c0.857-0.593,1.363-1.008,1.516-1.247c0.15-0.238,0.211-0.552,0.182-0.938c-0.029-0.388-0.207-0.816-0.531-1.287l-0.385-0.558
			l0.457-0.316l6.18,8.95l-0.457,0.316l-0.506-0.73c-0.336-0.486-0.693-0.818-1.07-0.997c-0.266-0.134-0.58-0.167-0.945-0.098
			c-0.262,0.047-0.813,0.36-1.654,0.941l-10.695,7.385c-0.857,0.592-1.369,1.02-1.537,1.28c-0.166,0.263-0.209,0.577-0.125,0.945
			c0.068,0.258,0.377,0.783,0.924,1.575l0.965,1.398c0.615,0.892,1.285,1.525,2.01,1.903c0.723,0.378,1.572,0.55,2.549,0.515
			c0.977-0.032,2.258-0.312,3.846-0.836L314.439,118.729z"/>
		<path fill="#FFFFFF" d="M324.332,114.134l4.588,20.784l-1.217,0.841l-17.898-11.596l2.064-1.425l13.895,8.941l-3.512-16.11
			L324.332,114.134z"/>
	</g>
	<path fill="#35495E" d="M157.359,184.716l77.666-161.18c-35.197-16.987-76.154-22.66-117.229-13.349
		c-13.508,3.062-26.277,7.624-38.242,13.388L157.359,184.716z"/>
	<g>
		<path fill="#FFFFFF" d="M36.193,125.068c1.117-2.238,2.857-4.944,4.852-7.625c3.385-4.549,6.33-6.96,9.738-7.932
			c3.67-1.104,7.789-0.451,12.02,2.697c4.551,3.387,6.455,7.38,6.717,11.08c0.217,4.053-1.656,8.631-5.121,13.286
			c-2.074,2.786-3.744,4.666-4.893,5.839L36.193,125.068z M59.545,134.114c0.447-0.38,1.025-1.155,1.496-1.79
			c3.684-4.876,3.391-10.08-2.287-14.305c-5.113-3.806-9.699-2.725-13.164,1.931c-0.865,1.164-1.363,2.054-1.598,2.591
			L59.545,134.114z"/>
		<path fill="#FFFFFF" d="M63.258,101.583l8.139,3.864c2,0.994,4.168,2.06,6.352,3.247l0.078-0.106
			c-1.703-1.761-3.285-3.759-4.688-5.406l-5.762-7.136l3.15-4.232l8.164,3.39c2.342,0.976,4.588,1.935,6.799,3.087l0.053-0.07
			c-1.756-1.691-3.469-3.513-5.129-5.405l-5.768-6.538l3.91-5.255l13.311,18.123l-3.727,5.009l-7.238-2.866
			c-2.033-0.801-3.82-1.638-6.234-2.886l-0.053,0.07c1.916,1.918,3.275,3.479,4.547,5.082l4.781,6.242l-3.754,5.043l-21-7.79
			L63.258,101.583z"/>
	</g>
	<g>
		<g>
			<path fill="#FFFFFF" d="M134.59,28.901c2.688-0.516,6.467-0.94,11.803-1.054c5.393-0.114,9.316,0.836,11.943,2.903
				c2.508,1.843,4.182,5.021,4.262,8.808c0.082,3.844-1.055,7.083-3.305,9.254c-2.926,2.818-7.373,4.232-12.537,4.342
				c-1.148,0.024-2.182-0.012-2.988-0.167l0.293,13.885l-8.662,0.184L134.59,28.901z M143.625,46.274
				c0.75,0.156,1.67,0.194,2.932,0.168c4.646-0.099,7.467-2.512,7.383-6.413c-0.074-3.558-2.529-5.63-6.947-5.536
				c-1.779,0.037-2.98,0.178-3.609,0.363L143.625,46.274z"/>
			<path fill="#FFFFFF" d="M167.199,58.806c1.627,0.942,4.977,1.961,7.559,1.906c2.641-0.056,3.711-0.938,3.682-2.373
				c-0.031-1.492-0.906-2.163-4.143-3.185c-5.893-1.77-8.199-4.936-8.211-8.207c-0.111-5.278,4.279-9.332,11.223-9.479
				c3.27-0.069,6.156,0.673,7.895,1.496l-1.363,6c-1.277-0.604-3.764-1.472-6.115-1.422c-2.123,0.045-3.311,0.932-3.281,2.309
				s1.135,2.043,4.602,3.175c5.375,1.667,7.613,4.373,7.758,8.446c0.111,5.278-3.881,9.208-11.914,9.378
				c-3.672,0.078-6.961-0.713-9.107-1.814L167.199,58.806z"/>
		</g>
	</g>
	<g>
		<path fill="#FFFFFF" d="M63.656,339.193c-1.719-0.033-5.412-0.873-9.559-2.973c-11.93-6.041-14.289-16.627-9.287-26.508
			c5.963-11.775,17.65-14.027,28.098-8.738c4.043,2.047,6.701,4.422,7.721,5.838l-4.75,5.314c-1.197-1.443-3.09-3.172-5.904-4.598
			c-6.145-3.111-12.85-1.811-16.764,5.922c-3.5,6.912-1.605,13.338,5.305,16.836c2.406,1.219,5.201,2.055,7.125,2.193
			L63.656,339.193z"/>
		<path fill="#FFFFFF" d="M72.662,334.877c1.504,2.111,4.236,4.846,7.564,6.531c3.584,1.814,6.23,1.289,7.396-1.016
			c1.064-2.1,0.072-4.209-3.35-7.742c-4.697-4.951-6.877-10.043-4.311-15.111c2.98-5.889,10.201-7.828,18.291-3.732
			c3.941,1.996,6.369,4.189,7.926,6.199l-4.904,5.365c-0.994-1.34-3.012-3.584-6.34-5.268c-3.377-1.711-5.82-0.955-6.701,0.787
			c-1.115,2.201,0.287,4.133,3.912,8.156c4.951,5.336,6.16,9.938,3.672,14.852c-2.93,5.785-9.82,8.473-19.293,3.676
			c-3.941-1.994-7.289-5.041-8.689-7.1L72.662,334.877z"/>
		<path fill="#FFFFFF" d="M100.313,348.875c1.504,2.113,4.236,4.848,7.564,6.531c3.584,1.814,6.23,1.289,7.396-1.014
			c1.063-2.1,0.072-4.209-3.35-7.742c-4.697-4.951-6.879-10.045-4.313-15.113c2.98-5.889,10.203-7.828,18.293-3.732
			c3.941,1.996,6.369,4.189,7.926,6.199l-4.904,5.365c-0.994-1.34-3.012-3.582-6.34-5.268c-3.379-1.711-5.82-0.953-6.703,0.787
			c-1.113,2.201,0.289,4.135,3.912,8.156c4.953,5.338,6.162,9.938,3.674,14.854c-2.93,5.785-9.82,8.471-19.293,3.676
			c-3.941-1.996-7.289-5.041-8.689-7.102L100.313,348.875z"/>
	</g>
	<g>
		<path fill="#FFFFFF" d="M40.352,199.918c-0.771,0.037,0.525,1.418-0.25,1.451c-1.051,0.318-1.479-0.328-2.525-0.016
			c-0.953-5.473-3.658-11.182,0.578-13.036c5.953-2.607,15.736,3.467,11.654,9.862C48.141,200.787,43.85,200.654,40.352,199.918z
			 M38.957,192.073c-0.492,1.144,0.09,2.985,0.439,4.675c2.338,0.268,6.756,1.438,8.174-1.182
			C47.496,190.355,42.217,190.082,38.957,192.073z"/>
		<path fill="#FFFFFF" d="M59.152,241.941c-4.813-1.621-8.5-4.971-14.068-5.42c-0.227-1.072-0.457-2.146-0.689-3.221
			c2.777,0.965,4.701-1.201,7.404-2.145c0.209,0.986,0.418,1.973,0.629,2.957c-0.553,0.334-0.926,0.787-1.766,0.936
			C53.396,237.492,58.791,235.834,59.152,241.941z"/>
		<path fill="#FFFFFF" d="M46.684,222.988c-0.658-2.314-0.809-5.414-1.816-7.189c-2.436,0.811-0.432,4.496-0.18,7.051
			c-0.848-0.238-2.088,0.137-2.855-0.229c-0.813-4.111-2.279-8.213,0.793-9.434c4.348-1.725,12.248,2.043,10.061,7.676
			C51.977,222.689,49.668,223.02,46.684,222.988z M47.666,215.76c-0.15,1.074,0.143,4.203,1.455,4.18
			C50.762,219.01,49.484,215.465,47.666,215.76z"/>
		<path fill="#FFFFFF" d="M44.928,183.221c0.213,0.981,0.422,1.967,0.629,2.95c-1.059,0.45-1.463-0.118-2.471,0.249
			c-0.229-1.075-0.455-2.147-0.688-3.221C43.174,183.311,43.932,183.448,44.928,183.221z"/>
		<path fill="#FFFFFF" d="M49.572,204.965c-2.646,0.48-5.607-0.336-7.748,0.531c-0.91,1.18-0.205,2.305,0.096,3.07
			c2.547,0.467,5.576,0.197,8.457,0.16c0.207,0.98,0.416,1.965,0.629,2.949c-3.635-0.223-7.582,0.045-11.254-0.121
			c-0.41-2.887-2.088-6.596-0.648-8.283c3.262-1.611,6.902-0.957,9.895-0.99C49.191,203.176,49.383,204.07,49.572,204.965z"/>
		<path fill="#FFFFFF" d="M52.965,233.998c-0.461-2.148-0.918-4.297-1.381-6.443c-2.58-0.41-5.668-0.053-8.449-0.158
			c-0.189-0.896-0.383-1.793-0.574-2.686c3.941-0.369,7.494-0.148,11.197-0.146C54.031,228.059,57.256,233.463,52.965,233.998z"/>
		<path fill="#FFFFFF" d="M42.166,186.058c-4.672,0.233-14.158,2.047-13.418-4.998c0.891-0.065,1.564,0.206,2.527,0.022
			c0.486,0.802,0.805,1.854,1.592,2.185C36.047,184.077,41.822,180.874,42.166,186.058z"/>
		<path fill="#FFFFFF" d="M103.605,202.973c-10.256-0.563-15.959,13.121-8.41,19.762C82.635,219.584,90.998,196.596,103.605,202.973
			z"/>
		<path fill="#FFFFFF" d="M86.893,225.912c-11.156-1.039-14.828-17.801-8.533-26.811c3.641-5.22,13.398-10.206,20.17-5.431
			c0.645,0.193-2.904-0.145-4.197,0.053C79.797,195.973,73.904,217.643,86.893,225.912z"/>
		<path fill="#FFFFFF" d="M92.844,182.814c-18.115-1.556-30.654,15-26.619,31.791c1.504,6.24,4.652,10.322,9.158,12.643
			c-6.02-0.717-12.607-6.209-14.924-13.379c-4.725-14.582,4.309-32.344,20.234-34.074C85.688,179.251,88.604,181.034,92.844,182.814
			z"/>
	</g>
</g>
<g>
	<path fill-rule="evenodd" clip-rule="evenodd" fill="#FFFFFF" d="M209.803,296.998c1.465-2.057,2.904-4.076,4.316-6.068
		c0.877,0.449,1.676,0.939,2.533,1.279c3.303,1.316,6.271,0.592,8.885-1.68c1.057-0.916,1.625-2.137,1.307-3.582
		c-0.275-1.258-0.975-2.266-2.232-2.658c-0.887-0.273-1.842-0.428-2.773-0.459c-1.77-0.055-3.551,0.061-5.326,0.014
		c-1.572-0.035-3.154-0.086-4.703-0.322c-4.115-0.635-6.947-2.973-8.596-6.775c-1.941-4.494-0.783-9.217,3.109-12.332
		c2.566-2.053,5.504-3.27,8.816-3.4c2.713-0.107,5.084,0.895,7.252,2.449c0.029,0.021,0.047,0.061,0.092,0.121
		c-1.311,2.039-2.633,4.082-3.965,6.156c-0.324-0.205-0.611-0.396-0.906-0.572c-1.146-0.695-2.363-1.113-3.73-0.855
		c-0.965,0.182-1.855,0.545-2.607,1.201c-2.361,2.041-0.906,5.217,1.023,5.846c0.744,0.244,1.547,0.396,2.328,0.422
		c1.639,0.055,3.283-0.002,4.924-0.016c2.348-0.021,4.686,0.051,6.979,0.637c3.217,0.818,5.504,2.766,6.986,5.711
		c0.98,1.934,1.553,3.955,1.359,6.146c-0.238,2.67-1.422,4.918-3.363,6.705c-4.027,3.701-8.771,5.545-14.279,5.098
		C214.479,299.84,212.031,298.754,209.803,296.998z"/>
	<path fill-rule="evenodd" clip-rule="evenodd" fill="#FFFFFF" d="M185.002,309.367c1.449-2.125,2.896-4.25,4.369-6.402
		c0.412,0.285,0.791,0.555,1.176,0.814c0.816,0.545,1.666,1.053,2.656,1.195c1.961,0.279,3.555-0.475,4.781-1.955
		c0.768-0.924,0.68-2.064,0.371-3.158c-0.195-0.688-0.451-1.361-0.748-2.012c-3.688-8.123-7.389-16.238-11.09-24.355
		c-0.084-0.184-0.17-0.373-0.268-0.594c2.475-1.129,4.924-2.244,7.422-3.381c0.07,0.139,0.148,0.279,0.213,0.426
		c3.74,8.203,7.48,16.408,11.221,24.613c0.77,1.686,1.377,3.418,1.561,5.283c0.328,3.338-0.678,6.205-3.156,8.457
		c-2.9,2.645-6.332,4.137-10.289,4.213c-3.051,0.063-5.705-1.059-8.049-2.969C185.121,309.498,185.076,309.445,185.002,309.367z"/>
</g>
</svg>
