<?xml version="1.0" encoding="utf-8"?>
<!-- Generator: Adobe Illustrator 18.1.0, SVG Export Plug-In . SVG Version: 6.00 Build 0)  -->
<svg version="1.1" id="polar_grid" xmlns="http://www.w3.org/2000/svg" xmlns:xlink="http://www.w3.org/1999/xlink" x="0px" y="0px"
	 viewBox="0 0 365.333 410.667" enable-background="new 0 0 365.333 410.667" display="none" xml:space="preserve">
<g display="inline">
	<circle fill="#FF9700" cx="161.059" cy="205.449" r="134.903"/>
	<g id="DW_1_" display="none">
		<path display="inline" fill="#FFFFFF" d="M39.894,145.801c1.116-2.238,2.856-4.944,4.85-7.625c3.385-4.549,6.331-6.96,9.738-7.932
			c3.671-1.104,7.789-0.451,12.02,2.697c4.551,3.387,6.455,7.38,6.717,11.08c0.217,4.053-1.656,8.631-5.121,13.286
			c-2.073,2.786-3.744,4.666-4.893,5.839L39.894,145.801z M63.244,154.847c0.447-0.38,1.025-1.155,1.497-1.79
			c3.683-4.876,3.391-10.08-2.287-14.305c-5.114-3.806-9.7-2.725-13.164,1.931c-0.866,1.164-1.363,2.054-1.599,2.591L63.244,154.847
			z"/>
		<path display="inline" fill="#FFFFFF" d="M66.957,122.316l8.139,3.864c2,0.994,4.168,2.06,6.352,3.247l0.079-0.106
			c-1.703-1.761-3.285-3.759-4.688-5.406l-5.761-7.136l3.149-4.232l8.164,3.39c2.342,0.976,4.588,1.935,6.799,3.087l0.053-0.07
			c-1.756-1.691-3.469-3.513-5.129-5.405l-5.767-6.538l3.91-5.255l13.311,18.123l-3.727,5.009l-7.238-2.866
			c-2.034-0.801-3.821-1.638-6.235-2.886l-0.053,0.07c1.916,1.918,3.275,3.478,4.547,5.082l4.781,6.242l-3.754,5.043l-20.999-7.79
			L66.957,122.316z"/>
	</g>
	<g>
		<path fill="#FFFFFF" d="M44.052,220.651c-0.771,0.037,0.525,1.418-0.25,1.451c-1.051,0.318-1.479-0.328-2.525-0.016
			c-0.953-5.473-3.658-11.182,0.578-13.036c5.953-2.607,15.736,3.467,11.654,9.862C51.841,221.52,47.55,221.387,44.052,220.651z
			 M42.657,212.806c-0.492,1.144,0.09,2.985,0.439,4.675c2.338,0.268,6.756,1.438,8.174-1.182
			C51.196,211.089,45.917,210.815,42.657,212.806z"/>
		<path fill="#FFFFFF" d="M62.853,262.674c-4.813-1.621-8.5-4.971-14.068-5.42c-0.227-1.072-0.457-2.147-0.689-3.221
			c2.777,0.965,4.701-1.201,7.404-2.145c0.209,0.986,0.418,1.973,0.629,2.957c-0.553,0.334-0.926,0.787-1.766,0.936
			C57.097,258.225,62.491,256.567,62.853,262.674z"/>
		<path fill="#FFFFFF" d="M50.384,243.721c-0.658-2.314-0.809-5.414-1.816-7.189c-2.436,0.811-0.432,4.496-0.18,7.051
			c-0.848-0.238-2.088,0.137-2.855-0.229c-0.813-4.111-2.279-8.213,0.793-9.434c4.348-1.725,12.248,2.043,10.061,7.676
			C55.677,243.423,53.368,243.753,50.384,243.721z M51.366,236.493c-0.15,1.074,0.143,4.203,1.455,4.18
			C54.462,239.743,53.185,236.198,51.366,236.493z"/>
		<path fill="#FFFFFF" d="M48.628,203.954c0.213,0.982,0.422,1.967,0.629,2.95c-1.059,0.45-1.463-0.118-2.471,0.249
			c-0.229-1.075-0.455-2.147-0.688-3.221C46.874,204.044,47.632,204.181,48.628,203.954z"/>
		<path fill="#FFFFFF" d="M53.272,225.698c-2.646,0.48-5.607-0.336-7.748,0.531c-0.91,1.18-0.205,2.305,0.096,3.07
			c2.547,0.467,5.576,0.197,8.457,0.16c0.207,0.98,0.416,1.965,0.629,2.949c-3.635-0.223-7.582,0.045-11.254-0.121
			c-0.41-2.887-2.088-6.596-0.648-8.283c3.262-1.611,6.902-0.957,9.895-0.99C52.892,223.909,53.083,224.803,53.272,225.698z"/>
		<path fill="#FFFFFF" d="M56.665,254.731c-0.461-2.148-0.918-4.297-1.381-6.443c-2.58-0.41-5.668-0.053-8.449-0.158
			c-0.189-0.896-0.383-1.793-0.574-2.686c3.941-0.369,7.494-0.148,11.197-0.146C57.731,248.792,60.956,254.196,56.665,254.731z"/>
		<path fill="#FFFFFF" d="M45.866,206.791c-4.672,0.233-14.158,2.047-13.418-4.998c0.891-0.065,1.564,0.206,2.527,0.022
			c0.486,0.802,0.805,1.855,1.592,2.185C39.747,204.81,45.522,201.607,45.866,206.791z"/>
		<path fill="#FFFFFF" d="M107.306,223.706c-10.256-0.563-15.959,13.121-8.41,19.762C86.335,240.317,94.698,217.329,107.306,223.706
			z"/>
		<path fill="#FFFFFF" d="M90.593,246.645c-11.156-1.039-14.828-17.801-8.533-26.811c3.641-5.22,13.398-10.206,20.17-5.431
			c0.645,0.193-2.904-0.145-4.197,0.053C83.497,216.706,77.604,238.376,90.593,246.645z"/>
		<path fill="#FFFFFF" d="M96.544,203.548c-18.115-1.556-30.654,15-26.619,31.791c1.504,6.24,4.652,10.322,9.158,12.643
			c-6.02-0.717-12.607-6.209-14.924-13.379c-4.725-14.582,4.309-32.344,20.234-34.074C89.388,199.984,92.304,201.767,96.544,203.548
			z"/>
	</g>
</g>
<g id="PHP_1_" display="inline">
	<path fill="#5F81BA" d="M161.06,205.449L92.681,63.832C49.667,82.337,12.002,125.334,5.279,170.257L161.06,205.449z"/>
	<g id="PHP">
		<path fill="#FDFDFD" d="M94.228,123.585c1.765,2.369,3.445,4.624,5.146,6.907c-1.576,1.765-3.074,3.444-4.731,5.3
			c-6.679-8.78-13.25-17.419-19.823-26.06c0.161-0.301,0.228-0.514,0.364-0.666c3.231-3.609,6.362-7.315,9.731-10.791
			c4.752-4.903,10.248-4.558,14.599,0.71c4.413,5.341,4.697,11.822,0.798,17.493c-1.364,1.984-3.075,3.667-4.635,5.482
			C95.222,122.488,94.748,123.002,94.228,123.585z"/>
		<path fill="#FDFDFD" d="M57.472,164.757c1.822,2.438,3.476,4.651,5.157,6.902c-1.587,1.778-3.084,3.454-4.577,5.128
			c-1.022-0.864-18.95-24.352-19.897-26.038c0.08-0.15,0.146-0.364,0.281-0.515c3.268-3.649,6.438-7.395,9.845-10.909
			c4.599-4.744,10.206-4.393,14.383,0.69c5.056,6.154,4.856,13.232-0.581,19.567C60.601,161.308,59.057,162.981,57.472,164.757z"/>
		<path fill="#FDFDFD" d="M87.402,131.068c-1.609,1.803-3.112,3.486-4.764,5.337c-2.058-2.703-4.023-5.292-5.998-7.874
			c-1.124-1.47-2.202-2.982-3.415-4.375c-1.424-1.634-2.636-1.708-4.167-0.182c-1.571,1.567-2.981,3.296-4.584,5.093
			c1.902,2.519,3.787,5.027,5.685,7.525c1.872,2.465,3.755,4.921,5.676,7.436c-1.577,1.766-3.075,3.445-4.732,5.301
			c-6.697-8.803-13.302-17.487-19.948-26.224c1.581-1.771,3.05-3.417,4.696-5.261c1.764,2.271,3.472,4.471,5.335,6.87
			c1.396-1.564,2.622-2.931,3.841-4.305c1.194-1.346,2.431-2.646,3.926-3.67c3.009-2.061,5.515-1.891,8.016,0.777
			c2.72,2.902,4.877,6.261,7.313,9.396C85.342,128.277,86.359,129.676,87.402,131.068z"/>
		<path fill="#5F81BA" d="M90.986,119.371c-2.817-3.694-5.479-7.184-8.27-10.844c1.964-2.243,3.596-4.767,6.284-6.253
			c1.344-0.743,2.634-0.408,3.806,0.493c4.673,3.593,5.23,8.397,1.472,12.904C93.276,116.872,92.201,118.01,90.986,119.371z"/>
		<path fill="#5F81BA" d="M54.361,160.405c-0.365-0.326-0.551-0.446-0.677-0.611c-2.537-3.311-5.068-6.627-7.755-10.145
			c2.013-2.138,3.579-4.637,6.177-6.14c1.386-0.802,2.77-0.608,3.92,0.441c5.562,5.072,4.885,8.901,1.331,13.092
			C56.415,158.152,55.422,159.217,54.361,160.405z"/>
	</g>
</g>
<g id="ACC" display="inline">
	<g>
		<path fill="#CF0918" d="M161.018,205.702L160.5,382.528c39.08-0.362,81.171-13.42,113.87-39.963
			c10.754-8.728,17.37-15.833,25.543-26.301L161.018,205.702z"/>
		<path fill="#FFFFFF" d="M204.171,291.874c4.252-1.892,8.498-3.799,12.759-5.671c7.327-3.22,14.706-3.307,22.066-0.162
			c4.816,2.058,8.704,5.304,11.607,9.676c3.98,5.995,5.442,12.574,4.219,19.664c-1.23,7.134-4.815,12.888-10.615,17.234
			c-2.683,2.01-5.679,3.4-8.893,4.335c-0.146,0.043-0.315,0.198-0.368,0.34c-1.854,4.978-4.74,9.255-8.706,12.791
			c-3.2,2.853-6.836,4.967-10.896,6.357c-4.554,1.559-9.22,2.076-13.995,1.502c-6.498-0.781-12.232-3.317-17.195-7.587
			c-2.667-2.294-4.884-4.971-6.632-8.018c-3.352-5.846-4.794-12.136-4.179-18.858c0.608-6.643,3.086-12.532,7.355-17.654
			c2.269-2.722,4.927-5.009,8.001-6.781c1.292-0.744,2.625-1.427,3.982-2.043C196.497,295.265,200.339,293.579,204.171,291.874z
			 M228.188,337.741c-0.173-0.031-0.239-0.052-0.306-0.054c-1.941-0.073-3.861-0.32-5.755-0.751
			c-0.271-0.062-0.355,0.086-0.466,0.255c-1.883,2.885-4.351,5.126-7.41,6.71c-3.576,1.852-7.369,2.578-11.376,2.145
			c-7.391-0.799-14.952-5.985-17.088-14.731c-0.935-3.83-0.929-7.636,0.339-11.373c2.247-6.621,6.788-10.942,13.475-12.919
			c4.094-1.21,8.191-1.064,12.206,0.487c5.279,2.04,10.559,4.077,15.841,6.108c0.333,0.128,0.68,0.249,1.031,0.295
			c1.498,0.197,2.868-0.765,3.226-2.234c0.3-1.226-0.108-2.789-1.791-3.417c-5.827-2.174-11.631-4.41-17.455-6.591
			c-1.045-0.391-2.129-0.71-3.221-0.936c-3.846-0.795-7.645-0.488-11.396,0.62c-3.33,0.984-6.376,2.516-9.077,4.702
			c-4.563,3.693-7.574,8.399-8.94,14.102c-1.708,7.127-0.553,13.826,3.327,20.029c1.95,3.118,4.473,5.733,7.612,7.659
			c9.041,5.548,18.231,5.707,27.451,0.469c3.315-1.884,5.967-4.546,8.072-7.73C227.084,339.684,227.602,338.727,228.188,337.741z
			 M211.457,295.247c0.254,0.065,0.391,0.089,0.521,0.135c2.424,0.854,4.849,1.706,7.268,2.575c0.278,0.1,0.498,0.106,0.77-0.015
			c1.533-0.684,3.043-1.417,4.688-1.824c8.853-2.189,17.856,4.289,18.565,13.371c0.574,7.354-4.166,14.071-11.314,15.929
			c-3.07,0.798-6.123,0.726-9.126-0.468c-3.75-1.491-7.525-2.921-11.301-4.346c-0.451-0.17-0.99-0.252-1.462-0.187
			c-1.196,0.165-2.287,1.386-2.407,2.562c-0.129,1.265,0.615,2.481,1.844,2.958c3.855,1.5,7.68,3.087,11.58,4.46
			c7.232,2.546,14.008,1.456,20.024-3.245c9.106-7.115,10.571-20.274,3.43-29.325c-5.957-7.55-16.186-10.095-24.983-6.21
			c-2.536,1.12-5.066,2.252-7.599,3.38C211.83,295.054,211.71,295.12,211.457,295.247z"/>
		<path fill="#CF0918" d="M228.188,337.741c-0.587,0.987-1.104,1.943-1.701,2.847c-2.105,3.184-4.757,5.847-8.072,7.73
			c-9.219,5.238-18.409,5.079-27.451-0.469c-3.139-1.926-5.662-4.541-7.612-7.659c-3.879-6.204-5.035-12.903-3.327-20.029
			c1.367-5.703,4.377-10.409,8.94-14.102c2.701-2.186,5.748-3.718,9.077-4.702c3.751-1.108,7.549-1.415,11.396-0.62
			c1.092,0.226,2.176,0.545,3.221,0.936c5.824,2.181,11.628,4.417,17.455,6.591c1.683,0.628,2.091,2.19,1.791,3.417
			c-0.359,1.469-1.729,2.431-3.226,2.234c-0.351-0.046-0.698-0.167-1.031-0.295c-5.282-2.032-10.562-4.068-15.841-6.108
			c-4.014-1.552-8.112-1.697-12.206-0.487c-6.688,1.977-11.228,6.298-13.475,12.919c-1.268,3.737-1.274,7.543-0.339,11.373
			c2.135,8.746,9.697,13.933,17.088,14.731c4.006,0.433,7.799-0.293,11.376-2.145c3.059-1.584,5.528-3.825,7.41-6.71
			c0.11-0.169,0.195-0.317,0.466-0.255c1.894,0.431,3.813,0.678,5.755,0.751C227.949,337.689,228.015,337.709,228.188,337.741z"/>
		<path fill="#CF0918" d="M211.457,295.247c0.253-0.127,0.373-0.193,0.498-0.249c2.532-1.128,5.063-2.26,7.599-3.38
			c8.796-3.885,19.026-1.34,24.983,6.21c7.141,9.051,5.675,22.21-3.43,29.325c-6.016,4.701-12.792,5.791-20.024,3.245
			c-3.9-1.373-7.725-2.961-11.58-4.46c-1.229-0.478-1.973-1.694-1.844-2.958c0.12-1.175,1.212-2.397,2.407-2.562
			c0.472-0.065,1.012,0.017,1.462,0.187c3.776,1.425,7.551,2.854,11.301,4.346c3.003,1.194,6.056,1.266,9.126,0.468
			c7.148-1.858,11.888-8.575,11.314-15.929c-0.709-9.082-9.712-15.56-18.565-13.371c-1.645,0.407-3.156,1.14-4.688,1.824
			c-0.272,0.121-0.493,0.115-0.77,0.015c-2.419-0.869-4.844-1.721-7.268-2.575C211.849,295.336,211.711,295.312,211.457,295.247z"/>
	</g>
</g>
<g id="WP" display="inline">
	<path fill="#504D4D" d="M249.143,23.822C196.119-1.242,129.901-3.91,73.167,23.333l87.892,182.117L249.143,23.822z"/>
	<g>
		<path fill="#FFFFFF" d="M159.444,24.374c14.095-1.125,25.656,5.057,32.83,11.697c7.042,6.526,13.471,17.206,13.72,31.203
			c0.349,19.867-11.768,34.069-24.803,40.229c-18.003,8.514-37.57,2.914-48.905-7.451c-10.535-9.626-18.432-29.269-10.941-48.263
			c2.987-7.576,7.738-13.724,13.89-18.537C141.037,28.709,149.481,25.167,159.444,24.374z M130.767,40.566
			c-6.184,6.73-11.377,17.472-10.131,30.991c1.146,12.474,6.379,20.91,13.912,27.789c7.195,6.578,18.506,11.238,30.993,10.138
			c12.448-1.102,20.759-6.352,27.795-13.918c6.475-6.965,11.719-17.474,10.584-30.996c-1.019-12.091-7.075-21.459-13.914-27.795
			c-6.766-6.265-18.307-11.496-31.224-10.353C145.709,27.576,137.277,33.477,130.767,40.566z"/>
		<path fill="#FFFFFF" d="M186.863,39.989c-4.357,0.209-7.248,3.775-6.044,8.923c1.35,5.767,6.625,9.289,6.759,16.735
			c0.175,9.97-5.253,15.504-6.331,24.822c-4.797-13.307-9.454-26.763-14.04-40.287c2.886-0.12,5.472,0.158,5.658-1.644
			c0.276-2.613-3.646-1.463-6.6-1.296c-6.167,0.345-16.091-1.168-16.571,0.849c-0.625,2.648,2.837,2.139,5.247,2.216
			c1.431,4.075,3.094,7.864,4.663,11.992c0.492,1.296,1.381,3.05,1.408,4.074c0.044,1.637-1.335,4.151-1.982,6.153
			c-1.977,6.096-3.709,12.662-6.174,18.233c-4.443-13.593-9.345-26.717-13.811-40.288c2.505-0.15,5.679,0.269,5.657-1.877
			c-0.031-3.238-9.906-0.074-13.636-0.995c-0.202-1.261,1.095-2.109,1.786-2.967c5.453-6.821,14.186-13.14,25.295-14.117
			C170.871,29.394,180.714,34.008,186.863,39.989z"/>
		<path fill="#FFFFFF" d="M162.655,71.58c4.627,9.966,7.877,21.332,12.358,31.445c-5.514,2.916-16.333,3.079-22.925,1.145
			C155.327,93.028,159.324,82.631,162.655,71.58z"/>
		<path fill="#FFFFFF" d="M194.909,49.67c2.254,4.309,4.22,8.84,4.691,14.493c1.459,17.513-7.641,29.174-17.803,35.84
			c-0.191-0.039-0.214,0.095-0.225,0.232c-0.332-0.101,0.024-0.202-0.005-0.458c3.579-10.802,6.968-21.122,10.798-32.137
			C194.268,62.186,195.902,56.983,194.909,49.67z"/>
		<path fill="#FFFFFF" d="M127.946,53.311c5.893,16.319,11.998,32.422,18.212,48.42c-0.096,0.329-0.201-0.021-0.459,0.003
			c-11.627-6.227-22.185-17.918-21.04-36.578C124.931,60.733,126.02,56.596,127.946,53.311z"/>
	</g>
</g>
<g id="JS_1_" display="inline">
	<path fill="#EED039" d="M161.059,205.45l117.352,93.698c28.645-36.218,38.854-82.748,28.573-126.689L161.059,205.45z"/>
	<g id="JS">
		<path fill-rule="evenodd" clip-rule="evenodd" fill="#FFFFFF" d="M279.715,234.991c-0.64-2.443-1.268-4.842-1.892-7.202
			c0.907-0.385,1.795-0.684,2.605-1.125c3.127-1.692,4.474-4.435,4.405-7.897c-0.026-1.398-0.599-2.617-1.912-3.299
			c-1.142-0.595-2.364-0.704-3.471,0.01c-0.778,0.505-1.509,1.14-2.13,1.835c-1.176,1.323-2.229,2.765-3.403,4.098
			c-1.035,1.184-2.087,2.366-3.261,3.404c-3.125,2.752-6.734,3.428-10.71,2.256c-4.694-1.39-7.577-5.305-7.474-10.29
			c0.069-3.286,1.017-6.32,3.04-8.947c1.656-2.151,3.945-3.329,6.528-3.997c0.035-0.009,0.077,0.003,0.152,0.007
			c0.725,2.313,1.446,4.637,2.185,6.989c-0.365,0.117-0.696,0.215-1.02,0.329c-1.268,0.434-2.369,1.101-3.047,2.315
			c-0.479,0.857-0.771,1.774-0.749,2.771c0.053,3.121,3.424,4.039,5.143,2.961c0.664-0.415,1.296-0.933,1.816-1.517
			c1.092-1.223,2.103-2.522,3.143-3.79c1.488-1.816,3.042-3.564,4.961-4.949c2.69-1.945,5.65-2.453,8.861-1.703
			c2.113,0.487,4.031,1.343,5.59,2.896c1.897,1.894,2.864,4.243,2.992,6.879c0.26,5.464-1.365,10.287-5.238,14.228
			C284.893,233.223,282.491,234.406,279.715,234.991z"/>
		<path fill-rule="evenodd" clip-rule="evenodd" fill="#FFFFFF" d="M273.316,261.957c-0.702-2.474-1.406-4.947-2.115-7.457
			c0.483-0.134,0.933-0.252,1.379-0.381c0.941-0.278,1.876-0.604,2.62-1.273c1.471-1.326,1.914-3.033,1.563-4.923
			c-0.217-1.181-1.149-1.845-2.187-2.309c-0.653-0.291-1.334-0.526-2.024-0.715c-8.599-2.375-17.201-4.735-25.804-7.096
			c-0.195-0.053-0.395-0.109-0.627-0.175c0.719-2.623,1.433-5.218,2.161-7.864c0.151,0.035,0.309,0.065,0.463,0.109
			c8.694,2.386,17.39,4.773,26.085,7.16c1.787,0.49,3.506,1.133,5.056,2.188c2.773,1.887,4.329,4.497,4.469,7.843
			c0.171,3.921-0.882,7.512-3.36,10.598c-1.907,2.382-4.469,3.701-7.437,4.276C273.493,261.949,273.424,261.949,273.316,261.957z"/>
	</g>
</g>
<g id="HTML" display="inline">
	<path fill="#E24E26" d="M250.833,20.333l-89.815,185.369l200.921-45.787C347.087,95.881,305.337,46.132,250.833,20.333z"/>
	<g>
		<path fill="#FFFFFF" d="M259.443,63.008l-4.732-20.76l1.197-0.84l17.986,11.461l-2.04,1.431l-13.977-8.827l3.636,16.084
			L259.443,63.008z"/>
		<path fill="#FFFFFF" d="M272.45,64.922l-5.172,3.629c-0.853,0.599-1.354,1.021-1.5,1.265c-0.148,0.243-0.205,0.559-0.172,0.947
			c0.032,0.386,0.213,0.815,0.541,1.282l0.389,0.555l-0.455,0.32l-6.127-8.731l0.457-0.32l0.389,0.556
			c0.34,0.483,0.699,0.813,1.08,0.988c0.265,0.133,0.576,0.159,0.936,0.077c0.261-0.048,0.808-0.366,1.645-0.953l10.985-7.707
			c0.853-0.598,1.356-1.018,1.506-1.258c0.151-0.24,0.209-0.554,0.176-0.941c-0.034-0.387-0.215-0.815-0.543-1.282l-0.389-0.556
			l0.456-0.32l6.125,8.731l-0.455,0.32l-0.389-0.555c-0.34-0.484-0.699-0.813-1.08-0.988c-0.265-0.133-0.579-0.164-0.946-0.091
			c-0.259,0.048-0.808,0.366-1.645,0.953l-4.729,3.318l4.139,5.899l4.729-3.318c0.853-0.599,1.355-1.018,1.506-1.258
			c0.149-0.24,0.207-0.555,0.171-0.948c-0.036-0.391-0.217-0.821-0.547-1.288l-0.379-0.542l0.454-0.32l6.117,8.717l-0.455,0.32
			l-0.381-0.542c-0.346-0.492-0.705-0.822-1.08-0.988c-0.265-0.133-0.579-0.164-0.944-0.09c-0.261,0.048-0.81,0.365-1.647,0.953
			l-10.983,7.707c-0.855,0.599-1.356,1.018-1.506,1.258c-0.151,0.24-0.207,0.557-0.173,0.949c0.036,0.39,0.219,0.821,0.547,1.288
			l0.381,0.542l-0.457,0.32l-6.117-8.718l0.454-0.32l0.381,0.542c0.346,0.492,0.705,0.822,1.08,0.989
			c0.265,0.132,0.579,0.163,0.946,0.09c0.259-0.048,0.808-0.366,1.645-0.953l5.172-3.629L272.45,64.922z"/>
		<path fill="#FFFFFF" d="M301.207,87.468l-4.519,3.171l-0.312-0.443c0.858-0.994,1.404-1.812,1.634-2.451
			c0.231-0.639,0.287-1.334,0.166-2.082c-0.072-0.415-0.381-1.013-0.928-1.794l-0.873-1.243l-12.879,9.038
			c-0.855,0.599-1.356,1.02-1.502,1.264c-0.147,0.244-0.205,0.56-0.171,0.948c0.032,0.386,0.215,0.819,0.549,1.295l0.389,0.554
			l-0.455,0.32l-6.135-8.742l0.457-0.32l0.387,0.554c0.342,0.484,0.7,0.814,1.08,0.988c0.265,0.133,0.579,0.163,0.946,0.09
			c0.259-0.048,0.808-0.366,1.645-0.953l12.881-9.038l-0.847-1.206c-0.79-1.125-1.599-1.774-2.433-1.948
			c-1.166-0.248-2.432-0.034-3.796,0.641l-0.328-0.467l4.519-3.171L301.207,87.468z"/>
		<path fill="#FFFFFF" d="M299.27,108.122l14.189-3.193l4.768,6.797l-0.455,0.32l-0.381-0.542c-0.346-0.493-0.707-0.827-1.088-1.002
			c-0.259-0.124-0.568-0.153-0.925-0.086c-0.261,0.048-0.806,0.363-1.633,0.945l-11.01,7.724c-0.853,0.599-1.356,1.018-1.504,1.258
			c-0.151,0.24-0.209,0.556-0.173,0.948c0.036,0.39,0.219,0.822,0.547,1.289l0.379,0.542l-0.454,0.32l-6.117-8.719l0.455-0.32
			l0.381,0.542c0.346,0.493,0.707,0.827,1.088,1.001c0.259,0.124,0.572,0.15,0.936,0.077c0.261-0.048,0.81-0.366,1.647-0.953
			l12.376-8.684l-19.726,4.285l-0.207-0.295l10.56-17.112l-11.76,8.251c-0.82,0.576-1.311,0.95-1.472,1.123
			c-0.335,0.395-0.507,0.862-0.515,1.4c-0.008,0.538,0.255,1.19,0.792,1.953l-0.457,0.32l-4.008-5.713l0.455-0.32l0.122,0.172
			c0.251,0.375,0.552,0.678,0.903,0.908c0.351,0.232,0.692,0.354,1.02,0.368c0.328,0.015,0.718-0.068,1.166-0.249
			c0.103-0.047,0.527-0.332,1.275-0.856l10.565-7.413c0.845-0.593,1.34-1.008,1.487-1.246c0.147-0.238,0.201-0.551,0.165-0.943
			c-0.036-0.391-0.217-0.821-0.545-1.289l-0.371-0.529l0.455-0.32l4.786,6.821L299.27,108.122z"/>
		<path fill="#FFFFFF" d="M318.884,135.707l-6.302,3.484l-10.404-14.826l0.457-0.32l0.387,0.555c0.341,0.484,0.701,0.814,1.08,0.988
			c0.265,0.134,0.577,0.16,0.938,0.078c0.259-0.048,0.808-0.366,1.645-0.953l10.985-7.708c0.853-0.599,1.356-1.018,1.506-1.258
			c0.148-0.239,0.207-0.553,0.174-0.94c-0.032-0.387-0.213-0.815-0.541-1.283l-0.389-0.555l0.455-0.32l6.247,8.903l-0.455,0.32
			l-0.511-0.727c-0.34-0.484-0.7-0.813-1.078-0.989c-0.267-0.132-0.581-0.163-0.946-0.09c-0.261,0.049-0.81,0.366-1.647,0.954
			l-10.639,7.465c-0.853,0.598-1.361,1.03-1.527,1.292c-0.164,0.264-0.205,0.579-0.118,0.946c0.07,0.257,0.383,0.78,0.936,1.568
			l0.975,1.391c0.622,0.887,1.297,1.516,2.024,1.888c0.725,0.372,1.576,0.538,2.553,0.495c0.976-0.04,2.255-0.329,3.839-0.865
			L318.884,135.707z"/>
		<path fill="#FFFFFF" d="M328.741,131.036l4.745,20.749l-1.21,0.85l-17.986-11.46l2.053-1.44l13.962,8.836l-3.634-16.083
			L328.741,131.036z"/>
	</g>
</g>
<g id="CSS" display="inline">
	<path fill="#2277FF" d="M161.018,205.702L2.964,332.186c38.002,47.242,95.389,75.789,157.536,75.436L161.018,205.702z"/>
	<g>
		<path fill="#FFFFFF" d="M67.356,359.927c-1.719-0.033-5.412-0.873-9.558-2.973c-11.93-6.041-14.289-16.627-9.287-26.508
			c5.963-11.775,17.65-14.027,28.098-8.738c4.043,2.047,6.701,4.422,7.721,5.838l-4.75,5.315c-1.197-1.443-3.09-3.172-5.904-4.598
			c-6.145-3.111-12.85-1.81-16.764,5.922c-3.5,6.912-1.605,13.338,5.305,16.836c2.406,1.219,5.201,2.055,7.125,2.193L67.356,359.927
			z"/>
		<path fill="#FFFFFF" d="M76.362,355.61c1.504,2.111,4.236,4.846,7.565,6.531c3.584,1.815,6.23,1.289,7.396-1.016
			c1.064-2.1,0.072-4.209-3.35-7.742c-4.697-4.951-6.877-10.043-4.31-15.111c2.98-5.889,10.201-7.828,18.291-3.732
			c3.941,1.996,6.369,4.189,7.926,6.199l-4.904,5.365c-0.994-1.34-3.012-3.584-6.34-5.268c-3.377-1.711-5.82-0.955-6.701,0.787
			c-1.115,2.201,0.287,4.133,3.912,8.156c4.951,5.336,6.16,9.938,3.672,14.852c-2.93,5.785-9.82,8.473-19.293,3.676
			c-3.941-1.994-7.289-5.041-8.689-7.1L76.362,355.61z"/>
		<path fill="#FFFFFF" d="M104.013,369.608c1.504,2.113,4.236,4.848,7.564,6.531c3.584,1.814,6.23,1.289,7.396-1.014
			c1.063-2.1,0.072-4.209-3.35-7.742c-4.697-4.951-6.879-10.045-4.313-15.113c2.98-5.889,10.203-7.828,18.293-3.732
			c3.941,1.996,6.369,4.189,7.926,6.199l-4.904,5.365c-0.994-1.34-3.012-3.582-6.34-5.268c-3.379-1.711-5.82-0.953-6.703,0.787
			c-1.113,2.201,0.289,4.135,3.912,8.156c4.953,5.338,6.162,9.938,3.674,14.853c-2.93,5.785-9.82,8.471-19.293,3.676
			c-3.941-1.996-7.289-5.041-8.689-7.102L104.013,369.608z"/>
	</g>
</g>
</svg>
