<?xml version="1.0" encoding="utf-8"?>
<!-- Generator: Adobe Illustrator 16.0.0, SVG Export Plug-In . SVG Version: 6.00 Build 0)  -->
<!DOCTYPE svg PUBLIC "-//W3C//DTD SVG 1.1//EN" "http://www.w3.org/Graphics/SVG/1.1/DTD/svg11.dtd">
<svg version="1.1" xmlns="http://www.w3.org/2000/svg" xmlns:xlink="http://www.w3.org/1999/xlink" x="0px" y="0px" width="100%"
	 height="100%" viewBox="0 0 362 264" enable-background="new 0 0 362 264" xml:space="preserve">

<g id="topCenter">
	<g id="center-IS">
		<g id="Top-Mini-Divider-2">
			
				<line fill="none" stroke="#009BD0" stroke-width="3" stroke-miterlimit="10" x1="220.312" y1="130.915" x2="266.312" y2="130.915"/>
			
				<line fill="none" stroke="#009BD0" stroke-width="3" stroke-miterlimit="10" x1="297.229" y1="130.915" x2="343.229" y2="130.915"/>
			<circle fill="#009BD0" cx="282.187" cy="131.915" r="10"/>
		</g>
		<g>
			<path fill="#009BD0" d="M175.829,150.192c-1.113,1.021-2.498,2.11-4.151,3.271c-1.655,1.16-3.44,2.227-5.358,3.201
				c-1.918,0.973-3.873,1.785-5.867,2.435c-1.995,0.649-3.89,0.974-5.683,0.974c-1.608,0-2.962-0.224-4.059-0.672
				c-1.099-0.448-1.987-1.074-2.667-1.879c-0.682-0.804-1.168-1.785-1.462-2.945s-0.44-2.436-0.44-3.827
				c0-1.948,0.225-4.214,0.673-6.796s0.997-5.257,1.646-8.025c0.649-2.767,1.337-5.526,2.064-8.279
				c0.726-2.752,1.368-5.288,1.925-7.607c0.216-0.804,0.649-1.492,1.299-2.064s1.384-1.036,2.203-1.392s1.67-0.619,2.552-0.789
				c0.881-0.169,1.677-0.255,2.389-0.255c1.299,0,2.181,0.24,2.644,0.719c0.465,0.48,0.696,1.122,0.696,1.925
				c0,0.681-0.155,1.663-0.464,2.945c-0.31,1.283-0.695,2.736-1.16,4.361c-0.463,1.623-0.959,3.37-1.484,5.24
				c-0.525,1.872-1.02,3.742-1.484,5.613c-0.463,1.871-0.851,3.695-1.159,5.475c-0.31,1.777-0.464,3.379-0.464,4.801
				c0,1.391,0.154,2.497,0.464,3.316c0.309,0.819,0.942,1.229,1.901,1.229c1.113,0,2.35-0.386,3.711-1.159
				c1.361-0.772,2.737-1.708,4.129-2.806s2.752-2.234,4.082-3.41c1.329-1.175,2.505-2.18,3.525-3.016V150.192z M155.095,102.507
				c0-0.711,0.154-1.515,0.463-2.412c0.309-0.896,0.813-1.74,1.508-2.528c0.696-0.789,1.624-1.454,2.783-1.995
				c1.16-0.541,2.605-0.812,4.338-0.812c1.082,0,2.102,0.124,3.061,0.371c0.959,0.248,1.793,0.626,2.506,1.137
				c0.711,0.51,1.275,1.183,1.692,2.018c0.418,0.835,0.626,1.825,0.626,2.969c0,1.052-0.17,2.072-0.51,3.062
				c-0.341,0.99-0.881,1.872-1.623,2.644c-0.742,0.773-1.678,1.399-2.807,1.878c-1.129,0.48-2.482,0.719-4.059,0.719
				c-2.723,0-4.732-0.642-6.031-1.925C155.743,106.35,155.095,104.641,155.095,102.507z"/>
			<path fill="#009BD0" d="M171.052,142.26c1.73-1.484,3.138-2.721,4.221-3.711c1.082-0.988,2.01-1.894,2.783-2.713
				c0.772-0.819,1.477-1.646,2.111-2.482c0.633-0.834,1.383-1.824,2.249-2.969c0.865-1.143,1.917-2.543,3.154-4.197
				c1.236-1.654,2.845-3.719,4.824-6.193c0.401-0.557,0.851-1.097,1.345-1.624c0.494-0.525,1.045-0.998,1.646-1.415
				c0.604-0.418,1.269-0.758,1.996-1.021c0.726-0.263,1.537-0.395,2.435-0.395c1.484,0,2.628,0.162,3.433,0.487
				c0.804,0.324,1.392,0.719,1.763,1.183s0.587,0.951,0.649,1.461c0.062,0.511,0.093,0.951,0.093,1.322
				c0,0.742-0.294,1.562-0.882,2.458c-0.588,0.897-1.236,1.763-1.947,2.598c-0.713,0.835-1.385,1.6-2.018,2.297
				c-0.635,0.695-0.998,1.213-1.091,1.553c0,0.959,0.069,1.832,0.208,2.621c0.141,0.789,0.326,1.563,0.557,2.32
				c0.232,0.758,0.472,1.561,0.72,2.412c0.247,0.85,0.487,1.832,0.72,2.945c0.23,1.113,0.416,2.396,0.557,3.85
				c0.139,1.454,0.208,3.17,0.208,5.148c1.113-0.742,2.312-1.414,3.595-2.018s2.621-1.229,4.013-1.879
				c1.392-0.648,2.821-1.367,4.29-2.156s2.946-1.74,4.431-2.854l0.046,10.391c-1.918,1.484-4.136,2.877-6.656,4.176
				s-5.164,2.443-7.932,3.432c-2.768,0.99-5.566,1.771-8.396,2.344c-2.83,0.571-5.513,0.857-8.048,0.857
				c-1.825,0-3.525-0.17-5.103-0.51s-2.961-0.874-4.152-1.602c-1.189-0.726-2.156-1.676-2.898-2.852s-1.191-2.598-1.346-4.268
				c-0.434,0.092-0.857,0.154-1.275,0.186s-0.828,0.046-1.229,0.046c-0.496,0-0.959-0.015-1.393-0.046s-0.805-0.146-1.113-0.348
				s-0.557-0.526-0.742-0.975s-0.277-1.09-0.277-1.926c0-0.742,0.186-1.43,0.557-2.064c0.371-0.633,0.803-1.197,1.299-1.692
				c0.494-0.494,0.988-0.928,1.484-1.299C170.433,142.771,170.804,142.477,171.052,142.26z M176.989,148.197
				c0.371,0,0.78,0.232,1.229,0.696s0.967,0.974,1.555,1.53c0.586,0.557,1.268,1.067,2.041,1.531
				c0.771,0.464,1.653,0.695,2.644,0.695c1.206,0,2.204-0.2,2.991-0.603c0.789-0.401,1.416-0.935,1.879-1.601
				c0.465-0.664,0.789-1.438,0.975-2.318c0.186-0.883,0.278-1.802,0.278-2.761c0-0.835-0.054-1.685-0.163-2.552
				c-0.107-0.865-0.247-1.693-0.416-2.48c-0.171-0.789-0.356-1.531-0.557-2.227c-0.202-0.697-0.38-1.291-0.534-1.787
				L176.989,148.197z"/>
		</g>
		<g id="Top-Mini-Divider-1">
			
				<line fill="none" stroke="#009BD0" stroke-width="3" stroke-miterlimit="10" x1="18.771" y1="129.915" x2="64.771" y2="129.915"/>
			
				<line fill="none" stroke="#009BD0" stroke-width="3" stroke-miterlimit="10" x1="95.688" y1="129.915" x2="141.688" y2="129.915"/>
			<circle fill="#009BD0" cx="80.646" cy="130.915" r="10"/>
		</g>
	</g>
</g>

</svg>