<?xml version="1.0" encoding="utf-8"?>
<!-- Generator: Adobe Illustrator 16.0.0, SVG Export Plug-In . SVG Version: 6.00 Build 0)  -->
<!DOCTYPE svg PUBLIC "-//W3C//DTD SVG 1.1//EN" "http://www.w3.org/Graphics/SVG/1.1/DTD/svg11.dtd">
<svg version="1.1" xmlns="http://www.w3.org/2000/svg" xmlns:xlink="http://www.w3.org/1999/xlink" x="0px" y="0px" width="100%"
	 height="100%" viewBox="0 0 362 264" enable-background="new 0 0 362 264" xml:space="preserve">
<g id="topLeft_1_" display="none">
	<g id="topLeft" display="inline">
		<g>
			<path fill="#009BD0" d="M65.983,185.041c4.465,1.271,8.631,2.287,12.497,3.05c3.866,0.763,7.215,1.144,10.046,1.144
				c2.469,0,4.402-0.518,5.799-1.553c1.398-1.034,2.096-2.749,2.096-5.145c0-0.908-0.263-1.996-0.79-3.268
				c-0.526-1.271-1.352-2.723-2.478-4.355c-1.125-1.635-2.577-3.459-4.356-5.473c-1.778-2.016-3.902-4.256-6.371-6.725
				c0.218-0.109,0.727-0.327,1.525-0.654c0.69-0.29,1.734-0.698,3.131-1.225c1.398-0.525,3.313-1.262,5.745-2.205
				c2.868,2.723,5.391,5.454,7.569,8.194c2.178,2.741,4.002,5.409,5.472,8.005c1.47,2.596,2.577,5.082,3.322,7.459
				c0.744,2.379,1.116,4.566,1.116,6.563c0,2.287-0.427,4.41-1.28,6.37c-0.853,1.96-2.096,3.657-3.729,5.091
				c-1.634,1.436-3.639,2.569-6.017,3.404c-2.377,0.835-5.091,1.252-8.141,1.252c-1.052,0-2.377-0.109-3.975-0.326
				c-1.597-0.219-3.412-0.535-5.445-0.953c-2.033-0.418-4.256-0.926-6.67-1.525c-2.414-0.599-4.964-1.261-7.65-1.987
				c0.509,4.865,0.98,9.529,1.416,13.994c0.436,4.466,0.854,8.912,1.252,13.341c3.049,1.017,6.036,2.023,8.958,3.021
				c2.922,1,5.663,1.961,8.222,2.887c2.559,0.926,4.9,1.779,7.024,2.559c2.124,0.781,3.93,1.443,5.418,1.988
				c3.848,1.779,6.571,3.512,8.168,5.199c1.597,1.688,2.396,3.205,2.396,4.547c0,0.871-0.146,1.725-0.436,2.56
				s-0.708,1.579-1.252,2.232c-0.545,0.653-1.198,1.171-1.96,1.552s-1.615,0.572-2.559,0.572c-0.581,0-1.144-0.072-1.688-0.219
				c-5.554-1.523-10.918-3.186-16.091-4.982s-10.209-3.62-15.11-5.472c0,1.997-0.154,3.912-0.462,5.745
				c-0.308,1.833-0.844,3.53-1.606,5.091c-0.762,1.562-1.815,2.95-3.158,4.165c-1.343,1.217-3.049,2.225-5.119,3.022
				c-0.653,0.146-1.233,0.264-1.742,0.354c-0.508,0.09-1.016,0.136-1.525,0.136c-1.597,0-2.396-0.563-2.396-1.688
				c0-0.689,0.373-1.451,1.116-2.287c0.744-0.834,1.933-1.905,3.566-3.213c-0.072-1.705-0.127-3.411-0.164-5.117
				c-0.036-1.707-0.054-3.54-0.054-5.5v-5.228c-3.376-1.307-6.634-2.55-9.774-3.729c-3.14-1.18-6.216-2.277-9.229-3.295
				c-1.924-0.617-3.848-1.107-5.772-1.471c-1.924-0.361-3.757-0.544-5.5-0.544c-1.416,0-2.723,0.128-3.921,0.382
				c-1.198,0.254-2.214,0.672-3.049,1.252c-0.834,0.581-1.488,1.325-1.96,2.232c-0.472,0.908-0.708,2.033-0.708,3.376
				c0,1.089,0.182,2.351,0.544,3.784c0.363,1.435,0.953,3.022,1.77,4.765c0.816,1.743,1.888,3.64,3.212,5.69
				c1.326,2.051,2.968,4.274,4.928,6.67c0.69,0.836,1.18,1.606,1.47,2.314c0.291,0.708,0.436,1.353,0.436,1.934
				c0,0.291-0.48,0.508-1.443,0.652c-0.961,0.146-2.151,0.219-3.566,0.219c-1.887,0-3.684-0.445-5.391-1.334
				c-1.706-0.89-3.276-2.078-4.71-3.566c-1.434-1.488-2.74-3.204-3.92-5.146c-1.179-1.941-2.178-3.938-2.995-5.99
				c-0.817-2.05-1.443-4.092-1.879-6.125c-0.436-2.033-0.653-3.902-0.653-5.609c0-2.54,0.346-4.973,1.035-7.296
				c0.69-2.323,1.797-4.364,3.322-6.126c1.524-1.76,3.503-3.158,5.935-4.192c2.433-1.034,5.391-1.552,8.875-1.552
				c1.634,0,3.63,0.19,5.99,0.571c2.36,0.382,4.947,0.898,7.759,1.552c2.813,0.654,5.809,1.426,8.984,2.314
				c3.177,0.891,6.417,1.843,9.72,2.859c-0.253-3.739-0.508-7.951-0.762-12.633c-0.253-4.684-0.508-9.385-0.762-14.104
				c-6.062-1.852-12.333-3.893-18.813-6.126c-6.48-2.232-12.841-4.601-19.085-7.106c-2.069-0.834-3.721-1.932-4.955-3.293
				c-1.234-1.361-1.852-2.969-1.852-4.82c0-0.762,0.109-1.496,0.327-2.205c0.218-0.707,0.554-1.334,1.007-1.878
				c0.454-0.545,1.034-0.971,1.742-1.28c0.708-0.308,1.534-0.463,2.478-0.463c0.835,0,1.806,0.055,2.913,0.164
				c1.108,0.109,2.296,0.4,3.567,0.871c2.251,0.836,4.655,1.725,7.215,2.668c2.559,0.944,5.191,1.897,7.896,2.859
				c2.705,0.962,5.472,1.924,8.304,2.885c2.832,0.963,5.645,1.879,8.44,2.75c-0.145-2.287-0.281-4.283-0.408-5.989
				c-0.127-1.706-0.227-2.995-0.3-3.866c-0.036-0.398-0.063-0.771-0.082-1.116c-0.018-0.345-0.027-0.661-0.027-0.952
				c0-1.09,0.109-1.969,0.327-2.642c0.218-0.671,0.527-1.198,0.926-1.579c0.4-0.381,0.871-0.645,1.416-0.789
				c0.544-0.145,1.162-0.219,1.851-0.219c0.762,0,1.398,0.164,1.906,0.49c0.509,0.327,0.917,0.735,1.225,1.226
				c0.309,0.49,0.527,1.007,0.654,1.552c0.127,0.545,0.209,1.053,0.245,1.525c0.109,1.016,0.191,1.742,0.245,2.178
				c0.055,0.436,0.091,0.744,0.109,0.926c0.019,0.182,0.037,0.299,0.055,0.354c0.019,0.055,0.037,0.19,0.054,0.408
				c0.019,0.218,0.046,0.6,0.082,1.144c0.037,0.544,0.109,1.38,0.218,2.505c0.146,1.307,0.272,2.586,0.381,3.839
				S65.875,183.808,65.983,185.041z"/>
			<path fill="#009BD0" d="M106.822,142.623c0,3.413-0.617,6.398-1.852,8.958c-1.233,2.56-2.894,4.692-4.982,6.397
				c-2.087,1.707-4.501,2.986-7.242,3.84c-2.741,0.854-5.617,1.279-8.631,1.279c-2.032,0-4.183-0.199-6.452-0.6
				c-2.269-0.398-4.492-1.007-6.67-1.824c-2.178-0.816-4.256-1.842-6.235-3.076c-1.978-1.233-3.72-2.676-5.227-4.328
				c-1.506-1.652-2.704-3.504-3.594-5.555c-0.889-2.051-1.334-4.329-1.334-6.834c0-2.032,0.327-3.92,0.98-5.662
				c0.653-1.743,1.57-3.258,2.75-4.547c1.18-1.288,2.605-2.295,4.274-3.022c1.67-0.726,3.54-1.089,5.609-1.089
				c2.251,0,4.501,0.554,6.752,1.661c2.251,1.108,4.375,2.641,6.371,4.601c1.997,1.961,3.776,4.293,5.336,6.997
				c1.561,2.704,2.777,5.636,3.648,8.794c0.98-0.545,1.797-1.08,2.451-1.606c0.653-0.526,1.162-1.062,1.524-1.606
				c0.363-0.545,0.618-1.116,0.762-1.715c0.146-0.6,0.218-1.243,0.218-1.934c0-2.178-0.436-4.473-1.307-6.888
				c-0.871-2.414-1.96-4.765-3.267-7.051c-1.307-2.287-2.731-4.446-4.274-6.48c-1.542-2.033-3.003-3.757-4.383-5.173l7.296-7.024
				c3.304,3.195,6.226,6.589,8.767,10.183c1.089,1.561,2.16,3.24,3.213,5.037c1.053,1.797,1.987,3.685,2.804,5.663
				c0.817,1.979,1.47,4.029,1.96,6.153C106.577,138.295,106.822,140.445,106.822,142.623z M81.23,149.865
				c0-1.307-0.335-2.73-1.007-4.273c-0.671-1.543-1.533-2.977-2.586-4.303c-1.052-1.324-2.196-2.44-3.431-3.348
				c-1.233-0.908-2.432-1.361-3.594-1.361c-1.633,0-2.976,0.299-4.029,0.898c-1.052,0.598-1.579,1.334-1.579,2.205
				c0,1.561,0.291,2.895,0.871,4.002c0.581,1.107,1.334,2.033,2.26,2.777s1.979,1.343,3.158,1.797
				c1.18,0.454,2.369,0.799,3.567,1.034c1.198,0.236,2.36,0.391,3.485,0.463C79.47,149.83,80.432,149.865,81.23,149.865z"/>
			<path fill="#009BD0" d="M106.822,106.032c0,1.96-0.862,3.784-2.586,5.472c-1.724,1.688-4.038,3.158-6.942,4.411
				c-2.904,1.252-6.271,2.232-10.101,2.94c-3.83,0.708-7.85,1.062-12.061,1.062c-3.23,0-6.743-0.235-10.536-0.708
				c-3.793-0.472-7.705-1.162-11.734-2.069c-4.029-0.907-8.077-1.987-12.143-3.24c-4.065-1.252-7.968-2.668-11.708-4.248
				c-3.738-1.579-7.232-3.294-10.482-5.146c-3.248-1.851-6.08-3.793-8.494-5.826c-2.414-2.033-4.31-4.156-5.69-6.371
				c-1.379-2.214-2.069-4.465-2.069-6.752c0-1.56,0.354-2.849,1.062-3.866c0.708-1.016,1.643-1.815,2.804-2.396
				c1.163-0.581,2.478-0.989,3.948-1.225c1.47-0.236,2.968-0.354,4.492-0.354c3.413,0,6.888,0.391,10.428,1.17
				c3.54,0.781,7.097,1.833,10.672,3.158c3.576,1.326,7.161,2.859,10.754,4.602c3.594,1.742,7.16,3.558,10.7,5.445
				c3.539,1.888,7.024,3.785,10.455,5.69c3.431,1.906,6.779,3.694,10.046,5.363c0.363,0.182,0.835,0.373,1.416,0.572
				c0.582,0.2,1.208,0.391,1.879,0.572c0.672,0.182,1.388,0.363,2.151,0.544c0.762,0.182,1.507,0.327,2.232,0.436h0.762
				c0.944,0,1.861-0.1,2.75-0.299c0.89-0.199,1.688-0.444,2.396-0.735c0.708-0.291,1.271-0.599,1.688-0.926
				c0.418-0.327,0.626-0.635,0.626-0.926c0-0.689-0.145-1.479-0.436-2.369c-0.29-0.889-0.681-1.833-1.171-2.832
				c-0.49-0.998-1.052-2.023-1.688-3.077c-0.635-1.052-1.28-2.069-1.933-3.049c-1.524-2.287-3.285-4.683-5.282-7.188l11.435-4.465
				c2.323,3.231,4.393,6.425,6.208,9.583c0.762,1.38,1.516,2.804,2.26,4.274c0.744,1.47,1.407,2.95,1.987,4.438
				c0.581,1.489,1.044,2.94,1.389,4.356C106.65,103.473,106.822,104.798,106.822,106.032z M63.261,105.978
				c-2.904-1.633-6.171-3.367-9.802-5.2c-3.629-1.833-7.369-3.566-11.217-5.2c-3.847-1.633-7.686-3.049-11.517-4.247
				c-3.83-1.198-7.396-1.96-10.7-2.287c-1.052,0-1.951,0.027-2.695,0.082c-0.744,0.054-1.116,0.227-1.116,0.517
				c0,1.053,0.681,2.188,2.042,3.403c1.361,1.217,3.204,2.432,5.527,3.648c2.323,1.217,5.028,2.378,8.113,3.485
				c3.086,1.107,6.371,2.096,9.855,2.967s7.07,1.562,10.754,2.069C56.191,105.724,59.776,105.978,63.261,105.978z"/>
			<path fill="#009BD0" d="M106.822,74.723c0,1.96-0.862,3.784-2.586,5.472c-1.724,1.688-4.038,3.158-6.942,4.411
				c-2.904,1.252-6.271,2.232-10.101,2.94c-3.83,0.708-7.85,1.062-12.061,1.062c-3.23,0-6.743-0.235-10.536-0.708
				c-3.793-0.472-7.705-1.162-11.734-2.069c-4.029-0.907-8.077-1.987-12.143-3.24c-4.065-1.252-7.968-2.668-11.708-4.248
				c-3.738-1.579-7.232-3.294-10.482-5.146c-3.248-1.851-6.08-3.793-8.494-5.826c-2.414-2.033-4.31-4.156-5.69-6.371
				c-1.379-2.214-2.069-4.465-2.069-6.752c0-1.56,0.354-2.849,1.062-3.866c0.708-1.016,1.643-1.815,2.804-2.396
				c1.163-0.581,2.478-0.989,3.948-1.225c1.47-0.236,2.968-0.354,4.492-0.354c3.413,0,6.888,0.391,10.428,1.17
				c3.54,0.781,7.097,1.833,10.672,3.158c3.576,1.326,7.161,2.859,10.754,4.602c3.594,1.742,7.16,3.558,10.7,5.445
				c3.539,1.888,7.024,3.785,10.455,5.69c3.431,1.906,6.779,3.694,10.046,5.363c0.363,0.182,0.835,0.373,1.416,0.572
				c0.582,0.2,1.208,0.391,1.879,0.572c0.672,0.182,1.388,0.363,2.151,0.544c0.762,0.182,1.507,0.327,2.232,0.436h0.762
				c0.944,0,1.861-0.1,2.75-0.299c0.89-0.199,1.688-0.444,2.396-0.735c0.708-0.291,1.271-0.599,1.688-0.926
				c0.418-0.327,0.626-0.635,0.626-0.926c0-0.689-0.145-1.479-0.436-2.369c-0.29-0.889-0.681-1.833-1.171-2.832
				c-0.49-0.998-1.052-2.023-1.688-3.077c-0.635-1.052-1.28-2.069-1.933-3.049c-1.524-2.287-3.285-4.683-5.282-7.188l11.435-4.465
				c2.323,3.231,4.393,6.425,6.208,9.583c0.762,1.38,1.516,2.804,2.26,4.274c0.744,1.47,1.407,2.95,1.987,4.438
				c0.581,1.489,1.044,2.94,1.389,4.356C106.65,72.163,106.822,73.489,106.822,74.723z M63.261,74.668
				c-2.904-1.633-6.171-3.367-9.802-5.2c-3.629-1.833-7.369-3.566-11.217-5.2c-3.847-1.633-7.686-3.049-11.517-4.247
				c-3.83-1.198-7.396-1.96-10.7-2.287c-1.052,0-1.951,0.027-2.695,0.082c-0.744,0.054-1.116,0.227-1.116,0.517
				c0,1.053,0.681,2.188,2.042,3.403c1.361,1.217,3.204,2.432,5.527,3.648c2.323,1.217,5.028,2.378,8.113,3.485
				c3.086,1.107,6.371,2.096,9.855,2.967s7.07,1.562,10.754,2.069C56.191,74.415,59.776,74.668,63.261,74.668z"/>
			<path fill="#009BD0" d="M66.038,22.122c2.105-1.052,4.329-1.842,6.67-2.368c2.341-0.526,4.583-0.79,6.725-0.79
				c2.143,0,4.302,0.236,6.48,0.708c2.178,0.472,4.284,1.153,6.316,2.042c2.034,0.89,3.939,1.979,5.718,3.267
				c1.779,1.289,3.321,2.759,4.628,4.411c1.307,1.652,2.341,3.458,3.104,5.418s1.144,4.048,1.144,6.262
				c0,3.195-0.699,5.927-2.096,8.195c-1.397,2.269-3.221,4.13-5.473,5.581c-2.25,1.452-4.792,2.514-7.623,3.186
				c-2.832,0.672-5.699,1.007-8.604,1.007c-3.993,0-7.723-0.599-11.19-1.797c-3.466-1.198-6.479-2.913-9.039-5.146
				c-2.56-2.233-4.574-4.964-6.044-8.195c-1.47-3.23-2.205-6.861-2.205-10.89c0-3.448,0.536-6.679,1.606-9.692
				c1.071-3.013,2.504-5.835,4.301-8.467c1.797-2.631,3.858-5.082,6.181-7.351c2.323-2.268,4.719-4.383,7.188-6.343l7.678,1.034
				c-1.307,0.98-2.723,2.306-4.248,3.975c-1.524,1.67-3.013,3.44-4.465,5.309c-1.452,1.87-2.822,3.712-4.111,5.527
				c-1.288,1.815-2.369,3.376-3.24,4.683L66.038,22.122z M96.368,38.948c0-1.233-0.626-2.432-1.879-3.594
				c-1.252-1.161-2.831-2.178-4.737-3.049c-1.906-0.871-4.01-1.57-6.316-2.096c-2.305-0.526-4.51-0.79-6.616-0.79
				c-1.669,0-3.221,0.127-4.655,0.381c-1.434,0.254-2.677,0.636-3.73,1.144c-1.053,0.509-1.887,1.162-2.505,1.96
				c-0.617,0.799-0.926,1.761-0.926,2.886c0,1.489,0.636,2.905,1.906,4.248c1.271,1.343,2.896,2.523,4.874,3.539
				c1.979,1.017,4.166,1.816,6.562,2.396c2.396,0.581,4.701,0.871,6.915,0.871c1.525,0,2.959-0.145,4.302-0.436
				c1.343-0.29,2.514-0.744,3.512-1.361c0.999-0.617,1.797-1.434,2.396-2.45C96.068,41.58,96.368,40.364,96.368,38.948z"/>
		</g>
		<g>
			<path fill="#009BD0" d="M240.242,190.3h-43.293v-9.119H199c3.037,0,5.127-0.374,6.268-1.114c1.139-0.744,1.783-2.33,1.936-4.762
				c0.303-5.811,0.57-11.484,0.797-17.022c0.229-5.538,0.418-11.784,0.57-18.744c0.15-6.957,0.264-15.027,0.342-24.216
				c0.074-9.185,0.113-20.397,0.113-33.638c0-3.512,0-7.058,0-10.639c0-3.578-0.078-7.327-0.227-11.247
				c-11.393,50.933-20.508,94.431-27.342,130.501h-18.229c-0.608-3.173-1.559-8.056-2.848-14.638
				c-1.292-6.589-2.773-14.036-4.443-22.344c-1.673-8.309-3.496-17.089-5.469-26.344c-1.976-9.252-3.873-18.168-5.696-26.749
				c-1.823-8.578-3.532-16.414-5.126-23.506s-2.848-12.665-3.76-16.718c-0.153,4.189-0.267,8.545-0.342,13.07
				c-0.078,4.528-0.114,8.815-0.114,12.868c0,2.299,0.036,5.876,0.114,10.74c0.075,4.864,0.15,10.303,0.228,16.313
				c0.075,6.013,0.189,12.329,0.342,18.947c0.149,6.621,0.303,12.868,0.456,18.745c0.15,5.877,0.303,11.043,0.456,15.502
				c0.149,4.458,0.302,7.564,0.456,9.321c0.149,2.565,0.833,4.154,2.051,4.763c1.214,0.607,3.19,0.911,5.924,0.911h2.734v9.119
				h-33.722v-9.321h2.051c4.251,0,6.757-0.611,7.519-1.827c0.303-0.678,0.57-1.555,0.797-2.634c0.228-1.087,0.492-3.316,0.798-6.697
				c0.149-3.112,0.263-6.393,0.342-9.838c0.075-3.451,0.188-8.248,0.342-14.403c0.149-6.155,0.263-14.235,0.341-24.244
				c0.075-10.008,0.114-23.196,0.114-39.563c0-12.576-0.079-22.822-0.228-30.735c-0.153-7.909-0.342-14.198-0.569-18.865
				c-0.228-4.667-0.534-8.115-0.912-10.347c-0.381-2.232-0.797-3.888-1.253-4.971c-0.762-1.352-1.559-2.365-2.392-3.043
				c-0.837-0.677-2.546-1.016-5.127-1.016h-1.823V3.667h35.773c0.456,4.189,1.214,9.66,2.278,16.414
				c1.061,6.757,2.279,14.356,3.646,22.797c1.367,8.445,2.884,17.462,4.557,27.053c1.67,9.594,3.454,19.352,5.354,29.282
				c1.898,9.929,3.795,19.827,5.696,29.687c1.898,9.862,3.76,19.185,5.583,27.964c2.278-8.374,4.632-17.256,7.063-26.647
				c2.428-9.388,4.936-20.062,7.52-32.017c2.58-11.956,5.391-25.599,8.43-40.934c3.037-15.331,6.381-33.198,10.025-53.599h29.85
				v9.128h-2.051c-1.822,0-3.344,0.339-4.557,1.016c-1.219,0.678-2.279,2.163-3.191,4.461c-0.607,2.03-1.104,4.227-1.48,6.595
				c-0.381,2.369-0.684,5.883-0.91,10.55c-0.229,4.667-0.383,10.955-0.457,18.868c-0.078,7.913-0.113,18.361-0.113,31.343
				c0,11.228,0,21.034,0,29.418s0.074,15.619,0.229,21.705c0.148,6.086,0.262,11.192,0.342,15.318
				c0.074,4.122,0.188,7.641,0.342,10.55c0.148,2.903,0.301,5.339,0.455,7.302c0.148,1.959,0.377,3.752,0.684,5.376
				c0.303,2.837,1.139,4.528,2.506,5.072c1.367,0.538,3.266,0.811,5.697,0.811h2.506V190.3z"/>
			<path fill="#009BD0" d="M361,12.786h-1.822c-1.822,0-3.305,0.409-4.443,1.219s-2.545,2.84-4.215,6.085
				c-2.584,4.734-5.395,10.246-8.43,16.534c-3.041,6.292-6.152,12.954-9.344,19.986c-3.189,7.035-6.418,14.134-9.684,21.303
				c-3.268,7.168-6.344,13.931-9.227,20.286c0,9.47,0,17.858,0,25.159c0,7.305-0.039,13.764-0.115,19.378
				c-0.078,5.613-0.113,10.515-0.113,14.707c0,4.191,0,7.909,0,11.158c0,5.408,0.684,8.859,2.051,10.348
				c1.367,1.487,3.873,2.231,7.52,2.231h4.102v9.119h-48.988v-9.119h6.152c1.061,0,2.01-0.171,2.848-0.507
				c0.832-0.338,1.555-0.98,2.164-1.925c0.605-0.95,1.1-2.302,1.48-4.06c0.379-1.76,0.721-4.125,1.025-7.102
				c0.15-2.844,0.303-6.256,0.457-10.246c0.148-3.989,0.303-8.754,0.455-14.302c0.148-5.548,0.264-11.937,0.342-19.175
				c0.074-7.235,0.189-15.451,0.342-24.649c-2.129-5.408-4.408-10.987-6.836-16.737c-2.432-5.75-5.166-11.87-8.203-18.361
				c-3.039-6.491-6.344-13.425-9.91-20.796c-3.572-7.371-7.559-15.455-11.963-24.247c-1.217-2.432-2.357-4.088-3.418-4.968
				c-1.064-0.88-2.584-1.32-4.557-1.32h-2.279V3.667h47.395v9.119h-4.102c-4.408,0-6.607,1.286-6.607,3.851
				c0,1.893,2.277,8.105,6.834,18.643c4.559,10.538,11.24,26.277,20.051,47.216c8.809-20.803,15.303-36.507,19.482-47.114
				c4.176-10.604,6.266-16.851,6.266-18.744c0-1.08-0.381-1.992-1.139-2.736c-0.762-0.741-1.977-1.115-3.646-1.115h-5.24V3.667H361
				V12.786z"/>
		</g>
		<g>
			<path fill="#009BD0" d="M163.533,262.969h-22.591v-5.991h1.647c1.489,0,2.43-0.356,2.824-1.067
				c0.235-0.266,0.43-0.69,0.588-1.269c0.156-0.579,0.294-1.778,0.412-3.603s0.215-4.449,0.294-7.876
				c0.077-3.424,0.118-8.163,0.118-14.214c0-4.271-0.041-7.63-0.118-10.076c-0.079-2.446-0.217-4.383-0.412-5.806
				c-0.196-1.423-0.47-2.491-0.823-3.203s-0.806-1.469-1.354-2.271c-1.334-1.868-3.294-2.802-5.883-2.802
				c-1.412,0-2.588,0.312-3.53,0.934c-0.941,0.624-1.727,1.379-2.354,2.27c-0.47,0.711-0.882,1.559-1.235,2.535
				c-0.353,0.98-0.628,2.27-0.823,3.871c-0.197,1.602-0.335,3.629-0.412,6.074c-0.079,2.447-0.118,5.494-0.118,9.141
				c0,5.695,0,10.145,0,13.348c0,3.204,0.019,5.629,0.059,7.275c0.039,1.646,0.077,2.736,0.118,3.27
				c0.039,0.535,0.136,0.979,0.294,1.334c0.235,0.713,0.627,1.248,1.177,1.604c0.548,0.355,1.489,0.532,2.824,0.532h1.177v5.991
				h-22.708v-5.991h1.765c1.568,0,2.627-0.888,3.177-2.669c0.156-0.533,0.294-1.156,0.412-1.868s0.195-2.003,0.235-3.871
				c0.039-1.868,0.077-4.626,0.118-8.274c0.039-3.648,0.059-8.764,0.059-15.35c0-3.559,0-6.451,0-8.676s-0.041-3.959-0.118-5.205
				c-0.079-1.246-0.176-2.159-0.294-2.738c-0.118-0.578-0.294-1-0.53-1.268c-0.471-0.533-0.961-1.001-1.471-1.4
				c-0.511-0.399-1.235-0.602-2.177-0.602h-1.176v-5.99h3.177c1.568,0,2.862,0.111,3.883,0.332c1.019,0.223,1.882,0.6,2.588,1.132
				s1.313,1.198,1.824,1.997c0.509,0.799,1.039,1.73,1.588,2.796c1.568-2.483,3.471-4.394,5.707-5.725
				c2.236-1.331,5.313-1.997,9.236-1.997c3.294,0,6.06,0.624,8.295,1.868c2.235,1.246,4.039,2.848,5.412,4.803
				c1.372,1.958,2.354,4.114,2.942,6.472c0.588,2.359,0.882,4.604,0.882,6.737c0,8.628,0.039,15.39,0.118,20.282
				c0.077,4.893,0.156,8.607,0.235,11.141c0.077,2.535,0.176,4.204,0.294,5.005s0.215,1.333,0.294,1.6
				c0.313,0.979,1.333,1.469,3.059,1.469h1.294V262.969z"/>
			<path fill="#009BD0" d="M214.244,253.782c0,2.842-0.766,5.259-2.295,7.256s-3.785,2.995-6.766,2.995
				c-2.1,0-3.904-0.799-5.418-2.396s-2.736-3.461-3.666-5.592c-1.568,2.486-3.469,4.483-5.703,5.991
				c-2.232,1.509-4.955,2.263-8.17,2.263c-5.644,0-9.857-1.374-12.639-4.127c-2.784-2.75-4.173-6.566-4.173-11.448
				c0-3.372,0.548-6.101,1.647-8.188c1.098-2.085,3.019-4.061,5.766-5.925c2.039-1.508,4.372-2.906,7-4.193
				c2.627-1.285,5.196-2.816,7.708-4.593c1.098-0.799,2.234-1.598,3.412-2.396c1.176-0.799,2.195-1.73,3.059-2.796
				c0-3.814-0.117-6.811-0.354-8.986c-0.234-2.174-0.746-3.881-1.529-5.125c-0.705-1.242-1.529-2.084-2.471-2.529
				c-0.941-0.443-2.314-0.666-4.117-0.666c-1.963,0-3.571,0.399-4.825,1.198c-1.256,0.799-2,1.82-2.236,3.062
				c3.452,1.422,5.178,4.439,5.178,9.053c0,2.486-0.707,4.639-2.118,6.457c-1.412,1.82-3.177,2.729-5.295,2.729
				c-2.276,0-4.118-0.819-5.53-2.463c-1.412-1.642-2.118-4.104-2.118-7.389c0-2.839,0.487-5.392,1.465-7.655
				s2.307-4.193,3.987-5.791c1.681-1.598,3.637-2.816,5.865-3.661c2.228-0.843,4.554-1.265,6.978-1.265
				c2.813,0,5.375,0.399,7.682,1.198c2.305,0.799,4.203,2.176,5.688,4.127c0.938,1.244,1.699,2.663,2.285,4.261
				c0.588,1.598,1.037,3.573,1.35,5.924c0.313,2.353,0.527,5.215,0.646,8.587c0.117,3.374,0.176,7.455,0.176,12.247
				c0,3.818,0,6.88,0,9.187c0,2.31,0.039,4.149,0.117,5.524c0.078,1.377,0.137,2.443,0.178,3.195
				c0.037,0.756,0.135,1.443,0.293,2.064c0.236,1.243,0.549,2.042,0.941,2.396c0.393,0.355,0.824,0.531,1.295,0.531
				c1.332,0,2-1.197,2-3.594v-4.394h4.707V253.782z M194.477,248.856c0-1.598,0-3.415,0-5.458c0-2.041-0.02-4.104-0.059-6.191
				c-0.041-2.084-0.08-4.146-0.117-6.189c-0.041-2.041-0.061-3.861-0.061-5.459c-1.334,2.22-3.02,4.061-5.059,5.525
				c-2.041,1.465-3.961,2.951-5.766,4.459c-1.961,1.688-3.529,3.375-4.706,5.06c-1.176,1.687-1.765,4.173-1.765,7.455
				c0,2.663,0.803,4.815,2.412,6.457c1.606,1.644,3.627,2.463,6.059,2.463c1.412,0,2.627-0.267,3.648-0.799
				c1.018-0.532,1.883-1.198,2.588-1.997c0.707-0.799,1.295-1.664,1.766-2.596S194.24,249.744,194.477,248.856z"/>
			<path fill="#009BD0" d="M291.781,262.969h-21.768v-5.991h0.824c1.488,0,2.43-0.356,2.824-1.067
				c0.234-0.266,0.43-0.69,0.588-1.269c0.156-0.579,0.295-1.778,0.412-3.603s0.215-4.449,0.293-7.876
				c0.078-3.424,0.119-8.163,0.119-14.214c0-4.271-0.041-7.63-0.119-10.076s-0.217-4.383-0.41-5.806
				c-0.197-1.423-0.471-2.491-0.824-3.203s-0.805-1.469-1.354-2.271c-1.334-1.868-3.295-2.802-5.883-2.802
				c-1.412,0-2.609,0.312-3.588,0.934c-0.982,0.624-1.748,1.379-2.295,2.27c-0.785,1.246-1.275,2.848-1.471,4.805
				c-0.197,1.958-0.295,4.938-0.295,8.943c0,7.563,0.039,13.504,0.119,17.818c0.076,4.316,0.156,7.609,0.234,9.877
				c0.078,2.27,0.176,3.781,0.295,4.538c0.117,0.757,0.215,1.267,0.293,1.533c0.313,0.979,1.334,1.469,3.061,1.469h1.293v5.991
				h-20.355v-5.991h0.941c1.49,0,2.432-0.356,2.824-1.067c0.156-0.266,0.313-0.69,0.471-1.269c0.156-0.579,0.295-1.778,0.412-3.603
				s0.215-4.473,0.293-7.942s0.119-8.229,0.119-14.282c0-4.36-0.021-7.807-0.059-10.343c-0.041-2.536-0.119-4.517-0.236-5.938
				c-0.117-1.423-0.314-2.469-0.588-3.137c-0.275-0.668-0.609-1.313-1-1.938c-0.629-0.977-1.295-1.668-2-2.067
				c-0.707-0.399-1.727-0.601-3.061-0.601c-1.412,0-2.588,0.312-3.529,0.934c-0.941,0.624-1.727,1.379-2.354,2.27
				c-0.471,0.711-0.883,1.559-1.234,2.535c-0.354,0.98-0.629,2.27-0.824,3.871c-0.197,1.602-0.334,3.629-0.412,6.074
				c-0.078,2.447-0.117,5.494-0.117,9.141c0,5.695,0,10.145,0,13.348c0,3.204,0.018,5.629,0.059,7.275
				c0.039,1.646,0.078,2.736,0.117,3.27c0.039,0.535,0.137,0.979,0.295,1.334c0.471,1.424,1.529,2.136,3.176,2.136h1.178v5.991
				h-21.885v-5.991h1.764c1.568,0,2.627-0.888,3.178-2.669c0.156-0.533,0.295-1.156,0.412-1.868s0.195-2.003,0.234-3.871
				s0.078-4.626,0.119-8.274c0.037-3.648,0.059-8.764,0.059-15.35c0-3.559,0-6.451,0-8.676s-0.041-3.959-0.119-5.205
				s-0.176-2.159-0.293-2.738c-0.117-0.578-0.295-1-0.529-1.268c-0.471-0.533-0.963-1.001-1.471-1.4
				c-0.512-0.399-1.236-0.602-2.178-0.602h-1.176v-5.99h3.176c1.568,0,2.863,0.111,3.883,0.332c1.02,0.223,1.883,0.6,2.59,1.132
				c0.705,0.532,1.313,1.198,1.822,1.997s1.039,1.73,1.59,2.796c0.783-1.242,1.568-2.33,2.354-3.262
				c0.783-0.933,1.686-1.731,2.705-2.396s2.215-1.175,3.588-1.53c1.373-0.354,3.002-0.533,4.885-0.533
				c3.215,0,5.744,0.756,7.588,2.264c1.842,1.51,3.313,3.373,4.412,5.591c1.49-2.483,3.275-4.414,5.354-5.791
				c2.078-1.375,4.961-2.063,8.648-2.063c3.295,0,6.061,0.624,8.295,1.868c2.236,1.246,4.061,2.848,5.471,4.803
				c1.412,1.958,2.412,4.114,3.002,6.472c0.588,2.359,0.881,4.604,0.881,6.737c0,8.628,0.02,15.39,0.061,20.282
				c0.037,4.893,0.098,8.607,0.176,11.141c0.078,2.535,0.176,4.204,0.295,5.005c0.117,0.801,0.215,1.333,0.293,1.6
				c0.313,0.979,1.334,1.469,3.061,1.469h1.293V262.969z"/>
			<path fill="#009BD0" d="M333.08,247.925c-2.982,10.917-8.904,16.374-17.768,16.374c-3.373,0-6.395-0.998-9.061-2.994
				c-2.668-1.998-4.902-4.681-6.707-8.055c-1.41-2.573-2.49-5.635-3.234-9.186c-0.746-3.549-1.119-7.766-1.119-12.648
				c0-6.656,0.568-12.025,1.707-16.107c1.137-4.082,2.725-7.456,4.766-10.119c1.803-2.307,3.861-4.147,6.178-5.524
				c2.313-1.375,4.803-2.063,7.471-2.063c5.412,0,9.666,1.559,12.766,4.67c3.098,3.114,4.648,7.828,4.648,14.143
				c0,1.336-0.117,2.514-0.354,3.537c-0.234,1.023-0.705,1.979-1.412,2.868c-0.705,0.89-1.668,1.735-2.883,2.534
				c-1.217,0.801-2.805,1.69-4.766,2.668l-15.883,8.005c0,3.56,0.057,6.474,0.174,8.741c0.117,2.267,0.293,4.091,0.527,5.469
				c0.234,1.379,0.525,2.469,0.879,3.27c0.352,0.801,0.723,1.469,1.113,2.001c1.561,2.047,3.318,3.068,5.27,3.068
				c3.982,0,7.203-1.175,9.664-3.528c2.459-2.351,4.078-4.992,4.861-7.921L333.08,247.925z M324.137,215.574
				c0-3.994-0.605-6.989-1.811-8.986c-1.207-1.997-3.525-2.996-6.951-2.996c-1.17,0-2.242,0.334-3.215,0.999
				c-0.975,0.665-1.85,1.531-2.627,2.597c-0.391,0.531-0.703,1.154-0.938,1.863c-0.232,0.711-0.445,1.843-0.641,3.395
				c-0.195,1.555-0.332,3.617-0.41,6.191s-0.115,5.947-0.115,10.117l13.67-6.391c1.088-0.442,1.867-1.175,2.336-2.196
				C323.902,219.148,324.137,217.617,324.137,215.574z"/>
		</g>
	</g>
</g>
<g id="topCenter" display="none">
	<g id="center-IS" display="inline">
		<g id="Top-Mini-Divider-2">
			
				<line fill="none" stroke="#009BD0" stroke-width="3" stroke-miterlimit="10" x1="220.312" y1="130.915" x2="266.312" y2="130.915"/>
			
				<line fill="none" stroke="#009BD0" stroke-width="3" stroke-miterlimit="10" x1="297.229" y1="130.915" x2="343.229" y2="130.915"/>
			<circle fill="#009BD0" cx="282.187" cy="131.915" r="10"/>
		</g>
		<g>
			<path fill="#009BD0" d="M175.829,150.192c-1.113,1.021-2.498,2.11-4.151,3.271c-1.655,1.16-3.44,2.227-5.358,3.201
				c-1.918,0.973-3.873,1.785-5.867,2.435c-1.995,0.649-3.89,0.974-5.683,0.974c-1.608,0-2.962-0.224-4.059-0.672
				c-1.099-0.448-1.987-1.074-2.667-1.879c-0.682-0.804-1.168-1.785-1.462-2.945s-0.44-2.436-0.44-3.827
				c0-1.948,0.225-4.214,0.673-6.796s0.997-5.257,1.646-8.025c0.649-2.767,1.337-5.526,2.064-8.279
				c0.726-2.752,1.368-5.288,1.925-7.607c0.216-0.804,0.649-1.492,1.299-2.064s1.384-1.036,2.203-1.392s1.67-0.619,2.552-0.789
				c0.881-0.169,1.677-0.255,2.389-0.255c1.299,0,2.181,0.24,2.644,0.719c0.465,0.48,0.696,1.122,0.696,1.925
				c0,0.681-0.155,1.663-0.464,2.945c-0.31,1.283-0.695,2.736-1.16,4.361c-0.463,1.623-0.959,3.37-1.484,5.24
				c-0.525,1.872-1.02,3.742-1.484,5.613c-0.463,1.871-0.851,3.695-1.159,5.475c-0.31,1.777-0.464,3.379-0.464,4.801
				c0,1.391,0.154,2.497,0.464,3.316c0.309,0.819,0.942,1.229,1.901,1.229c1.113,0,2.35-0.386,3.711-1.159
				c1.361-0.772,2.737-1.708,4.129-2.806s2.752-2.234,4.082-3.41c1.329-1.175,2.505-2.18,3.525-3.016V150.192z M155.095,102.507
				c0-0.711,0.154-1.515,0.463-2.412c0.309-0.896,0.813-1.74,1.508-2.528c0.696-0.789,1.624-1.454,2.783-1.995
				c1.16-0.541,2.605-0.812,4.338-0.812c1.082,0,2.102,0.124,3.061,0.371c0.959,0.248,1.793,0.626,2.506,1.137
				c0.711,0.51,1.275,1.183,1.692,2.018c0.418,0.835,0.626,1.825,0.626,2.969c0,1.052-0.17,2.072-0.51,3.062
				c-0.341,0.99-0.881,1.872-1.623,2.644c-0.742,0.773-1.678,1.399-2.807,1.878c-1.129,0.48-2.482,0.719-4.059,0.719
				c-2.723,0-4.732-0.642-6.031-1.925C155.743,106.35,155.095,104.641,155.095,102.507z"/>
			<path fill="#009BD0" d="M171.052,142.26c1.73-1.484,3.138-2.721,4.221-3.711c1.082-0.988,2.01-1.894,2.783-2.713
				c0.772-0.819,1.477-1.646,2.111-2.482c0.633-0.834,1.383-1.824,2.249-2.969c0.865-1.143,1.917-2.543,3.154-4.197
				c1.236-1.654,2.845-3.719,4.824-6.193c0.401-0.557,0.851-1.097,1.345-1.624c0.494-0.525,1.045-0.998,1.646-1.415
				c0.604-0.418,1.269-0.758,1.996-1.021c0.726-0.263,1.537-0.395,2.435-0.395c1.484,0,2.628,0.162,3.433,0.487
				c0.804,0.324,1.392,0.719,1.763,1.183s0.587,0.951,0.649,1.461c0.062,0.511,0.093,0.951,0.093,1.322
				c0,0.742-0.294,1.562-0.882,2.458c-0.588,0.897-1.236,1.763-1.947,2.598c-0.713,0.835-1.385,1.6-2.018,2.297
				c-0.635,0.695-0.998,1.213-1.091,1.553c0,0.959,0.069,1.832,0.208,2.621c0.141,0.789,0.326,1.563,0.557,2.32
				c0.232,0.758,0.472,1.561,0.72,2.412c0.247,0.85,0.487,1.832,0.72,2.945c0.23,1.113,0.416,2.396,0.557,3.85
				c0.139,1.454,0.208,3.17,0.208,5.148c1.113-0.742,2.312-1.414,3.595-2.018s2.621-1.229,4.013-1.879
				c1.392-0.648,2.821-1.367,4.29-2.156s2.946-1.74,4.431-2.854l0.046,10.391c-1.918,1.484-4.136,2.877-6.656,4.176
				s-5.164,2.443-7.932,3.432c-2.768,0.99-5.566,1.771-8.396,2.344c-2.83,0.571-5.513,0.857-8.048,0.857
				c-1.825,0-3.525-0.17-5.103-0.51s-2.961-0.874-4.152-1.602c-1.189-0.726-2.156-1.676-2.898-2.852s-1.191-2.598-1.346-4.268
				c-0.434,0.092-0.857,0.154-1.275,0.186s-0.828,0.046-1.229,0.046c-0.496,0-0.959-0.015-1.393-0.046s-0.805-0.146-1.113-0.348
				s-0.557-0.526-0.742-0.975s-0.277-1.09-0.277-1.926c0-0.742,0.186-1.43,0.557-2.064c0.371-0.633,0.803-1.197,1.299-1.692
				c0.494-0.494,0.988-0.928,1.484-1.299C170.433,142.771,170.804,142.477,171.052,142.26z M176.989,148.197
				c0.371,0,0.78,0.232,1.229,0.696s0.967,0.974,1.555,1.53c0.586,0.557,1.268,1.067,2.041,1.531
				c0.771,0.464,1.653,0.695,2.644,0.695c1.206,0,2.204-0.2,2.991-0.603c0.789-0.401,1.416-0.935,1.879-1.601
				c0.465-0.664,0.789-1.438,0.975-2.318c0.186-0.883,0.278-1.802,0.278-2.761c0-0.835-0.054-1.685-0.163-2.552
				c-0.107-0.865-0.247-1.693-0.416-2.48c-0.171-0.789-0.356-1.531-0.557-2.227c-0.202-0.697-0.38-1.291-0.534-1.787
				L176.989,148.197z"/>
		</g>
		<g id="Top-Mini-Divider-1">
			
				<line fill="none" stroke="#009BD0" stroke-width="3" stroke-miterlimit="10" x1="18.771" y1="129.915" x2="64.771" y2="129.915"/>
			
				<line fill="none" stroke="#009BD0" stroke-width="3" stroke-miterlimit="10" x1="95.688" y1="129.915" x2="141.688" y2="129.915"/>
			<circle fill="#009BD0" cx="80.646" cy="130.915" r="10"/>
		</g>
	</g>
</g>
<g id="topRight">
	<g id="topRight_1_">
		<g>
			<path fill="#009BD0" d="M30.539,119.843C20.18,119.843,15,103.503,15,70.824h11.375v6.127c0,9.533,0.919,14.297,2.757,14.297
				h5.629c1.837,0,2.756-4.765,2.756-14.297V1.38h11.375v71.487c0,31.318-5.18,46.977-15.538,46.977H30.539z"/>
			<path fill="#009BD0" d="M76.51,1.38c10.358,0,15.538,15.66,15.538,46.977v24.51c0,31.318-5.18,46.977-15.538,46.977h-5.629
				c-10.359,0-15.539-15.658-15.539-46.977v-24.51c0-31.317,5.18-46.977,15.539-46.977H76.51z M77.917,29.975h-8.443
				c-1.838,0-2.757,4.766-2.757,14.297v32.679c0,9.533,0.919,14.297,2.757,14.297h8.443c1.837,0,2.756-4.765,2.756-14.297V44.272
				C80.673,34.741,79.754,29.975,77.917,29.975z"/>
			<path fill="#009BD0" d="M109.873,50.297v69.546H98.498V1.38h16.77l8.562,69.546V1.38h11.375v118.463h-16.77L109.873,50.297z"/>
			<path fill="#009BD0" d="M155.434,103.503l-1.642,16.34h-12.138L153.323,1.38h15.245l11.669,118.463H168.1l-1.643-16.34H155.434z
				 M163.701,74.909l-2.756-27.981l-2.756,27.981H163.701z"/>
			<path fill="#009BD0" d="M207.444,119.843h-11.376V29.975h-9.851V1.38h31.077v28.595h-9.851V119.843z"/>
			<path fill="#009BD0" d="M235.12,74.909v44.935h-11.375V1.38h11.375v44.935h13.956V1.38h11.375v118.463h-11.375V74.909H235.12z"/>
			<path fill="#009BD0" d="M288.069,1.38c10.358,0,15.538,15.66,15.538,46.977v24.51c0,31.318-5.18,46.977-15.538,46.977h-5.629
				c-10.359,0-15.539-15.658-15.539-46.977v-24.51c0-31.317,5.18-46.977,15.539-46.977H288.069z M289.477,29.975h-8.443
				c-1.838,0-2.757,4.766-2.757,14.297v32.679c0,9.533,0.919,14.297,2.757,14.297h8.443c1.837,0,2.756-4.765,2.756-14.297V44.272
				C292.232,34.741,291.313,29.975,289.477,29.975z"/>
			<path fill="#009BD0" d="M321.433,50.297v69.546h-11.375V1.38h16.77l8.562,69.546V1.38h11.375v118.463h-16.77L321.433,50.297z"/>
		</g>
		<g>
			<path fill="#009BD0" d="M36.59,263.637c-14.349,0-21.522-18.984-21.522-56.953h14.687v7.119c0,11.074,1.603,16.611,4.811,16.611
				h8.103c3.207,0,4.811-5.537,4.811-16.611v-87.804h14.687v83.058c0,36.387-7.175,54.58-21.522,54.58H36.59z"/>
			<path fill="#009BD0" d="M85.813,244.652l-2.329,18.984h-15.75l16.763-137.638h20.256l16.813,137.638h-15.8l-2.33-18.984H85.813z
				 M99.436,211.43l-4.811-39.274l-4.76,39.274H99.436z"/>
			<path fill="#009BD0" d="M158.13,159.222h-12.154c-3.208,0-4.811,5.538-4.811,16.612v37.969c0,11.074,1.603,16.611,4.811,16.611
				h12.154c2.97,0,4.574-5.537,4.811-16.611h14.636c-0.946,33.223-8.103,49.834-21.473,49.834h-8.103
				c-14.349,0-21.522-18.193-21.522-54.58V180.58c0-36.387,7.174-54.581,21.522-54.581h8.103c13.37,0,20.526,16.611,21.473,49.835
				H162.94C162.704,164.76,161.1,159.222,158.13,159.222z"/>
			<path fill="#009BD0" d="M212.822,125.999c14.349,0,21.523,18.194,21.523,54.581v28.477c0,36.387-7.175,54.58-21.523,54.58h-8.103
				c-14.349,0-21.522-18.193-21.522-54.58V180.58c0-36.387,7.174-54.581,21.522-54.581H212.822z M214.849,159.222h-12.154
				c-3.208,0-4.811,5.538-4.811,16.612v37.969c0,11.074,1.603,16.611,4.811,16.611h12.154c3.207,0,4.811-5.537,4.811-16.611v-37.969
				C219.659,164.76,218.056,159.222,214.849,159.222z"/>
			<path fill="#009BD0" d="M239.916,125.999h31.651c12.997,0,19.497,14.238,19.497,42.716c0,11.313-0.93,20.013-2.786,26.104
				c1.856,6.092,2.786,14.792,2.786,26.104c0,28.477-6.5,42.715-19.497,42.715h-31.651V125.999z M271.567,178.207
				c3.207,0,4.811-3.164,4.811-9.492s-1.604-9.493-4.811-9.493h-16.965v18.985H271.567z M271.567,211.43l-16.965,0.118v18.866
				h16.965c3.207,0,4.811-3.164,4.811-9.492S274.774,211.43,271.567,211.43z"/>
			<path fill="#009BD0" d="M296.635,168.715c0-28.478,7.174-42.716,21.522-42.716h8.103c13.37,0,20.543,16.611,21.523,49.835
				h-14.687c-0.236-11.074-1.841-16.612-4.811-16.612h-12.154c-3.208,0-4.811,3.165-4.811,9.493s1.586,9.492,4.76,9.492h10.128
				c14.383,0,21.574,14.238,21.574,42.715s-7.175,42.715-21.523,42.715h-8.103c-13.369,0-20.527-16.611-21.472-49.834h14.636
				c0.235,11.074,1.839,16.611,4.811,16.611h12.154c3.207,0,4.811-3.164,4.811-9.492v-0.238c0-6.17-1.62-9.254-4.861-9.254h-10.129
				C303.792,211.43,296.635,197.191,296.635,168.715z"/>
		</g>
	</g>
</g>
</svg>
