<?xml version="1.0" encoding="utf-8"?>
<!-- Generator: Adobe Illustrator 16.0.0, SVG Export Plug-In . SVG Version: 6.00 Build 0)  -->
<!DOCTYPE svg PUBLIC "-//W3C//DTD SVG 1.1//EN" "http://www.w3.org/Graphics/SVG/1.1/DTD/svg11.dtd">
<svg version="1.1" xmlns="http://www.w3.org/2000/svg" xmlns:xlink="http://www.w3.org/1999/xlink" x="0px" y="0px" width="100%"
	 height="100%" viewBox="0 0 470 151.314" enable-background="new 0 0 470 151.314" xml:space="preserve">
<g id="background" display="none">
	<rect x="-25" y="-30" display="inline" fill="#222222" width="522" height="227"/>
</g>
<g id="Layer_2">
	<rect x="311" y="106" fill="#222222" width="21" height="39"/>
	<rect x="105" y="9" fill="#222222" width="164" height="111"/>
	<rect x="235" y="57" fill="#222222" width="64" height="87"/>
	<g>
		<path fill-rule="evenodd" clip-rule="evenodd" fill="#E74D25" d="M230.675,126.241c-7.564,0-14.88,0-22.479,0
			c0.86,5.323,1.703,10.545,2.548,15.778c2.51,0.64,4.878,1.243,7.213,1.839c0.35,0.771,0.292,1.459,0.087,2.233
			c-19.935,0-39.849,0-59.852,0c0-0.734,0-1.423,0-2.224c2.384-0.611,4.747-1.217,7.255-1.86c0.843-5.193,1.684-10.38,2.521-15.536
			c-0.798-0.478-1.534-0.279-2.23-0.28c-19.641-0.012-39.281-0.01-58.922-0.01c-0.42,0-0.841,0.008-1.261-0.001
			c-3.331-0.07-5.064-1.831-5.065-5.167c-0.002-17.058-0.001-34.115-0.001-51.173c0-19.821,0.051-39.642-0.059-59.462
			c-0.015-2.782,2.121-5.208,5.27-5.203c54.897,0.078,109.795,0.056,164.693,0.056c3.698,0,5.338,1.648,5.34,5.403
			c0.006,12.854,0,25.707,0.011,38.561c0.001,0.642-0.161,1.312,0.169,1.942c0.637,0.321,1.307,0.164,1.949,0.165
			c7.447,0.013,14.895,0.006,22.343,0.009c2.716,0.001,3.638,0.84,3.639,3.476c0.012,29.311,0.012,58.622,0,87.932
			c-0.001,2.567-0.938,3.452-3.483,3.453c-22.043,0.002-44.086,0.002-66.13,0c-2.633,0-3.545-0.912-3.552-3.579
			c-0.011-4.805-0.003-9.61-0.003-14.415C230.675,127.589,230.675,126.999,230.675,126.241z M110.542,14.761
			c0,29.405,0,58.726,0,88.042c40.101,0,80.075,0,120.133,0c0-0.769,0-1.423,0-2.078c0-15.197-0.002-30.395,0.001-45.593
			c0-2.997,0.839-3.821,3.859-3.821c9.671-0.002,19.342,0.004,29.014-0.012c0.629-0.001,1.322,0.232,1.874-0.259
			c0-12.082,0-24.132,0-36.28C213.759,14.761,162.192,14.761,110.542,14.761z M295.785,135.418c0-25.475,0-50.84,0-76.172
			c-19.092,0-38.049,0-57.09,0c0,25.428,0,50.746,0,76.172C257.74,135.418,276.697,135.418,295.785,135.418z M188.119,110.909
			c-2.069-0.021-3.919,1.8-3.938,3.877c-0.019,2.059,1.815,3.908,3.895,3.929c2.059,0.02,3.892-1.806,3.91-3.893
			C192.003,112.725,190.231,110.932,188.119,110.909z M267.24,142.974c1.09,0.025,2.117-0.907,2.194-1.992
			c0.077-1.082-1.009-2.259-2.115-2.29c-1.075-0.031-2.081,0.915-2.149,2.021C265.097,141.909,266.046,142.945,267.24,142.974z"/>
		<path fill-rule="evenodd" clip-rule="evenodd" fill="#E74D25" d="M333.35,123.887c0,6.239,0.001,12.479-0.001,18.719
			c-0.001,2.751-0.794,3.565-3.479,3.567c-5.34,0.004-10.68,0.006-16.02-0.001c-2.431-0.003-3.392-0.901-3.396-3.352
			c-0.021-12.6-0.021-25.199,0.002-37.799c0.005-2.337,0.965-3.339,3.269-3.36c5.459-0.052,10.919-0.05,16.379-0.003
			c2.33,0.02,3.239,1.02,3.242,3.329C333.354,111.287,333.35,117.587,333.35,123.887z M330.782,108.475c-5.977,0-11.774,0-17.663,0
			c0,10.064,0,20.041,0,29.996c5.97,0,11.814,0,17.663,0C330.782,128.437,330.782,118.535,330.782,108.475z M320.09,142.279
			c-0.027,2.471,3.66,2.471,3.677,0.141C323.719,139.969,320.188,139.969,320.09,142.279z"/>
		<path fill-rule="evenodd" clip-rule="evenodd" fill="#009BD0" d="M224.135,78.992c-35.133,0-69.998,0-105.054,0
			c0-3.607,0-7.103,0-10.813c34.913,0,69.819,0,105.054,0c0,1.685,0,3.457,0,5.229C224.135,75.204,224.135,76.999,224.135,78.992z"
			/>
		<path fill-rule="evenodd" clip-rule="evenodd" fill="#009BD0" d="M119.314,62.013c0-3.574,0-6.978,0-10.515
			c34.9,0,69.704,0,104.664,0c0,3.454,0,6.901,0,10.515C189.164,62.013,154.317,62.013,119.314,62.013z"/>
		<path fill-rule="evenodd" clip-rule="evenodd" fill="#009BD0" d="M156.305,23.417c0,3.688,0,7.208,0,10.869
			c-12.41,0-24.728,0-37.237,0c0-3.632,0-7.169,0-10.869C131.494,23.417,143.81,23.417,156.305,23.417z"/>
		<path fill-rule="evenodd" clip-rule="evenodd" fill="#009BD0" d="M149.825,85.053c0,3.555,0,6.961,0,10.529
			c-10.276,0-20.486,0-30.866,0c-0.135-3.491-0.132-6.927-0.006-10.529C129.313,85.053,139.47,85.053,149.825,85.053z"/>
		<path fill-rule="evenodd" clip-rule="evenodd" fill="#009BD0" d="M186.851,95.674c-10.154,0-20.166,0-30.353,0
			c0-3.532,0-7.024,0-10.653c10.071,0,20.125,0,30.353,0C186.851,88.488,186.851,91.979,186.851,95.674z"/>
		<path fill-rule="evenodd" clip-rule="evenodd" fill="#009BD0" d="M224.111,95.677c-10.303,0-20.317,0-30.495,0
			c0-3.558,0-7.049,0-10.667c10.105,0,20.162,0,30.442,0C224.266,88.51,224.163,92.002,224.111,95.677z"/>
		<path fill-rule="evenodd" clip-rule="evenodd" fill="#009BD0" d="M245.494,34.238c0-3.685,0-7.203,0-10.843
			c3.731,0,7.357,0,11.203,0c0,3.596,0,7.129,0,10.843C252.977,34.238,249.307,34.238,245.494,34.238z"/>
		<path fill-rule="evenodd" clip-rule="evenodd" fill="#009BD0" d="M244.452,113.479c15.322,0,30.538,0,45.854,0
			c0.249,1.989,0.146,3.874,0.072,5.891c-15.342,0-30.558,0-45.926,0C244.452,117.467,244.452,115.583,244.452,113.479z"/>
		<path fill-rule="evenodd" clip-rule="evenodd" fill="#009BD0" d="M290.412,79.279c0.015,2.034,0.138,3.878-0.094,5.841
			c-15.287,0-30.5,0-45.867,0c0-1.911,0-3.794,0-5.841C259.695,79.279,274.952,79.279,290.412,79.279z"/>
		<path fill-rule="evenodd" clip-rule="evenodd" fill="#009BD0" d="M290.347,88.66c0,2.027,0,3.868,0,5.838
			c-15.313,0-30.527,0-45.896,0c0-1.905,0-3.79,0-5.838C259.69,88.66,274.949,88.66,290.347,88.66z"/>
		<path fill-rule="evenodd" clip-rule="evenodd" fill="#009BD0" d="M290.346,122.912c0,2.026,0,3.867,0,5.837
			c-15.313,0-30.526,0-45.894,0c0-1.905,0-3.789,0-5.837C259.691,122.912,274.949,122.912,290.346,122.912z"/>
		<path fill-rule="evenodd" clip-rule="evenodd" fill="#009BD0" d="M290.322,109.326c-4.489,0-8.891,0-13.436,0
			c0-3.79,0-7.519,0-11.363c4.49,0,8.893,0,13.436,0C290.322,101.752,290.322,105.48,290.322,109.326z"/>
		<path fill-rule="evenodd" clip-rule="evenodd" fill="#009BD0" d="M257.523,109.368c-4.514,0-8.876,0-13.402,0
			c0-3.786,0-7.516,0-11.384c4.43,0,8.833,0,13.402,0C257.523,101.708,257.523,105.437,257.523,109.368z"/>
		<path fill-rule="evenodd" clip-rule="evenodd" fill="#009BD0" d="M260.571,109.267c0-3.787,0-7.432,0-11.247
			c4.487,0,8.935,0,13.521,0c0,3.698,0,7.384,0,11.247C269.662,109.267,265.219,109.267,260.571,109.267z"/>
		<path fill-rule="evenodd" clip-rule="evenodd" fill="#009BD0" d="M244.087,71.392c-0.185-2.004-0.228-3.819,0.026-5.796
			c7.238,0,14.34,0,21.636,0c0.341,1.91,0.249,3.769,0.063,5.796C258.561,71.392,251.458,71.392,244.087,71.392z"/>
		<path fill-rule="evenodd" clip-rule="evenodd" fill="#009BD0" d="M290.302,65.614c0.221,1.974,0.216,3.782,0.003,5.759
			c-3.746,0-7.354,0-11.144,0c-0.466-1.877-0.161-3.735-0.196-5.759C282.813,65.614,286.421,65.614,290.302,65.614z"/>
		<path fill-rule="evenodd" clip-rule="evenodd" fill="#009BD0" d="M329.259,131.657c-2.229,0-4.347,0-6.6,0c0-2.32,0-4.56,0-6.975
			c2.142,0,4.302,0,6.6,0C329.259,126.939,329.259,129.18,329.259,131.657z"/>
		<polygon fill-rule="evenodd" clip-rule="evenodd" fill="#009BD0" points="314.766,124.323 321.295,124.323 321.295,131.291 
			314.766,131.291 314.766,124.323 		"/>
		<rect x="314.766" y="120.719" fill-rule="evenodd" clip-rule="evenodd" fill="#009BD0" width="14.308" height="2.189"/>
		<rect x="314.766" y="116.773" fill-rule="evenodd" clip-rule="evenodd" fill="#009BD0" width="14.33" height="2.247"/>
		<rect x="314.766" y="133.326" fill-rule="evenodd" clip-rule="evenodd" fill="#009BD0" width="14.308" height="2.28"/>
		<path fill-rule="evenodd" clip-rule="evenodd" fill="#009BD0" d="M322.672,111.326v2.415h-7.906l0.02-2.415
			C317.364,111.326,319.963,111.326,322.672,111.326z"/>
		<polygon fill-rule="evenodd" clip-rule="evenodd" fill="#009BD0" points="325.617,111.302 329.132,111.309 329.132,113.741 
			325.617,113.741 		"/>
	</g>
</g>
<g id="Layer_1">
	<g>
		<path fill="#009BD0" d="M325.854,81.906h-3.045l-5.527-21.213h3.103l3.954,17.259h0.072l4.748-17.259h3.132l4.762,17.259h0.058
			l3.969-17.259h3.189l-5.614,21.213h-2.987l-4.849-17.591h-0.058L325.854,81.906z"/>
		<path fill="#009BD0" d="M362.884,81.906h-15.657V60.692h15.455v2.54h-12.583v6.494H361.7v2.54h-11.602v7.1h12.785V81.906z"/>
		<path fill="#009BD0" d="M366.434,60.692h9.308c1.828,0,3.285,0.496,4.373,1.487c1.087,0.991,1.63,2.275,1.63,3.853
			c0,0.953-0.237,1.821-0.714,2.605s-1.186,1.393-2.129,1.826c1.323,0.5,2.296,1.164,2.919,1.991
			c0.623,0.828,0.935,1.891,0.935,3.189c0,1.828-0.66,3.328-1.979,4.502c-1.319,1.174-3.063,1.761-5.229,1.761h-9.114V60.692z
			 M369.262,69.668h5.21c1.52,0,2.634-0.276,3.341-0.83s1.061-1.417,1.061-2.59c0-1.01-0.335-1.78-1.003-2.309
			c-0.669-0.529-1.792-0.793-3.37-0.793h-5.238V69.668z M369.262,79.453h6.119c1.501,0,2.626-0.349,3.377-1.046
			c0.75-0.698,1.125-1.638,1.125-2.822c0-1.202-0.418-2.1-1.255-2.691c-0.837-0.591-2.073-0.887-3.709-0.887h-5.657V79.453z"/>
		<path fill="#009BD0" d="M398.787,66.898c-0.058-1.347-0.561-2.403-1.508-3.167c-0.948-0.765-2.196-1.147-3.745-1.147
			c-1.559,0-2.756,0.32-3.593,0.959c-0.837,0.64-1.256,1.561-1.256,2.764c0,0.645,0.183,1.198,0.549,1.66
			c0.365,0.461,1.02,0.803,1.962,1.024l6.062,1.385c1.635,0.356,2.847,1.032,3.636,2.028c0.789,0.996,1.184,2.21,1.184,3.644
			c0,2.097-0.77,3.692-2.309,4.784c-1.54,1.092-3.541,1.638-6.003,1.638c-1.877,0-3.355-0.24-4.438-0.722
			c-1.083-0.48-2.042-1.245-2.879-2.294c-0.838-1.049-1.256-2.516-1.256-4.401h2.684c0,1.578,0.524,2.8,1.573,3.665
			c1.049,0.866,2.478,1.299,4.286,1.299c1.751,0,3.114-0.311,4.091-0.931s1.465-1.503,1.465-2.648c0-1.039-0.291-1.816-0.873-2.331
			s-1.72-0.969-3.413-1.364l-4.574-1.068c-1.521-0.346-2.655-0.95-3.405-1.811c-0.751-0.861-1.126-1.921-1.126-3.182
			c0-1.905,0.643-3.473,1.927-4.704s3.076-1.847,5.375-1.847c2.598,0,4.602,0.541,6.011,1.624c1.409,1.082,2.167,2.797,2.272,5.145
			H398.787z"/>
		<path fill="#009BD0" d="M408.73,81.906h-2.872V60.692h2.872V81.906z"/>
		<path fill="#009BD0" d="M418.586,63.232h-7.144v-2.54h17.23v2.54h-7.215v18.673h-2.872V63.232z"/>
		<path fill="#009BD0" d="M447.087,81.906H431.43V60.692h15.455v2.54h-12.583v6.494h11.602v2.54h-11.602v7.1h12.785V81.906z"/>
		<path fill="#009BD0" d="M463.134,66.898c-0.058-1.347-0.561-2.403-1.508-3.167c-0.948-0.765-2.196-1.147-3.745-1.147
			c-1.559,0-2.756,0.32-3.593,0.959c-0.837,0.64-1.256,1.561-1.256,2.764c0,0.645,0.183,1.198,0.549,1.66
			c0.365,0.461,1.02,0.803,1.962,1.024l6.062,1.385c1.635,0.356,2.847,1.032,3.636,2.028c0.789,0.996,1.184,2.21,1.184,3.644
			c0,2.097-0.77,3.692-2.309,4.784c-1.54,1.092-3.541,1.638-6.003,1.638c-1.877,0-3.355-0.24-4.438-0.722
			c-1.083-0.48-2.042-1.245-2.879-2.294c-0.838-1.049-1.256-2.516-1.256-4.401h2.684c0,1.578,0.524,2.8,1.573,3.665
			c1.049,0.866,2.478,1.299,4.286,1.299c1.751,0,3.114-0.311,4.091-0.931s1.465-1.503,1.465-2.648c0-1.039-0.291-1.816-0.873-2.331
			s-1.72-0.969-3.413-1.364l-4.574-1.068c-1.521-0.346-2.655-0.95-3.405-1.811c-0.751-0.861-1.126-1.921-1.126-3.182
			c0-1.905,0.643-3.473,1.927-4.704s3.076-1.847,5.375-1.847c2.598,0,4.602,0.541,6.011,1.624c1.409,1.082,2.167,2.797,2.272,5.145
			H463.134z"/>
	</g>
</g>
<g id="arrow">
	<g id="Arrow">
		<polyline fill="#009BD0" points="5,110.476 29.422,74.069 5,37.451 45.603,37.557 70.124,73.963 45.603,110.577 		"/>
		<polygon fill="#009BD0" points="53.742,37.451 78.163,74.069 53.844,110.476 62.143,110.58 86.507,73.963 62.28,37.557 		"/>
	</g>
</g>
</svg>
